<svg width="168" height="110" fill="none" xmlns="http://www.w3.org/2000/svg"><circle cx="86.788" cy="55.403" r="53.735" fill="#23262E"/><mask id="server-error-a" style="mask-type:alpha" maskUnits="userSpaceOnUse" x="33" y="1" width="108" height="109"><circle cx="86.788" cy="55.403" r="53.735" fill="#23262E"/></mask><g mask="url(#server-error-a)"><rect x="49.741" y="28.35" width="70.412" height="25.941" rx="4.447" fill="#55565B"/><rect x="49.741" y="28.35" width="70.412" height="22.235" rx="4.447" fill="#939498"/><rect x="49.739" y="32.056" width="70.412" height="18.529" rx="1.482" fill="#76777B"/><rect x="66.045" y="28.35" width="54.106" height="25.941" rx="4.447" fill="#C4C4C4"/><g clip-path="url(#server-error-b)" stroke="#23262E" stroke-width="1.482" stroke-linecap="round" stroke-linejoin="round"><path d="M78.386 38.009v7.553m-3.776-3.776h7.553"/></g><g clip-path="url(#server-error-c)" stroke="#23262E" stroke-width="1.482" stroke-linecap="round" stroke-linejoin="round"><path d="M107.575 38.01v7.553m-3.777-3.777h7.553"/></g><rect x="49.741" y="57.256" width="70.412" height="25.941" rx="4.447" fill="#55565B"/><rect x="49.741" y="57.256" width="70.412" height="22.235" rx="4.447" fill="#939498"/><rect x="49.739" y="60.962" width="70.412" height="18.529" rx="1.482" fill="#76777B"/><rect x="66.045" y="57.256" width="54.106" height="25.941" rx="4.447" fill="#C4C4C4"/><g clip-path="url(#server-error-d)" stroke="#23262E" stroke-width="1.482" stroke-linecap="round" stroke-linejoin="round"><path d="M78.386 66.915v7.554m-3.776-3.777h7.553"/></g><g clip-path="url(#server-error-e)" stroke="#23262E" stroke-width="1.482" stroke-linecap="round" stroke-linejoin="round"><path d="M107.575 66.916v7.553m-3.777-3.777h7.553"/></g><rect x="49.741" y="86.162" width="70.412" height="25.941" rx="4.447" fill="#55565B"/><rect x="49.741" y="86.162" width="70.412" height="22.235" rx="4.447" fill="#939498"/><rect x="49.739" y="89.868" width="70.412" height="18.529" rx="1.482" fill="#76777B"/><rect x="66.045" y="86.162" width="54.106" height="25.941" rx="4.447" fill="#C4C4C4"/><g clip-path="url(#server-error-f)" stroke="#23262E" stroke-width="1.482" stroke-linecap="round" stroke-linejoin="round"><path d="M78.386 95.82v7.554m-3.776-3.776h7.553"/></g><g clip-path="url(#server-error-g)" stroke="#23262E" stroke-width="1.482" stroke-linecap="round" stroke-linejoin="round"><path d="M107.575 95.821v7.554m-3.777-3.777h7.553"/></g></g><path d="M8.21 8.667c4.332-.872 11.58.062 8.65 6.33-.306.654-2.314 4.024-3.34 3.014-1.29-1.272-1.731-1.67-.337-2.976 1.98-1.856 6.575-2.708 8.792-.505m144.172 74.499c-4.332.872-11.58-.062-8.65-6.33.306-.654 2.314-4.024 3.34-3.014 1.291 1.272 1.732 1.67.338 2.976-1.981 1.856-6.575 2.708-8.793.505" stroke="#33CB9A" stroke-width="2.224" stroke-linecap="round" stroke-linejoin="round"/><g clip-path="url(#server-error-h)"><path d="M12.01 82.666 7.867 89.18l-1.354-4.236-3.615 1.674 4.143-6.512 1.354 4.236 3.615-1.674Z" fill="#33CB9A" stroke="#33CB9A" stroke-width=".988" stroke-linecap="round" stroke-linejoin="round"/></g><g clip-path="url(#server-error-i)"><path d="m149.905.988-4.941 5.93h4.447l-.494 3.953 4.941-5.93h-4.447l.494-3.953Z" fill="#33CB9A" stroke="#33CB9A" stroke-width=".988" stroke-linecap="round" stroke-linejoin="round"/></g><defs><clipPath id="server-error-b"><path fill="#fff" transform="rotate(-45 85.856 -64.609)" d="M0 0h10.682v10.682H0z"/></clipPath><clipPath id="server-error-c"><path fill="#fff" transform="rotate(-45 100.45 -99.843)" d="M0 0h10.682v10.682H0z"/></clipPath><clipPath id="server-error-d"><path fill="#fff" transform="rotate(-45 120.75 -50.156)" d="M0 0h10.682v10.682H0z"/></clipPath><clipPath id="server-error-e"><path fill="#fff" transform="rotate(-45 135.344 -85.39)" d="M0 0h10.682v10.682H0z"/></clipPath><clipPath id="server-error-f"><path fill="#fff" transform="rotate(-45 155.642 -35.703)" d="M0 0h10.682v10.682H0z"/></clipPath><clipPath id="server-error-g"><path fill="#fff" transform="rotate(-45 170.236 -70.937)" d="M0 0h10.682v10.682H0z"/></clipPath><clipPath id="server-error-h"><path fill="#fff" transform="scale(-1 1) rotate(-72.272 53.138 54.45)" d="M0 0h11.859v11.859H0z"/></clipPath><clipPath id="server-error-i"><path fill="#fff" transform="translate(143.481)" d="M0 0h11.859v11.859H0z"/></clipPath></defs></svg>