<svg xmlns="http://www.w3.org/2000/svg" fill="none" viewBox="0 0 1170 151"><g clip-path="url(#a)"><circle cx="673.5" cy="297.5" r="646.5" stroke="#21242C" stroke-opacity=".8" stroke-width="4"/><circle cx="673.5" cy="297.5" r="503.5" stroke="#21242C" stroke-opacity=".8" stroke-width="4"/><circle cx="673" cy="297" r="346" stroke="#21242C" stroke-opacity=".8" stroke-width="4"/><circle cx="673.5" cy="297.5" r="212.5" stroke="#21242C" stroke-opacity=".8" stroke-width="4"/><g filter="url(#b)"><ellipse cx="666" cy="93.781" fill="#23262E" rx="25" ry="25.781" transform="rotate(-180 666 93.781)"/></g><path fill="url(#c)" fill-rule="evenodd" d="m672.101 96.895-14.859 8.848 19.239-1.309 1.482-19.454-5.862 11.915Z" clip-rule="evenodd"/><path fill="url(#d)" fill-rule="evenodd" d="m676.512 104.42-1.653-11.445-4.505 5.964 6.158 5.481Z" clip-rule="evenodd"/><path fill="url(#e)" fill-rule="evenodd" d="m676.535 104.421-12.115-.953-7.114 2.251 19.229-1.298Z" clip-rule="evenodd"/><path fill="url(#f)" fill-rule="evenodd" d="m657.323 105.72 3.027-9.942-6.66 1.428 3.633 8.514Z" clip-rule="evenodd"/><path fill="url(#g)" fill-rule="evenodd" d="m670.353 98.973-2.785-10.938-7.969 7.49 10.754 3.448Z" clip-rule="evenodd"/><path fill="url(#h)" fill-rule="evenodd" d="m677.331 88.19-7.533-6.17-2.098 6.8 9.631-.63Z" clip-rule="evenodd"/><path fill="url(#i)" fill-rule="evenodd" d="m673.808 79.818-4.431 2.455-2.795-2.488 7.226.033Z" clip-rule="evenodd"/><path fill="url(#j)" fill-rule="evenodd" d="m651.938 100.542 1.856-3.394-1.502-4.044-.354 7.438Z" clip-rule="evenodd"/><path fill="#fff" fill-rule="evenodd" d="m652.192 92.977 1.51 4.296 6.564-1.477 7.494-6.983 2.115-6.736-3.33-2.358-5.661 2.124c-1.784 1.664-5.245 4.956-5.37 5.018-.124.063-2.286 4.16-3.322 6.115Z" clip-rule="evenodd"/><path fill="url(#k)" fill-rule="evenodd" d="M657.497 85.255c3.865-3.843 8.849-6.114 10.762-4.18 1.911 1.936-.116 6.638-3.982 10.48-3.866 3.843-8.788 6.239-10.699 4.304-1.912-1.934.053-6.762 3.919-10.604Z" clip-rule="evenodd"/><path fill="url(#l)" fill-rule="evenodd" d="m657.323 105.717 3.003-9.974 9.972 3.213c-3.606 3.391-7.616 6.257-12.975 6.761Z" clip-rule="evenodd"/><path fill="url(#m)" fill-rule="evenodd" d="m667.774 88.792 2.56 10.169c3.012-3.176 5.715-6.59 7.039-10.813l-9.599.644Z" clip-rule="evenodd"/><path fill="url(#n)" fill-rule="evenodd" d="M677.347 88.2c1.025-3.1 1.261-7.549-3.57-8.374l-3.965 2.195 7.535 6.18Z" clip-rule="evenodd"/><path fill="#9E1209" fill-rule="evenodd" d="M651.938 100.497c.141 5.118 3.823 5.194 5.392 5.239l-3.623-8.484-1.769 3.245Z" clip-rule="evenodd"/><path fill="url(#o)" fill-rule="evenodd" d="M667.788 88.808c2.315 1.426 6.979 4.291 7.074 4.344.147.083 2.011-3.152 2.434-4.98l-9.508.636Z" clip-rule="evenodd"/><path fill="url(#p)" fill-rule="evenodd" d="m660.322 95.743 4.014 7.767c2.374-1.291 4.232-2.864 5.935-4.549l-9.949-3.218Z" clip-rule="evenodd"/><path fill="url(#q)" fill-rule="evenodd" d="m653.691 97.262-.568 6.791c1.073 1.471 2.549 1.598 4.098 1.484-1.121-2.797-3.359-8.388-3.53-8.275Z" clip-rule="evenodd"/><path fill="url(#r)" fill-rule="evenodd" d="m669.789 82.038 7.974 1.122c-.425-1.808-1.732-2.975-3.96-3.34l-4.014 2.218Z" clip-rule="evenodd"/><g filter="url(#s)"><ellipse cx="901.5" cy="35.737" fill="#23262E" rx="13.5" ry="13.737" transform="rotate(-180 901.5 35.737)"/></g><path fill="#00ACD7" d="M891.575 33.983c-.044 0-.055-.021-.033-.054l.228-.292c.021-.032.076-.054.119-.054h3.87c.043 0 .054.033.032.065l-.184.281c-.022.032-.076.065-.108.065l-3.924-.01Zm-1.637.994c-.043 0-.054-.022-.033-.054l.228-.292c.022-.033.076-.054.119-.054h4.943c.043 0 .065.032.054.065l-.086.259c-.011.043-.055.065-.098.065l-5.127.01Zm2.623.993c-.043 0-.054-.032-.033-.065l.152-.27c.022-.032.065-.064.109-.064h2.167c.044 0 .066.032.066.075l-.022.26c0 .043-.044.075-.076.075l-2.363-.01Zm11.252-2.18c-.683.172-1.149.302-1.821.475-.163.043-.173.054-.314-.108-.163-.184-.282-.303-.51-.411-.683-.335-1.344-.238-1.962.162-.737.475-1.116 1.178-1.105 2.053.01.864.607 1.577 1.463 1.696.737.097 1.355-.162 1.843-.713.097-.12.184-.249.292-.4h-2.092c-.227 0-.282-.14-.206-.324.141-.335.401-.897.553-1.178a.294.294 0 0 1 .271-.172h3.946c-.022.291-.022.583-.065.875a4.607 4.607 0 0 1-.889 2.117c-.781 1.026-1.8 1.664-3.089 1.837-1.063.14-2.049-.065-2.916-.713-.802-.605-1.258-1.405-1.377-2.399-.141-1.177.206-2.236.921-3.165.77-1.005 1.789-1.642 3.036-1.869 1.018-.184 1.994-.065 2.872.53.575.377.986.896 1.257 1.523.065.097.022.15-.108.183Z"/><path fill="#00ACD7" d="M907.401 39.763c-.987-.022-1.886-.303-2.645-.951a3.383 3.383 0 0 1-1.171-2.085c-.195-1.22.141-2.301.878-3.263.792-1.037 1.746-1.577 3.035-1.804 1.106-.194 2.147-.086 3.09.551.856.584 1.387 1.372 1.528 2.41.184 1.458-.238 2.646-1.246 3.661-.716.724-1.594 1.178-2.602 1.383-.293.054-.585.065-.867.098Zm2.58-4.365c-.011-.14-.011-.248-.033-.356-.195-1.07-1.181-1.675-2.211-1.437-1.008.227-1.659.864-1.897 1.88a1.778 1.778 0 0 0 .997 2.041c.596.26 1.193.227 1.767-.065.856-.442 1.322-1.134 1.377-2.063Z"/><g filter="url(#t)"><ellipse cx="1100.5" cy="34.684" fill="#23262E" rx="14.5" ry="14.684" transform="rotate(-180 1100.5 34.684)"/></g><path fill="#fff" d="M1100.33 39.993c0 2.192-2.84 2.255-4.88 2.255s-4.2-1.686-4.2-3.878c0-2.191 2.16-1.262 4.2-1.262s4.88.694 4.88 2.885Z"/><path fill="#2496ED" d="M1110.73 33.068c-.72-.451-1.68-.505-2.49-.253-.1-.937-.67-1.749-1.34-2.326l-.27-.235-.24.289c-.45.559-.58 1.497-.52 2.218.05.523.21 1.064.51 1.497-.24.144-.49.343-.72.433-.48.18-1 .36-1.5.36h-1.13V32.51h-2.18V28h-2.52v2.164h-4.21v2.345h-2.18v2.525h-1.88l-.04.27c-.08 1.154.05 2.273.51 3.337l.18.396.02.037c1.33 2.416 3.65 3.426 6.18 3.426 4.91 0 8.96-2.362 10.81-7.322 1.25.072 2.52-.325 3.13-1.605l.15-.325-.27-.18Zm-16.27-2.363h1.68v1.984h-1.68v-1.984Zm2.2 7.972c0 .306-.23.559-.52.559-.28 0-.52-.253-.52-.56 0-.306.24-.558.52-.558.29.018.52.252.52.559Zm-2.2-5.627h1.68v1.984h-1.68V33.05Zm-2.18 0h1.84v1.984h-1.84V33.05Zm4.65 9.053c-2.65-.018-4.08-.974-5.26-2.236.35.018.69.036.99.036.27 0 .54 0 .79-.018.66-.036 1.23-.126 1.7-.27.39.955 1.09 1.84 2.35 2.488h-.57Zm1.4-7.07h-1.85V33.05h1.85v1.984Zm0-2.344h-1.85v-1.984h1.85v1.984Zm2.18 2.345h-1.85V33.05h1.85v1.984Zm0-2.345h-1.85v-1.984h1.85v1.984Zm0-2.344h-1.85V28.36h1.85v1.984Zm2.19 4.689h-1.85V33.05h1.85v1.984Z"/><path fill="#2A4981" stroke="#fff" stroke-width=".263" d="M1096.77 38.643c0 .33-.26.592-.57.592a.584.584 0 0 1-.58-.592c0-.33.26-.592.58-.592.31 0 .57.262.57.592Z"/><ellipse cx="1096.32" cy="38.314" fill="#fff" rx=".193" ry=".197"/><path fill="url(#u)" d="M342-30h1200v254H342z"/></g><defs><linearGradient id="c" x1="674.803" x2="669.29" y1="108.11" y2="98.403" gradientUnits="userSpaceOnUse"><stop stop-color="#FB7655"/><stop offset=".41" stop-color="#E42B1E"/><stop offset=".99" stop-color="#900"/><stop offset="1" stop-color="#900"/></linearGradient><linearGradient id="d" x1="677.538" x2="670.45" y1="99.944" y2="95.201" gradientUnits="userSpaceOnUse"><stop stop-color="#871101"/><stop offset=".99" stop-color="#911209"/><stop offset="1" stop-color="#911209"/></linearGradient><linearGradient id="e" x1="671.877" x2="664.789" y1="108.405" y2="103.662" gradientUnits="userSpaceOnUse"><stop stop-color="#871101"/><stop offset=".99" stop-color="#911209"/><stop offset="1" stop-color="#911209"/></linearGradient><linearGradient id="f" x1="657.021" x2="658.124" y1="96.497" y2="103.645" gradientUnits="userSpaceOnUse"><stop stop-color="#fff"/><stop offset=".23" stop-color="#E57252"/><stop offset=".46" stop-color="#DE3B20"/><stop offset=".99" stop-color="#A60003"/><stop offset="1" stop-color="#A60003"/></linearGradient><linearGradient id="g" x1="664.565" x2="664.971" y1="89.823" y2="97.118" gradientUnits="userSpaceOnUse"><stop stop-color="#fff"/><stop offset=".23" stop-color="#E4714E"/><stop offset=".56" stop-color="#BE1A0D"/><stop offset=".99" stop-color="#A80D00"/><stop offset="1" stop-color="#A80D00"/></linearGradient><linearGradient id="h" x1="671.26" x2="672.477" y1="83.08" y2="88.307" gradientUnits="userSpaceOnUse"><stop stop-color="#fff"/><stop offset=".18" stop-color="#E46342"/><stop offset=".4" stop-color="#C82410"/><stop offset=".99" stop-color="#A80D00"/><stop offset="1" stop-color="#A80D00"/></linearGradient><linearGradient id="i" x1="667.565" x2="672.785" y1="81.237" y2="78.634" gradientUnits="userSpaceOnUse"><stop stop-color="#fff"/><stop offset=".54" stop-color="#C81F11"/><stop offset=".99" stop-color="#BF0905"/><stop offset="1" stop-color="#BF0905"/></linearGradient><linearGradient id="j" x1="652.45" x2="652.882" y1="94.676" y2="98.984" gradientUnits="userSpaceOnUse"><stop stop-color="#fff"/><stop offset=".31" stop-color="#DE4024"/><stop offset=".99" stop-color="#BF190B"/><stop offset="1" stop-color="#BF190B"/></linearGradient><linearGradient id="k" x1="649.5" x2="669.73" y1="100.147" y2="79.402" gradientUnits="userSpaceOnUse"><stop stop-color="#BD0012"/><stop offset=".07" stop-color="#fff"/><stop offset=".17" stop-color="#fff"/><stop offset=".27" stop-color="#C82F1C"/><stop offset=".33" stop-color="#820C01"/><stop offset=".46" stop-color="#A31601"/><stop offset=".72" stop-color="#B31301"/><stop offset=".99" stop-color="#E82609"/><stop offset="1" stop-color="#E82609"/></linearGradient><linearGradient id="l" x1="664.951" x2="658.873" y1="102.247" y2="100.751" gradientUnits="userSpaceOnUse"><stop stop-color="#8C0C01"/><stop offset=".54" stop-color="#990C00"/><stop offset=".99" stop-color="#A80D0E"/><stop offset="1" stop-color="#A80D0E"/></linearGradient><linearGradient id="m" x1="675.388" x2="669.977" y1="94.933" y2="90.097" gradientUnits="userSpaceOnUse"><stop stop-color="#7E110B"/><stop offset=".99" stop-color="#9E0C00"/><stop offset="1" stop-color="#9E0C00"/></linearGradient><linearGradient id="n" x1="677.371" x2="674.675" y1="86.033" y2="83.158" gradientUnits="userSpaceOnUse"><stop stop-color="#79130D"/><stop offset=".99" stop-color="#9E120B"/><stop offset="1" stop-color="#9E120B"/></linearGradient><linearGradient id="q" x1="655.441" x2="653.239" y1="105.711" y2="98.26" gradientUnits="userSpaceOnUse"><stop stop-color="#8B2114"/><stop offset=".43" stop-color="#9E100A"/><stop offset=".99" stop-color="#B3100C"/><stop offset="1" stop-color="#B3100C"/></linearGradient><linearGradient id="r" x1="672.25" x2="677.167" y1="81.009" y2="83.173" gradientUnits="userSpaceOnUse"><stop stop-color="#B31000"/><stop offset=".44" stop-color="#910F08"/><stop offset=".99" stop-color="#791C12"/><stop offset="1" stop-color="#791C12"/></linearGradient><linearGradient id="u" x1="942" x2="942" y1="-30" y2="209.319" gradientUnits="userSpaceOnUse"><stop stop-color="#16181D" stop-opacity="0"/><stop offset="1" stop-color="#16181D"/></linearGradient><filter id="b" width="59.375" height="62.5" x="637.875" y="64.875" color-interpolation-filters="sRGB" filterUnits="userSpaceOnUse"><feFlood flood-opacity="0" result="BackgroundImageFix"/><feColorMatrix in="SourceAlpha" result="hardAlpha" values="0 0 0 0 0 0 0 0 0 0 0 0 0 0 0 0 0 0 127 0"/><feOffset dx="1.563" dy="3.125"/><feGaussianBlur stdDeviation="2.344"/><feColorMatrix values="0 0 0 0 0 0 0 0 0 0 0 0 0 0 0 0 0 0 0.1 0"/><feBlend in2="BackgroundImageFix" result="effect1_dropShadow"/><feBlend in="SourceGraphic" in2="effect1_dropShadow" result="shape"/><feColorMatrix in="SourceAlpha" result="hardAlpha" values="0 0 0 0 0 0 0 0 0 0 0 0 0 0 0 0 0 0 127 0"/><feOffset dx="-3.125" dy="-3.125"/><feGaussianBlur stdDeviation="2.344"/><feComposite in2="hardAlpha" k2="-1" k3="1" operator="arithmetic"/><feColorMatrix values="0 0 0 0 0 0 0 0 0 0 0 0 0 0 0 0 0 0 0.25 0"/><feBlend in2="shape" result="effect2_innerShadow"/><feColorMatrix in="SourceAlpha" result="hardAlpha" values="0 0 0 0 0 0 0 0 0 0 0 0 0 0 0 0 0 0 127 0"/><feOffset dx="1.563" dy="3.125"/><feGaussianBlur stdDeviation="2.344"/><feComposite in2="hardAlpha" k2="-1" k3="1" operator="arithmetic"/><feColorMatrix values="0 0 0 0 1 0 0 0 0 1 0 0 0 0 1 0 0 0 0.05 0"/><feBlend in2="effect2_innerShadow" result="effect3_innerShadow"/></filter><filter id="s" width="32.684" height="34.105" x="886.105" y="20.105" color-interpolation-filters="sRGB" filterUnits="userSpaceOnUse"><feFlood flood-opacity="0" result="BackgroundImageFix"/><feColorMatrix in="SourceAlpha" result="hardAlpha" values="0 0 0 0 0 0 0 0 0 0 0 0 0 0 0 0 0 0 127 0"/><feOffset dx=".947" dy="1.895"/><feGaussianBlur stdDeviation="1.421"/><feColorMatrix values="0 0 0 0 0 0 0 0 0 0 0 0 0 0 0 0 0 0 0.1 0"/><feBlend in2="BackgroundImageFix" result="effect1_dropShadow"/><feBlend in="SourceGraphic" in2="effect1_dropShadow" result="shape"/><feColorMatrix in="SourceAlpha" result="hardAlpha" values="0 0 0 0 0 0 0 0 0 0 0 0 0 0 0 0 0 0 127 0"/><feOffset dx="-1.895" dy="-1.895"/><feGaussianBlur stdDeviation="1.421"/><feComposite in2="hardAlpha" k2="-1" k3="1" operator="arithmetic"/><feColorMatrix values="0 0 0 0 0 0 0 0 0 0 0 0 0 0 0 0 0 0 0.25 0"/><feBlend in2="shape" result="effect2_innerShadow"/><feColorMatrix in="SourceAlpha" result="hardAlpha" values="0 0 0 0 0 0 0 0 0 0 0 0 0 0 0 0 0 0 127 0"/><feOffset dx=".947" dy="1.895"/><feGaussianBlur stdDeviation="1.421"/><feComposite in2="hardAlpha" k2="-1" k3="1" operator="arithmetic"/><feColorMatrix values="0 0 0 0 1 0 0 0 0 1 0 0 0 0 1 0 0 0 0.05 0"/><feBlend in2="effect2_innerShadow" result="effect3_innerShadow"/></filter><filter id="t" width="33.405" height="34.506" x="1084.53" y="18.532" color-interpolation-filters="sRGB" filterUnits="userSpaceOnUse"><feFlood flood-opacity="0" result="BackgroundImageFix"/><feColorMatrix in="SourceAlpha" result="hardAlpha" values="0 0 0 0 0 0 0 0 0 0 0 0 0 0 0 0 0 0 127 0"/><feOffset dx=".734" dy="1.468"/><feGaussianBlur stdDeviation="1.101"/><feColorMatrix values="0 0 0 0 0 0 0 0 0 0 0 0 0 0 0 0 0 0 0.1 0"/><feBlend in2="BackgroundImageFix" result="effect1_dropShadow"/><feBlend in="SourceGraphic" in2="effect1_dropShadow" result="shape"/><feColorMatrix in="SourceAlpha" result="hardAlpha" values="0 0 0 0 0 0 0 0 0 0 0 0 0 0 0 0 0 0 127 0"/><feOffset dx="-1.468" dy="-1.468"/><feGaussianBlur stdDeviation="1.101"/><feComposite in2="hardAlpha" k2="-1" k3="1" operator="arithmetic"/><feColorMatrix values="0 0 0 0 0 0 0 0 0 0 0 0 0 0 0 0 0 0 0.25 0"/><feBlend in2="shape" result="effect2_innerShadow"/><feColorMatrix in="SourceAlpha" result="hardAlpha" values="0 0 0 0 0 0 0 0 0 0 0 0 0 0 0 0 0 0 127 0"/><feOffset dx=".734" dy="1.468"/><feGaussianBlur stdDeviation="1.101"/><feComposite in2="hardAlpha" k2="-1" k3="1" operator="arithmetic"/><feColorMatrix values="0 0 0 0 1 0 0 0 0 1 0 0 0 0 1 0 0 0 0.05 0"/><feBlend in2="effect2_innerShadow" result="effect3_innerShadow"/></filter><radialGradient id="o" cx="0" cy="0" r="1" gradientTransform="matrix(6.61475 0 0 6.63316 670.831 90.175)" gradientUnits="userSpaceOnUse"><stop stop-color="#A80D00"/><stop offset=".99" stop-color="#7E0E08"/><stop offset="1" stop-color="#7E0E08"/></radialGradient><radialGradient id="p" cx="0" cy="0" r="1" gradientTransform="matrix(8.79343 0 0 8.8179 661.67 98.917)" gradientUnits="userSpaceOnUse"><stop stop-color="#A30C00"/><stop offset=".99" stop-color="#800E08"/><stop offset="1" stop-color="#800E08"/></radialGradient><clipPath id="a"><path fill="#fff" d="M0 0h797v151H0z" transform="translate(373)"/></clipPath></defs></svg>