<svg xmlns="http://www.w3.org/2000/svg" width="1200" height="359" fill="none"><g clip-path="url(#a)"><circle cx="587.5" cy="292.5" r="646.5" stroke="#21242C" stroke-opacity=".8" stroke-width="4"/><circle cx="587.5" cy="292.5" r="503.5" stroke="#21242C" stroke-opacity=".8" stroke-width="4"/><circle cx="587" cy="292" r="346" stroke="#21242C" stroke-opacity=".8" stroke-width="4"/><circle cx="587.5" cy="292.5" r="212.5" stroke="#21242C" stroke-opacity=".8" stroke-width="4"/><g filter="url(#b)"><circle cx="1100.5" cy="273.5" r="27.5" fill="#23262E" transform="rotate(-180 1100.5 273.5)"/></g><path fill="url(#c)" d="M1100.82 258.22c-1.24 0-2.44.11-3.48.3-3.09.54-3.65 1.69-3.65 3.8v2.77h7.29v.93h-10.03a4.56 4.56 0 0 0-4.56 3.7c-.67 2.78-.7 4.51 0 7.41.52 2.16 1.76 3.7 3.88 3.7h2.51v-3.33c0-2.4 2.08-4.53 4.56-4.53h7.28a3.68 3.68 0 0 0 3.65-3.71v-6.95c0-1.98-1.67-3.46-3.65-3.8-1.25-.2-2.55-.3-3.8-.29Zm-3.94 2.24c.75 0 1.37.62 1.37 1.4 0 .76-.62 1.38-1.37 1.38-.76 0-1.37-.62-1.37-1.39 0-.77.61-1.4 1.37-1.4Z"/><path fill="url(#d)" d="M1109.18 266.04v3.24a4.68 4.68 0 0 1-4.56 4.63h-7.28c-2 0-3.65 1.7-3.65 3.7v6.95c0 1.98 1.72 3.14 3.65 3.7 2.31.69 4.52.81 7.28 0 1.84-.52 3.65-1.6 3.65-3.7v-2.78h-7.29v-.93h10.94c2.12 0 2.91-1.48 3.65-3.7.76-2.28.73-4.48 0-7.41-.53-2.11-1.53-3.7-3.65-3.7h-2.74Zm-4.1 17.6c.76 0 1.37.61 1.37 1.38 0 .77-.61 1.4-1.37 1.4a1.4 1.4 0 0 1-1.37-1.4c0-.77.62-1.39 1.37-1.39Z"/><g filter="url(#e)"><ellipse cx="1061.5" cy="150.46" fill="#23262E" rx="31.5" ry="32.45" transform="rotate(-180 1061.5 150.46)"/></g><path fill="#CFD4D7" d="M1076.88 165.07h-7.71a.77.77 0 0 0-.77.77c0 .43.35.77.77.77h7.71c.43 0 .78-.34.78-.77a.78.78 0 0 0-.78-.77Zm-10.79 0h-9.25a.77.77 0 0 0-.77.77c0 .43.34.77.77.77h9.25c.43 0 .77-.34.77-.77a.77.77 0 0 0-.77-.77Z" opacity=".5"/><path fill="#EA5E5E" d="M1053.75 165.07h-7.71a.77.77 0 0 0-.77.77c0 .43.35.77.77.77h7.71c.43 0 .78-.34.78-.77a.78.78 0 0 0-.78-.77Z"/><path fill="#CFD4D7" d="M1076.89 161.99h-6.17a.77.77 0 0 0-.77.77c0 .42.34.77.77.77h6.17c.42 0 .77-.35.77-.77a.77.77 0 0 0-.77-.77Zm-9.26 0h-1.54a.77.77 0 0 0-.77.77c0 .42.34.77.77.77h1.54c.43 0 .77-.35.77-.77a.77.77 0 0 0-.77-.77Zm-4.62 0h-6.17a.77.77 0 0 0-.77.77c0 .42.34.77.77.77h6.17c.42 0 .77-.35.77-.77a.77.77 0 0 0-.77-.77Z" opacity=".5"/><path fill="#F7B93E" d="M1053.75 161.99h-1.54a.77.77 0 0 0-.77.77c0 .42.35.77.77.77h1.54c.43 0 .78-.35.78-.77a.78.78 0 0 0-.78-.77Z"/><path fill="#56B3B4" d="M1049.13 161.99h-3.09a.77.77 0 0 0-.77.77c0 .42.35.77.77.77h3.09c.42 0 .77-.35.77-.77a.77.77 0 0 0-.77-.77Z"/><path fill="#CFD4D7" d="M1076.88 158.9h-13.87a.78.78 0 0 0-.78.77c0 .43.35.77.78.77h13.87c.43 0 .78-.34.78-.77a.78.78 0 0 0-.78-.77Zm-16.96 0h-3.08a.77.77 0 0 0-.77.77c0 .43.34.77.77.77h3.08c.43 0 .77-.34.77-.77a.77.77 0 0 0-.77-.77Z" opacity=".5"/><path fill="#BF85BF" d="M1053.75 158.9h-7.71a.77.77 0 0 0-.77.77c0 .43.35.77.77.77h7.71c.43 0 .78-.34.78-.77a.78.78 0 0 0-.78-.77Z"/><path fill="#CFD4D7" d="M1076.88 155.82h-3.08a.77.77 0 0 0-.77.77c0 .42.34.77.77.77h3.08c.43 0 .78-.35.78-.77a.78.78 0 0 0-.78-.77Zm-6.16 0h-3.09a.77.77 0 0 0-.77.77c0 .42.35.77.77.77h3.09c.42 0 .77-.35.77-.77a.77.77 0 0 0-.77-.77Z" opacity=".5"/><path fill="#F7B93E" d="M1064.55 155.82h-13.88a.77.77 0 0 0-.77.77c0 .42.34.77.77.77h13.88c.42 0 .77-.35.77-.77a.77.77 0 0 0-.77-.77Z"/><path fill="#BF85BF" d="M1047.59 155.82h-1.55a.77.77 0 0 0-.77.77c0 .43.35.77.77.77h1.55c.42 0 .77-.34.77-.77a.77.77 0 0 0-.77-.77Z"/><path fill="#CFD4D7" d="M1076.88 152.73h-4.62a.77.77 0 0 0-.77.78c0 .42.34.77.77.77h4.62a.78.78 0 1 0 0-1.54Z" opacity=".5"/><path fill="#BF85BF" d="M1069.17 152.73h-4.62a.77.77 0 0 0-.77.78c0 .42.34.77.77.77h4.62a.78.78 0 1 0 0-1.54Z"/><path fill="#EA5E5E" d="M1061.46 152.73h-6.16a.77.77 0 0 0-.77.78c0 .42.34.77.77.77h6.16a.78.78 0 1 0 0-1.54Z"/><path fill="#56B3B4" d="M1052.21 152.74h-6.17a.77.77 0 0 0-.77.77c0 .42.35.77.77.77h6.17c.43 0 .77-.35.77-.77a.77.77 0 0 0-.77-.77Z"/><path fill="#CFD4D7" d="M1076.88 149.65h-3.08a.77.77 0 0 0-.77.77c0 .43.34.77.77.77h3.08c.43 0 .78-.34.78-.77a.78.78 0 0 0-.78-.77Z" opacity=".5"/><path fill="#56B3B4" d="M1070.72 149.65h-12.34a.77.77 0 0 0-.77.77c0 .43.34.77.77.77h12.34c.42 0 .77-.34.77-.77a.77.77 0 0 0-.77-.77Z"/><path fill="#F7B93E" d="M1055.3 149.65h-4.63a.77.77 0 0 0-.77.77c0 .43.34.77.77.77h4.63c.42 0 .77-.34.77-.77a.77.77 0 0 0-.77-.77Z"/><path fill="#EA5E5E" d="M1047.59 149.65h-1.55a.77.77 0 0 0-.77.77c0 .43.35.78.77.78h1.55a.77.77 0 0 0 0-1.54Z"/><path fill="#CFD4D7" d="M1076.88 146.56h-1.54a.77.77 0 0 0-.77.78c0 .42.35.77.77.77h1.54a.78.78 0 1 0 0-1.54Z" opacity=".5"/><path fill="#F7B93E" d="M1072.26 146.56h-7.71a.77.77 0 0 0-.77.78c0 .42.34.77.77.77h7.71a.77.77 0 0 0 0-1.54Z"/><path fill="#CFD4D7" d="M1061.46 146.56h-4.62a.77.77 0 0 0-.77.78c0 .42.34.77.77.77h4.62a.78.78 0 1 0 0-1.54Z" opacity=".5"/><path fill="#BF85BF" d="M1053.75 146.56h-7.71a.77.77 0 0 0-.77.77c0 .43.35.77.77.77h7.71c.43 0 .78-.34.78-.77a.78.78 0 0 0-.78-.77Z"/><path fill="#CFD4D7" d="M1076.88 143.48h-1.54a.77.77 0 0 0-.77.77c0 .43.35.77.77.77h1.54c.43 0 .78-.34.78-.77a.78.78 0 0 0-.78-.77Z" opacity=".5"/><path fill="#EA5E5E" d="M1072.26 143.48h-7.71a.77.77 0 0 0-.77.77c0 .43.34.77.77.77h7.71c.42 0 .77-.34.77-.77a.77.77 0 0 0-.77-.77Z"/><path fill="#CFD4D7" d="M1061.46 143.48h-4.62a.77.77 0 0 0-.77.77c0 .43.34.77.77.77h4.62c.43 0 .78-.34.78-.77a.78.78 0 0 0-.78-.77Z" opacity=".5"/><path fill="#56B3B4" d="M1053.75 143.48h-1.54a.77.77 0 0 0-.77.77c0 .43.35.77.77.77h1.54c.43 0 .78-.34.78-.77a.78.78 0 0 0-.78-.77Z"/><path fill="#F7B93E" d="M1049.13 143.48h-3.09a.77.77 0 0 0-.77.77c0 .43.35.77.77.77h3.09c.42 0 .77-.34.77-.77a.77.77 0 0 0-.77-.77Z"/><path fill="#CFD4D7" d="M1076.88 140.4h-3.08a.77.77 0 0 0-.77.77c0 .42.34.77.77.77h3.08c.43 0 .78-.35.78-.77a.78.78 0 0 0-.78-.77Z" opacity=".5"/><path fill="#56B3B4" d="M1070.72 140.4h-1.55a.77.77 0 0 0-.77.77c0 .42.35.77.77.77h1.55c.42 0 .77-.35.77-.77a.77.77 0 0 0-.77-.77Z"/><path fill="#BF85BF" d="M1066.09 140.4h-6.17a.77.77 0 0 0-.77.77c0 .42.35.77.77.77h6.17c.43 0 .77-.35.77-.77a.77.77 0 0 0-.77-.77Z"/><path fill="#56B3B4" d="M1056.84 140.4h-10.8a.77.77 0 0 0-.77.77c0 .43.35.77.77.77h10.8c.42 0 .77-.34.77-.77a.77.77 0 0 0-.77-.77Z"/><path fill="#CFD4D7" d="M1076.88 137.31h-4.62a.77.77 0 0 0-.77.78c0 .42.34.77.77.77h4.62a.78.78 0 1 0 0-1.54Z" opacity=".5"/><path fill="#F7B93E" d="M1069.17 137.31h-15.42a.77.77 0 0 0-.77.78c0 .42.35.77.77.77h15.42c.43 0 .77-.35.77-.78a.77.77 0 0 0-.77-.77Z"/><path fill="#EA5E5E" d="M1050.67 137.31h-4.63a.77.77 0 0 0-.77.78c0 .42.35.77.77.77h4.63c.43 0 .77-.35.77-.78a.77.77 0 0 0-.77-.77Z"/><path fill="#CFD4D7" d="M1076.89 134.23h-9.26a.77.77 0 0 0-.77.77c0 .42.35.77.77.77h9.26c.42 0 .77-.35.77-.77a.77.77 0 0 0-.77-.77Z" opacity=".5"/><path fill="#56B3B4" d="M1064.55 134.23h-18.51a.77.77 0 0 0-.77.77c0 .43.35.77.77.77h18.51c.42 0 .77-.34.77-.77a.77.77 0 0 0-.77-.77Z"/><g filter="url(#f)"><ellipse cx="893" cy="107.32" fill="#23262E" rx="25" ry="25.32" transform="rotate(-180 893 107.32)"/></g><g filter="url(#g)"><ellipse cx="751" cy="165.78" fill="#23262E" rx="25" ry="25.78" transform="rotate(-180 751 165.78)"/></g><path fill="url(#h)" fill-rule="evenodd" d="m757.1 168.9-14.86 8.84 19.24-1.3 1.48-19.46-5.86 11.92Z" clip-rule="evenodd"/><path fill="url(#i)" fill-rule="evenodd" d="m761.51 176.42-1.65-11.44-4.5 5.96 6.15 5.48Z" clip-rule="evenodd"/><path fill="url(#j)" fill-rule="evenodd" d="m761.53 176.42-12.11-.95-7.11 2.25 19.23-1.3Z" clip-rule="evenodd"/><path fill="url(#k)" fill-rule="evenodd" d="m742.32 177.72 3.03-9.94-6.66 1.43 3.63 8.51Z" clip-rule="evenodd"/><path fill="url(#l)" fill-rule="evenodd" d="m755.35 170.97-2.78-10.94-7.97 7.5 10.75 3.44Z" clip-rule="evenodd"/><path fill="url(#m)" fill-rule="evenodd" d="m762.33 160.19-7.53-6.17-2.1 6.8 9.63-.63Z" clip-rule="evenodd"/><path fill="url(#n)" fill-rule="evenodd" d="m758.8 151.82-4.42 2.45-2.8-2.49 7.23.04Z" clip-rule="evenodd"/><path fill="url(#o)" fill-rule="evenodd" d="m736.94 172.54 1.85-3.4-1.5-4.04-.35 7.44Z" clip-rule="evenodd"/><path fill="#fff" fill-rule="evenodd" d="m737.2 164.98 1.5 4.3 6.57-1.48 7.49-6.99 2.12-6.73-3.34-2.36-5.66 2.12c-1.78 1.67-5.24 4.96-5.37 5.02-.12.06-2.28 4.16-3.32 6.12Z" clip-rule="evenodd"/><path fill="url(#p)" fill-rule="evenodd" d="M742.5 157.25c3.86-3.84 8.85-6.1 10.76-4.17 1.91 1.93-.12 6.63-3.98 10.47-3.87 3.85-8.8 6.24-10.7 4.3-1.91-1.92.05-6.75 3.92-10.6Z" clip-rule="evenodd"/><path fill="url(#q)" fill-rule="evenodd" d="m742.32 177.72 3-9.98 9.98 3.22c-3.6 3.39-7.62 6.25-12.98 6.76Z" clip-rule="evenodd"/><path fill="url(#r)" fill-rule="evenodd" d="m752.77 160.8 2.56 10.16c3.02-3.18 5.72-6.59 7.04-10.81l-9.6.64Z" clip-rule="evenodd"/><path fill="url(#s)" fill-rule="evenodd" d="M762.35 160.2c1.02-3.1 1.26-7.55-3.57-8.37l-3.97 2.2 7.54 6.17Z" clip-rule="evenodd"/><path fill="#9E1209" fill-rule="evenodd" d="M736.94 172.5c.14 5.12 3.82 5.2 5.39 5.24l-3.62-8.49-1.77 3.25Z" clip-rule="evenodd"/><path fill="url(#t)" fill-rule="evenodd" d="m752.79 160.8 7.07 4.35c.15.09 2.01-3.15 2.44-4.98l-9.51.64Z" clip-rule="evenodd"/><path fill="url(#u)" fill-rule="evenodd" d="m745.32 167.74 4.02 7.77a25.97 25.97 0 0 0 5.93-4.55l-9.95-3.22Z" clip-rule="evenodd"/><path fill="url(#v)" fill-rule="evenodd" d="m738.7 169.26-.58 6.8c1.08 1.46 2.55 1.6 4.1 1.48-1.12-2.8-3.36-8.4-3.53-8.28Z" clip-rule="evenodd"/><path fill="url(#w)" fill-rule="evenodd" d="m754.79 154.04 7.97 1.12c-.42-1.8-1.73-2.97-3.96-3.34l-4.01 2.22Z" clip-rule="evenodd"/><g filter="url(#x)"><ellipse cx="935" cy="280.99" fill="#23262E" rx="34" ry="34.99" transform="rotate(-180 935 280.99)"/></g><path fill="#2E2E2C" d="M920.75 277.25a2 2 0 0 0 1.33-.43l-.57-1.06c-.1.07-.28.2-.53.2-.23 0-.39-.1-.39-.58v-1.77h1.22v-1.25h-1.22v-2.49h-1.5v2.49h-.7v1.25h.7v1.73c0 1.43.7 1.91 1.66 1.91Zm5.08-2.93h-1.11c-1.18 0-1.95.42-1.95 1.43 0 1.11.8 1.5 1.68 1.5a1.5 1.5 0 0 0 1.4-.76l-.02.66h1.5v-2.7c0-1.5-.93-2.17-2.15-2.17-1.13 0-1.63.35-2.08.79l.84.9c.22-.2.52-.45 1.09-.45.5 0 .77.25.8.8Zm0 .9v.19c0 .4-.32.67-.93.67-.43 0-.65-.16-.65-.43 0-.26.16-.43.54-.43h1.04Zm2.65 1.93H930v-2.55c0-.6.35-.94.96-.94.54 0 .8.3.8.84v2.65h1.5v-2.75c0-1.36-.74-2.12-1.79-2.12-.66 0-1.22.32-1.5.89l.03-.79h-1.52v4.77Zm7.96.1c.73 0 1.24-.29 1.5-.8l-.03.7h1.51v-8.09h-1.5v4c-.31-.48-.74-.78-1.5-.78-1.15 0-2.14 1-2.14 2.48 0 1.46 1 2.5 2.16 2.5Zm.44-1.32c-.64 0-1.04-.42-1.04-1.18 0-.7.4-1.14 1.04-1.14.65 0 1.08.44 1.08 1.14 0 .76-.43 1.18-1.08 1.18Zm6.53-1.61h-1.1c-1.18 0-1.96.42-1.96 1.43 0 1.11.81 1.5 1.68 1.5a1.5 1.5 0 0 0 1.42-.76l-.04.66h1.5v-2.7c0-1.5-.93-2.17-2.15-2.17-1.12 0-1.62.35-2.07.79l.84.9c.21-.2.51-.45 1.09-.45.5 0 .77.25.8.8Zm0 .9v.19c0 .4-.31.67-.93.67-.42 0-.65-.16-.65-.43 0-.26.17-.43.55-.43h1.03Zm2.66 1.93h1.51v-2.11c0-1.02.37-1.34 1.06-1.34.21 0 .39.06.58.15l.48-1.38c-.19-.1-.43-.19-.74-.19-.5 0-1.05.18-1.4.97l.02-.87h-1.5v4.77Zm-17.25 17.77c2.48 0 4.18-1.32 4.18-4.22v-9.56h-2.8v9.52c0 1.4-.58 1.76-1.5 1.76-.96 0-1.36-.66-1.8-1.44l-2.28 1.38a4.35 4.35 0 0 0 4.2 2.56Zm10.78 0c2.66 0 4.64-1.38 4.64-3.9 0-2.34-1.34-3.38-3.72-4.4l-.7-.3c-1.2-.52-1.72-.86-1.72-1.7 0-.68.52-1.2 1.34-1.2.8 0 1.32.34 1.8 1.2l2.18-1.4c-.92-1.62-2.2-2.24-3.98-2.24-2.5 0-4.1 1.6-4.1 3.7 0 2.28 1.34 3.36 3.36 4.22l.7.3c1.28.56 2.04.9 2.04 1.86 0 .8-.74 1.38-1.9 1.38-1.38 0-2.16-.72-2.76-1.7l-2.28 1.32c.82 1.62 2.5 2.86 5.1 2.86Z"/><path fill="#F3DF49" fill-rule="evenodd" d="m913.54 268.69 21.06-12.13 21.2 12.13v24.54l-21.06 12.12-21.2-12.12v-24.54Z" clip-rule="evenodd"/><path fill="#2E2E2C" d="M918.24 278c1.3 0 1.71-.62 1.71-1.39 0-.88-.76-1.17-1.37-1.3-.57-.13-.84-.16-.84-.4 0-.16.15-.24.46-.24.3 0 .6.15.8.31l.7-.75a2.02 2.02 0 0 0-1.51-.58c-.9 0-1.62.38-1.62 1.33 0 .87.63 1.18 1.2 1.33.68.18.95.18.95.4 0 .18-.14.25-.57.25-.4 0-.76-.16-1.04-.44l-.78.69c.37.43.93.8 1.9.8Zm4.23.02c.61 0 .96-.21 1.17-.38l-.5-.92c-.09.06-.24.17-.46.17-.2 0-.34-.08-.34-.5v-1.55h1.07v-1.1h-1.07v-2.18h-1.32v2.18h-.61v1.1h.61v1.5c0 1.26.61 1.68 1.45 1.68Zm4.45-2.58h-.97c-1.03 0-1.7.36-1.7 1.25 0 .97.7 1.31 1.46 1.31.56 0 .92-.18 1.24-.66l-.03.58h1.31v-2.38c0-1.31-.81-1.89-1.88-1.89-.98 0-1.42.3-1.81.69l.73.78c.19-.17.45-.38.95-.38.44 0 .68.21.7.7Zm0 .78v.17c0 .35-.28.59-.81.59-.38 0-.57-.14-.57-.38 0-.23.14-.38.48-.38h.9Zm2.33 1.7h1.32v-2.24c0-.53.31-.82.84-.82.47 0 .7.26.7.73v2.33h1.32v-2.42c0-1.18-.65-1.85-1.57-1.85-.58 0-1.07.28-1.32.78l.03-.7h-1.33v4.19Zm6.96.08c.64 0 1.08-.25 1.32-.7l-.03.62h1.32v-7.08h-1.32v3.49a1.41 1.41 0 0 0-1.3-.68c-1.02 0-1.88.88-1.88 2.17 0 1.28.87 2.18 1.9 2.18Zm.38-1.15c-.55 0-.9-.38-.9-1.03 0-.62.35-1 .9-1 .57 0 .95.38.95 1 0 .65-.38 1.03-.94 1.03Zm5.72-1.41h-.97c-1.03 0-1.7.36-1.7 1.25 0 .97.7 1.31 1.46 1.31.56 0 .93-.18 1.24-.66l-.03.58h1.31v-2.38c0-1.31-.81-1.89-1.88-1.89-.98 0-1.42.3-1.81.69l.73.78c.19-.17.45-.38.95-.38.44 0 .68.21.7.7Zm0 .78v.17c0 .35-.27.59-.81.59-.38 0-.57-.14-.57-.38 0-.23.15-.38.48-.38h.9Zm2.33 1.7h1.32v-1.86c0-.89.32-1.16.92-1.16.19 0 .35.05.51.12l.42-1.2a1.33 1.33 0 0 0-.64-.17c-.43 0-.92.16-1.23.84l.02-.75h-1.32v4.18Zm5.44.08c.64 0 1.08-.25 1.32-.7l-.03.62h1.32v-7.08h-1.32v3.49a1.41 1.41 0 0 0-1.3-.68c-1.02 0-1.88.88-1.88 2.17 0 1.28.87 2.18 1.9 2.18Zm.38-1.15c-.56 0-.9-.38-.9-1.03 0-.62.35-1 .9-1 .57 0 .94.38.94 1 0 .65-.37 1.03-.94 1.03Zm-20.92 16.61c2.17 0 3.66-1.15 3.66-3.7v-8.36h-2.45v8.33c0 1.23-.51 1.54-1.32 1.54-.84 0-1.19-.57-1.57-1.26l-2 1.21a3.8 3.8 0 0 0 3.68 2.24Zm9.44 0c2.32 0 4.06-1.2 4.06-3.41 0-2.05-1.17-2.96-3.26-3.85l-.61-.26c-1.05-.46-1.5-.76-1.5-1.5 0-.59.45-1.04 1.17-1.04.7 0 1.15.3 1.57 1.05l1.91-1.23c-.8-1.42-1.93-1.96-3.48-1.96-2.2 0-3.6 1.4-3.6 3.24 0 2 1.18 2.94 2.95 3.7l.61.26c1.12.49 1.79.78 1.79 1.62 0 .7-.65 1.21-1.67 1.21-1.2 0-1.89-.63-2.41-1.49l-2 1.16c.72 1.42 2.19 2.5 4.47 2.5Z"/><g filter="url(#y)"><ellipse cx="333.5" cy="58.82" fill="#23262E" rx="18.5" ry="18.82" transform="rotate(-180 333.5 58.82)"/></g><path fill="#00ACD7" d="M319.9 56.42c-.06 0-.08-.03-.05-.07l.32-.4c.02-.05.1-.08.16-.08h5.3c.06 0 .08.05.05.1l-.26.38c-.03.04-.1.09-.14.09l-5.38-.02Zm-2.24 1.36c-.06 0-.08-.03-.05-.07l.31-.4c.03-.05.1-.08.17-.08h6.77c.06 0 .09.05.07.1l-.12.35c-.01.06-.07.09-.13.09l-7.02.01Zm3.59 1.36c-.06 0-.07-.04-.04-.08l.2-.37c.03-.05.1-.1.15-.1h2.97c.06 0 .1.05.1.11l-.04.36c0 .05-.06.1-.1.1l-3.24-.02Zm15.42-2.98c-.94.23-1.57.41-2.5.65-.22.06-.23.07-.43-.15a1.99 1.99 0 0 0-.7-.56 2.6 2.6 0 0 0-2.68.22 3.15 3.15 0 0 0-1.52 2.81 2.32 2.32 0 0 0 2 2.33 2.75 2.75 0 0 0 2.53-.98c.13-.16.25-.34.4-.55h-2.86c-.32 0-.39-.2-.29-.44.2-.46.55-1.23.76-1.62a.4.4 0 0 1 .37-.23h5.41c-.03.4-.03.8-.09 1.2a6.3 6.3 0 0 1-1.22 2.9 6.19 6.19 0 0 1-4.23 2.51 5.3 5.3 0 0 1-4-.97 4.65 4.65 0 0 1-1.88-3.29 5.8 5.8 0 0 1 1.26-4.34 6.6 6.6 0 0 1 4.16-2.56 5.13 5.13 0 0 1 3.94.73 4.64 4.64 0 0 1 1.72 2.08c.09.14.03.21-.15.26Z"/><path fill="#00ACD7" d="M341.59 64.34a5.58 5.58 0 0 1-3.63-1.3 4.64 4.64 0 0 1-1.6-2.86 5.64 5.64 0 0 1 1.2-4.47 6.23 6.23 0 0 1 4.16-2.47 5.53 5.53 0 0 1 4.23.75 4.6 4.6 0 0 1 2.1 3.3 5.7 5.7 0 0 1-1.71 5.02 6.81 6.81 0 0 1-3.57 1.9c-.4.07-.8.09-1.18.13Zm3.53-5.98c-.01-.2-.01-.34-.04-.49a2.45 2.45 0 0 0-3.03-1.97 3.24 3.24 0 0 0-2.6 2.58 2.44 2.44 0 0 0 1.36 2.8c.82.35 1.64.3 2.43-.1a3.24 3.24 0 0 0 1.88-2.82Z"/><path fill="#fff" d="M893.2 115.13c0 3.86-5 3.97-8.6 3.97-3.6 0-7.4-2.97-7.4-6.83s3.8-2.22 7.4-2.22c3.6 0 8.6 1.22 8.6 5.08Z"/><path fill="#2496ED" d="M911.53 102.93a5.42 5.42 0 0 0-4.39-.45 6.5 6.5 0 0 0-2.37-4.1l-.47-.4-.41.5c-.8.99-1.04 2.64-.92 3.9.09.93.35 1.88.89 2.65-.42.25-.86.6-1.28.76-.83.32-1.75.63-2.63.63h-1.99v-4.48h-3.85V94h-4.44v3.81h-7.4v4.13h-3.85v4.45h-3.32l-.06.48c-.15 2.03.09 4 .89 5.88l.33.7.02.06c2.35 4.26 6.43 6.04 10.9 6.04 8.65 0 15.79-4.16 19.05-12.9 2.19.12 4.44-.58 5.5-2.83l.27-.57-.47-.32Zm-28.67-4.16h2.96v3.5h-2.96v-3.5Zm3.88 14.04c0 .54-.41.99-.92.99-.5 0-.92-.45-.92-.99s.42-.98.92-.98c.5.03.92.44.92.98Zm-3.88-9.91h2.96v3.5h-2.96v-3.5Zm-3.85 0h3.26v3.5H879v-3.5Zm8.2 15.95c-4.68-.03-7.2-1.72-9.27-3.94.63.03 1.22.06 1.75.06.47 0 .95 0 1.4-.03 1.15-.06 2.15-.22 2.98-.48a8.37 8.37 0 0 0 4.15 4.39h-1Zm2.46-12.46h-3.26v-3.5h3.26v3.5Zm0-4.13h-3.26v-3.5h3.26v3.5Zm3.85 4.13h-3.26v-3.5h3.26v3.5Zm0-4.13h-3.26v-3.5h3.26v3.5Zm0-4.13h-3.26v-3.5h3.26v3.5Zm3.85 8.26h-3.26v-3.5h3.26v3.5Z"/><path fill="#2A4981" stroke="#fff" stroke-width=".46" d="M886.93 112.75c0 .58-.46 1.05-1.01 1.05-.56 0-1.01-.47-1.01-1.05 0-.58.45-1.04 1-1.04.56 0 1.02.46 1.02 1.04Z"/><ellipse cx="886.14" cy="112.17" fill="#fff" rx=".34" ry=".35"/></g><defs><linearGradient id="c" x1="1085.88" x2="1102.7" y1="258.22" y2="272.56" gradientUnits="userSpaceOnUse"><stop stop-color="#5A9FD4"/><stop offset="1" stop-color="#306998"/></linearGradient><linearGradient id="d" x1="1104.91" x2="1098.87" y1="284.79" y2="276.33" gradientUnits="userSpaceOnUse"><stop stop-color="#FFD43B"/><stop offset="1" stop-color="#FFE873"/></linearGradient><linearGradient id="h" x1="759.8" x2="754.29" y1="180.11" y2="170.4" gradientUnits="userSpaceOnUse"><stop stop-color="#FB7655"/><stop offset=".41" stop-color="#E42B1E"/><stop offset=".99" stop-color="#900"/><stop offset="1" stop-color="#900"/></linearGradient><linearGradient id="i" x1="762.54" x2="755.45" y1="171.94" y2="167.2" gradientUnits="userSpaceOnUse"><stop stop-color="#871101"/><stop offset=".99" stop-color="#911209"/><stop offset="1" stop-color="#911209"/></linearGradient><linearGradient id="j" x1="756.88" x2="749.79" y1="180.41" y2="175.66" gradientUnits="userSpaceOnUse"><stop stop-color="#871101"/><stop offset=".99" stop-color="#911209"/><stop offset="1" stop-color="#911209"/></linearGradient><linearGradient id="k" x1="742.02" x2="743.12" y1="168.5" y2="175.65" gradientUnits="userSpaceOnUse"><stop stop-color="#fff"/><stop offset=".23" stop-color="#E57252"/><stop offset=".46" stop-color="#DE3B20"/><stop offset=".99" stop-color="#A60003"/><stop offset="1" stop-color="#A60003"/></linearGradient><linearGradient id="l" x1="749.57" x2="749.97" y1="161.82" y2="169.12" gradientUnits="userSpaceOnUse"><stop stop-color="#fff"/><stop offset=".23" stop-color="#E4714E"/><stop offset=".56" stop-color="#BE1A0D"/><stop offset=".99" stop-color="#A80D00"/><stop offset="1" stop-color="#A80D00"/></linearGradient><linearGradient id="m" x1="756.26" x2="757.48" y1="155.08" y2="160.31" gradientUnits="userSpaceOnUse"><stop stop-color="#fff"/><stop offset=".18" stop-color="#E46342"/><stop offset=".4" stop-color="#C82410"/><stop offset=".99" stop-color="#A80D00"/><stop offset="1" stop-color="#A80D00"/></linearGradient><linearGradient id="n" x1="752.57" x2="757.78" y1="153.24" y2="150.63" gradientUnits="userSpaceOnUse"><stop stop-color="#fff"/><stop offset=".54" stop-color="#C81F11"/><stop offset=".99" stop-color="#BF0905"/><stop offset="1" stop-color="#BF0905"/></linearGradient><linearGradient id="o" x1="737.45" x2="737.88" y1="166.68" y2="170.98" gradientUnits="userSpaceOnUse"><stop stop-color="#fff"/><stop offset=".31" stop-color="#DE4024"/><stop offset=".99" stop-color="#BF190B"/><stop offset="1" stop-color="#BF190B"/></linearGradient><linearGradient id="p" x1="734.5" x2="754.73" y1="172.15" y2="151.4" gradientUnits="userSpaceOnUse"><stop stop-color="#BD0012"/><stop offset=".07" stop-color="#fff"/><stop offset=".17" stop-color="#fff"/><stop offset=".27" stop-color="#C82F1C"/><stop offset=".33" stop-color="#820C01"/><stop offset=".46" stop-color="#A31601"/><stop offset=".72" stop-color="#B31301"/><stop offset=".99" stop-color="#E82609"/><stop offset="1" stop-color="#E82609"/></linearGradient><linearGradient id="q" x1="749.95" x2="743.87" y1="174.25" y2="172.75" gradientUnits="userSpaceOnUse"><stop stop-color="#8C0C01"/><stop offset=".54" stop-color="#990C00"/><stop offset=".99" stop-color="#A80D0E"/><stop offset="1" stop-color="#A80D0E"/></linearGradient><linearGradient id="r" x1="760.39" x2="754.98" y1="166.93" y2="162.1" gradientUnits="userSpaceOnUse"><stop stop-color="#7E110B"/><stop offset=".99" stop-color="#9E0C00"/><stop offset="1" stop-color="#9E0C00"/></linearGradient><linearGradient id="s" x1="762.37" x2="759.67" y1="158.03" y2="155.16" gradientUnits="userSpaceOnUse"><stop stop-color="#79130D"/><stop offset=".99" stop-color="#9E120B"/><stop offset="1" stop-color="#9E120B"/></linearGradient><linearGradient id="v" x1="740.44" x2="738.24" y1="177.71" y2="170.26" gradientUnits="userSpaceOnUse"><stop stop-color="#8B2114"/><stop offset=".43" stop-color="#9E100A"/><stop offset=".99" stop-color="#B3100C"/><stop offset="1" stop-color="#B3100C"/></linearGradient><linearGradient id="w" x1="757.25" x2="762.17" y1="153.01" y2="155.17" gradientUnits="userSpaceOnUse"><stop stop-color="#B31000"/><stop offset=".44" stop-color="#910F08"/><stop offset=".99" stop-color="#791C12"/><stop offset="1" stop-color="#791C12"/></linearGradient><filter id="b" width="61.53" height="62.62" x="1070.82" y="243.82" color-interpolation-filters="sRGB" filterUnits="userSpaceOnUse"><feFlood flood-opacity="0" result="BackgroundImageFix"/><feColorMatrix in="SourceAlpha" result="hardAlpha" values="0 0 0 0 0 0 0 0 0 0 0 0 0 0 0 0 0 0 127 0"/><feOffset dx="1.09" dy="2.18"/><feGaussianBlur stdDeviation="1.63"/><feColorMatrix values="0 0 0 0 0 0 0 0 0 0 0 0 0 0 0 0 0 0 0.1 0"/><feBlend in2="BackgroundImageFix" result="effect1_dropShadow"/><feBlend in="SourceGraphic" in2="effect1_dropShadow" result="shape"/><feColorMatrix in="SourceAlpha" result="hardAlpha" values="0 0 0 0 0 0 0 0 0 0 0 0 0 0 0 0 0 0 127 0"/><feOffset dx="-2.18" dy="-2.18"/><feGaussianBlur stdDeviation="1.63"/><feComposite in2="hardAlpha" k2="-1" k3="1" operator="arithmetic"/><feColorMatrix values="0 0 0 0 0 0 0 0 0 0 0 0 0 0 0 0 0 0 0.25 0"/><feBlend in2="shape" result="effect2_innerShadow"/><feColorMatrix in="SourceAlpha" result="hardAlpha" values="0 0 0 0 0 0 0 0 0 0 0 0 0 0 0 0 0 0 127 0"/><feOffset dx="1.09" dy="2.18"/><feGaussianBlur stdDeviation="1.63"/><feComposite in2="hardAlpha" k2="-1" k3="1" operator="arithmetic"/><feColorMatrix values="0 0 0 0 1 0 0 0 0 1 0 0 0 0 1 0 0 0 0.05 0"/><feBlend in2="effect2_innerShadow" result="effect3_innerShadow"/></filter><filter id="e" width="74.45" height="78.27" x="1026.18" y="114.18" color-interpolation-filters="sRGB" filterUnits="userSpaceOnUse"><feFlood flood-opacity="0" result="BackgroundImageFix"/><feColorMatrix in="SourceAlpha" result="hardAlpha" values="0 0 0 0 0 0 0 0 0 0 0 0 0 0 0 0 0 0 127 0"/><feOffset dx="1.91" dy="3.82"/><feGaussianBlur stdDeviation="2.86"/><feColorMatrix values="0 0 0 0 0 0 0 0 0 0 0 0 0 0 0 0 0 0 0.1 0"/><feBlend in2="BackgroundImageFix" result="effect1_dropShadow"/><feBlend in="SourceGraphic" in2="effect1_dropShadow" result="shape"/><feColorMatrix in="SourceAlpha" result="hardAlpha" values="0 0 0 0 0 0 0 0 0 0 0 0 0 0 0 0 0 0 127 0"/><feOffset dx="-3.82" dy="-3.82"/><feGaussianBlur stdDeviation="2.86"/><feComposite in2="hardAlpha" k2="-1" k3="1" operator="arithmetic"/><feColorMatrix values="0 0 0 0 0 0 0 0 0 0 0 0 0 0 0 0 0 0 0.25 0"/><feBlend in2="shape" result="effect2_innerShadow"/><feColorMatrix in="SourceAlpha" result="hardAlpha" values="0 0 0 0 0 0 0 0 0 0 0 0 0 0 0 0 0 0 127 0"/><feOffset dx="1.91" dy="3.82"/><feGaussianBlur stdDeviation="2.86"/><feComposite in2="hardAlpha" k2="-1" k3="1" operator="arithmetic"/><feColorMatrix values="0 0 0 0 1 0 0 0 0 1 0 0 0 0 1 0 0 0 0.05 0"/><feBlend in2="effect2_innerShadow" result="effect3_innerShadow"/></filter><filter id="f" width="57.59" height="59.49" x="865.47" y="79.47" color-interpolation-filters="sRGB" filterUnits="userSpaceOnUse"><feFlood flood-opacity="0" result="BackgroundImageFix"/><feColorMatrix in="SourceAlpha" result="hardAlpha" values="0 0 0 0 0 0 0 0 0 0 0 0 0 0 0 0 0 0 127 0"/><feOffset dx="1.27" dy="2.53"/><feGaussianBlur stdDeviation="1.9"/><feColorMatrix values="0 0 0 0 0 0 0 0 0 0 0 0 0 0 0 0 0 0 0.1 0"/><feBlend in2="BackgroundImageFix" result="effect1_dropShadow"/><feBlend in="SourceGraphic" in2="effect1_dropShadow" result="shape"/><feColorMatrix in="SourceAlpha" result="hardAlpha" values="0 0 0 0 0 0 0 0 0 0 0 0 0 0 0 0 0 0 127 0"/><feOffset dx="-2.53" dy="-2.53"/><feGaussianBlur stdDeviation="1.9"/><feComposite in2="hardAlpha" k2="-1" k3="1" operator="arithmetic"/><feColorMatrix values="0 0 0 0 0 0 0 0 0 0 0 0 0 0 0 0 0 0 0.25 0"/><feBlend in2="shape" result="effect2_innerShadow"/><feColorMatrix in="SourceAlpha" result="hardAlpha" values="0 0 0 0 0 0 0 0 0 0 0 0 0 0 0 0 0 0 127 0"/><feOffset dx="1.27" dy="2.53"/><feGaussianBlur stdDeviation="1.9"/><feComposite in2="hardAlpha" k2="-1" k3="1" operator="arithmetic"/><feColorMatrix values="0 0 0 0 1 0 0 0 0 1 0 0 0 0 1 0 0 0 0.05 0"/><feBlend in2="effect2_innerShadow" result="effect3_innerShadow"/></filter><filter id="g" width="59.38" height="62.5" x="722.88" y="136.88" color-interpolation-filters="sRGB" filterUnits="userSpaceOnUse"><feFlood flood-opacity="0" result="BackgroundImageFix"/><feColorMatrix in="SourceAlpha" result="hardAlpha" values="0 0 0 0 0 0 0 0 0 0 0 0 0 0 0 0 0 0 127 0"/><feOffset dx="1.56" dy="3.13"/><feGaussianBlur stdDeviation="2.34"/><feColorMatrix values="0 0 0 0 0 0 0 0 0 0 0 0 0 0 0 0 0 0 0.1 0"/><feBlend in2="BackgroundImageFix" result="effect1_dropShadow"/><feBlend in="SourceGraphic" in2="effect1_dropShadow" result="shape"/><feColorMatrix in="SourceAlpha" result="hardAlpha" values="0 0 0 0 0 0 0 0 0 0 0 0 0 0 0 0 0 0 127 0"/><feOffset dx="-3.13" dy="-3.13"/><feGaussianBlur stdDeviation="2.34"/><feComposite in2="hardAlpha" k2="-1" k3="1" operator="arithmetic"/><feColorMatrix values="0 0 0 0 0 0 0 0 0 0 0 0 0 0 0 0 0 0 0.25 0"/><feBlend in2="shape" result="effect2_innerShadow"/><feColorMatrix in="SourceAlpha" result="hardAlpha" values="0 0 0 0 0 0 0 0 0 0 0 0 0 0 0 0 0 0 127 0"/><feOffset dx="1.56" dy="3.13"/><feGaussianBlur stdDeviation="2.34"/><feComposite in2="hardAlpha" k2="-1" k3="1" operator="arithmetic"/><feColorMatrix values="0 0 0 0 1 0 0 0 0 1 0 0 0 0 1 0 0 0 0.05 0"/><feBlend in2="effect2_innerShadow" result="effect3_innerShadow"/></filter><filter id="x" width="75.92" height="79.22" x="898.36" y="243.36" color-interpolation-filters="sRGB" filterUnits="userSpaceOnUse"><feFlood flood-opacity="0" result="BackgroundImageFix"/><feColorMatrix in="SourceAlpha" result="hardAlpha" values="0 0 0 0 0 0 0 0 0 0 0 0 0 0 0 0 0 0 127 0"/><feOffset dx="1.32" dy="2.64"/><feGaussianBlur stdDeviation="1.98"/><feColorMatrix values="0 0 0 0 0 0 0 0 0 0 0 0 0 0 0 0 0 0 0.1 0"/><feBlend in2="BackgroundImageFix" result="effect1_dropShadow"/><feBlend in="SourceGraphic" in2="effect1_dropShadow" result="shape"/><feColorMatrix in="SourceAlpha" result="hardAlpha" values="0 0 0 0 0 0 0 0 0 0 0 0 0 0 0 0 0 0 127 0"/><feOffset dx="-2.64" dy="-2.64"/><feGaussianBlur stdDeviation="1.98"/><feComposite in2="hardAlpha" k2="-1" k3="1" operator="arithmetic"/><feColorMatrix values="0 0 0 0 0 0 0 0 0 0 0 0 0 0 0 0 0 0 0.25 0"/><feBlend in2="shape" result="effect2_innerShadow"/><feColorMatrix in="SourceAlpha" result="hardAlpha" values="0 0 0 0 0 0 0 0 0 0 0 0 0 0 0 0 0 0 127 0"/><feOffset dx="1.32" dy="2.64"/><feGaussianBlur stdDeviation="1.98"/><feComposite in2="hardAlpha" k2="-1" k3="1" operator="arithmetic"/><feColorMatrix values="0 0 0 0 1 0 0 0 0 1 0 0 0 0 1 0 0 0 0.05 0"/><feBlend in2="effect2_innerShadow" result="effect3_innerShadow"/></filter><filter id="y" width="44.79" height="46.74" x="312.4" y="37.4" color-interpolation-filters="sRGB" filterUnits="userSpaceOnUse"><feFlood flood-opacity="0" result="BackgroundImageFix"/><feColorMatrix in="SourceAlpha" result="hardAlpha" values="0 0 0 0 0 0 0 0 0 0 0 0 0 0 0 0 0 0 127 0"/><feOffset dx="1.3" dy="2.6"/><feGaussianBlur stdDeviation="1.95"/><feColorMatrix values="0 0 0 0 0 0 0 0 0 0 0 0 0 0 0 0 0 0 0.1 0"/><feBlend in2="BackgroundImageFix" result="effect1_dropShadow"/><feBlend in="SourceGraphic" in2="effect1_dropShadow" result="shape"/><feColorMatrix in="SourceAlpha" result="hardAlpha" values="0 0 0 0 0 0 0 0 0 0 0 0 0 0 0 0 0 0 127 0"/><feOffset dx="-2.6" dy="-2.6"/><feGaussianBlur stdDeviation="1.95"/><feComposite in2="hardAlpha" k2="-1" k3="1" operator="arithmetic"/><feColorMatrix values="0 0 0 0 0 0 0 0 0 0 0 0 0 0 0 0 0 0 0.25 0"/><feBlend in2="shape" result="effect2_innerShadow"/><feColorMatrix in="SourceAlpha" result="hardAlpha" values="0 0 0 0 0 0 0 0 0 0 0 0 0 0 0 0 0 0 127 0"/><feOffset dx="1.3" dy="2.6"/><feGaussianBlur stdDeviation="1.95"/><feComposite in2="hardAlpha" k2="-1" k3="1" operator="arithmetic"/><feColorMatrix values="0 0 0 0 1 0 0 0 0 1 0 0 0 0 1 0 0 0 0.05 0"/><feBlend in2="effect2_innerShadow" result="effect3_innerShadow"/></filter><radialGradient id="t" cx="0" cy="0" r="1" gradientTransform="matrix(6.61475 0 0 6.63316 755.83 162.18)" gradientUnits="userSpaceOnUse"><stop stop-color="#A80D00"/><stop offset=".99" stop-color="#7E0E08"/><stop offset="1" stop-color="#7E0E08"/></radialGradient><radialGradient id="u" cx="0" cy="0" r="1" gradientTransform="matrix(8.79343 0 0 8.8179 746.67 170.92)" gradientUnits="userSpaceOnUse"><stop stop-color="#A30C00"/><stop offset=".99" stop-color="#800E08"/><stop offset="1" stop-color="#800E08"/></radialGradient><clipPath id="a"><path fill="#fff" d="M0 0h1200v359H0z"/></clipPath></defs></svg>