<svg viewBox="0 0 111 18" fill="none" xmlns="http://www.w3.org/2000/svg">
  <g clip-path="url(#clip0_1435_5123)">
  <path fill-rule="evenodd" clip-rule="evenodd" d="M2.18677 4.06799H7.68339C8.14765 4.06799 8.53446 4.46696 8.53446 4.94512C8.53446 5.42333 8.14765 5.82228 7.68339 5.82228H2.18677V4.06799ZM2.18677 11.0048H8.9218C9.38606 11.0048 9.77345 11.4032 9.77345 11.8819C9.77345 12.3601 9.38606 12.7585 8.9218 12.7585H2.18677V11.0048ZM0 16.3468V0.5H5.41857C7.1026 0.5 8.51523 0.878582 9.69595 1.65613C10.8569 2.41388 11.747 3.41042 12.3278 4.62596C12.9086 5.84208 13.2179 7.11763 13.2179 8.43335C13.2179 9.76887 12.9278 11.0444 12.3278 12.2407C11.747 13.4563 10.8569 14.433 9.69595 15.2105C8.53446 15.9677 7.1026 16.3667 5.41857 16.3667H1.00658C0.715917 16.3468 0.0192268 16.3468 0 16.3468ZM2.18677 7.53639H5.99932C6.46416 7.53639 6.85097 7.93478 6.85097 8.41354C6.85097 8.89171 6.46416 9.29066 5.99932 9.29066H2.18677V7.53639Z" fill="white"/>
  <path d="M27.0194 1.50923V13.4609H25.7484L25.6938 11.9289C25.3696 12.4856 24.937 12.9035 24.3958 13.2103C23.8546 13.4886 23.2595 13.656 22.6374 13.656C21.4203 13.656 20.4464 13.2659 19.662 12.4856C18.8782 11.7061 18.4994 10.6476 18.4994 9.28221C18.4994 7.91681 18.8782 6.83051 19.662 6.07877C20.4464 5.29855 21.4203 4.9362 22.6374 4.9362C23.2595 4.9362 23.8546 5.07573 24.4227 5.38181C24.9909 5.68866 25.4236 6.07877 25.6938 6.63543V1.50923H27.0194ZM22.719 6.16203C21.8799 6.16203 21.204 6.4404 20.6628 6.97004C20.1223 7.49895 19.8513 8.25141 19.8513 9.22666C19.8513 10.1735 20.1223 10.9259 20.6628 11.4548C21.204 12.0122 21.9075 12.2628 22.719 12.2628C23.5574 12.2628 24.2333 11.9845 24.8015 11.3993C25.3427 10.8426 25.6399 10.0902 25.6399 9.17043C25.6399 8.27916 25.3696 7.55518 24.8015 6.99779C24.2064 6.46815 23.5304 6.16203 22.719 6.16203Z" fill="white"/>
  <path d="M36.8112 12.1239C36.4055 12.6251 35.8913 12.9874 35.2423 13.238C34.5932 13.4885 33.9435 13.6281 33.2676 13.6281C31.9965 13.6281 30.9418 13.238 30.1573 12.43C29.3729 11.622 28.9671 10.5635 28.9671 9.22654C28.9671 7.94517 29.3729 6.91437 30.1573 6.07865C30.9418 5.24217 31.9695 4.85278 33.2137 4.85278C34.5386 4.85278 35.594 5.27064 36.3786 6.13416C37.1623 6.99767 37.4602 8.19575 37.3247 9.81173H30.3737C30.4545 10.5635 30.7524 11.1764 31.3198 11.6498C31.8611 12.1239 32.537 12.3467 33.3491 12.3467C33.8357 12.3467 34.3223 12.2627 34.8096 12.0676C35.2962 11.8726 35.6749 11.622 35.9452 11.2881L36.8112 12.1239ZM36.0267 8.64141C35.9998 7.83339 35.7289 7.2205 35.2423 6.77485C34.7557 6.32923 34.079 6.10641 33.2676 6.10641C32.537 6.10641 31.888 6.32923 31.3475 6.77485C30.8063 7.2205 30.4815 7.83339 30.3737 8.61361L36.0267 8.64141Z" fill="white"/>
  <path d="M46.5212 12.1239C46.1156 12.6251 45.6014 12.9874 44.9523 13.238C44.3033 13.4885 43.6542 13.6281 42.9774 13.6281C41.7065 13.6281 40.6518 13.238 39.8673 12.43C39.0829 11.622 38.6771 10.5635 38.6771 9.22654C38.6771 7.94517 39.0829 6.91437 39.8673 6.07865C40.6518 5.24217 41.6797 4.85278 42.9238 4.85278C44.2492 4.85278 45.3039 5.27064 46.0887 6.13416C46.8732 6.99767 47.1703 8.19575 47.0353 9.81173H40.0837C40.1645 10.5635 40.4624 11.1764 41.0306 11.6498C41.5712 12.1239 42.2479 12.3467 43.0591 12.3467C43.5457 12.3467 44.033 12.2627 44.5195 12.0676C45.0064 11.8726 45.3848 11.622 45.6559 11.2881L46.5212 12.1239ZM45.7368 8.64141C45.7099 7.83339 45.4397 7.2205 44.9523 6.77485C44.4658 6.32923 43.7891 6.10641 42.9774 6.10641C42.2479 6.10641 41.5988 6.32923 41.0575 6.77485C40.5163 7.2205 40.1922 7.83339 40.0837 8.61361L45.7368 8.64141Z" fill="white"/>
  <path d="M48.9028 5.07652H50.2005L50.2554 6.69178C50.5793 6.13507 51.0122 5.68946 51.5804 5.38261C52.1486 5.07652 52.7436 4.90924 53.3927 4.90924C54.5828 4.93699 55.5566 5.35485 56.3142 6.13507C57.071 6.94304 57.4498 7.97383 57.4498 9.25521C57.4498 10.5643 57.071 11.6229 56.287 12.4309C55.5025 13.2389 54.5287 13.629 53.2846 13.629C52.6628 13.629 52.0677 13.4894 51.4995 13.2111C50.9313 12.9328 50.4985 12.4864 50.2005 11.9297V17.4176H48.8755V5.07652H48.9028ZM55.3131 11.5119C55.8537 10.9544 56.1248 10.2305 56.1248 9.28296C56.1248 8.36394 55.8537 7.61152 55.3131 7.08188C54.7722 6.55293 54.0963 6.27387 53.2301 6.27387C52.3648 6.27387 51.6889 6.55293 51.1475 7.13811C50.6066 7.69478 50.3631 8.41949 50.3631 9.31075C50.3631 10.1743 50.6334 10.8989 51.1744 11.4556C51.7157 12.0408 52.3917 12.3198 53.2301 12.3476C54.0963 12.3476 54.7722 12.0685 55.3131 11.5119Z" fill="white"/>
  <path d="M64.7255 6.9152C64.1305 6.35781 63.3729 6.10723 62.4259 6.10723C61.8308 6.10723 61.3443 6.19053 60.9655 6.41331C60.5867 6.63614 60.3973 6.94295 60.3973 7.33306C60.3973 8.00154 61.1013 8.4194 62.4259 8.58668C62.8047 8.64223 63.1298 8.66998 63.3729 8.72548C63.6163 8.78175 63.9143 8.86501 64.2654 8.97679C64.617 9.08784 64.8873 9.22737 65.1035 9.42244C65.3201 9.589 65.4823 9.8403 65.6449 10.1186C65.8074 10.4248 65.8611 10.7593 65.8611 11.1772C65.8611 11.9852 65.5095 12.5981 64.8604 13.0437C64.2114 13.4894 63.4001 13.7122 62.4259 13.7122C60.8034 13.7122 59.5861 13.1833 58.7744 12.1247L59.5593 11.1494C60.2352 12.0129 61.209 12.4586 62.4799 12.4586C63.0213 12.4586 63.5078 12.3475 63.9143 12.1525C64.3199 11.9574 64.5361 11.6228 64.5633 11.1494C64.5633 10.7316 64.4008 10.4248 63.9951 10.2304C63.5895 10.0353 63.0749 9.89581 62.3454 9.81255C61.8849 9.75628 61.4793 9.67302 61.1549 9.589C60.8302 9.5057 60.4782 9.36617 60.1543 9.19961C59.8023 9.03233 59.5593 8.78175 59.3699 8.5027C59.1804 8.19657 59.0996 7.83421 59.0996 7.3886C59.0996 6.83121 59.2613 6.33006 59.6129 5.9677C59.9649 5.57759 60.3705 5.29926 60.857 5.15973C61.3443 4.99241 61.8581 4.9369 62.4259 4.9369C63.6972 4.9369 64.7255 5.29926 65.5372 6.051L64.7255 6.9152Z" fill="white"/>
  <path d="M68.4043 6.07865C69.2156 5.24217 70.2162 4.85278 71.4335 4.85278C72.6776 4.85278 73.7055 5.27064 74.4899 6.07865C75.2744 6.8859 75.68 7.97292 75.68 9.28209C75.68 10.5635 75.2744 11.5943 74.4899 12.4022C73.6787 13.2102 72.6776 13.6281 71.4335 13.6281C70.2162 13.6281 69.1888 13.2102 68.4043 12.4022C67.5927 11.5943 67.2139 10.5357 67.2139 9.28209C67.2139 7.97292 67.5927 6.91437 68.4043 6.07865ZM73.5429 6.99767C73.0024 6.41249 72.2988 6.10641 71.4603 6.10641C70.6223 6.10641 69.9187 6.38474 69.3782 6.96992C68.8368 7.55506 68.5665 8.3068 68.5665 9.22654C68.5665 10.1178 68.8368 10.8425 69.3782 11.3992C69.9187 11.9566 70.6223 12.2627 71.4603 12.2627C72.2988 12.2627 73.0024 11.9844 73.5429 11.3992C74.0843 10.8425 74.3822 10.0901 74.3822 9.22654C74.3546 8.33455 74.0843 7.58281 73.5429 6.99767Z" fill="white"/>
  <path d="M84.0108 13.4613L83.9567 12.1244C83.254 13.099 82.307 13.5731 81.1169 13.6008C80.0622 13.6008 79.1961 13.2385 78.547 12.5423C77.8979 11.8454 77.5732 10.8986 77.5732 9.67273V5.01991H78.9258V9.67273C78.9258 10.4807 79.142 11.1214 79.5749 11.5948C80.0082 12.0682 80.6304 12.2917 81.3872 12.2917C82.1176 12.2917 82.7398 12.0127 83.1995 11.4837C83.6596 10.9541 83.9031 10.3134 83.9031 9.5332V5.01991H85.2557V13.4613H84.0108Z" fill="white"/>
  <path d="M89.015 5.01937L89.1235 6.27299C89.61 5.35393 90.4485 4.88057 91.6385 4.88057C92.3693 4.85277 92.9912 5.0756 93.5325 5.52125L92.9103 6.71933C92.4778 6.41252 92.0173 6.2452 91.4768 6.2452C90.8005 6.2452 90.2323 6.4965 89.7726 6.94216C89.3129 7.41552 89.0694 8.0007 89.0694 8.75244V13.433H87.7168V5.01937H89.015Z" fill="white"/>
  <path d="M101.377 12.32C100.539 13.1835 99.5102 13.6291 98.3209 13.6291C97.1036 13.6291 96.1026 13.239 95.2637 12.4588C94.4524 11.6793 94.0464 10.62 94.0464 9.25534C94.0464 7.88998 94.4524 6.83139 95.2637 6.05118C96.0749 5.27168 97.1036 4.88158 98.3209 4.88158C99.4565 4.88158 100.457 5.29944 101.296 6.1352L100.43 7.05422C99.8621 6.49755 99.1862 6.1907 98.3477 6.1907C97.5093 6.1907 96.8057 6.46908 96.2643 7.02647C95.6969 7.58385 95.4263 8.30784 95.4263 9.22758C95.4263 10.1744 95.6969 10.9268 96.2643 11.4557C96.8325 11.9854 97.5093 12.2637 98.3477 12.2637C99.2131 12.2637 99.9166 11.9576 100.484 11.3725L101.377 12.32Z" fill="white"/>
  <path d="M110.248 12.1239C109.843 12.6251 109.328 12.9874 108.679 13.238C108.031 13.4885 107.381 13.6281 106.705 13.6281C105.434 13.6281 104.379 13.238 103.595 12.43C102.81 11.622 102.404 10.5635 102.404 9.22654C102.404 7.94517 102.81 6.91437 103.595 6.07865C104.379 5.24217 105.407 4.85278 106.651 4.85278C107.977 4.85278 109.031 5.27064 109.816 6.13416C110.6 6.99767 110.898 8.19575 110.762 9.81173H103.811C103.892 10.5635 104.19 11.1764 104.758 11.6498C105.298 12.1239 105.975 12.3467 106.786 12.3467C107.273 12.3467 107.76 12.2627 108.247 12.0676C108.733 11.8726 109.112 11.622 109.383 11.2881L110.248 12.1239ZM109.464 8.64141C109.437 7.83339 109.167 7.2205 108.679 6.77485C108.193 6.32923 107.516 6.10641 106.705 6.10641C105.975 6.10641 105.325 6.32923 104.785 6.77485C104.243 7.2205 103.919 7.83339 103.811 8.61361L109.464 8.64141Z" fill="white"/>
  </g>
  <defs>
  <clipPath id="clip0_1435_5123">
  <rect width="111" height="17" fill="white" transform="translate(0 0.5)"/>
  </clipPath>
  </defs>
</svg>      