<svg width="31" height="31" viewBox="0 0 31 31" fill="none" xmlns="http://www.w3.org/2000/svg">
<path fill="#16181d" fill-rule="evenodd" clip-rule="evenodd" d="M0 0V30.961C0.0389751 30.961 1.44069 30.961 2.02485 31H10.9024C14.2899 31 17.1713 30.2213 19.508 28.7414C21.8441 27.2225 23.6351 25.3142 24.8035 22.9386C26.0103 20.6015 26.5945 18.1095 26.5945 15.5C26.5945 12.9295 25.9713 10.437 24.8035 8.06139C23.6351 5.68581 21.8441 3.73856 19.508 2.25864C17.1328 0.73973 14.2899 0 10.9024 0H0ZM15.459 6.9713H4.40074V10.3985H15.459C16.3935 10.3985 17.172 9.61929 17.172 8.68465C17.172 7.75001 16.3935 6.9713 15.459 6.9713ZM4.40084 20.5248H17.9512C18.8857 20.5248 19.6642 21.3035 19.6642 22.2381C19.6642 23.1728 18.8857 23.9519 17.9512 23.9519H4.40084V20.5248ZM12.0715 13.7483H4.40084V17.1755H12.0715C13.006 17.1755 13.7846 16.3963 13.7846 15.4617C13.7846 14.527 13.006 13.7483 12.0715 13.7483Z"/>
</svg>
