<svg xmlns="http://www.w3.org/2000/svg">
  <defs>
    <symbol id="activity" viewBox="0 0 24 24">
      <polyline points="22 12 18 12 15 21 9 3 6 12 2 12"></polyline>
    </symbol>
    <symbol id="airplay" viewBox="0 0 24 24">
      <path
        d="M5 17H4a2 2 0 0 1-2-2V5a2 2 0 0 1 2-2h16a2 2 0 0 1 2 2v10a2 2 0 0 1-2 2h-1"
      ></path>
      <polygon points="12 15 17 21 7 21 12 15"></polygon>
    </symbol>
    <symbol id="alert-circle" viewBox="0 0 24 24">
      <circle cx="12" cy="12" r="10"></circle>
      <line x1="12" y1="8" x2="12" y2="12"></line>
      <line x1="12" y1="16" x2="12.01" y2="16"></line>
    </symbol>
    <symbol id="alert-octagon" viewBox="0 0 24 24">
      <polygon
        points="7.86 2 16.14 2 22 7.86 22 16.14 16.14 22 7.86 22 2 16.14 2 7.86 7.86 2"
      ></polygon>
      <line x1="12" y1="8" x2="12" y2="12"></line>
      <line x1="12" y1="16" x2="12.01" y2="16"></line>
    </symbol>
    <symbol id="alert-triangle" viewBox="0 0 24 24">
      <path
        d="M10.29 3.86L1.82 18a2 2 0 0 0 1.71 3h16.94a2 2 0 0 0 1.71-3L13.71 3.86a2 2 0 0 0-3.42 0z"
      ></path>
      <line x1="12" y1="9" x2="12" y2="13"></line>
      <line x1="12" y1="17" x2="12.01" y2="17"></line>
    </symbol>
    <symbol id="align-center" viewBox="0 0 24 24">
      <line x1="18" y1="10" x2="6" y2="10"></line>
      <line x1="21" y1="6" x2="3" y2="6"></line>
      <line x1="21" y1="14" x2="3" y2="14"></line>
      <line x1="18" y1="18" x2="6" y2="18"></line>
    </symbol>
    <symbol id="align-justify" viewBox="0 0 24 24">
      <line x1="21" y1="10" x2="3" y2="10"></line>
      <line x1="21" y1="6" x2="3" y2="6"></line>
      <line x1="21" y1="14" x2="3" y2="14"></line>
      <line x1="21" y1="18" x2="3" y2="18"></line>
    </symbol>
    <symbol id="align-left" viewBox="0 0 24 24">
      <line x1="17" y1="10" x2="3" y2="10"></line>
      <line x1="21" y1="6" x2="3" y2="6"></line>
      <line x1="21" y1="14" x2="3" y2="14"></line>
      <line x1="17" y1="18" x2="3" y2="18"></line>
    </symbol>
    <symbol id="align-right" viewBox="0 0 24 24">
      <line x1="21" y1="10" x2="7" y2="10"></line>
      <line x1="21" y1="6" x2="3" y2="6"></line>
      <line x1="21" y1="14" x2="3" y2="14"></line>
      <line x1="21" y1="18" x2="7" y2="18"></line>
    </symbol>
    <symbol id="anchor" viewBox="0 0 24 24">
      <circle cx="12" cy="5" r="3"></circle>
      <line x1="12" y1="22" x2="12" y2="8"></line>
      <path d="M5 12H2a10 10 0 0 0 20 0h-3"></path>
    </symbol>
    <symbol id="aperture" viewBox="0 0 24 24">
      <circle cx="12" cy="12" r="10"></circle>
      <line x1="14.31" y1="8" x2="20.05" y2="17.94"></line>
      <line x1="9.69" y1="8" x2="21.17" y2="8"></line>
      <line x1="7.38" y1="12" x2="13.12" y2="2.06"></line>
      <line x1="9.69" y1="16" x2="3.95" y2="6.06"></line>
      <line x1="14.31" y1="16" x2="2.83" y2="16"></line>
      <line x1="16.62" y1="12" x2="10.88" y2="21.94"></line>
    </symbol>
    <symbol id="archive" viewBox="0 0 24 24">
      <polyline points="21 8 21 21 3 21 3 8"></polyline>
      <rect x="1" y="3" width="22" height="5"></rect>
      <line x1="10" y1="12" x2="14" y2="12"></line>
    </symbol>
    <symbol id="arrow-down-circle" viewBox="0 0 24 24">
      <circle cx="12" cy="12" r="10"></circle>
      <polyline points="8 12 12 16 16 12"></polyline>
      <line x1="12" y1="8" x2="12" y2="16"></line>
    </symbol>
    <symbol id="arrow-down-left" viewBox="0 0 24 24">
      <line x1="17" y1="7" x2="7" y2="17"></line>
      <polyline points="17 17 7 17 7 7"></polyline>
    </symbol>
    <symbol id="arrow-down-right" viewBox="0 0 24 24">
      <line x1="7" y1="7" x2="17" y2="17"></line>
      <polyline points="17 7 17 17 7 17"></polyline>
    </symbol>
    <symbol id="arrow-down" viewBox="0 0 24 24">
      <line x1="12" y1="5" x2="12" y2="19"></line>
      <polyline points="19 12 12 19 5 12"></polyline>
    </symbol>
    <symbol id="arrow-left-circle" viewBox="0 0 24 24">
      <circle cx="12" cy="12" r="10"></circle>
      <polyline points="12 8 8 12 12 16"></polyline>
      <line x1="16" y1="12" x2="8" y2="12"></line>
    </symbol>
    <symbol id="arrow-left" viewBox="0 0 24 24">
      <line x1="19" y1="12" x2="5" y2="12"></line>
      <polyline points="12 19 5 12 12 5"></polyline>
    </symbol>
    <symbol id="arrow-right-circle" viewBox="0 0 24 24">
      <circle cx="12" cy="12" r="10"></circle>
      <polyline points="12 16 16 12 12 8"></polyline>
      <line x1="8" y1="12" x2="16" y2="12"></line>
    </symbol>
    <symbol id="arrow-right" viewBox="0 0 24 24">
      <line x1="5" y1="12" x2="19" y2="12"></line>
      <polyline points="12 5 19 12 12 19"></polyline>
    </symbol>
    <symbol id="arrow-up-circle" viewBox="0 0 24 24">
      <circle cx="12" cy="12" r="10"></circle>
      <polyline points="16 12 12 8 8 12"></polyline>
      <line x1="12" y1="16" x2="12" y2="8"></line>
    </symbol>
    <symbol id="arrow-up-left" viewBox="0 0 24 24">
      <line x1="17" y1="17" x2="7" y2="7"></line>
      <polyline points="7 17 7 7 17 7"></polyline>
    </symbol>
    <symbol id="arrow-up-right" viewBox="0 0 24 24">
      <line x1="7" y1="17" x2="17" y2="7"></line>
      <polyline points="7 7 17 7 17 17"></polyline>
    </symbol>
    <symbol id="arrow-up" viewBox="0 0 24 24">
      <line x1="12" y1="19" x2="12" y2="5"></line>
      <polyline points="5 12 12 5 19 12"></polyline>
    </symbol>
    <symbol id="at-sign" viewBox="0 0 24 24">
      <circle cx="12" cy="12" r="4"></circle>
      <path d="M16 8v5a3 3 0 0 0 6 0v-1a10 10 0 1 0-3.92 7.94"></path>
    </symbol>
    <symbol id="award" viewBox="0 0 24 24">
      <circle cx="12" cy="8" r="7"></circle>
      <polyline points="8.21 13.89 7 23 12 20 17 23 15.79 13.88"></polyline>
    </symbol>
    <symbol id="bar-chart-2" viewBox="0 0 24 24">
      <line x1="18" y1="20" x2="18" y2="10"></line>
      <line x1="12" y1="20" x2="12" y2="4"></line>
      <line x1="6" y1="20" x2="6" y2="14"></line>
    </symbol>
    <symbol id="bar-chart" viewBox="0 0 24 24">
      <line x1="12" y1="20" x2="12" y2="10"></line>
      <line x1="18" y1="20" x2="18" y2="4"></line>
      <line x1="6" y1="20" x2="6" y2="16"></line>
    </symbol>
    <symbol id="battery-charging" viewBox="0 0 24 24">
      <path
        d="M5 18H3a2 2 0 0 1-2-2V8a2 2 0 0 1 2-2h3.19M15 6h2a2 2 0 0 1 2 2v8a2 2 0 0 1-2 2h-3.19"
      ></path>
      <line x1="23" y1="13" x2="23" y2="11"></line>
      <polyline points="11 6 7 12 13 12 9 18"></polyline>
    </symbol>
    <symbol id="battery" viewBox="0 0 24 24">
      <rect x="1" y="6" width="18" height="12" rx="2" ry="2"></rect>
      <line x1="23" y1="13" x2="23" y2="11"></line>
    </symbol>
    <symbol id="bell-off" viewBox="0 0 24 24">
      <path d="M13.73 21a2 2 0 0 1-3.46 0"></path>
      <path d="M18.63 13A17.89 17.89 0 0 1 18 8"></path>
      <path d="M6.26 6.26A5.86 5.86 0 0 0 6 8c0 7-3 9-3 9h14"></path>
      <path d="M18 8a6 6 0 0 0-9.33-5"></path>
      <line x1="1" y1="1" x2="23" y2="23"></line>
    </symbol>
    <symbol id="bell" viewBox="0 0 24 24">
      <path d="M18 8A6 6 0 0 0 6 8c0 7-3 9-3 9h18s-3-2-3-9"></path>
      <path d="M13.73 21a2 2 0 0 1-3.46 0"></path>
    </symbol>
    <symbol id="bluetooth" viewBox="0 0 24 24">
      <polyline
        points="6.5 6.5 17.5 17.5 12 23 12 1 17.5 6.5 6.5 17.5"
      ></polyline>
    </symbol>
    <symbol id="bold" viewBox="0 0 24 24">
      <path d="M6 4h8a4 4 0 0 1 4 4 4 4 0 0 1-4 4H6z"></path>
      <path d="M6 12h9a4 4 0 0 1 4 4 4 4 0 0 1-4 4H6z"></path>
    </symbol>
    <symbol id="book-open" viewBox="0 0 24 24">
      <path d="M2 3h6a4 4 0 0 1 4 4v14a3 3 0 0 0-3-3H2z"></path>
      <path d="M22 3h-6a4 4 0 0 0-4 4v14a3 3 0 0 1 3-3h7z"></path>
    </symbol>
    <symbol id="book" viewBox="0 0 24 24">
      <path d="M4 19.5A2.5 2.5 0 0 1 6.5 17H20"></path>
      <path
        d="M6.5 2H20v20H6.5A2.5 2.5 0 0 1 4 19.5v-15A2.5 2.5 0 0 1 6.5 2z"
      ></path>
    </symbol>
    <symbol id="bookmark" viewBox="0 0 24 24">
      <path d="M19 21l-7-5-7 5V5a2 2 0 0 1 2-2h10a2 2 0 0 1 2 2z"></path>
    </symbol>
    <symbol id="box" viewBox="0 0 24 24">
      <path
        d="M21 16V8a2 2 0 0 0-1-1.73l-7-4a2 2 0 0 0-2 0l-7 4A2 2 0 0 0 3 8v8a2 2 0 0 0 1 1.73l7 4a2 2 0 0 0 2 0l7-4A2 2 0 0 0 21 16z"
      ></path>
      <polyline points="3.27 6.96 12 12.01 20.73 6.96"></polyline>
      <line x1="12" y1="22.08" x2="12" y2="12"></line>
    </symbol>
    <symbol id="briefcase" viewBox="0 0 24 24">
      <rect x="2" y="7" width="20" height="14" rx="2" ry="2"></rect>
      <path d="M16 21V5a2 2 0 0 0-2-2h-4a2 2 0 0 0-2 2v16"></path>
    </symbol>
    <symbol id="calendar" viewBox="0 0 24 24">
      <rect x="3" y="4" width="18" height="18" rx="2" ry="2"></rect>
      <line x1="16" y1="2" x2="16" y2="6"></line>
      <line x1="8" y1="2" x2="8" y2="6"></line>
      <line x1="3" y1="10" x2="21" y2="10"></line>
    </symbol>
    <symbol id="camera-off" viewBox="0 0 24 24">
      <line x1="1" y1="1" x2="23" y2="23"></line>
      <path
        d="M21 21H3a2 2 0 0 1-2-2V8a2 2 0 0 1 2-2h3m3-3h6l2 3h4a2 2 0 0 1 2 2v9.34m-7.72-2.06a4 4 0 1 1-5.56-5.56"
      ></path>
    </symbol>
    <symbol id="camera" viewBox="0 0 24 24">
      <path
        d="M23 19a2 2 0 0 1-2 2H3a2 2 0 0 1-2-2V8a2 2 0 0 1 2-2h4l2-3h6l2 3h4a2 2 0 0 1 2 2z"
      ></path>
      <circle cx="12" cy="13" r="4"></circle>
    </symbol>
    <symbol id="cast" viewBox="0 0 24 24">
      <path
        d="M2 16.1A5 5 0 0 1 5.9 20M2 12.05A9 9 0 0 1 9.95 20M2 8V6a2 2 0 0 1 2-2h16a2 2 0 0 1 2 2v12a2 2 0 0 1-2 2h-6"
      ></path>
      <line x1="2" y1="20" x2="2.01" y2="20"></line>
    </symbol>
    <symbol id="check-circle" viewBox="0 0 24 24">
      <path d="M22 11.08V12a10 10 0 1 1-5.93-9.14"></path>
      <polyline points="22 4 12 14.01 9 11.01"></polyline>
    </symbol>
    <symbol id="check-square" viewBox="0 0 24 24">
      <polyline points="9 11 12 14 22 4"></polyline>
      <path
        d="M21 12v7a2 2 0 0 1-2 2H5a2 2 0 0 1-2-2V5a2 2 0 0 1 2-2h11"
      ></path>
    </symbol>
    <symbol id="check" viewBox="0 0 24 24">
      <polyline points="20 6 9 17 4 12"></polyline>
    </symbol>
    <symbol id="chevron-down" viewBox="0 0 24 24">
      <polyline points="6 9 12 15 18 9"></polyline>
    </symbol>
    <symbol id="chevron-left" viewBox="0 0 24 24">
      <polyline points="15 18 9 12 15 6"></polyline>
    </symbol>
    <symbol id="chevron-right" viewBox="0 0 24 24">
      <polyline points="9 18 15 12 9 6"></polyline>
    </symbol>
    <symbol id="chevron-up" viewBox="0 0 24 24">
      <polyline points="18 15 12 9 6 15"></polyline>
    </symbol>
    <symbol id="chevrons-down" viewBox="0 0 24 24">
      <polyline points="7 13 12 18 17 13"></polyline>
      <polyline points="7 6 12 11 17 6"></polyline>
    </symbol>
    <symbol id="chevrons-left" viewBox="0 0 24 24">
      <polyline points="11 17 6 12 11 7"></polyline>
      <polyline points="18 17 13 12 18 7"></polyline>
    </symbol>
    <symbol id="chevrons-right" viewBox="0 0 24 24">
      <polyline points="13 17 18 12 13 7"></polyline>
      <polyline points="6 17 11 12 6 7"></polyline>
    </symbol>
    <symbol id="chevrons-up" viewBox="0 0 24 24">
      <polyline points="17 11 12 6 7 11"></polyline>
      <polyline points="17 18 12 13 7 18"></polyline>
    </symbol>
    <symbol id="chrome" viewBox="0 0 24 24">
      <circle cx="12" cy="12" r="10"></circle>
      <circle cx="12" cy="12" r="4"></circle>
      <line x1="21.17" y1="8" x2="12" y2="8"></line>
      <line x1="3.95" y1="6.06" x2="8.54" y2="14"></line>
      <line x1="10.88" y1="21.94" x2="15.46" y2="14"></line>
    </symbol>
    <symbol id="circle" viewBox="0 0 24 24">
      <circle cx="12" cy="12" r="10"></circle>
    </symbol>
    <symbol id="clipboard" viewBox="0 0 24 24">
      <path
        d="M16 4h2a2 2 0 0 1 2 2v14a2 2 0 0 1-2 2H6a2 2 0 0 1-2-2V6a2 2 0 0 1 2-2h2"
      ></path>
      <rect x="8" y="2" width="8" height="4" rx="1" ry="1"></rect>
    </symbol>
    <symbol id="clock" viewBox="0 0 24 24">
      <circle cx="12" cy="12" r="10"></circle>
      <polyline points="12 6 12 12 16 14"></polyline>
    </symbol>
    <symbol id="cloud-drizzle" viewBox="0 0 24 24">
      <line x1="8" y1="19" x2="8" y2="21"></line>
      <line x1="8" y1="13" x2="8" y2="15"></line>
      <line x1="16" y1="19" x2="16" y2="21"></line>
      <line x1="16" y1="13" x2="16" y2="15"></line>
      <line x1="12" y1="21" x2="12" y2="23"></line>
      <line x1="12" y1="15" x2="12" y2="17"></line>
      <path d="M20 16.58A5 5 0 0 0 18 7h-1.26A8 8 0 1 0 4 15.25"></path>
    </symbol>
    <symbol id="cloud-lightning" viewBox="0 0 24 24">
      <path d="M19 16.9A5 5 0 0 0 18 7h-1.26a8 8 0 1 0-11.62 9"></path>
      <polyline points="13 11 9 17 15 17 11 23"></polyline>
    </symbol>
    <symbol id="cloud-off" viewBox="0 0 24 24">
      <path
        d="M22.61 16.95A5 5 0 0 0 18 10h-1.26a8 8 0 0 0-7.05-6M5 5a8 8 0 0 0 4 15h9a5 5 0 0 0 1.7-.3"
      ></path>
      <line x1="1" y1="1" x2="23" y2="23"></line>
    </symbol>
    <symbol id="cloud-rain" viewBox="0 0 24 24">
      <line x1="16" y1="13" x2="16" y2="21"></line>
      <line x1="8" y1="13" x2="8" y2="21"></line>
      <line x1="12" y1="15" x2="12" y2="23"></line>
      <path d="M20 16.58A5 5 0 0 0 18 7h-1.26A8 8 0 1 0 4 15.25"></path>
    </symbol>
    <symbol id="cloud-snow" viewBox="0 0 24 24">
      <path d="M20 17.58A5 5 0 0 0 18 8h-1.26A8 8 0 1 0 4 16.25"></path>
      <line x1="8" y1="16" x2="8.01" y2="16"></line>
      <line x1="8" y1="20" x2="8.01" y2="20"></line>
      <line x1="12" y1="18" x2="12.01" y2="18"></line>
      <line x1="12" y1="22" x2="12.01" y2="22"></line>
      <line x1="16" y1="16" x2="16.01" y2="16"></line>
      <line x1="16" y1="20" x2="16.01" y2="20"></line>
    </symbol>
    <symbol id="cloud" viewBox="0 0 24 24">
      <path d="M18 10h-1.26A8 8 0 1 0 9 20h9a5 5 0 0 0 0-10z"></path>
    </symbol>
    <symbol id="code" viewBox="0 0 24 24">
      <polyline points="16 18 22 12 16 6"></polyline>
      <polyline points="8 6 2 12 8 18"></polyline>
    </symbol>
    <symbol id="codepen" viewBox="0 0 24 24">
      <polygon points="12 2 22 8.5 22 15.5 12 22 2 15.5 2 8.5 12 2"></polygon>
      <line x1="12" y1="22" x2="12" y2="15.5"></line>
      <polyline points="22 8.5 12 15.5 2 8.5"></polyline>
      <polyline points="2 15.5 12 8.5 22 15.5"></polyline>
      <line x1="12" y1="2" x2="12" y2="8.5"></line>
    </symbol>
    <symbol id="codesandbox" viewBox="0 0 24 24">
      <path
        d="M21 16V8a2 2 0 0 0-1-1.73l-7-4a2 2 0 0 0-2 0l-7 4A2 2 0 0 0 3 8v8a2 2 0 0 0 1 1.73l7 4a2 2 0 0 0 2 0l7-4A2 2 0 0 0 21 16z"
      ></path>
      <polyline points="7.5 4.21 12 6.81 16.5 4.21"></polyline>
      <polyline points="7.5 19.79 7.5 14.6 3 12"></polyline>
      <polyline points="21 12 16.5 14.6 16.5 19.79"></polyline>
      <polyline points="3.27 6.96 12 12.01 20.73 6.96"></polyline>
      <line x1="12" y1="22.08" x2="12" y2="12"></line>
    </symbol>
    <symbol id="coffee" viewBox="0 0 24 24">
      <path d="M18 8h1a4 4 0 0 1 0 8h-1"></path>
      <path d="M2 8h16v9a4 4 0 0 1-4 4H6a4 4 0 0 1-4-4V8z"></path>
      <line x1="6" y1="1" x2="6" y2="4"></line>
      <line x1="10" y1="1" x2="10" y2="4"></line>
      <line x1="14" y1="1" x2="14" y2="4"></line>
    </symbol>
    <symbol id="columns" viewBox="0 0 24 24">
      <path
        d="M12 3h7a2 2 0 0 1 2 2v14a2 2 0 0 1-2 2h-7m0-18H5a2 2 0 0 0-2 2v14a2 2 0 0 0 2 2h7m0-18v18"
      ></path>
    </symbol>
    <symbol id="command" viewBox="0 0 24 24">
      <path
        d="M18 3a3 3 0 0 0-3 3v12a3 3 0 0 0 3 3 3 3 0 0 0 3-3 3 3 0 0 0-3-3H6a3 3 0 0 0-3 3 3 3 0 0 0 3 3 3 3 0 0 0 3-3V6a3 3 0 0 0-3-3 3 3 0 0 0-3 3 3 3 0 0 0 3 3h12a3 3 0 0 0 3-3 3 3 0 0 0-3-3z"
      ></path>
    </symbol>
    <symbol id="compass" viewBox="0 0 24 24">
      <circle cx="12" cy="12" r="10"></circle>
      <polygon
        points="16.24 7.76 14.12 14.12 7.76 16.24 9.88 9.88 16.24 7.76"
      ></polygon>
    </symbol>
    <symbol id="copy" viewBox="0 0 24 24">
      <rect x="9" y="9" width="13" height="13" rx="2" ry="2"></rect>
      <path d="M5 15H4a2 2 0 0 1-2-2V4a2 2 0 0 1 2-2h9a2 2 0 0 1 2 2v1"></path>
    </symbol>
    <symbol id="corner-down-left" viewBox="0 0 24 24">
      <polyline points="9 10 4 15 9 20"></polyline>
      <path d="M20 4v7a4 4 0 0 1-4 4H4"></path>
    </symbol>
    <symbol id="corner-down-right" viewBox="0 0 24 24">
      <polyline points="15 10 20 15 15 20"></polyline>
      <path d="M4 4v7a4 4 0 0 0 4 4h12"></path>
    </symbol>
    <symbol id="corner-left-down" viewBox="0 0 24 24">
      <polyline points="14 15 9 20 4 15"></polyline>
      <path d="M20 4h-7a4 4 0 0 0-4 4v12"></path>
    </symbol>
    <symbol id="corner-left-up" viewBox="0 0 24 24">
      <polyline points="14 9 9 4 4 9"></polyline>
      <path d="M20 20h-7a4 4 0 0 1-4-4V4"></path>
    </symbol>
    <symbol id="corner-right-down" viewBox="0 0 24 24">
      <polyline points="10 15 15 20 20 15"></polyline>
      <path d="M4 4h7a4 4 0 0 1 4 4v12"></path>
    </symbol>
    <symbol id="corner-right-up" viewBox="0 0 24 24">
      <polyline points="10 9 15 4 20 9"></polyline>
      <path d="M4 20h7a4 4 0 0 0 4-4V4"></path>
    </symbol>
    <symbol id="corner-up-left" viewBox="0 0 24 24">
      <polyline points="9 14 4 9 9 4"></polyline>
      <path d="M20 20v-7a4 4 0 0 0-4-4H4"></path>
    </symbol>
    <symbol id="corner-up-right" viewBox="0 0 24 24">
      <polyline points="15 14 20 9 15 4"></polyline>
      <path d="M4 20v-7a4 4 0 0 1 4-4h12"></path>
    </symbol>
    <symbol id="cpu" viewBox="0 0 24 24">
      <rect x="4" y="4" width="16" height="16" rx="2" ry="2"></rect>
      <rect x="9" y="9" width="6" height="6"></rect>
      <line x1="9" y1="1" x2="9" y2="4"></line>
      <line x1="15" y1="1" x2="15" y2="4"></line>
      <line x1="9" y1="20" x2="9" y2="23"></line>
      <line x1="15" y1="20" x2="15" y2="23"></line>
      <line x1="20" y1="9" x2="23" y2="9"></line>
      <line x1="20" y1="14" x2="23" y2="14"></line>
      <line x1="1" y1="9" x2="4" y2="9"></line>
      <line x1="1" y1="14" x2="4" y2="14"></line>
    </symbol>
    <symbol id="credit-card" viewBox="0 0 24 24">
      <rect x="1" y="4" width="22" height="16" rx="2" ry="2"></rect>
      <line x1="1" y1="10" x2="23" y2="10"></line>
    </symbol>
    <symbol id="crop" viewBox="0 0 24 24">
      <path d="M6.13 1L6 16a2 2 0 0 0 2 2h15"></path>
      <path d="M1 6.13L16 6a2 2 0 0 1 2 2v15"></path>
    </symbol>
    <symbol id="crosshair" viewBox="0 0 24 24">
      <circle cx="12" cy="12" r="10"></circle>
      <line x1="22" y1="12" x2="18" y2="12"></line>
      <line x1="6" y1="12" x2="2" y2="12"></line>
      <line x1="12" y1="6" x2="12" y2="2"></line>
      <line x1="12" y1="22" x2="12" y2="18"></line>
    </symbol>
    <symbol id="database" viewBox="0 0 24 24">
      <ellipse cx="12" cy="5" rx="9" ry="3"></ellipse>
      <path d="M21 12c0 1.66-4 3-9 3s-9-1.34-9-3"></path>
      <path d="M3 5v14c0 1.66 4 3 9 3s9-1.34 9-3V5"></path>
    </symbol>
    <symbol id="delete" viewBox="0 0 24 24">
      <path d="M21 4H8l-7 8 7 8h13a2 2 0 0 0 2-2V6a2 2 0 0 0-2-2z"></path>
      <line x1="18" y1="9" x2="12" y2="15"></line>
      <line x1="12" y1="9" x2="18" y2="15"></line>
    </symbol>
    <symbol id="disc" viewBox="0 0 24 24">
      <circle cx="12" cy="12" r="10"></circle>
      <circle cx="12" cy="12" r="3"></circle>
    </symbol>
    <symbol id="divide-circle" viewBox="0 0 24 24">
      <line x1="8" y1="12" x2="16" y2="12"></line>
      <line x1="12" y1="16" x2="12" y2="16"></line>
      <line x1="12" y1="8" x2="12" y2="8"></line>
      <circle cx="12" cy="12" r="10"></circle>
    </symbol>
    <symbol id="divide-square" viewBox="0 0 24 24">
      <rect x="3" y="3" width="18" height="18" rx="2" ry="2"></rect>
      <line x1="8" y1="12" x2="16" y2="12"></line>
      <line x1="12" y1="16" x2="12" y2="16"></line>
      <line x1="12" y1="8" x2="12" y2="8"></line>
    </symbol>
    <symbol id="divide" viewBox="0 0 24 24">
      <circle cx="12" cy="6" r="2"></circle>
      <line x1="5" y1="12" x2="19" y2="12"></line>
      <circle cx="12" cy="18" r="2"></circle>
    </symbol>
    <symbol id="dollar-sign" viewBox="0 0 24 24">
      <line x1="12" y1="1" x2="12" y2="23"></line>
      <path d="M17 5H9.5a3.5 3.5 0 0 0 0 7h5a3.5 3.5 0 0 1 0 7H6"></path>
    </symbol>
    <symbol id="download-cloud" viewBox="0 0 24 24">
      <polyline points="8 17 12 21 16 17"></polyline>
      <line x1="12" y1="12" x2="12" y2="21"></line>
      <path d="M20.88 18.09A5 5 0 0 0 18 9h-1.26A8 8 0 1 0 3 16.29"></path>
    </symbol>
    <symbol id="download" viewBox="0 0 24 24">
      <path d="M21 15v4a2 2 0 0 1-2 2H5a2 2 0 0 1-2-2v-4"></path>
      <polyline points="7 10 12 15 17 10"></polyline>
      <line x1="12" y1="15" x2="12" y2="3"></line>
    </symbol>
    <symbol id="dribbble" viewBox="0 0 24 24">
      <circle cx="12" cy="12" r="10"></circle>
      <path
        d="M8.56 2.75c4.37 6.03 6.02 9.42 8.03 17.72m2.54-15.38c-3.72 4.35-8.94 5.66-16.88 5.85m19.5 1.9c-3.5-.93-6.63-.82-8.94 0-2.58.92-5.01 2.86-7.44 6.32"
      ></path>
    </symbol>
    <symbol id="droplet" viewBox="0 0 24 24">
      <path d="M12 2.69l5.66 5.66a8 8 0 1 1-11.31 0z"></path>
    </symbol>
    <symbol id="edit-2" viewBox="0 0 24 24">
      <path d="M17 3a2.828 2.828 0 1 1 4 4L7.5 20.5 2 22l1.5-5.5L17 3z"></path>
    </symbol>
    <symbol id="edit-3" viewBox="0 0 24 24">
      <path d="M12 20h9"></path>
      <path d="M16.5 3.5a2.121 2.121 0 0 1 3 3L7 19l-4 1 1-4L16.5 3.5z"></path>
    </symbol>
    <symbol id="edit" viewBox="0 0 24 24">
      <path
        d="M11 4H4a2 2 0 0 0-2 2v14a2 2 0 0 0 2 2h14a2 2 0 0 0 2-2v-7"
      ></path>
      <path d="M18.5 2.5a2.121 2.121 0 0 1 3 3L12 15l-4 1 1-4 9.5-9.5z"></path>
    </symbol>
    <symbol id="external-link" viewBox="0 0 24 24">
      <path d="M18 13v6a2 2 0 0 1-2 2H5a2 2 0 0 1-2-2V8a2 2 0 0 1 2-2h6"></path>
      <polyline points="15 3 21 3 21 9"></polyline>
      <line x1="10" y1="14" x2="21" y2="3"></line>
    </symbol>
    <symbol id="eye-off" viewBox="0 0 24 24">
      <path
        d="M17.94 17.94A10.07 10.07 0 0 1 12 20c-7 0-11-8-11-8a18.45 18.45 0 0 1 5.06-5.94M9.9 4.24A9.12 9.12 0 0 1 12 4c7 0 11 8 11 8a18.5 18.5 0 0 1-2.16 3.19m-6.72-1.07a3 3 0 1 1-4.24-4.24"
      ></path>
      <line x1="1" y1="1" x2="23" y2="23"></line>
    </symbol>
    <symbol id="eye" viewBox="0 0 24 24">
      <path d="M1 12s4-8 11-8 11 8 11 8-4 8-11 8-11-8-11-8z"></path>
      <circle cx="12" cy="12" r="3"></circle>
    </symbol>
    <symbol id="facebook" viewBox="0 0 24 24">
      <path
        d="M18 2h-3a5 5 0 0 0-5 5v3H7v4h3v8h4v-8h3l1-4h-4V7a1 1 0 0 1 1-1h3z"
      ></path>
    </symbol>
    <symbol id="fast-forward" viewBox="0 0 24 24">
      <polygon points="13 19 22 12 13 5 13 19"></polygon>
      <polygon points="2 19 11 12 2 5 2 19"></polygon>
    </symbol>
    <symbol id="feather" viewBox="0 0 24 24">
      <path d="M20.24 12.24a6 6 0 0 0-8.49-8.49L5 10.5V19h8.5z"></path>
      <line x1="16" y1="8" x2="2" y2="22"></line>
      <line x1="17.5" y1="15" x2="9" y2="15"></line>
    </symbol>
    <symbol id="figma" viewBox="0 0 24 24">
      <path d="M5 5.5A3.5 3.5 0 0 1 8.5 2H12v7H8.5A3.5 3.5 0 0 1 5 5.5z"></path>
      <path d="M12 2h3.5a3.5 3.5 0 1 1 0 7H12V2z"></path>
      <path d="M12 12.5a3.5 3.5 0 1 1 7 0 3.5 3.5 0 1 1-7 0z"></path>
      <path d="M5 19.5A3.5 3.5 0 0 1 8.5 16H12v3.5a3.5 3.5 0 1 1-7 0z"></path>
      <path
        d="M5 12.5A3.5 3.5 0 0 1 8.5 9H12v7H8.5A3.5 3.5 0 0 1 5 12.5z"
      ></path>
    </symbol>
    <symbol id="file-minus" viewBox="0 0 24 24">
      <path
        d="M14 2H6a2 2 0 0 0-2 2v16a2 2 0 0 0 2 2h12a2 2 0 0 0 2-2V8z"
      ></path>
      <polyline points="14 2 14 8 20 8"></polyline>
      <line x1="9" y1="15" x2="15" y2="15"></line>
    </symbol>
    <symbol id="file-plus" viewBox="0 0 24 24">
      <path
        d="M14 2H6a2 2 0 0 0-2 2v16a2 2 0 0 0 2 2h12a2 2 0 0 0 2-2V8z"
      ></path>
      <polyline points="14 2 14 8 20 8"></polyline>
      <line x1="12" y1="18" x2="12" y2="12"></line>
      <line x1="9" y1="15" x2="15" y2="15"></line>
    </symbol>
    <symbol id="file-text" viewBox="0 0 24 24">
      <path
        d="M14 2H6a2 2 0 0 0-2 2v16a2 2 0 0 0 2 2h12a2 2 0 0 0 2-2V8z"
      ></path>
      <polyline points="14 2 14 8 20 8"></polyline>
      <line x1="16" y1="13" x2="8" y2="13"></line>
      <line x1="16" y1="17" x2="8" y2="17"></line>
      <polyline points="10 9 9 9 8 9"></polyline>
    </symbol>
    <symbol id="file" viewBox="0 0 24 24">
      <path
        d="M13 2H6a2 2 0 0 0-2 2v16a2 2 0 0 0 2 2h12a2 2 0 0 0 2-2V9z"
      ></path>
      <polyline points="13 2 13 9 20 9"></polyline>
    </symbol>
    <symbol id="film" viewBox="0 0 24 24">
      <rect x="2" y="2" width="20" height="20" rx="2.18" ry="2.18"></rect>
      <line x1="7" y1="2" x2="7" y2="22"></line>
      <line x1="17" y1="2" x2="17" y2="22"></line>
      <line x1="2" y1="12" x2="22" y2="12"></line>
      <line x1="2" y1="7" x2="7" y2="7"></line>
      <line x1="2" y1="17" x2="7" y2="17"></line>
      <line x1="17" y1="17" x2="22" y2="17"></line>
      <line x1="17" y1="7" x2="22" y2="7"></line>
    </symbol>
    <symbol id="filter" viewBox="0 0 24 24">
      <polygon points="22 3 2 3 10 12.46 10 19 14 21 14 12.46 22 3"></polygon>
    </symbol>
    <symbol id="flag" viewBox="0 0 24 24">
      <path
        d="M4 15s1-1 4-1 5 2 8 2 4-1 4-1V3s-1 1-4 1-5-2-8-2-4 1-4 1z"
      ></path>
      <line x1="4" y1="22" x2="4" y2="15"></line>
    </symbol>
    <symbol id="folder-minus" viewBox="0 0 24 24">
      <path
        d="M22 19a2 2 0 0 1-2 2H4a2 2 0 0 1-2-2V5a2 2 0 0 1 2-2h5l2 3h9a2 2 0 0 1 2 2z"
      ></path>
      <line x1="9" y1="14" x2="15" y2="14"></line>
    </symbol>
    <symbol id="folder-plus" viewBox="0 0 24 24">
      <path
        d="M22 19a2 2 0 0 1-2 2H4a2 2 0 0 1-2-2V5a2 2 0 0 1 2-2h5l2 3h9a2 2 0 0 1 2 2z"
      ></path>
      <line x1="12" y1="11" x2="12" y2="17"></line>
      <line x1="9" y1="14" x2="15" y2="14"></line>
    </symbol>
    <symbol id="folder" viewBox="0 0 24 24">
      <path
        d="M22 19a2 2 0 0 1-2 2H4a2 2 0 0 1-2-2V5a2 2 0 0 1 2-2h5l2 3h9a2 2 0 0 1 2 2z"
      ></path>
    </symbol>
    <symbol id="framer" viewBox="0 0 24 24">
      <path d="M5 16V9h14V2H5l14 14h-7m-7 0l7 7v-7m-7 0h7"></path>
    </symbol>
    <symbol id="frown" viewBox="0 0 24 24">
      <circle cx="12" cy="12" r="10"></circle>
      <path d="M16 16s-1.5-2-4-2-4 2-4 2"></path>
      <line x1="9" y1="9" x2="9.01" y2="9"></line>
      <line x1="15" y1="9" x2="15.01" y2="9"></line>
    </symbol>
    <symbol id="gift" viewBox="0 0 24 24">
      <polyline points="20 12 20 22 4 22 4 12"></polyline>
      <rect x="2" y="7" width="20" height="5"></rect>
      <line x1="12" y1="22" x2="12" y2="7"></line>
      <path d="M12 7H7.5a2.5 2.5 0 0 1 0-5C11 2 12 7 12 7z"></path>
      <path d="M12 7h4.5a2.5 2.5 0 0 0 0-5C13 2 12 7 12 7z"></path>
    </symbol>
    <symbol id="git-branch" viewBox="0 0 24 24">
      <line x1="6" y1="3" x2="6" y2="15"></line>
      <circle cx="18" cy="6" r="3"></circle>
      <circle cx="6" cy="18" r="3"></circle>
      <path d="M18 9a9 9 0 0 1-9 9"></path>
    </symbol>
    <symbol id="git-commit" viewBox="0 0 24 24">
      <circle cx="12" cy="12" r="4"></circle>
      <line x1="1.05" y1="12" x2="7" y2="12"></line>
      <line x1="17.01" y1="12" x2="22.96" y2="12"></line>
    </symbol>
    <symbol id="git-merge" viewBox="0 0 24 24">
      <circle cx="18" cy="18" r="3"></circle>
      <circle cx="6" cy="6" r="3"></circle>
      <path d="M6 21V9a9 9 0 0 0 9 9"></path>
    </symbol>
    <symbol id="git-pull-request" viewBox="0 0 24 24">
      <circle cx="18" cy="18" r="3"></circle>
      <circle cx="6" cy="6" r="3"></circle>
      <path d="M13 6h3a2 2 0 0 1 2 2v7"></path>
      <line x1="6" y1="9" x2="6" y2="21"></line>
    </symbol>
    <symbol id="github" viewBox="0 0 24 24">
      <path
        d="M9 19c-5 1.5-5-2.5-7-3m14 6v-3.87a3.37 3.37 0 0 0-.94-2.61c3.14-.35 6.44-1.54 6.44-7A5.44 5.44 0 0 0 20 4.77 5.07 5.07 0 0 0 19.91 1S18.73.65 16 2.48a13.38 13.38 0 0 0-7 0C6.27.65 5.09 1 5.09 1A5.07 5.07 0 0 0 5 4.77a5.44 5.44 0 0 0-1.5 3.78c0 5.42 3.3 6.61 6.44 7A3.37 3.37 0 0 0 9 18.13V22"
      ></path>
    </symbol>
    <symbol id="gitlab" viewBox="0 0 24 24">
      <path
        d="M22.65 14.39L12 22.13 1.35 14.39a.84.84 0 0 1-.3-.94l1.22-3.78 2.44-7.51A.42.42 0 0 1 4.82 2a.43.43 0 0 1 .58 0 .42.42 0 0 1 .11.18l2.44 7.49h8.1l2.44-7.51A.42.42 0 0 1 18.6 2a.43.43 0 0 1 .58 0 .42.42 0 0 1 .11.18l2.44 7.51L23 13.45a.84.84 0 0 1-.35.94z"
      ></path>
    </symbol>
    <symbol id="globe" viewBox="0 0 24 24">
      <circle cx="12" cy="12" r="10"></circle>
      <line x1="2" y1="12" x2="22" y2="12"></line>
      <path
        d="M12 2a15.3 15.3 0 0 1 4 10 15.3 15.3 0 0 1-4 10 15.3 15.3 0 0 1-4-10 15.3 15.3 0 0 1 4-10z"
      ></path>
    </symbol>
    <symbol id="grid" viewBox="0 0 24 24">
      <rect x="3" y="3" width="7" height="7"></rect>
      <rect x="14" y="3" width="7" height="7"></rect>
      <rect x="14" y="14" width="7" height="7"></rect>
      <rect x="3" y="14" width="7" height="7"></rect>
    </symbol>
    <symbol id="hard-drive" viewBox="0 0 24 24">
      <line x1="22" y1="12" x2="2" y2="12"></line>
      <path
        d="M5.45 5.11L2 12v6a2 2 0 0 0 2 2h16a2 2 0 0 0 2-2v-6l-3.45-6.89A2 2 0 0 0 16.76 4H7.24a2 2 0 0 0-1.79 1.11z"
      ></path>
      <line x1="6" y1="16" x2="6.01" y2="16"></line>
      <line x1="10" y1="16" x2="10.01" y2="16"></line>
    </symbol>
    <symbol id="hash" viewBox="0 0 24 24">
      <line x1="4" y1="9" x2="20" y2="9"></line>
      <line x1="4" y1="15" x2="20" y2="15"></line>
      <line x1="10" y1="3" x2="8" y2="21"></line>
      <line x1="16" y1="3" x2="14" y2="21"></line>
    </symbol>
    <symbol id="headphones" viewBox="0 0 24 24">
      <path d="M3 18v-6a9 9 0 0 1 18 0v6"></path>
      <path
        d="M21 19a2 2 0 0 1-2 2h-1a2 2 0 0 1-2-2v-3a2 2 0 0 1 2-2h3zM3 19a2 2 0 0 0 2 2h1a2 2 0 0 0 2-2v-3a2 2 0 0 0-2-2H3z"
      ></path>
    </symbol>
    <symbol id="heart" viewBox="0 0 24 24">
      <path
        d="M20.84 4.61a5.5 5.5 0 0 0-7.78 0L12 5.67l-1.06-1.06a5.5 5.5 0 0 0-7.78 7.78l1.06 1.06L12 21.23l7.78-7.78 1.06-1.06a5.5 5.5 0 0 0 0-7.78z"
      ></path>
    </symbol>
    <symbol id="help-circle" viewBox="0 0 24 24">
      <circle cx="12" cy="12" r="10"></circle>
      <path d="M9.09 9a3 3 0 0 1 5.83 1c0 2-3 3-3 3"></path>
      <line x1="12" y1="17" x2="12.01" y2="17"></line>
    </symbol>
    <symbol id="hexagon" viewBox="0 0 24 24">
      <path
        d="M21 16V8a2 2 0 0 0-1-1.73l-7-4a2 2 0 0 0-2 0l-7 4A2 2 0 0 0 3 8v8a2 2 0 0 0 1 1.73l7 4a2 2 0 0 0 2 0l7-4A2 2 0 0 0 21 16z"
      ></path>
    </symbol>
    <symbol id="home" viewBox="0 0 24 24">
      <path d="M3 9l9-7 9 7v11a2 2 0 0 1-2 2H5a2 2 0 0 1-2-2z"></path>
      <polyline points="9 22 9 12 15 12 15 22"></polyline>
    </symbol>
    <symbol id="image" viewBox="0 0 24 24">
      <rect x="3" y="3" width="18" height="18" rx="2" ry="2"></rect>
      <circle cx="8.5" cy="8.5" r="1.5"></circle>
      <polyline points="21 15 16 10 5 21"></polyline>
    </symbol>
    <symbol id="inbox" viewBox="0 0 24 24">
      <polyline points="22 12 16 12 14 15 10 15 8 12 2 12"></polyline>
      <path
        d="M5.45 5.11L2 12v6a2 2 0 0 0 2 2h16a2 2 0 0 0 2-2v-6l-3.45-6.89A2 2 0 0 0 16.76 4H7.24a2 2 0 0 0-1.79 1.11z"
      ></path>
    </symbol>
    <symbol id="info" viewBox="0 0 24 24">
      <circle cx="12" cy="12" r="10"></circle>
      <line x1="12" y1="16" x2="12" y2="12"></line>
      <line x1="12" y1="8" x2="12.01" y2="8"></line>
    </symbol>
    <symbol id="instagram" viewBox="0 0 24 24">
      <rect x="2" y="2" width="20" height="20" rx="5" ry="5"></rect>
      <path d="M16 11.37A4 4 0 1 1 12.63 8 4 4 0 0 1 16 11.37z"></path>
      <line x1="17.5" y1="6.5" x2="17.51" y2="6.5"></line>
    </symbol>
    <symbol id="italic" viewBox="0 0 24 24">
      <line x1="19" y1="4" x2="10" y2="4"></line>
      <line x1="14" y1="20" x2="5" y2="20"></line>
      <line x1="15" y1="4" x2="9" y2="20"></line>
    </symbol>
    <symbol id="key" viewBox="0 0 24 24">
      <path
        d="M21 2l-2 2m-7.61 7.61a5.5 5.5 0 1 1-7.778 7.778 5.5 5.5 0 0 1 7.777-7.777zm0 0L15.5 7.5m0 0l3 3L22 7l-3-3m-3.5 3.5L19 4"
      ></path>
    </symbol>
    <symbol id="layers" viewBox="0 0 24 24">
      <polygon points="12 2 2 7 12 12 22 7 12 2"></polygon>
      <polyline points="2 17 12 22 22 17"></polyline>
      <polyline points="2 12 12 17 22 12"></polyline>
    </symbol>
    <symbol id="layout" viewBox="0 0 24 24">
      <rect x="3" y="3" width="18" height="18" rx="2" ry="2"></rect>
      <line x1="3" y1="9" x2="21" y2="9"></line>
      <line x1="9" y1="21" x2="9" y2="9"></line>
    </symbol>
    <symbol id="life-buoy" viewBox="0 0 24 24">
      <circle cx="12" cy="12" r="10"></circle>
      <circle cx="12" cy="12" r="4"></circle>
      <line x1="4.93" y1="4.93" x2="9.17" y2="9.17"></line>
      <line x1="14.83" y1="14.83" x2="19.07" y2="19.07"></line>
      <line x1="14.83" y1="9.17" x2="19.07" y2="4.93"></line>
      <line x1="14.83" y1="9.17" x2="18.36" y2="5.64"></line>
      <line x1="4.93" y1="19.07" x2="9.17" y2="14.83"></line>
    </symbol>
    <symbol id="link-2" viewBox="0 0 24 24">
      <path
        d="M15 7h3a5 5 0 0 1 5 5 5 5 0 0 1-5 5h-3m-6 0H6a5 5 0 0 1-5-5 5 5 0 0 1 5-5h3"
      ></path>
      <line x1="8" y1="12" x2="16" y2="12"></line>
    </symbol>
    <symbol id="link" viewBox="0 0 24 24">
      <path
        d="M10 13a5 5 0 0 0 7.54.54l3-3a5 5 0 0 0-7.07-7.07l-1.72 1.71"
      ></path>
      <path
        d="M14 11a5 5 0 0 0-7.54-.54l-3 3a5 5 0 0 0 7.07 7.07l1.71-1.71"
      ></path>
    </symbol>
    <symbol id="linkedin" viewBox="0 0 24 24">
      <path
        d="M16 8a6 6 0 0 1 6 6v7h-4v-7a2 2 0 0 0-2-2 2 2 0 0 0-2 2v7h-4v-7a6 6 0 0 1 6-6z"
      ></path>
      <rect x="2" y="9" width="4" height="12"></rect>
      <circle cx="4" cy="4" r="2"></circle>
    </symbol>
    <symbol id="list" viewBox="0 0 24 24">
      <line x1="8" y1="6" x2="21" y2="6"></line>
      <line x1="8" y1="12" x2="21" y2="12"></line>
      <line x1="8" y1="18" x2="21" y2="18"></line>
      <line x1="3" y1="6" x2="3.01" y2="6"></line>
      <line x1="3" y1="12" x2="3.01" y2="12"></line>
      <line x1="3" y1="18" x2="3.01" y2="18"></line>
    </symbol>
    <symbol id="loader" viewBox="0 0 24 24">
      <line x1="12" y1="2" x2="12" y2="6"></line>
      <line x1="12" y1="18" x2="12" y2="22"></line>
      <line x1="4.93" y1="4.93" x2="7.76" y2="7.76"></line>
      <line x1="16.24" y1="16.24" x2="19.07" y2="19.07"></line>
      <line x1="2" y1="12" x2="6" y2="12"></line>
      <line x1="18" y1="12" x2="22" y2="12"></line>
      <line x1="4.93" y1="19.07" x2="7.76" y2="16.24"></line>
      <line x1="16.24" y1="7.76" x2="19.07" y2="4.93"></line>
    </symbol>
    <symbol id="lock" viewBox="0 0 24 24">
      <rect x="3" y="11" width="18" height="11" rx="2" ry="2"></rect>
      <path d="M7 11V7a5 5 0 0 1 10 0v4"></path>
    </symbol>
    <symbol id="log-in" viewBox="0 0 24 24">
      <path d="M15 3h4a2 2 0 0 1 2 2v14a2 2 0 0 1-2 2h-4"></path>
      <polyline points="10 17 15 12 10 7"></polyline>
      <line x1="15" y1="12" x2="3" y2="12"></line>
    </symbol>
    <symbol id="log-out" viewBox="0 0 24 24">
      <path d="M9 21H5a2 2 0 0 1-2-2V5a2 2 0 0 1 2-2h4"></path>
      <polyline points="16 17 21 12 16 7"></polyline>
      <line x1="21" y1="12" x2="9" y2="12"></line>
    </symbol>
    <symbol id="mail" viewBox="0 0 24 24">
      <path
        d="M4 4h16c1.1 0 2 .9 2 2v12c0 1.1-.9 2-2 2H4c-1.1 0-2-.9-2-2V6c0-1.1.9-2 2-2z"
      ></path>
      <polyline points="22,6 12,13 2,6"></polyline>
    </symbol>
    <symbol id="map-pin" viewBox="0 0 24 24">
      <path d="M21 10c0 7-9 13-9 13s-9-6-9-13a9 9 0 0 1 18 0z"></path>
      <circle cx="12" cy="10" r="3"></circle>
    </symbol>
    <symbol id="map" viewBox="0 0 24 24">
      <polygon points="1 6 1 22 8 18 16 22 23 18 23 2 16 6 8 2 1 6"></polygon>
      <line x1="8" y1="2" x2="8" y2="18"></line>
      <line x1="16" y1="6" x2="16" y2="22"></line>
    </symbol>
    <symbol id="maximize-2" viewBox="0 0 24 24">
      <polyline points="15 3 21 3 21 9"></polyline>
      <polyline points="9 21 3 21 3 15"></polyline>
      <line x1="21" y1="3" x2="14" y2="10"></line>
      <line x1="3" y1="21" x2="10" y2="14"></line>
    </symbol>
    <symbol id="maximize" viewBox="0 0 24 24">
      <path
        d="M8 3H5a2 2 0 0 0-2 2v3m18 0V5a2 2 0 0 0-2-2h-3m0 18h3a2 2 0 0 0 2-2v-3M3 16v3a2 2 0 0 0 2 2h3"
      ></path>
    </symbol>
    <symbol id="meh" viewBox="0 0 24 24">
      <circle cx="12" cy="12" r="10"></circle>
      <line x1="8" y1="15" x2="16" y2="15"></line>
      <line x1="9" y1="9" x2="9.01" y2="9"></line>
      <line x1="15" y1="9" x2="15.01" y2="9"></line>
    </symbol>
    <symbol id="menu" viewBox="0 0 24 24">
      <line x1="3" y1="12" x2="21" y2="12"></line>
      <line x1="3" y1="6" x2="21" y2="6"></line>
      <line x1="3" y1="18" x2="21" y2="18"></line>
    </symbol>
    <symbol id="message-circle" viewBox="0 0 24 24">
      <path
        d="M21 11.5a8.38 8.38 0 0 1-.9 3.8 8.5 8.5 0 0 1-7.6 4.7 8.38 8.38 0 0 1-3.8-.9L3 21l1.9-5.7a8.38 8.38 0 0 1-.9-3.8 8.5 8.5 0 0 1 4.7-7.6 8.38 8.38 0 0 1 3.8-.9h.5a8.48 8.48 0 0 1 8 8v.5z"
      ></path>
    </symbol>
    <symbol id="message-square" viewBox="0 0 24 24">
      <path
        d="M21 15a2 2 0 0 1-2 2H7l-4 4V5a2 2 0 0 1 2-2h14a2 2 0 0 1 2 2z"
      ></path>
    </symbol>
    <symbol id="mic-off" viewBox="0 0 24 24">
      <line x1="1" y1="1" x2="23" y2="23"></line>
      <path d="M9 9v3a3 3 0 0 0 5.12 2.12M15 9.34V4a3 3 0 0 0-5.94-.6"></path>
      <path d="M17 16.95A7 7 0 0 1 5 12v-2m14 0v2a7 7 0 0 1-.11 1.23"></path>
      <line x1="12" y1="19" x2="12" y2="23"></line>
      <line x1="8" y1="23" x2="16" y2="23"></line>
    </symbol>
    <symbol id="mic" viewBox="0 0 24 24">
      <path d="M12 1a3 3 0 0 0-3 3v8a3 3 0 0 0 6 0V4a3 3 0 0 0-3-3z"></path>
      <path d="M19 10v2a7 7 0 0 1-14 0v-2"></path>
      <line x1="12" y1="19" x2="12" y2="23"></line>
      <line x1="8" y1="23" x2="16" y2="23"></line>
    </symbol>
    <symbol id="minimize-2" viewBox="0 0 24 24">
      <polyline points="4 14 10 14 10 20"></polyline>
      <polyline points="20 10 14 10 14 4"></polyline>
      <line x1="14" y1="10" x2="21" y2="3"></line>
      <line x1="3" y1="21" x2="10" y2="14"></line>
    </symbol>
    <symbol id="minimize" viewBox="0 0 24 24">
      <path
        d="M8 3v3a2 2 0 0 1-2 2H3m18 0h-3a2 2 0 0 1-2-2V3m0 18v-3a2 2 0 0 1 2-2h3M3 16h3a2 2 0 0 1 2 2v3"
      ></path>
    </symbol>
    <symbol id="minus-circle" viewBox="0 0 24 24">
      <circle cx="12" cy="12" r="10"></circle>
      <line x1="8" y1="12" x2="16" y2="12"></line>
    </symbol>
    <symbol id="minus-square" viewBox="0 0 24 24">
      <rect x="3" y="3" width="18" height="18" rx="2" ry="2"></rect>
      <line x1="8" y1="12" x2="16" y2="12"></line>
    </symbol>
    <symbol id="minus" viewBox="0 0 24 24">
      <line x1="5" y1="12" x2="19" y2="12"></line>
    </symbol>
    <symbol id="monitor" viewBox="0 0 24 24">
      <rect x="2" y="3" width="20" height="14" rx="2" ry="2"></rect>
      <line x1="8" y1="21" x2="16" y2="21"></line>
      <line x1="12" y1="17" x2="12" y2="21"></line>
    </symbol>
    <symbol id="moon" viewBox="0 0 24 24">
      <path d="M21 12.79A9 9 0 1 1 11.21 3 7 7 0 0 0 21 12.79z"></path>
    </symbol>
    <symbol id="more-horizontal" viewBox="0 0 24 24">
      <circle cx="12" cy="12" r="1"></circle>
      <circle cx="19" cy="12" r="1"></circle>
      <circle cx="5" cy="12" r="1"></circle>
    </symbol>
    <symbol id="more-vertical" viewBox="0 0 24 24">
      <circle cx="12" cy="12" r="1"></circle>
      <circle cx="12" cy="5" r="1"></circle>
      <circle cx="12" cy="19" r="1"></circle>
    </symbol>
    <symbol id="mouse-pointer" viewBox="0 0 24 24">
      <path d="M3 3l7.07 16.97 2.51-7.39 7.39-2.51L3 3z"></path>
      <path d="M13 13l6 6"></path>
    </symbol>
    <symbol id="move" viewBox="0 0 24 24">
      <polyline points="5 9 2 12 5 15"></polyline>
      <polyline points="9 5 12 2 15 5"></polyline>
      <polyline points="15 19 12 22 9 19"></polyline>
      <polyline points="19 9 22 12 19 15"></polyline>
      <line x1="2" y1="12" x2="22" y2="12"></line>
      <line x1="12" y1="2" x2="12" y2="22"></line>
    </symbol>
    <symbol id="music" viewBox="0 0 24 24">
      <path d="M9 18V5l12-2v13"></path>
      <circle cx="6" cy="18" r="3"></circle>
      <circle cx="18" cy="16" r="3"></circle>
    </symbol>
    <symbol id="navigation-2" viewBox="0 0 24 24">
      <polygon points="12 2 19 21 12 17 5 21 12 2"></polygon>
    </symbol>
    <symbol id="navigation" viewBox="0 0 24 24">
      <polygon points="3 11 22 2 13 21 11 13 3 11"></polygon>
    </symbol>
    <symbol id="octagon" viewBox="0 0 24 24">
      <polygon
        points="7.86 2 16.14 2 22 7.86 22 16.14 16.14 22 7.86 22 2 16.14 2 7.86 7.86 2"
      ></polygon>
    </symbol>
    <symbol id="package" viewBox="0 0 24 24">
      <line x1="16.5" y1="9.4" x2="7.5" y2="4.21"></line>
      <path
        d="M21 16V8a2 2 0 0 0-1-1.73l-7-4a2 2 0 0 0-2 0l-7 4A2 2 0 0 0 3 8v8a2 2 0 0 0 1 1.73l7 4a2 2 0 0 0 2 0l7-4A2 2 0 0 0 21 16z"
      ></path>
      <polyline points="3.27 6.96 12 12.01 20.73 6.96"></polyline>
      <line x1="12" y1="22.08" x2="12" y2="12"></line>
    </symbol>
    <symbol id="paperclip" viewBox="0 0 24 24">
      <path
        d="M21.44 11.05l-9.19 9.19a6 6 0 0 1-8.49-8.49l9.19-9.19a4 4 0 0 1 5.66 5.66l-9.2 9.19a2 2 0 0 1-2.83-2.83l8.49-8.48"
      ></path>
    </symbol>
    <symbol id="pause-circle" viewBox="0 0 24 24">
      <circle cx="12" cy="12" r="10"></circle>
      <line x1="10" y1="15" x2="10" y2="9"></line>
      <line x1="14" y1="15" x2="14" y2="9"></line>
    </symbol>
    <symbol id="pause" viewBox="0 0 24 24">
      <rect x="6" y="4" width="4" height="16"></rect>
      <rect x="14" y="4" width="4" height="16"></rect>
    </symbol>
    <symbol id="pen-tool" viewBox="0 0 24 24">
      <path d="M12 19l7-7 3 3-7 7-3-3z"></path>
      <path d="M18 13l-1.5-7.5L2 2l3.5 14.5L13 18l5-5z"></path>
      <path d="M2 2l7.586 7.586"></path>
      <circle cx="11" cy="11" r="2"></circle>
    </symbol>
    <symbol id="percent" viewBox="0 0 24 24">
      <line x1="19" y1="5" x2="5" y2="19"></line>
      <circle cx="6.5" cy="6.5" r="2.5"></circle>
      <circle cx="17.5" cy="17.5" r="2.5"></circle>
    </symbol>
    <symbol id="phone-call" viewBox="0 0 24 24">
      <path
        d="M15.05 5A5 5 0 0 1 19 8.95M15.05 1A9 9 0 0 1 23 8.94m-1 7.98v3a2 2 0 0 1-2.18 2 19.79 19.79 0 0 1-8.63-3.07 19.5 19.5 0 0 1-6-6 19.79 19.79 0 0 1-3.07-8.67A2 2 0 0 1 4.11 2h3a2 2 0 0 1 2 1.72 12.84 12.84 0 0 0 .7 2.81 2 2 0 0 1-.45 2.11L8.09 9.91a16 16 0 0 0 6 6l1.27-1.27a2 2 0 0 1 2.11-.45 12.84 12.84 0 0 0 2.81.7A2 2 0 0 1 22 16.92z"
      ></path>
    </symbol>
    <symbol id="phone-forwarded" viewBox="0 0 24 24">
      <polyline points="19 1 23 5 19 9"></polyline>
      <line x1="15" y1="5" x2="23" y2="5"></line>
      <path
        d="M22 16.92v3a2 2 0 0 1-2.18 2 19.79 19.79 0 0 1-8.63-3.07 19.5 19.5 0 0 1-6-6 19.79 19.79 0 0 1-3.07-8.67A2 2 0 0 1 4.11 2h3a2 2 0 0 1 2 1.72 12.84 12.84 0 0 0 .7 2.81 2 2 0 0 1-.45 2.11L8.09 9.91a16 16 0 0 0 6 6l1.27-1.27a2 2 0 0 1 2.11-.45 12.84 12.84 0 0 0 2.81.7A2 2 0 0 1 22 16.92z"
      ></path>
    </symbol>
    <symbol id="phone-incoming" viewBox="0 0 24 24">
      <polyline points="16 2 16 8 22 8"></polyline>
      <line x1="23" y1="1" x2="16" y2="8"></line>
      <path
        d="M22 16.92v3a2 2 0 0 1-2.18 2 19.79 19.79 0 0 1-8.63-3.07 19.5 19.5 0 0 1-6-6 19.79 19.79 0 0 1-3.07-8.67A2 2 0 0 1 4.11 2h3a2 2 0 0 1 2 1.72 12.84 12.84 0 0 0 .7 2.81 2 2 0 0 1-.45 2.11L8.09 9.91a16 16 0 0 0 6 6l1.27-1.27a2 2 0 0 1 2.11-.45 12.84 12.84 0 0 0 2.81.7A2 2 0 0 1 22 16.92z"
      ></path>
    </symbol>
    <symbol id="phone-missed" viewBox="0 0 24 24">
      <line x1="23" y1="1" x2="17" y2="7"></line>
      <line x1="17" y1="1" x2="23" y2="7"></line>
      <path
        d="M22 16.92v3a2 2 0 0 1-2.18 2 19.79 19.79 0 0 1-8.63-3.07 19.5 19.5 0 0 1-6-6 19.79 19.79 0 0 1-3.07-8.67A2 2 0 0 1 4.11 2h3a2 2 0 0 1 2 1.72 12.84 12.84 0 0 0 .7 2.81 2 2 0 0 1-.45 2.11L8.09 9.91a16 16 0 0 0 6 6l1.27-1.27a2 2 0 0 1 2.11-.45 12.84 12.84 0 0 0 2.81.7A2 2 0 0 1 22 16.92z"
      ></path>
    </symbol>
    <symbol id="phone-off" viewBox="0 0 24 24">
      <path
        d="M10.68 13.31a16 16 0 0 0 3.41 2.6l1.27-1.27a2 2 0 0 1 2.11-.45 12.84 12.84 0 0 0 2.81.7 2 2 0 0 1 1.72 2v3a2 2 0 0 1-2.18 2 19.79 19.79 0 0 1-8.63-3.07 19.42 19.42 0 0 1-3.33-2.67m-2.67-3.34a19.79 19.79 0 0 1-3.07-8.63A2 2 0 0 1 4.11 2h3a2 2 0 0 1 2 1.72 12.84 12.84 0 0 0 .7 2.81 2 2 0 0 1-.45 2.11L8.09 9.91"
      ></path>
      <line x1="23" y1="1" x2="1" y2="23"></line>
    </symbol>
    <symbol id="phone-outgoing" viewBox="0 0 24 24">
      <polyline points="23 7 23 1 17 1"></polyline>
      <line x1="16" y1="8" x2="23" y2="1"></line>
      <path
        d="M22 16.92v3a2 2 0 0 1-2.18 2 19.79 19.79 0 0 1-8.63-3.07 19.5 19.5 0 0 1-6-6 19.79 19.79 0 0 1-3.07-8.67A2 2 0 0 1 4.11 2h3a2 2 0 0 1 2 1.72 12.84 12.84 0 0 0 .7 2.81 2 2 0 0 1-.45 2.11L8.09 9.91a16 16 0 0 0 6 6l1.27-1.27a2 2 0 0 1 2.11-.45 12.84 12.84 0 0 0 2.81.7A2 2 0 0 1 22 16.92z"
      ></path>
    </symbol>
    <symbol id="phone" viewBox="0 0 24 24">
      <path
        d="M22 16.92v3a2 2 0 0 1-2.18 2 19.79 19.79 0 0 1-8.63-3.07 19.5 19.5 0 0 1-6-6 19.79 19.79 0 0 1-3.07-8.67A2 2 0 0 1 4.11 2h3a2 2 0 0 1 2 1.72 12.84 12.84 0 0 0 .7 2.81 2 2 0 0 1-.45 2.11L8.09 9.91a16 16 0 0 0 6 6l1.27-1.27a2 2 0 0 1 2.11-.45 12.84 12.84 0 0 0 2.81.7A2 2 0 0 1 22 16.92z"
      ></path>
    </symbol>
    <symbol id="pie-chart" viewBox="0 0 24 24">
      <path d="M21.21 15.89A10 10 0 1 1 8 2.83"></path>
      <path d="M22 12A10 10 0 0 0 12 2v10z"></path>
    </symbol>
    <symbol id="play-circle" viewBox="0 0 24 24">
      <circle cx="12" cy="12" r="10"></circle>
      <polygon points="10 8 16 12 10 16 10 8"></polygon>
    </symbol>
    <symbol id="play" viewBox="0 0 24 24">
      <polygon points="5 3 19 12 5 21 5 3"></polygon>
    </symbol>
    <symbol id="plus-circle" viewBox="0 0 24 24">
      <circle cx="12" cy="12" r="10"></circle>
      <line x1="12" y1="8" x2="12" y2="16"></line>
      <line x1="8" y1="12" x2="16" y2="12"></line>
    </symbol>
    <symbol id="plus-square" viewBox="0 0 24 24">
      <rect x="3" y="3" width="18" height="18" rx="2" ry="2"></rect>
      <line x1="12" y1="8" x2="12" y2="16"></line>
      <line x1="8" y1="12" x2="16" y2="12"></line>
    </symbol>
    <symbol id="plus" viewBox="0 0 24 24">
      <line x1="12" y1="5" x2="12" y2="19"></line>
      <line x1="5" y1="12" x2="19" y2="12"></line>
    </symbol>
    <symbol id="pocket" viewBox="0 0 24 24">
      <path
        d="M4 3h16a2 2 0 0 1 2 2v6a10 10 0 0 1-10 10A10 10 0 0 1 2 11V5a2 2 0 0 1 2-2z"
      ></path>
      <polyline points="8 10 12 14 16 10"></polyline>
    </symbol>
    <symbol id="power" viewBox="0 0 24 24">
      <path d="M18.36 6.64a9 9 0 1 1-12.73 0"></path>
      <line x1="12" y1="2" x2="12" y2="12"></line>
    </symbol>
    <symbol id="printer" viewBox="0 0 24 24">
      <polyline points="6 9 6 2 18 2 18 9"></polyline>
      <path
        d="M6 18H4a2 2 0 0 1-2-2v-5a2 2 0 0 1 2-2h16a2 2 0 0 1 2 2v5a2 2 0 0 1-2 2h-2"
      ></path>
      <rect x="6" y="14" width="12" height="8"></rect>
    </symbol>
    <symbol id="radio" viewBox="0 0 24 24">
      <circle cx="12" cy="12" r="2"></circle>
      <path
        d="M16.24 7.76a6 6 0 0 1 0 8.49m-8.48-.01a6 6 0 0 1 0-8.49m11.31-2.82a10 10 0 0 1 0 14.14m-14.14 0a10 10 0 0 1 0-14.14"
      ></path>
    </symbol>
    <symbol id="refresh-ccw" viewBox="0 0 24 24">
      <polyline points="1 4 1 10 7 10"></polyline>
      <polyline points="23 20 23 14 17 14"></polyline>
      <path
        d="M20.49 9A9 9 0 0 0 5.64 5.64L1 10m22 4l-4.64 4.36A9 9 0 0 1 3.51 15"
      ></path>
    </symbol>
    <symbol id="refresh-cw" viewBox="0 0 24 24">
      <polyline points="23 4 23 10 17 10"></polyline>
      <polyline points="1 20 1 14 7 14"></polyline>
      <path
        d="M3.51 9a9 9 0 0 1 14.85-3.36L23 10M1 14l4.64 4.36A9 9 0 0 0 20.49 15"
      ></path>
    </symbol>
    <symbol id="repeat" viewBox="0 0 24 24">
      <polyline points="17 1 21 5 17 9"></polyline>
      <path d="M3 11V9a4 4 0 0 1 4-4h14"></path>
      <polyline points="7 23 3 19 7 15"></polyline>
      <path d="M21 13v2a4 4 0 0 1-4 4H3"></path>
    </symbol>
    <symbol id="rewind" viewBox="0 0 24 24">
      <polygon points="11 19 2 12 11 5 11 19"></polygon>
      <polygon points="22 19 13 12 22 5 22 19"></polygon>
    </symbol>
    <symbol id="rotate-ccw" viewBox="0 0 24 24">
      <polyline points="1 4 1 10 7 10"></polyline>
      <path d="M3.51 15a9 9 0 1 0 2.13-9.36L1 10"></path>
    </symbol>
    <symbol id="rotate-cw" viewBox="0 0 24 24">
      <polyline points="23 4 23 10 17 10"></polyline>
      <path d="M20.49 15a9 9 0 1 1-2.12-9.36L23 10"></path>
    </symbol>
    <symbol id="rss" viewBox="0 0 24 24">
      <path d="M4 11a9 9 0 0 1 9 9"></path>
      <path d="M4 4a16 16 0 0 1 16 16"></path>
      <circle cx="5" cy="19" r="1"></circle>
    </symbol>
    <symbol id="save" viewBox="0 0 24 24">
      <path
        d="M19 21H5a2 2 0 0 1-2-2V5a2 2 0 0 1 2-2h11l5 5v11a2 2 0 0 1-2 2z"
      ></path>
      <polyline points="17 21 17 13 7 13 7 21"></polyline>
      <polyline points="7 3 7 8 15 8"></polyline>
    </symbol>
    <symbol id="scissors" viewBox="0 0 24 24">
      <circle cx="6" cy="6" r="3"></circle>
      <circle cx="6" cy="18" r="3"></circle>
      <line x1="20" y1="4" x2="8.12" y2="15.88"></line>
      <line x1="14.47" y1="14.48" x2="20" y2="20"></line>
      <line x1="8.12" y1="8.12" x2="12" y2="12"></line>
    </symbol>
    <symbol id="search" viewBox="0 0 24 24">
      <circle cx="11" cy="11" r="8"></circle>
      <line x1="21" y1="21" x2="16.65" y2="16.65"></line>
    </symbol>
    <symbol id="send" viewBox="0 0 24 24">
      <line x1="22" y1="2" x2="11" y2="13"></line>
      <polygon points="22 2 15 22 11 13 2 9 22 2"></polygon>
    </symbol>
    <symbol id="server" viewBox="0 0 24 24">
      <rect x="2" y="2" width="20" height="8" rx="2" ry="2"></rect>
      <rect x="2" y="14" width="20" height="8" rx="2" ry="2"></rect>
      <line x1="6" y1="6" x2="6.01" y2="6"></line>
      <line x1="6" y1="18" x2="6.01" y2="18"></line>
    </symbol>
    <symbol id="settings" viewBox="0 0 24 24">
      <circle cx="12" cy="12" r="3"></circle>
      <path
        d="M19.4 15a1.65 1.65 0 0 0 .33 1.82l.06.06a2 2 0 0 1 0 2.83 2 2 0 0 1-2.83 0l-.06-.06a1.65 1.65 0 0 0-1.82-.33 1.65 1.65 0 0 0-1 1.51V21a2 2 0 0 1-2 2 2 2 0 0 1-2-2v-.09A1.65 1.65 0 0 0 9 19.4a1.65 1.65 0 0 0-1.82.33l-.06.06a2 2 0 0 1-2.83 0 2 2 0 0 1 0-2.83l.06-.06a1.65 1.65 0 0 0 .33-1.82 1.65 1.65 0 0 0-1.51-1H3a2 2 0 0 1-2-2 2 2 0 0 1 2-2h.09A1.65 1.65 0 0 0 4.6 9a1.65 1.65 0 0 0-.33-1.82l-.06-.06a2 2 0 0 1 0-2.83 2 2 0 0 1 2.83 0l.06.06a1.65 1.65 0 0 0 1.82.33H9a1.65 1.65 0 0 0 1-1.51V3a2 2 0 0 1 2-2 2 2 0 0 1 2 2v.09a1.65 1.65 0 0 0 1 1.51 1.65 1.65 0 0 0 1.82-.33l.06-.06a2 2 0 0 1 2.83 0 2 2 0 0 1 0 2.83l-.06.06a1.65 1.65 0 0 0-.33 1.82V9a1.65 1.65 0 0 0 1.51 1H21a2 2 0 0 1 2 2 2 2 0 0 1-2 2h-.09a1.65 1.65 0 0 0-1.51 1z"
      ></path>
    </symbol>
    <symbol id="share-2" viewBox="0 0 24 24">
      <circle cx="18" cy="5" r="3"></circle>
      <circle cx="6" cy="12" r="3"></circle>
      <circle cx="18" cy="19" r="3"></circle>
      <line x1="8.59" y1="13.51" x2="15.42" y2="17.49"></line>
      <line x1="15.41" y1="6.51" x2="8.59" y2="10.49"></line>
    </symbol>
    <symbol id="share" viewBox="0 0 24 24">
      <path d="M4 12v8a2 2 0 0 0 2 2h12a2 2 0 0 0 2-2v-8"></path>
      <polyline points="16 6 12 2 8 6"></polyline>
      <line x1="12" y1="2" x2="12" y2="15"></line>
    </symbol>
    <symbol id="shield-off" viewBox="0 0 24 24">
      <path d="M19.69 14a6.9 6.9 0 0 0 .31-2V5l-8-3-3.16 1.18"></path>
      <path
        d="M4.73 4.73L4 5v7c0 6 8 10 8 10a20.29 20.29 0 0 0 5.62-4.38"
      ></path>
      <line x1="1" y1="1" x2="23" y2="23"></line>
    </symbol>
    <symbol id="shield" viewBox="0 0 24 24">
      <path d="M12 22s8-4 8-10V5l-8-3-8 3v7c0 6 8 10 8 10z"></path>
    </symbol>
    <symbol id="shopping-bag" viewBox="0 0 24 24">
      <path d="M6 2L3 6v14a2 2 0 0 0 2 2h14a2 2 0 0 0 2-2V6l-3-4z"></path>
      <line x1="3" y1="6" x2="21" y2="6"></line>
      <path d="M16 10a4 4 0 0 1-8 0"></path>
    </symbol>
    <symbol id="shopping-cart" viewBox="0 0 24 24">
      <circle cx="9" cy="21" r="1"></circle>
      <circle cx="20" cy="21" r="1"></circle>
      <path
        d="M1 1h4l2.68 13.39a2 2 0 0 0 2 1.61h9.72a2 2 0 0 0 2-1.61L23 6H6"
      ></path>
    </symbol>
    <symbol id="shuffle" viewBox="0 0 24 24">
      <polyline points="16 3 21 3 21 8"></polyline>
      <line x1="4" y1="20" x2="21" y2="3"></line>
      <polyline points="21 16 21 21 16 21"></polyline>
      <line x1="15" y1="15" x2="21" y2="21"></line>
      <line x1="4" y1="4" x2="9" y2="9"></line>
    </symbol>
    <symbol id="sidebar" viewBox="0 0 24 24">
      <rect x="3" y="3" width="18" height="18" rx="2" ry="2"></rect>
      <line x1="9" y1="3" x2="9" y2="21"></line>
    </symbol>
    <symbol id="skip-back" viewBox="0 0 24 24">
      <polygon points="19 20 9 12 19 4 19 20"></polygon>
      <line x1="5" y1="19" x2="5" y2="5"></line>
    </symbol>
    <symbol id="skip-forward" viewBox="0 0 24 24">
      <polygon points="5 4 15 12 5 20 5 4"></polygon>
      <line x1="19" y1="5" x2="19" y2="19"></line>
    </symbol>
    <symbol id="slack" viewBox="0 0 24 24">
      <path
        d="M14.5 10c-.83 0-1.5-.67-1.5-1.5v-5c0-.83.67-1.5 1.5-1.5s1.5.67 1.5 1.5v5c0 .83-.67 1.5-1.5 1.5z"
      ></path>
      <path
        d="M20.5 10H19V8.5c0-.83.67-1.5 1.5-1.5s1.5.67 1.5 1.5-.67 1.5-1.5 1.5z"
      ></path>
      <path
        d="M9.5 14c.83 0 1.5.67 1.5 1.5v5c0 .83-.67 1.5-1.5 1.5S8 21.33 8 20.5v-5c0-.83.67-1.5 1.5-1.5z"
      ></path>
      <path
        d="M3.5 14H5v1.5c0 .83-.67 1.5-1.5 1.5S2 16.33 2 15.5 2.67 14 3.5 14z"
      ></path>
      <path
        d="M14 14.5c0-.83.67-1.5 1.5-1.5h5c.83 0 1.5.67 1.5 1.5s-.67 1.5-1.5 1.5h-5c-.83 0-1.5-.67-1.5-1.5z"
      ></path>
      <path
        d="M15.5 19H14v1.5c0 .83.67 1.5 1.5 1.5s1.5-.67 1.5-1.5-.67-1.5-1.5-1.5z"
      ></path>
      <path
        d="M10 9.5C10 8.67 9.33 8 8.5 8h-5C2.67 8 2 8.67 2 9.5S2.67 11 3.5 11h5c.83 0 1.5-.67 1.5-1.5z"
      ></path>
      <path
        d="M8.5 5H10V3.5C10 2.67 9.33 2 8.5 2S7 2.67 7 3.5 7.67 5 8.5 5z"
      ></path>
    </symbol>
    <symbol id="slash" viewBox="0 0 24 24">
      <circle cx="12" cy="12" r="10"></circle>
      <line x1="4.93" y1="4.93" x2="19.07" y2="19.07"></line>
    </symbol>
    <symbol id="sliders" viewBox="0 0 24 24">
      <line x1="4" y1="21" x2="4" y2="14"></line>
      <line x1="4" y1="10" x2="4" y2="3"></line>
      <line x1="12" y1="21" x2="12" y2="12"></line>
      <line x1="12" y1="8" x2="12" y2="3"></line>
      <line x1="20" y1="21" x2="20" y2="16"></line>
      <line x1="20" y1="12" x2="20" y2="3"></line>
      <line x1="1" y1="14" x2="7" y2="14"></line>
      <line x1="9" y1="8" x2="15" y2="8"></line>
      <line x1="17" y1="16" x2="23" y2="16"></line>
    </symbol>
    <symbol id="smartphone" viewBox="0 0 24 24">
      <rect x="5" y="2" width="14" height="20" rx="2" ry="2"></rect>
      <line x1="12" y1="18" x2="12.01" y2="18"></line>
    </symbol>
    <symbol id="smile" viewBox="0 0 24 24">
      <circle cx="12" cy="12" r="10"></circle>
      <path d="M8 14s1.5 2 4 2 4-2 4-2"></path>
      <line x1="9" y1="9" x2="9.01" y2="9"></line>
      <line x1="15" y1="9" x2="15.01" y2="9"></line>
    </symbol>
    <symbol id="speaker" viewBox="0 0 24 24">
      <rect x="4" y="2" width="16" height="20" rx="2" ry="2"></rect>
      <circle cx="12" cy="14" r="4"></circle>
      <line x1="12" y1="6" x2="12.01" y2="6"></line>
    </symbol>
    <symbol id="square" viewBox="0 0 24 24">
      <rect x="3" y="3" width="18" height="18" rx="2" ry="2"></rect>
    </symbol>
    <symbol id="star" viewBox="0 0 24 24">
      <polygon
        points="12 2 15.09 8.26 22 9.27 17 14.14 18.18 21.02 12 17.77 5.82 21.02 7 14.14 2 9.27 8.91 8.26 12 2"
      ></polygon>
    </symbol>
    <symbol id="stop-circle" viewBox="0 0 24 24">
      <circle cx="12" cy="12" r="10"></circle>
      <rect x="9" y="9" width="6" height="6"></rect>
    </symbol>
    <symbol id="sun" viewBox="0 0 24 24">
      <circle cx="12" cy="12" r="5"></circle>
      <line x1="12" y1="1" x2="12" y2="3"></line>
      <line x1="12" y1="21" x2="12" y2="23"></line>
      <line x1="4.22" y1="4.22" x2="5.64" y2="5.64"></line>
      <line x1="18.36" y1="18.36" x2="19.78" y2="19.78"></line>
      <line x1="1" y1="12" x2="3" y2="12"></line>
      <line x1="21" y1="12" x2="23" y2="12"></line>
      <line x1="4.22" y1="19.78" x2="5.64" y2="18.36"></line>
      <line x1="18.36" y1="5.64" x2="19.78" y2="4.22"></line>
    </symbol>
    <symbol id="sunrise" viewBox="0 0 24 24">
      <path d="M17 18a5 5 0 0 0-10 0"></path>
      <line x1="12" y1="2" x2="12" y2="9"></line>
      <line x1="4.22" y1="10.22" x2="5.64" y2="11.64"></line>
      <line x1="1" y1="18" x2="3" y2="18"></line>
      <line x1="21" y1="18" x2="23" y2="18"></line>
      <line x1="18.36" y1="11.64" x2="19.78" y2="10.22"></line>
      <line x1="23" y1="22" x2="1" y2="22"></line>
      <polyline points="8 6 12 2 16 6"></polyline>
    </symbol>
    <symbol id="sunset" viewBox="0 0 24 24">
      <path d="M17 18a5 5 0 0 0-10 0"></path>
      <line x1="12" y1="9" x2="12" y2="2"></line>
      <line x1="4.22" y1="10.22" x2="5.64" y2="11.64"></line>
      <line x1="1" y1="18" x2="3" y2="18"></line>
      <line x1="21" y1="18" x2="23" y2="18"></line>
      <line x1="18.36" y1="11.64" x2="19.78" y2="10.22"></line>
      <line x1="23" y1="22" x2="1" y2="22"></line>
      <polyline points="16 5 12 9 8 5"></polyline>
    </symbol>
    <symbol id="table" viewBox="0 0 24 24">
      <path
        d="M9 3H5a2 2 0 0 0-2 2v4m6-6h10a2 2 0 0 1 2 2v4M9 3v18m0 0h10a2 2 0 0 0 2-2V9M9 21H5a2 2 0 0 1-2-2V9m0 0h18"
      ></path>
    </symbol>
    <symbol id="tablet" viewBox="0 0 24 24">
      <rect x="4" y="2" width="16" height="20" rx="2" ry="2"></rect>
      <line x1="12" y1="18" x2="12.01" y2="18"></line>
    </symbol>
    <symbol id="tag" viewBox="0 0 24 24">
      <path
        d="M20.59 13.41l-7.17 7.17a2 2 0 0 1-2.83 0L2 12V2h10l8.59 8.59a2 2 0 0 1 0 2.82z"
      ></path>
      <line x1="7" y1="7" x2="7.01" y2="7"></line>
    </symbol>
    <symbol id="target" viewBox="0 0 24 24">
      <circle cx="12" cy="12" r="10"></circle>
      <circle cx="12" cy="12" r="6"></circle>
      <circle cx="12" cy="12" r="2"></circle>
    </symbol>
    <symbol id="terminal" viewBox="0 0 24 24">
      <polyline points="4 17 10 11 4 5"></polyline>
      <line x1="12" y1="19" x2="20" y2="19"></line>
    </symbol>
    <symbol id="thermometer" viewBox="0 0 24 24">
      <path d="M14 14.76V3.5a2.5 2.5 0 0 0-5 0v11.26a4.5 4.5 0 1 0 5 0z"></path>
    </symbol>
    <symbol id="thumbs-down" viewBox="0 0 24 24">
      <path
        d="M10 15v4a3 3 0 0 0 3 3l4-9V2H5.72a2 2 0 0 0-2 1.7l-1.38 9a2 2 0 0 0 2 2.3zm7-13h2.67A2.31 2.31 0 0 1 22 4v7a2.31 2.31 0 0 1-2.33 2H17"
      ></path>
    </symbol>
    <symbol id="thumbs-up" viewBox="0 0 24 24">
      <path
        d="M14 9V5a3 3 0 0 0-3-3l-4 9v11h11.28a2 2 0 0 0 2-1.7l1.38-9a2 2 0 0 0-2-2.3zM7 22H4a2 2 0 0 1-2-2v-7a2 2 0 0 1 2-2h3"
      ></path>
    </symbol>
    <symbol id="toggle-left" viewBox="0 0 24 24">
      <rect x="1" y="5" width="22" height="14" rx="7" ry="7"></rect>
      <circle cx="8" cy="12" r="3"></circle>
    </symbol>
    <symbol id="toggle-right" viewBox="0 0 24 24">
      <rect x="1" y="5" width="22" height="14" rx="7" ry="7"></rect>
      <circle cx="16" cy="12" r="3"></circle>
    </symbol>
    <symbol id="tool" viewBox="0 0 24 24">
      <path
        d="M14.7 6.3a1 1 0 0 0 0 1.4l1.6 1.6a1 1 0 0 0 1.4 0l3.77-3.77a6 6 0 0 1-7.94 7.94l-6.91 6.91a2.12 2.12 0 0 1-3-3l6.91-6.91a6 6 0 0 1 7.94-7.94l-3.76 3.76z"
      ></path>
    </symbol>
    <symbol id="trash-2" viewBox="0 0 24 24">
      <polyline points="3 6 5 6 21 6"></polyline>
      <path
        d="M19 6v14a2 2 0 0 1-2 2H7a2 2 0 0 1-2-2V6m3 0V4a2 2 0 0 1 2-2h4a2 2 0 0 1 2 2v2"
      ></path>
      <line x1="10" y1="11" x2="10" y2="17"></line>
      <line x1="14" y1="11" x2="14" y2="17"></line>
    </symbol>
    <symbol id="trash" viewBox="0 0 24 24">
      <polyline points="3 6 5 6 21 6"></polyline>
      <path
        d="M19 6v14a2 2 0 0 1-2 2H7a2 2 0 0 1-2-2V6m3 0V4a2 2 0 0 1 2-2h4a2 2 0 0 1 2 2v2"
      ></path>
    </symbol>
    <symbol id="trello" viewBox="0 0 24 24">
      <rect x="3" y="3" width="18" height="18" rx="2" ry="2"></rect>
      <rect x="7" y="7" width="3" height="9"></rect>
      <rect x="14" y="7" width="3" height="5"></rect>
    </symbol>
    <symbol id="trending-down" viewBox="0 0 24 24">
      <polyline points="23 18 13.5 8.5 8.5 13.5 1 6"></polyline>
      <polyline points="17 18 23 18 23 12"></polyline>
    </symbol>
    <symbol id="trending-up" viewBox="0 0 24 24">
      <polyline points="23 6 13.5 15.5 8.5 10.5 1 18"></polyline>
      <polyline points="17 6 23 6 23 12"></polyline>
    </symbol>
    <symbol id="triangle" viewBox="0 0 24 24">
      <path
        d="M10.29 3.86L1.82 18a2 2 0 0 0 1.71 3h16.94a2 2 0 0 0 1.71-3L13.71 3.86a2 2 0 0 0-3.42 0z"
      ></path>
    </symbol>
    <symbol id="truck" viewBox="0 0 24 24">
      <rect x="1" y="3" width="15" height="13"></rect>
      <polygon points="16 8 20 8 23 11 23 16 16 16 16 8"></polygon>
      <circle cx="5.5" cy="18.5" r="2.5"></circle>
      <circle cx="18.5" cy="18.5" r="2.5"></circle>
    </symbol>
    <symbol id="tv" viewBox="0 0 24 24">
      <rect x="2" y="7" width="20" height="15" rx="2" ry="2"></rect>
      <polyline points="17 2 12 7 7 2"></polyline>
    </symbol>
    <symbol id="twitch" viewBox="0 0 24 24">
      <path d="M21 2H3v16h5v4l4-4h5l4-4V2zm-10 9V7m5 4V7"></path>
    </symbol>
    <symbol id="twitter" viewBox="0 0 24 24">
      <path
        d="M23 3a10.9 10.9 0 0 1-3.14 1.53 4.48 4.48 0 0 0-7.86 3v1A10.66 10.66 0 0 1 3 4s-4 9 5 13a11.64 11.64 0 0 1-7 2c9 5 20 0 20-11.5a4.5 4.5 0 0 0-.08-.83A7.72 7.72 0 0 0 23 3z"
      ></path>
    </symbol>
    <symbol id="type" viewBox="0 0 24 24">
      <polyline points="4 7 4 4 20 4 20 7"></polyline>
      <line x1="9" y1="20" x2="15" y2="20"></line>
      <line x1="12" y1="4" x2="12" y2="20"></line>
    </symbol>
    <symbol id="umbrella" viewBox="0 0 24 24">
      <path d="M23 12a11.05 11.05 0 0 0-22 0zm-5 7a3 3 0 0 1-6 0v-7"></path>
    </symbol>
    <symbol id="underline" viewBox="0 0 24 24">
      <path d="M6 3v7a6 6 0 0 0 6 6 6 6 0 0 0 6-6V3"></path>
      <line x1="4" y1="21" x2="20" y2="21"></line>
    </symbol>
    <symbol id="unlock" viewBox="0 0 24 24">
      <rect x="3" y="11" width="18" height="11" rx="2" ry="2"></rect>
      <path d="M7 11V7a5 5 0 0 1 9.9-1"></path>
    </symbol>
    <symbol id="upload-cloud" viewBox="0 0 24 24">
      <polyline points="16 16 12 12 8 16"></polyline>
      <line x1="12" y1="12" x2="12" y2="21"></line>
      <path d="M20.39 18.39A5 5 0 0 0 18 9h-1.26A8 8 0 1 0 3 16.3"></path>
      <polyline points="16 16 12 12 8 16"></polyline>
    </symbol>
    <symbol id="upload" viewBox="0 0 24 24">
      <path d="M21 15v4a2 2 0 0 1-2 2H5a2 2 0 0 1-2-2v-4"></path>
      <polyline points="17 8 12 3 7 8"></polyline>
      <line x1="12" y1="3" x2="12" y2="15"></line>
    </symbol>
    <symbol id="user-check" viewBox="0 0 24 24">
      <path d="M16 21v-2a4 4 0 0 0-4-4H5a4 4 0 0 0-4 4v2"></path>
      <circle cx="8.5" cy="7" r="4"></circle>
      <polyline points="17 11 19 13 23 9"></polyline>
    </symbol>
    <symbol id="user-minus" viewBox="0 0 24 24">
      <path d="M16 21v-2a4 4 0 0 0-4-4H5a4 4 0 0 0-4 4v2"></path>
      <circle cx="8.5" cy="7" r="4"></circle>
      <line x1="23" y1="11" x2="17" y2="11"></line>
    </symbol>
    <symbol id="user-plus" viewBox="0 0 24 24">
      <path d="M16 21v-2a4 4 0 0 0-4-4H5a4 4 0 0 0-4 4v2"></path>
      <circle cx="8.5" cy="7" r="4"></circle>
      <line x1="20" y1="8" x2="20" y2="14"></line>
      <line x1="23" y1="11" x2="17" y2="11"></line>
    </symbol>
    <symbol id="user-x" viewBox="0 0 24 24">
      <path d="M16 21v-2a4 4 0 0 0-4-4H5a4 4 0 0 0-4 4v2"></path>
      <circle cx="8.5" cy="7" r="4"></circle>
      <line x1="18" y1="8" x2="23" y2="13"></line>
      <line x1="23" y1="8" x2="18" y2="13"></line>
    </symbol>
    <symbol id="user" viewBox="0 0 24 24">
      <path d="M20 21v-2a4 4 0 0 0-4-4H8a4 4 0 0 0-4 4v2"></path>
      <circle cx="12" cy="7" r="4"></circle>
    </symbol>
    <symbol id="users" viewBox="0 0 24 24">
      <path d="M17 21v-2a4 4 0 0 0-4-4H5a4 4 0 0 0-4 4v2"></path>
      <circle cx="9" cy="7" r="4"></circle>
      <path d="M23 21v-2a4 4 0 0 0-3-3.87"></path>
      <path d="M16 3.13a4 4 0 0 1 0 7.75"></path>
    </symbol>
    <symbol id="video-off" viewBox="0 0 24 24">
      <path
        d="M16 16v1a2 2 0 0 1-2 2H3a2 2 0 0 1-2-2V7a2 2 0 0 1 2-2h2m5.66 0H14a2 2 0 0 1 2 2v3.34l1 1L23 7v10"
      ></path>
      <line x1="1" y1="1" x2="23" y2="23"></line>
    </symbol>
    <symbol id="video" viewBox="0 0 24 24">
      <polygon points="23 7 16 12 23 17 23 7"></polygon>
      <rect x="1" y="5" width="15" height="14" rx="2" ry="2"></rect>
    </symbol>
    <symbol id="voicemail" viewBox="0 0 24 24">
      <circle cx="5.5" cy="11.5" r="4.5"></circle>
      <circle cx="18.5" cy="11.5" r="4.5"></circle>
      <line x1="5.5" y1="16" x2="18.5" y2="16"></line>
    </symbol>
    <symbol id="volume-1" viewBox="0 0 24 24">
      <polygon points="11 5 6 9 2 9 2 15 6 15 11 19 11 5"></polygon>
      <path d="M15.54 8.46a5 5 0 0 1 0 7.07"></path>
    </symbol>
    <symbol id="volume-2" viewBox="0 0 24 24">
      <polygon points="11 5 6 9 2 9 2 15 6 15 11 19 11 5"></polygon>
      <path
        d="M19.07 4.93a10 10 0 0 1 0 14.14M15.54 8.46a5 5 0 0 1 0 7.07"
      ></path>
    </symbol>
    <symbol id="volume-x" viewBox="0 0 24 24">
      <polygon points="11 5 6 9 2 9 2 15 6 15 11 19 11 5"></polygon>
      <line x1="23" y1="9" x2="17" y2="15"></line>
      <line x1="17" y1="9" x2="23" y2="15"></line>
    </symbol>
    <symbol id="volume" viewBox="0 0 24 24">
      <polygon points="11 5 6 9 2 9 2 15 6 15 11 19 11 5"></polygon>
    </symbol>
    <symbol id="watch" viewBox="0 0 24 24">
      <circle cx="12" cy="12" r="7"></circle>
      <polyline points="12 9 12 12 13.5 13.5"></polyline>
      <path
        d="M16.51 17.35l-.35 3.83a2 2 0 0 1-2 1.82H9.83a2 2 0 0 1-2-1.82l-.35-3.83m.01-10.7l.35-3.83A2 2 0 0 1 9.83 1h4.35a2 2 0 0 1 2 1.82l.35 3.83"
      ></path>
    </symbol>
    <symbol id="wifi-off" viewBox="0 0 24 24">
      <line x1="1" y1="1" x2="23" y2="23"></line>
      <path d="M16.72 11.06A10.94 10.94 0 0 1 19 12.55"></path>
      <path d="M5 12.55a10.94 10.94 0 0 1 5.17-2.39"></path>
      <path d="M10.71 5.05A16 16 0 0 1 22.58 9"></path>
      <path d="M1.42 9a15.91 15.91 0 0 1 4.7-2.88"></path>
      <path d="M8.53 16.11a6 6 0 0 1 6.95 0"></path>
      <line x1="12" y1="20" x2="12.01" y2="20"></line>
    </symbol>
    <symbol id="wifi" viewBox="0 0 24 24">
      <path d="M5 12.55a11 11 0 0 1 14.08 0"></path>
      <path d="M1.42 9a16 16 0 0 1 21.16 0"></path>
      <path d="M8.53 16.11a6 6 0 0 1 6.95 0"></path>
      <line x1="12" y1="20" x2="12.01" y2="20"></line>
    </symbol>
    <symbol id="wind" viewBox="0 0 24 24">
      <path
        d="M9.59 4.59A2 2 0 1 1 11 8H2m10.59 11.41A2 2 0 1 0 14 16H2m15.73-8.27A2.5 2.5 0 1 1 19.5 12H2"
      ></path>
    </symbol>
    <symbol id="x-circle" viewBox="0 0 24 24">
      <circle cx="12" cy="12" r="10"></circle>
      <line x1="15" y1="9" x2="9" y2="15"></line>
      <line x1="9" y1="9" x2="15" y2="15"></line>
    </symbol>
    <symbol id="x-octagon" viewBox="0 0 24 24">
      <polygon
        points="7.86 2 16.14 2 22 7.86 22 16.14 16.14 22 7.86 22 2 16.14 2 7.86 7.86 2"
      ></polygon>
      <line x1="15" y1="9" x2="9" y2="15"></line>
      <line x1="9" y1="9" x2="15" y2="15"></line>
    </symbol>
    <symbol id="x-square" viewBox="0 0 24 24">
      <rect x="3" y="3" width="18" height="18" rx="2" ry="2"></rect>
      <line x1="9" y1="9" x2="15" y2="15"></line>
      <line x1="15" y1="9" x2="9" y2="15"></line>
    </symbol>
    <symbol id="x" viewBox="0 0 24 24">
      <line x1="18" y1="6" x2="6" y2="18"></line>
      <line x1="6" y1="6" x2="18" y2="18"></line>
    </symbol>
    <symbol id="youtube" viewBox="0 0 24 24">
      <path
        d="M22.54 6.42a2.78 2.78 0 0 0-1.94-2C18.88 4 12 4 12 4s-6.88 0-8.6.46a2.78 2.78 0 0 0-1.94 2A29 29 0 0 0 1 11.75a29 29 0 0 0 .46 5.33A2.78 2.78 0 0 0 3.4 19c1.72.46 8.6.46 8.6.46s6.88 0 8.6-.46a2.78 2.78 0 0 0 1.94-2 29 29 0 0 0 .46-5.25 29 29 0 0 0-.46-5.33z"
      ></path>
      <polygon points="9.75 15.02 15.5 11.75 9.75 8.48 9.75 15.02"></polygon>
    </symbol>
    <symbol id="zap-off" viewBox="0 0 24 24">
      <polyline points="12.41 6.75 13 2 10.57 4.92"></polyline>
      <polyline points="18.57 12.91 21 10 15.66 10"></polyline>
      <polyline points="8 8 3 14 12 14 11 22 16 16"></polyline>
      <line x1="1" y1="1" x2="23" y2="23"></line>
    </symbol>
    <symbol id="zap" viewBox="0 0 24 24">
      <polygon points="13 2 3 14 12 14 11 22 21 10 12 10 13 2"></polygon>
    </symbol>
    <symbol id="zoom-in" viewBox="0 0 24 24">
      <circle cx="11" cy="11" r="8"></circle>
      <line x1="21" y1="21" x2="16.65" y2="16.65"></line>
      <line x1="11" y1="8" x2="11" y2="14"></line>
      <line x1="8" y1="11" x2="14" y2="11"></line>
    </symbol>
    <symbol id="zoom-out" viewBox="0 0 24 24">
      <circle cx="11" cy="11" r="8"></circle>
      <line x1="21" y1="21" x2="16.65" y2="16.65"></line>
      <line x1="8" y1="11" x2="14" y2="11"></line>
    </symbol>
    <symbol id="stopwatch" viewBox="0 0 24 24">
      <line x1="10" x2="14" y1="2" y2="2"></line>
      <line x1="12" x2="15" y1="14" y2="11"></line>
      <circle cx="12" cy="14" r="8"></circle>
    </symbol>
    <symbol id="bug-risk" viewBox="0 0 24 24">
      <path d="M2 21.0909C2 21.332 2.0878 21.5632 2.24408 21.7337C2.40036 21.9042 2.61232 22 2.83333 22C3.05435 22 3.26631 21.9042 3.42259 21.7337C3.57887 21.5632 3.66667 21.332 3.66667 21.0909C3.66336 20.7341 3.72494 20.38 3.84784 20.0493C3.97074 19.7186 4.15252 19.4177 4.38268 19.1641C4.61283 18.9105 4.88679 18.7091 5.18871 18.5717C5.49064 18.4343 5.81453 18.3636 6.14167 18.3636H6.725C6.89715 18.7466 7.10076 19.1117 7.33333 19.4545C7.87669 20.2449 8.58126 20.8864 9.39125 21.3282C10.2012 21.77 11.0944 22 12 22C12.9056 22 13.7988 21.77 14.6087 21.3282C15.4187 20.8864 16.1233 20.2449 16.6667 19.4545C16.8978 19.1106 17.1013 18.7456 17.275 18.3636H17.8583C18.517 18.3708 19.1465 18.6613 19.61 19.172C20.0734 19.6827 20.3334 20.3723 20.3333 21.0909C20.3333 21.332 20.4211 21.5632 20.5774 21.7337C20.7337 21.9042 20.9457 22 21.1667 22C21.3877 22 21.5996 21.9042 21.7559 21.7337C21.9122 21.5632 22 21.332 22 21.0909C22 19.8901 21.5645 18.7381 20.7885 17.8864C20.0125 17.0347 18.9591 16.5527 17.8583 16.5455C17.9155 16.276 17.9558 16.0027 17.9792 15.7273L18.0625 14.7273H21.1667C21.3877 14.7273 21.5996 14.6315 21.7559 14.461C21.9122 14.2905 22 14.0593 22 13.8182C22 13.5771 21.9122 13.3458 21.7559 13.1754C21.5996 13.0049 21.3877 12.9091 21.1667 12.9091H18.2167L18.3333 11.5045C18.3414 11.3532 18.3414 11.2014 18.3333 11.05C19.3432 10.9168 20.2735 10.3853 20.9489 9.55552C21.6243 8.72577 21.9982 7.65514 22 6.54545C22 6.30435 21.9122 6.07312 21.7559 5.90263C21.5996 5.73214 21.3877 5.63636 21.1667 5.63636C20.9457 5.63636 20.7337 5.73214 20.5774 5.90263C20.4211 6.07312 20.3333 6.30435 20.3333 6.54545C20.3415 7.2458 20.0995 7.92213 19.6585 8.43119C19.2176 8.94026 18.6123 9.24207 17.9708 9.27273C17.7981 8.82155 17.5573 8.40517 17.2583 8.04091C16.7384 7.42373 16.0722 6.97539 15.3333 6.74545V5.63636C15.3333 4.67194 14.9821 3.74702 14.357 3.06507C13.7319 2.38312 12.8841 2 12 2C11.1159 2 10.2681 2.38312 9.64298 3.06507C9.01786 3.74702 8.66667 4.67194 8.66667 5.63636V6.74545C7.92919 6.97156 7.26312 7.41508 6.74167 8.02727C6.44152 8.39565 6.20063 8.81674 6.02917 9.27273C5.3881 9.24095 4.78342 8.93879 4.34265 8.42997C3.90189 7.92116 3.65952 7.24547 3.66667 6.54545C3.66667 6.30435 3.57887 6.07312 3.42259 5.90263C3.26631 5.73214 3.05435 5.63636 2.83333 5.63636C2.61232 5.63636 2.40036 5.73214 2.24408 5.90263C2.0878 6.07312 2 6.30435 2 6.54545C2.00295 7.6525 2.37912 8.71968 3.05683 9.54368C3.73455 10.3677 4.66646 10.8909 5.675 11.0136C5.66696 11.165 5.66696 11.3168 5.675 11.4682L5.78333 12.9091H2.83333C2.61232 12.9091 2.40036 13.0049 2.24408 13.1754C2.0878 13.3458 2 13.5771 2 13.8182C2 14.0593 2.0878 14.2905 2.24408 14.461C2.40036 14.6315 2.61232 14.7273 2.83333 14.7273H5.9375L6.02083 15.7273C6.04416 16.0027 6.08453 16.276 6.14167 16.5455C5.04093 16.5527 3.98754 17.0347 3.21154 17.8864C2.43553 18.7381 1.99998 19.8901 2 21.0909ZM16.6708 11.3364L16.3208 15.5591C16.2375 16.576 15.8955 17.5473 15.3333 18.3636C14.7204 19.2503 13.8311 19.8615 12.8333 20.0818V8.36364H14.1833C14.5315 8.36209 14.876 8.43989 15.195 8.59203C15.514 8.74418 15.8003 8.96732 16.0357 9.24717C16.271 9.52701 16.4502 9.8574 16.5617 10.2172C16.6732 10.5769 16.7147 10.9581 16.6833 11.3364H16.6708ZM12 3.81818C12.442 3.81818 12.8659 4.00974 13.1785 4.35072C13.4911 4.69169 13.6667 5.15415 13.6667 5.63636V6.54545H10.3333V5.63636C10.3333 5.15415 10.5089 4.69169 10.8215 4.35072C11.134 4.00974 11.558 3.81818 12 3.81818ZM7.97083 9.27273C8.20201 8.98733 8.48608 8.75871 8.80428 8.60199C9.12248 8.44528 9.46754 8.36404 9.81667 8.36364H11.1667V20.0818C10.1689 19.8615 9.27962 19.2503 8.66667 18.3636C8.10524 17.5486 7.76326 16.579 7.67917 15.5636L7.32917 11.3364C7.29804 10.9626 7.33906 10.5858 7.44958 10.2304C7.5601 9.87494 7.73767 9.54872 7.97083 9.27273Z" fill="currentColor"/>
    </symbol>
    <symbol id="antipattern" viewBox="0 0 24 24">
      <path d="M10.29 3.85999L1.82 18C1.64537 18.3024 1.55297 18.6453 1.55199 18.9945C1.55101 19.3437 1.64149 19.6871 1.81443 19.9905C1.98736 20.2939 2.23673 20.5467 2.53771 20.7238C2.83869 20.9009 3.1808 20.9962 3.53 21H20.47C20.8192 20.9962 21.1613 20.9009 21.4623 20.7238C21.7633 20.5467 22.0126 20.2939 22.1856 19.9905C22.3585 19.6871 22.449 19.3437 22.448 18.9945C22.447 18.6453 22.3546 18.3024 22.18 18L13.71 3.85999C13.5317 3.5661 13.2807 3.32311 12.9812 3.15447C12.6817 2.98584 12.3437 2.89725 12 2.89725C11.6563 2.89725 11.3183 2.98584 11.0188 3.15447C10.7193 3.32311 10.4683 3.5661 10.29 3.85999V3.85999Z" stroke="currentColor" stroke-width="2" stroke-linecap="round" stroke-linejoin="round"/>
      <path d="M12 9V13" stroke="currentColor" stroke-width="2" stroke-linecap="round" stroke-linejoin="round"/>
      <path d="M12 17H12.01" stroke="currentColor" stroke-width="2" stroke-linecap="round" stroke-linejoin="round"/>
    </symbol>
    <symbol id="performance" viewBox="0 0 24 24">
      <path d="M23 6L13.5 15.5L8.5 10.5L1 18" stroke="currentColor" stroke-width="2" stroke-linecap="round" stroke-linejoin="round"/>
      <path d="M17 6H23V12" stroke="currentColor" stroke-width="2" stroke-linecap="round" stroke-linejoin="round"/>
    </symbol>
    <symbol id="style" viewBox="0 0 24 24">
      <path d="M4.85586 12.5049C5.31722 12.7951 5.67786 13.1215 5.93778 13.4841C6.19769 13.8402 6.37964 14.2985 6.48361 14.8589C6.58757 15.4128 6.63956 16.1249 6.63956 16.9953C6.63956 17.6481 6.65255 18.1294 6.67854 18.4394C6.71103 18.7493 6.76952 18.9833 6.85399 19.1416C6.94496 19.3064 7.05218 19.4119 7.17564 19.4581C7.2991 19.5108 7.51029 19.5603 7.80919 19.6065C8.05612 19.6394 8.2608 19.7614 8.42325 19.9724C8.5857 20.1834 8.66693 20.4604 8.66693 20.8032C8.66693 21.6011 8.18932 22 7.23412 22C6.64281 22 6.11322 21.8747 5.64537 21.6242C5.18401 21.3736 4.82662 21.0175 4.5732 20.556C4.31978 20.101 4.18982 19.5768 4.18332 18.9833C4.16383 17.9811 4.14433 17.1766 4.12484 16.57C4.10535 15.9634 4.0761 15.5711 4.03712 15.393C3.93965 14.9512 3.79344 14.6183 3.5985 14.3941C3.41006 14.1699 3.15989 13.9622 2.84799 13.771C2.54258 13.5731 2.3249 13.3984 2.19494 13.2467C2.06498 13.0885 2 12.8412 2 12.5049C2 12.017 2.18844 11.6511 2.56532 11.4071C3.03318 11.1104 3.36458 10.8598 3.55951 10.6554C3.76095 10.4444 3.90066 10.1773 3.97863 9.85424C4.06311 9.52455 4.11184 9.16849 4.12484 8.78605C4.13784 8.39702 4.15733 7.46729 4.18332 5.99688C4.20281 5.08693 4.48548 4.36162 5.03131 3.82093C5.58364 3.27364 6.31791 3 7.23412 3C8.18932 3 8.66693 3.39233 8.66693 4.17699C8.66693 4.53306 8.5857 4.81329 8.42325 5.0177C8.2673 5.22211 8.06261 5.34079 7.80919 5.37376C7.43231 5.42651 7.16914 5.50564 7.01969 5.61114C6.87024 5.71664 6.77277 5.92105 6.72728 6.22436C6.68179 6.52768 6.65255 7.11452 6.63956 7.9849C6.62656 8.8355 6.57458 9.53444 6.48361 10.0817C6.39913 10.6224 6.22694 11.084 5.96702 11.4664C5.71359 11.8489 5.34321 12.195 4.85586 12.5049Z" fill="currentColor"/>
      <path d="M19.1441 12.5049C18.7932 12.2808 18.5073 12.0467 18.2864 11.8027C18.0655 11.5587 17.8835 11.262 17.7406 10.9125C17.5976 10.5631 17.4969 10.151 17.4384 9.67621C17.3799 9.19486 17.3507 8.6311 17.3507 7.9849C17.3507 7.35849 17.3377 6.88044 17.3117 6.55076C17.2857 6.21447 17.2337 5.9705 17.1558 5.81884C17.0778 5.66719 16.9673 5.56498 16.8244 5.51223C16.6879 5.45289 16.4767 5.40673 16.1908 5.37376C15.9504 5.34079 15.7457 5.22211 15.5767 5.0177C15.4143 4.81329 15.3331 4.53306 15.3331 4.17699C15.3331 3.39233 15.8042 3 16.7464 3C17.3507 3 17.8803 3.12528 18.3351 3.37585C18.7965 3.61982 19.1571 3.97258 19.4171 4.43415C19.6835 4.88912 19.8199 5.41003 19.8264 5.99688C19.8654 8.18601 19.9109 9.38938 19.9629 9.60698C20.0669 10.0422 20.2196 10.3752 20.421 10.6059C20.6224 10.8301 20.8661 11.0312 21.152 11.2093C21.4379 11.3807 21.6491 11.5521 21.7856 11.7236C21.9285 11.895 22 12.1555 22 12.5049C22 12.9995 21.8148 13.3621 21.4444 13.5929C20.9896 13.8765 20.6582 14.127 20.4502 14.3446C20.2488 14.5556 20.1058 14.8227 20.0214 15.1458C19.9434 15.4623 19.8947 15.9403 19.8752 16.5799C19.8622 17.2195 19.8459 18.0206 19.8264 18.9833C19.8069 19.8933 19.5178 20.6219 18.9589 21.1692C18.4066 21.7231 17.6691 22 16.7464 22C16.2915 22 15.9406 21.8978 15.6937 21.6934C15.4533 21.489 15.3331 21.1923 15.3331 20.8032C15.3331 20.5856 15.3721 20.3845 15.45 20.1999C15.528 20.0219 15.6287 19.8834 15.7522 19.7845C15.8822 19.6856 16.0284 19.6262 16.1908 19.6065C16.4832 19.5669 16.7009 19.5174 16.8439 19.4581C16.9868 19.3988 17.094 19.2867 17.1655 19.1218C17.2435 18.957 17.2922 18.713 17.3117 18.3899C17.3377 18.0734 17.3507 17.6085 17.3507 16.9953C17.3637 16.0854 17.4157 15.3732 17.5066 14.8589C17.5976 14.3446 17.7698 13.9028 18.0232 13.5336C18.2767 13.1643 18.6503 12.8214 19.1441 12.5049Z" fill="currentColor"/>
    </symbol>
    <symbol id="security" viewBox="0 0 24 24">
      <path d="M12 22C12 22 20 18 20 12V5L12 2L4 5V12C4 18 12 22 12 22Z" stroke="currentColor" stroke-width="2" stroke-linecap="round" stroke-linejoin="round"/>
    </symbol>
    <symbol id="coverage" viewBox="0 0 24 24">
      <path d="M18 19C18 19.7956 17.6839 20.5587 17.1213 21.1213C16.5587 21.6839 15.7956 22 15 22C14.2044 22 13.4413 21.6839 12.8787 21.1213C12.3161 20.5587 12 19.7956 12 19V12M23 12C22.7388 9.26357 21.467 6.72275 19.433 4.87366C17.399 3.02458 14.7489 2 12 2C9.25114 2 6.60096 3.02458 4.56697 4.87366C2.53297 6.72275 1.2612 9.26357 1 12H23Z" stroke="currentColor" stroke-width="2" stroke-linecap="round" stroke-linejoin="round"/>
    </symbol>
    <symbol id="typecheck" viewBox="0 0 24 24">
      <mask id="type-check-path-1-inside-1" fill="white">
      <rect x="2" width="20" height="24" rx="1"/>
      </mask>
      <rect x="2" width="20" height="24" rx="1" stroke="currentColor" stroke-width="4" mask="url(#type-check-path-1-inside-1)"/>
      <path d="M7.79102 8.56934C7.79102 8.0127 7.96973 7.4502 8.32715 6.88184C8.68457 6.30762 9.20605 5.83301 9.8916 5.45801C10.5771 5.08301 11.377 4.89551 12.291 4.89551C13.1406 4.89551 13.8906 5.05371 14.541 5.37012C15.1914 5.68066 15.6924 6.10547 16.0439 6.64453C16.4014 7.18359 16.5801 7.76953 16.5801 8.40234C16.5801 8.90039 16.4775 9.33691 16.2725 9.71191C16.0732 10.0869 15.833 10.4121 15.5518 10.6875C15.2764 10.957 14.7783 11.4141 14.0576 12.0586C13.8584 12.2402 13.6973 12.4014 13.5742 12.542C13.457 12.6768 13.3691 12.8027 13.3105 12.9199C13.252 13.0312 13.2051 13.1455 13.1699 13.2627C13.1406 13.374 13.0938 13.5732 13.0293 13.8604C12.918 14.4697 12.5693 14.7744 11.9834 14.7744C11.6787 14.7744 11.4209 14.6748 11.21 14.4756C11.0049 14.2764 10.9023 13.9805 10.9023 13.5879C10.9023 13.0957 10.9785 12.6709 11.1309 12.3135C11.2832 11.9502 11.4854 11.6338 11.7373 11.3643C11.9893 11.0889 12.3291 10.7637 12.7568 10.3887C13.1318 10.0605 13.4014 9.81445 13.5654 9.65039C13.7354 9.48047 13.876 9.29297 13.9873 9.08789C14.1045 8.88281 14.1631 8.66016 14.1631 8.41992C14.1631 7.95117 13.9873 7.55566 13.6357 7.2334C13.29 6.91113 12.8418 6.75 12.291 6.75C11.6465 6.75 11.1719 6.91406 10.8672 7.24219C10.5625 7.56445 10.3047 8.04199 10.0938 8.6748C9.89453 9.33691 9.5166 9.66797 8.95996 9.66797C8.63184 9.66797 8.35352 9.55371 8.125 9.3252C7.90234 9.09082 7.79102 8.83887 7.79102 8.56934ZM12.0801 19.2021C11.7227 19.2021 11.4092 19.0879 11.1396 18.8594C10.876 18.625 10.7441 18.2998 10.7441 17.8838C10.7441 17.5146 10.873 17.2041 11.1309 16.9521C11.3887 16.7002 11.7051 16.5742 12.0801 16.5742C12.4492 16.5742 12.7598 16.7002 13.0117 16.9521C13.2637 17.2041 13.3896 17.5146 13.3896 17.8838C13.3896 18.2939 13.2578 18.6162 12.9941 18.8506C12.7305 19.085 12.4258 19.2021 12.0801 19.2021Z" fill="currentColor"/>
    </symbol>
    <symbol id="doc" viewBox="0 0 24 24">
      <path d="M14 2H6C5.46957 2 4.96086 2.21071 4.58579 2.58579C4.21071 2.96086 4 3.46957 4 4V20C4 20.5304 4.21071 21.0391 4.58579 21.4142C4.96086 21.7893 5.46957 22 6 22H18C18.5304 22 19.0391 21.7893 19.4142 21.4142C19.7893 21.0391 20 20.5304 20 20V8L14 2Z" stroke="currentColor" stroke-width="2" stroke-linecap="round" stroke-linejoin="round"/>
      <path d="M14 2V8H20" stroke="currentColor" stroke-width="2" stroke-linecap="round" stroke-linejoin="round"/>
      <path d="M16 13H8" stroke="currentColor" stroke-width="2" stroke-linecap="round" stroke-linejoin="round"/>
      <path d="M16 17H8" stroke="currentColor" stroke-width="2" stroke-linecap="round" stroke-linejoin="round"/>
      <path d="M10 9H9H8" stroke="currentColor" stroke-width="2" stroke-linecap="round" stroke-linejoin="round"/>
    </symbol>
  </defs>
</svg>
