<svg width="84" height="82" viewBox="0 0 84 82" fill="none" xmlns="http://www.w3.org/2000/svg">
<g opacity="0.4">
<path d="M45.5245 37.6497L39.0425 35.2504L36.622 27.3174C36.5288 27.0115 36.2454 26.8017 35.9257 26.8017C35.6059 26.8017 35.3225 27.0115 35.2293 27.3174L32.8096 35.2504L26.3268 37.6497C26.0406 37.7561 25.8512 38.0278 25.8512 38.333C25.8512 38.6374 26.0406 38.9106 26.3268 39.0162L32.8059 41.4148L35.2271 49.5896C35.3189 49.8985 35.603 50.1104 35.9257 50.1104C36.2476 50.1104 36.5324 49.8985 36.6242 49.5889L39.0454 41.4141L45.5252 39.0155C45.81 38.9106 46.0001 38.6382 46.0001 38.333C46.0001 38.0285 45.81 37.7561 45.5245 37.6497Z" fill="#C0C1C3"/>
<path d="M17.3637 24.9336L15.6418 24.2963L15.0037 22.5736C14.8981 22.2874 14.6257 22.098 14.3205 22.098C14.016 22.098 13.7436 22.2874 13.6372 22.5736L12.9999 24.2963L11.2772 24.9336C10.991 25.04 10.8016 25.3124 10.8016 25.6169C10.8016 25.9214 10.991 26.1945 11.2772 26.3001L12.9999 26.9375L13.6372 28.6601C13.7436 28.9464 14.016 29.1358 14.3205 29.1358C14.6249 29.1358 14.8974 28.9464 15.0037 28.6601L15.6411 26.9375L17.3637 26.3001C17.65 26.1938 17.8394 25.9214 17.8394 25.6169C17.8394 25.3124 17.65 25.04 17.3637 24.9336Z" fill="#C0C1C3"/>
<path d="M15.7254 53.7005L17.4109 54.324C17.6972 54.4289 17.8866 54.7021 17.8866 55.0065C17.8866 55.311 17.6972 55.5842 17.4109 55.6891L15.7349 56.3104L15.0742 58.9486C14.9927 59.2728 14.702 59.5 14.3677 59.5C14.0334 59.5 13.7427 59.2728 13.6611 58.9494L13.0005 56.3111L11.3244 55.6898C11.0382 55.5842 10.8488 55.311 10.8488 55.0065C10.8488 54.7021 11.0382 54.4289 11.3244 54.3233L13.0092 53.6998L13.6648 51.2961C13.7515 50.9792 14.0392 50.7593 14.3677 50.7593C14.6962 50.7593 14.9839 50.9792 15.0699 51.2968L15.7254 53.7005Z" fill="#C0C1C3"/>
</g>
</svg>
