<svg width="24" height="24" viewBox="0 0 24 24" fill="none" xmlns="http://www.w3.org/2000/svg">
<path d="M12.2143 1.60833L20.8923 6.61859C21.0249 6.69515 21.1066 6.83663 21.1066 6.98974V17.0103C21.1066 17.1634 21.0249 17.3049 20.8923 17.3814L12.2143 22.3917C12.0817 22.4682 11.9183 22.4682 11.7857 22.3917L3.1077 17.3814C2.9751 17.3049 2.89341 17.1634 2.89341 17.0103V6.98974C2.89341 6.83663 2.97509 6.69515 3.1077 6.61859L11.7857 1.60833C11.9183 1.53178 12.0817 1.53178 12.2143 1.60833Z" stroke="currentColor" stroke-width="2.57143"/>
<path d="M11.5714 6.24744C11.8366 6.09432 12.1634 6.09432 12.4286 6.24744L16.7676 8.75256C17.0328 8.90568 17.1962 9.18864 17.1962 9.49487V14.5051C17.1962 14.8114 17.0328 15.0943 16.7676 15.2474L12.4286 17.7526C12.1634 17.9057 11.8366 17.9057 11.5714 17.7526L7.23242 15.2474C6.96722 15.0943 6.80385 14.8114 6.80385 14.5051V9.49487C6.80385 9.18864 6.96722 8.90568 7.23242 8.75256L11.5714 6.24744Z" fill="currentColor"/>
</svg>
