<svg width="24" height="24" viewBox="0 0 24 24" fill="none" xmlns="http://www.w3.org/2000/svg">
  <path d="M6 3H7.41178C9.06864 3 10.4118 4.34315 10.4118 6V10.4118H6C4.34315 10.4118 3 9.06864 3 7.41178V6C3 4.34315 4.34315 3 6 3Z" stroke="currentColor" stroke-width="2"/>
  <path d="M16.5881 3.00004H17.9999C19.6568 3.00004 20.9999 4.34318 20.9999 6.00004V7.41182C20.9999 9.06867 19.6568 10.4118 17.9999 10.4118H13.5881V6.00004C13.5881 4.34318 14.9313 3.00004 16.5881 3.00004Z" stroke="currentColor" stroke-width="2"/>
  <path d="M6 13.5893H10.4118V18.001C10.4118 19.6579 9.06864 21.001 7.41178 21.001H6C4.34315 21.001 3 19.6579 3 18.001V16.5893C3 14.9324 4.34315 13.5893 6 13.5893Z" stroke="currentColor" stroke-width="2"/>
  <path d="M13.5881 13.5893H17.9999C19.6568 13.5893 20.9999 14.9324 20.9999 16.5893V18.001C20.9999 19.6579 19.6568 21.001 17.9999 21.001H16.5881C14.9313 21.001 13.5881 19.6579 13.5881 18.001V13.5893Z" stroke="currentColor" stroke-width="2"/>
</svg>
