<svg width="24" height="24" viewBox="0 0 24 24" fill="none" xmlns="http://www.w3.org/2000/svg">
  <path d="M5.72254 14.1171L5.4036 14.4471V6.09978C5.4036 5.8081 5.28773 5.52836 5.08148 5.32212C4.87524 5.11587 4.5955 5 4.30383 5C4.01215 5 3.73241 5.11587 3.52617 5.32212C3.31992 5.52836 3.20405 5.8081 3.20405 6.09978V14.4471L2.88512 14.1171C2.67802 13.91 2.39715 13.7937 2.10427 13.7937C1.8114 13.7937 1.53053 13.91 1.32343 14.1171C1.11634 14.3242 1 14.6051 1 14.898C1 15.1908 1.11634 15.4717 1.32343 15.6788L3.52298 17.8784C3.62758 17.9785 3.75091 18.057 3.88591 18.1093C4.01755 18.1675 4.1599 18.1976 4.30383 18.1976C4.44775 18.1976 4.5901 18.1675 4.72174 18.1093C4.85674 18.057 4.98007 17.9785 5.08467 17.8784L7.28422 15.6788C7.38676 15.5763 7.4681 15.4545 7.52359 15.3206C7.57909 15.1866 7.60765 15.043 7.60765 14.898C7.60765 14.753 7.57909 14.6094 7.52359 14.4754C7.4681 14.3414 7.38676 14.2197 7.28422 14.1171C7.18167 14.0146 7.05994 13.9333 6.92596 13.8778C6.79199 13.8223 6.64839 13.7937 6.50338 13.7937C6.35836 13.7937 6.21476 13.8223 6.08079 13.8778C5.94681 13.9333 5.82508 14.0146 5.72254 14.1171V14.1171ZM10.9025 7.19955H21.9002C22.1919 7.19955 22.4716 7.08368 22.6779 6.87743C22.8841 6.67119 23 6.39145 23 6.09978C23 5.8081 22.8841 5.52836 22.6779 5.32212C22.4716 5.11587 22.1919 5 21.9002 5H10.9025C10.6108 5 10.3311 5.11587 10.1248 5.32212C9.91857 5.52836 9.8027 5.8081 9.8027 6.09978C9.8027 6.39145 9.91857 6.67119 10.1248 6.87743C10.3311 7.08368 10.6108 7.19955 10.9025 7.19955V7.19955ZM21.9002 10.4989H10.9025C10.6108 10.4989 10.3311 10.6147 10.1248 10.821C9.91857 11.0272 9.8027 11.307 9.8027 11.5987C9.8027 11.8903 9.91857 12.1701 10.1248 12.3763C10.3311 12.5826 10.6108 12.6984 10.9025 12.6984H21.9002C22.1919 12.6984 22.4716 12.5826 22.6779 12.3763C22.8841 12.1701 23 11.8903 23 11.5987C23 11.307 22.8841 11.0272 22.6779 10.821C22.4716 10.6147 22.1919 10.4989 21.9002 10.4989ZM21.9002 15.9978H10.9025C10.6108 15.9978 10.3311 16.1136 10.1248 16.3199C9.91857 16.5261 9.8027 16.8058 9.8027 17.0975C9.8027 17.3892 9.91857 17.6689 10.1248 17.8752C10.3311 18.0814 10.6108 18.1973 10.9025 18.1973H21.9002C22.1919 18.1973 22.4716 18.0814 22.6779 17.8752C22.8841 17.6689 23 17.3892 23 17.0975C23 16.8058 22.8841 16.5261 22.6779 16.3199C22.4716 16.1136 22.1919 15.9978 21.9002 15.9978Z" fill="currentColor"/>
</svg>