<svg width="24" height="24" viewBox="0 0 24 24" fill="none" xmlns="http://www.w3.org/2000/svg">
<rect x="3" y="3" width="12" height="17" rx="3.25" stroke="currentColor" stroke-width="2"/>
<path d="M18 4C17.4477 4 17 4.44772 17 5C17 5.55228 17.4477 6 18 6V4ZM18.5 17C17.9477 17 17.5 17.4477 17.5 18C17.5 18.5523 17.9477 19 18.5 19V17ZM18 6H18.8V4H18V6ZM20.05 7.25V15.75H22.05V7.25H20.05ZM18.8 17H18.5V19H18.8V17ZM20.05 15.75C20.05 16.4404 19.4904 17 18.8 17V19C20.5949 19 22.05 17.5449 22.05 15.75H20.05ZM18.8 6C19.4904 6 20.05 6.55964 20.05 7.25H22.05C22.05 5.45508 20.5949 4 18.8 4V6Z" fill="currentColor"/>
</svg>
