<svg width="24" height="24" viewBox="0 0 24 24" fill="none" xmlns="http://www.w3.org/2000/svg">
<path d="M22 12C22 17.523 17.5231 21.9999 12 21.9999C6.47736 21.9999 2 17.5231 2 12C2 6.47736 6.47738 2 12 2C17.5231 2 22 6.47738 22 12Z" fill="#C0C1C3"/>
<path d="M12.1681 8.10878L14.7559 14.4958L10.8471 11.4168L12.1681 8.10879V8.10878ZM16.7653 15.9671L12.7848 6.38756C12.6711 6.11128 12.4439 5.96509 12.1681 5.96509C11.8919 5.96509 11.6481 6.11128 11.5345 6.38756L7.16553 16.8951H8.66007L10.3896 12.5628L15.5507 16.7324C15.7583 16.9002 15.9081 16.9761 16.1028 16.9761C16.4927 16.9761 16.8335 16.6838 16.8335 16.2619C16.8335 16.1932 16.8092 16.0843 16.7653 15.967L16.7653 15.9671Z" fill="#2A2E37"/>
</svg>
