<svg width="12" height="12" viewBox="0 0 12 12" fill="none" xmlns="http://www.w3.org/2000/svg">
<path d="M10.9191 7.28643L10.8134 7.77513C10.0286 7.60544 9.44326 6.96218 9.29248 6.16901C9.29248 6.169 9.29248 6.16899 9.29248 6.16899L9.15696 5.45624L9.15696 5.45622C9.15342 5.43761 9.14691 5.4282 9.14355 5.4244C9.14019 5.42819 9.13368 5.4376 9.13014 5.45622L9.13014 5.45624L8.99462 6.16899C8.99462 6.16899 8.99462 6.169 8.99462 6.16901C8.84384 6.96217 8.2585 7.60544 7.47372 7.77513M10.9191 7.28643L6.69969 7.43095C6.45678 7.48346 6.28711 7.70477 6.28711 7.96911C6.28711 8.23345 6.45675 8.45473 6.69969 8.50727L6.80537 8.01856C6.80534 8.01856 6.8053 8.01855 6.80526 8.01855C6.80465 8.01846 6.80278 8.01819 6.7991 8.0134C6.79472 8.00768 6.78711 7.99372 6.78711 7.96911C6.78711 7.94451 6.79471 7.93054 6.79911 7.92481C6.8028 7.92 6.80467 7.91975 6.80523 7.91968C6.80527 7.91967 6.80531 7.91967 6.80534 7.91966L6.80537 7.91966L7.47372 7.77513M10.9191 7.28643L10.8134 7.77513L11.4817 7.91965M10.9191 7.28643L11.4817 7.91965M7.47372 7.77513L7.36805 7.28643L7.47372 7.77513L7.47372 7.77513ZM11.4817 7.91965C11.4817 7.91965 11.4817 7.91965 11.4817 7.91966M11.4817 7.91965L11.4817 7.91966M11.4817 7.91966C11.4818 7.91966 11.4818 7.91966 11.4818 7.91967M11.4817 7.91966L11.4818 7.91967M11.4818 7.91967C11.4824 7.91975 11.4843 7.92003 11.488 7.92485M11.4818 7.91967L11.488 7.92485M11.488 7.92485C11.4924 7.93059 11.5 7.94454 11.5 7.96911M11.488 7.92485L11.5 7.96911M11.5 7.96911C11.5 7.9937 11.4924 8.00766 11.488 8.01339M11.5 7.96911L11.488 8.01339M11.488 8.01339C11.4841 8.01847 11.4822 8.01848 11.4818 8.01856L11.488 8.01339ZM7.4737 8.16308L6.80539 8.01857L8.99462 9.76918C8.84385 8.97607 8.25849 8.33275 7.47372 8.16309L7.36805 8.65179L7.4737 8.16308ZM9.13013 10.4819L8.99462 9.7692L11.4817 8.01857L10.8134 8.16308C10.8134 8.16308 10.8134 8.16308 10.8134 8.16309C10.0286 8.33275 9.44328 8.97602 9.29251 9.76918C9.29251 9.76919 9.29251 9.7692 9.29251 9.7692L9.15699 10.4819L9.15699 10.482C9.15345 10.5006 9.14693 10.51 9.14358 10.5138C9.14022 10.51 9.13369 10.5006 9.13014 10.4819C9.13013 10.4819 9.13013 10.4819 9.13013 10.4819Z" stroke="currentColor" stroke-linecap="round" stroke-linejoin="round"/>
<path d="M6.10726 9.6835L6.03205 10.0312M6.10726 9.6835L5.82319 10.0313L6.02272 9.98818M6.10726 9.6835L6.03206 10.0313M6.10726 9.6835L6.03206 10.0313M6.03205 10.0312L6.02274 9.98817L6.02272 9.98818M6.03205 10.0312L6.03206 10.0313M6.03205 10.0312L6.03204 10.0313L6.02272 9.98818M6.02272 9.98818L6.03206 10.0313M5.59076 9.98106L5.59076 9.98106H3.4648C4.00449 9.86436 4.40426 9.42279 4.50702 8.88225C4.50702 8.88225 4.50702 8.88224 4.50702 8.88224L4.52778 8.77306L4.54854 8.88224C4.54854 8.88224 4.54854 8.88225 4.54854 8.88225C4.6513 9.4228 5.0511 9.86437 5.59076 9.98106ZM4.46095 8.42157L4.46095 8.42159L4.46095 8.42157ZM5.5908 10.0816C5.59079 10.0816 5.59078 10.0816 5.59078 10.0816C5.05111 10.1983 4.65131 10.6398 4.54856 11.1804C4.54856 11.1804 4.54856 11.1804 4.54856 11.1804L4.52779 11.2896L4.50702 11.1804C4.50702 11.1804 4.50702 11.1804 4.50702 11.1804C4.40427 10.6399 4.00448 10.1983 3.4648 10.0816C3.46479 10.0816 3.46479 10.0816 3.46478 10.0816L3.23238 10.0313L3.4648 9.98106L5.5908 10.0816ZM3.03281 10.0745L3.03284 10.0745L3.03281 10.0745Z" stroke="currentColor" stroke-width="0.8" stroke-linecap="round" stroke-linejoin="round"/>
<path d="M5.98732 3.05519L5.88164 3.5439C4.9291 3.33792 4.21331 2.55559 4.02852 1.58347C4.02852 1.58346 4.02852 1.58346 4.02852 1.58345L3.85335 0.662137L3.85334 0.662113C3.83033 0.541049 3.75069 0.5 3.69229 0.5C3.63385 0.5 3.55422 0.541065 3.53121 0.662113L3.53121 0.662137L3.35604 1.58345C3.35604 1.58346 3.35604 1.58346 3.35603 1.58347C3.17124 2.55558 2.4555 3.33792 1.50291 3.5439C1.50291 3.5439 1.50291 3.5439 1.50291 3.5439L0.638984 3.73071L0.638957 3.73072C0.575581 3.74442 0.5 3.80975 0.5 3.93764C0.5 4.0655 0.575516 4.13083 0.638985 4.14457L5.98732 3.05519ZM5.98732 3.05519L5.88164 3.5439L6.74554 3.7307C6.74555 3.73071 6.74556 3.73071 6.74557 3.73071C6.80907 3.74446 6.88459 3.80986 6.88459 3.93764C6.88459 4.06548 6.80905 4.13084 6.74557 4.14457L5.8817 4.33137C5.88169 4.33137 5.88169 4.33138 5.88168 4.33138C4.92912 4.53732 4.21335 5.31966 4.02856 6.29177C4.02856 6.29177 4.02855 6.29178 4.02855 6.29179L3.85338 7.2131L3.85338 7.21312C3.83037 7.3342 3.75075 7.37524 3.69233 7.37524C3.63388 7.37524 3.55425 7.33419 3.53121 7.2131C3.5312 7.21309 3.5312 7.21308 3.5312 7.21307L3.35604 6.29178L5.98732 3.05519ZM1.50289 4.33137L0.639004 4.14457L3.35603 6.29177C3.17124 5.31971 2.45548 4.53732 1.50291 4.33138C1.5029 4.33138 1.5029 4.33137 1.50289 4.33137Z" stroke="currentColor" stroke-linecap="round" stroke-linejoin="round"/>
</svg>
