<svg width="20" height="20" viewBox="0 0 20 20" fill="none" xmlns="http://www.w3.org/2000/svg">
<path d="M14.8916 7.16675C14.8295 7.02401 14.7287 6.90152 14.6005 6.81315C14.4724 6.72478 14.3221 6.67406 14.1666 6.66675H10.3499L11.4083 2.71675C11.442 2.59314 11.4467 2.46343 11.4222 2.33769C11.3976 2.21195 11.3444 2.09357 11.2666 1.99175C11.1881 1.88978 11.0871 1.80738 10.9714 1.75099C10.8558 1.69461 10.7286 1.66577 10.5999 1.66675H4.7666C4.57847 1.6603 4.39369 1.71775 4.24237 1.82973C4.09105 1.9417 3.9821 2.10161 3.93327 2.28342L1.69994 10.6167C1.66596 10.7426 1.66199 10.8747 1.68836 11.0024C1.71472 11.1301 1.77068 11.2498 1.85174 11.352C1.93279 11.4541 2.03668 11.5358 2.15505 11.5904C2.27342 11.6451 2.40296 11.6713 2.53327 11.6667H5.7416L4.23327 17.2834C4.18385 17.4645 4.19704 17.657 4.27069 17.8297C4.34434 18.0024 4.47415 18.1451 4.63907 18.2348C4.80399 18.3245 4.99437 18.3559 5.17936 18.3239C5.36434 18.2919 5.53309 18.1983 5.65827 18.0584L14.7416 8.05841C14.8498 7.93998 14.9214 7.79286 14.9481 7.63469C14.9747 7.47653 14.9551 7.31405 14.8916 7.16675ZM6.73327 14.4001L7.63327 11.0667C7.67087 10.9413 7.67839 10.8088 7.65522 10.68C7.63206 10.5511 7.57886 10.4295 7.49994 10.3251C7.4206 10.222 7.31823 10.1389 7.20102 10.0825C7.0838 10.026 6.95501 9.99781 6.82494 10.0001H3.62494L5.40827 3.33341H9.5166L8.45827 7.28341C8.42429 7.40929 8.42033 7.54139 8.44669 7.66908C8.47305 7.79677 8.52901 7.9165 8.61007 8.01863C8.69112 8.12076 8.79501 8.20244 8.91338 8.25711C9.03175 8.31179 9.1613 8.33792 9.2916 8.33341H12.2666L6.73327 14.4001ZM15.8333 10.8334H14.9999C14.3369 10.8334 13.701 11.0968 13.2322 11.5656C12.7633 12.0345 12.4999 12.6704 12.4999 13.3334V17.5001C12.4999 17.7211 12.5877 17.9331 12.744 18.0893C12.9003 18.2456 13.1123 18.3334 13.3333 18.3334C13.5543 18.3334 13.7662 18.2456 13.9225 18.0893C14.0788 17.9331 14.1666 17.7211 14.1666 17.5001V15.8334H16.6666V17.5001C16.6666 17.7211 16.7544 17.9331 16.9107 18.0893C17.067 18.2456 17.2789 18.3334 17.4999 18.3334C17.7209 18.3334 17.9329 18.2456 18.0892 18.0893C18.2455 17.9331 18.3333 17.7211 18.3333 17.5001V13.3334C18.3333 12.6704 18.0699 12.0345 17.601 11.5656C17.1322 11.0968 16.4963 10.8334 15.8333 10.8334ZM16.6666 14.1667H14.1666V13.3334C14.1666 13.1124 14.2544 12.9004 14.4107 12.7442C14.567 12.5879 14.7789 12.5001 14.9999 12.5001H15.8333C16.0543 12.5001 16.2662 12.5879 16.4225 12.7442C16.5788 12.9004 16.6666 13.1124 16.6666 13.3334V14.1667Z" fill="currentColor"/>
</svg>
