<svg width="24" height="24" viewBox="0 0 24 24" fill="none" xmlns="http://www.w3.org/2000/svg">
  <path d="M6.72583 1.71012C6.80126 1.42996 7.19874 1.42996 7.27417 1.71012L8.14598 4.94805C8.26495 5.38991 8.6101 5.73505 9.05195 5.85402L12.2899 6.72583C12.57 6.80126 12.57 7.19874 12.2899 7.27417L9.05195 8.14598C8.61009 8.26495 8.26495 8.61009 8.14598 9.05195L7.27417 12.2899C7.19874 12.57 6.80126 12.57 6.72583 12.2899L5.85402 9.05195C5.73505 8.6101 5.38991 8.26495 4.94805 8.14598L1.71012 7.27417C1.42996 7.19874 1.42996 6.80126 1.71012 6.72583L4.94805 5.85402C5.38991 5.73505 5.73505 5.38991 5.85402 4.94805L6.72583 1.71012Z" stroke="currentColor"/>
  <path d="M16.7124 8.11492C16.813 7.85058 17.187 7.85058 17.2876 8.11492L18.1859 10.474C18.3187 10.8226 18.594 11.098 18.9427 11.2308L21.3018 12.129C21.5661 12.2297 21.5661 12.6036 21.3018 12.7043L18.9427 13.6026C18.594 13.7353 18.3187 14.0107 18.1859 14.3594L17.2876 16.7184C17.187 16.9827 16.813 16.9827 16.7124 16.7184L15.8141 14.3594C15.6813 14.0107 15.406 13.7353 15.0573 13.6026L12.6983 12.7043C12.4339 12.6036 12.4339 12.2297 12.6983 12.129L15.0573 11.2308C15.406 11.098 15.6813 10.8226 15.8141 10.474L16.7124 8.11492Z" stroke="currentColor"/>
  <path d="M10.247 15.4244C10.3355 15.1919 10.6645 15.1919 10.753 15.4244L11.3976 17.1171C11.5266 17.4559 11.7941 17.7234 12.1329 17.8524L13.8256 18.497C14.0581 18.5855 14.0581 18.9145 13.8256 19.003L12.1329 19.6476C11.7941 19.7766 11.5266 20.0441 11.3976 20.3829L10.753 22.0756C10.6645 22.3081 10.3355 22.3081 10.247 22.0756L9.60244 20.3829C9.47344 20.0441 9.20588 19.7766 8.86709 19.6476L7.17439 19.003C6.94187 18.9145 6.94187 18.5855 7.17439 18.497L8.86709 17.8524C9.20588 17.7234 9.47344 17.4559 9.60244 17.1171L10.247 15.4244Z" stroke="currentColor"/>
</svg>
