<svg width="24" height="24" viewBox="0 0 24 24" fill="none" xmlns="http://www.w3.org/2000/svg">
<path d="M3.66817 3.99004C3.58487 3.98896 3.50234 4.00614 3.42638 4.04035C3.35042 4.07457 3.28287 4.125 3.22847 4.1881C3.17407 4.2512 3.13415 4.32544 3.1115 4.40561C3.08885 4.48579 3.08402 4.56995 3.09736 4.65218L5.52046 19.3621C5.55066 19.5421 5.64331 19.7057 5.78215 19.8242C5.92098 19.9427 6.09713 20.0084 6.27965 20.0099H17.9043C18.0411 20.0117 18.174 19.9643 18.2788 19.8763C18.3835 19.7882 18.4532 19.6655 18.4751 19.5305L20.8982 4.65504C20.9115 4.5728 20.9067 4.48864 20.8841 4.40847C20.8614 4.32829 20.8215 4.25405 20.7671 4.19095C20.7127 4.12785 20.6451 4.07742 20.5692 4.04321C20.4932 4.00899 20.4107 3.99182 20.3274 3.99289L3.66817 3.99004ZM13.8715 14.6215H10.1612L9.15655 9.37282H14.7705L13.8715 14.6215Z" fill="#2684FF"/>
<path d="M20.1276 9.3728H14.7705L13.8715 14.6214H10.1612L5.78018 19.8216C5.91904 19.9416 6.09608 20.0084 6.27964 20.0099H17.9071C18.044 20.0117 18.1769 19.9642 18.2816 19.8762C18.3864 19.7882 18.4561 19.6655 18.4779 19.5304L20.1276 9.3728Z" fill="url(#paint0_linear_978_11656)"/>
<defs>
<linearGradient id="paint0_linear_978_11656" x1="21.3663" y1="10.8426" x2="12.5129" y2="17.7524" gradientUnits="userSpaceOnUse">
<stop offset="0.18" stop-color="#0052CC"/>
<stop offset="1" stop-color="#2684FF"/>
</linearGradient>
</defs>
</svg>
