<svg width="24" height="24" viewBox="0 0 24 24" fill="currentColor" xmlns="http://www.w3.org/2000/svg">
<path fill-rule="evenodd" clip-rule="evenodd" d="M4.49838 13.0112C2.88632 8.58878 5.29467 3.02486 10.1388 2.15147C12.6886 1.69173 15.5578 2.26445 17.4771 4.0626C19.5239 5.98017 20.212 9.17626 19.66 11.8687C19.4083 13.0968 18.8849 14.3238 18.0828 15.2963C17.848 15.581 17.5797 15.843 17.311 16.1053C16.8935 16.5129 16.475 16.9214 16.1794 17.4181C15.7998 18.0559 15.8146 18.9156 15.8293 19.7694C15.8532 21.1534 15.8768 22.5217 14.2193 22.9032C13.7898 23.0021 13.3236 22.9889 12.8711 22.976C12.7198 22.9718 12.5702 22.9675 12.4239 22.9675C12.211 22.9675 11.9842 22.9751 11.7499 22.983C10.3245 23.0307 8.62444 23.0876 8.12356 21.4984C7.94324 20.9263 7.97784 20.3093 8.0124 19.6931C8.05682 18.9012 8.10116 18.1105 7.68906 17.4181C7.29093 16.7492 6.79199 16.1976 6.29584 15.649C5.59293 14.8719 4.89559 14.101 4.49838 13.0112ZM13.8929 17.5813H9.97563C9.91095 16.3854 9.14101 15.6015 8.35787 14.8043C8.09798 14.5397 7.83665 14.2736 7.59915 13.9905C6.58586 12.7828 6.03799 11.3435 6.11961 9.74688C6.21263 7.9274 7.0018 6.19649 8.50667 5.11759C11.292 3.12065 15.5715 4.1761 17.0101 7.29862C17.7613 8.92915 17.9217 11.627 16.8961 13.1745C16.5555 13.6883 16.1158 14.143 15.678 14.5956C14.8385 15.4635 14.006 16.3243 13.8929 17.5813ZM11.8887 20.8517C10.9407 20.8737 10.0665 20.894 9.97563 19.7032H13.8929C13.8902 19.7379 13.8879 19.773 13.8857 19.808C13.8675 20.0885 13.8491 20.3733 13.6312 20.5847C13.3385 20.8685 12.8719 20.8579 12.4692 20.8488C12.3972 20.8471 12.3272 20.8455 12.2607 20.8457C12.1365 20.8459 12.012 20.8488 11.8887 20.8517Z" fill="currentColor"/>
</svg>
