<svg xmlns="http://www.w3.org/2000/svg" width="24" height="24" fill="none"><path stroke="currentColor" stroke-linecap="round" stroke-linejoin="round" stroke-width="2" d="M7.333 15H2.667a.667.667 0 0 0-.667.667v4.666c0 .369.298.667.667.667h4.666A.667.667 0 0 0 8 20.333v-4.666A.667.667 0 0 0 7.333 15ZM21.333 3h-4.666a.667.667 0 0 0-.667.667v4.666c0 .369.299.667.667.667h4.666A.667.667 0 0 0 22 8.333V3.667A.667.667 0 0 0 21.333 3Z"/><path stroke="currentColor" stroke-width="2" d="M9 18a3 3 0 0 0 3-3V9a3 3 0 0 1 3-3"/></svg>