<svg width="24" height="24" viewBox="0 0 24 24" fill="none" xmlns="http://www.w3.org/2000/svg">
  <g clip-path="url(#csharp_clip0_4263_12150)">
  <path d="M12 22C17.5228 22 22 17.5228 22 12C22 6.47715 17.5228 2 12 2C6.47715 2 2 6.47715 2 12C2 17.5228 6.47715 22 12 22Z" fill="#118D61"/>
  <path opacity="0.1" d="M3.79983 6.27625C2.28181 8.45102 1.68989 11.1397 2.15429 13.7509C2.61868 16.3621 4.10134 18.6819 6.27611 20.1999C8.45087 21.7179 11.1396 22.3098 13.7508 21.8454C16.362 21.381 18.6817 19.8984 20.1998 17.7236L11.9998 11.9999L3.79983 6.27625Z" fill="white"/>
  <path d="M11.5093 15.6093C10.829 15.9403 10.0779 16.0991 9.32183 16.0718C8.8222 16.0937 8.32366 16.0086 7.85962 15.8221C7.39557 15.6356 6.97675 15.3521 6.6312 14.9906C5.93657 14.2119 5.57428 13.1923 5.62183 12.1499C5.59763 11.5908 5.68583 11.0325 5.88121 10.5081C6.0766 9.9837 6.37519 9.5038 6.75933 9.09682C7.13453 8.71296 7.58567 8.41159 8.08394 8.21196C8.5822 8.01233 9.11663 7.91884 9.65308 7.93745C10.2867 7.91327 10.9185 8.01963 11.5093 8.24995V9.23432C10.9363 8.91584 10.2898 8.75314 9.63433 8.76245C9.22619 8.74892 8.81987 8.82278 8.4426 8.97907C8.06533 9.13537 7.72582 9.3705 7.44683 9.6687C6.86167 10.3357 6.55907 11.2043 6.60308 12.0906C6.55979 12.9281 6.84196 13.75 7.39058 14.3843C7.65361 14.6671 7.97464 14.8898 8.3317 15.037C8.68875 15.1843 9.0734 15.2526 9.45933 15.2374C10.1795 15.2553 10.8903 15.0725 11.5125 14.7093L11.5093 15.6093Z" fill="white"/>
  <path d="M18.4877 10.2687L18.3627 10.85H16.9252L16.5814 12.5H18.1252L17.9783 13.0812H16.4658L15.9814 15.2687H15.2908L15.7627 13.0812H14.3877L13.9252 15.2687H13.2502L13.7127 13.0812H12.2627L12.3721 12.5H13.8283L14.1627 10.8531H12.6408L12.7564 10.2719H14.2783L14.7408 8.0625H15.4377L14.9752 10.2719H16.3596L16.8314 8.0625H17.5064L17.0439 10.2719L18.4877 10.2687ZM16.2471 10.85H14.8596L14.5002 12.5H15.8939L16.2471 10.85Z" fill="white"/>
  </g>
  <defs>
  <clipPath id="csharp_clip0_4263_12150">
  <rect width="20" height="20" fill="white" transform="translate(2 2)"/>
  </clipPath>
  </defs>
</svg>
