<svg width="24" height="24" viewBox="0 0 24 24" fill="none" xmlns="http://www.w3.org/2000/svg">
<path d="M12.2143 1.60833L20.8923 6.61859C21.0249 6.69515 21.1066 6.83663 21.1066 6.98974V17.0103C21.1066 17.1634 21.0249 17.3049 20.8923 17.3814L12.2143 22.3917C12.0817 22.4682 11.9183 22.4682 11.7857 22.3917L3.1077 17.3814C2.9751 17.3049 2.89341 17.1634 2.89341 17.0103V6.98974C2.89341 6.83663 2.97509 6.69515 3.1077 6.61859L11.7857 1.60833C11.9183 1.53178 12.0817 1.53178 12.2143 1.60833Z" stroke="currentColor" stroke-width="2.57143"/>
<path d="M12 7.4846C12 6.82478 12.7143 6.41239 13.2857 6.7423L16.7676 8.75256C17.0328 8.90568 17.1961 9.18864 17.1961 9.49487V14.5051C17.1961 14.8114 17.0328 15.0943 16.7676 15.2474L12.4286 17.7526C12.1634 17.9057 11.8366 17.9057 11.5714 17.7526L8.31204 15.8708C7.69605 15.5151 7.75626 14.6072 8.41383 14.336L11.4696 13.0759C11.7905 12.9435 12 12.6306 12 12.2835L12 7.4846Z" fill="currentColor"/>
</svg>
