<svg width="24" height="24" viewBox="0 0 24 24" fill="none" xmlns="http://www.w3.org/2000/svg">
<path fill-rule="evenodd" clip-rule="evenodd" d="M8.92112 15H2.07888C1.48334 15 1 14.4486 1 13.7692V2.23077C1 1.55015 1.48334 1 2.07888 1H8.92112C9.51666 1 10 1.55015 10 2.23077V13.7692C10 14.4486 9.51666 15 8.92112 15Z" stroke="currentColor" stroke-width="1.5"/>
<path fill-rule="evenodd" clip-rule="evenodd" d="M21.8619 5H15.1381C14.5087 5 14 4.552 14 4V2C14 1.447 14.5087 1 15.1381 1H21.8619C22.4901 1 23 1.447 23 2V4C23 4.552 22.4901 5 21.8619 5Z" stroke="currentColor" stroke-width="1.5"/>
<path fill-rule="evenodd" clip-rule="evenodd" d="M15.0789 8H21.9211C22.5167 8 23 8.55015 23 9.23077V20.7692C23 21.4486 22.5167 22 21.9211 22H15.0789C14.4833 22 14 21.4486 14 20.7692V9.23077C14 8.55015 14.4833 8 15.0789 8Z" stroke="currentColor" stroke-width="1.5"/>
<path fill-rule="evenodd" clip-rule="evenodd" d="M2.13809 18H8.86191C9.49014 18 10 18.447 10 19V21C10 21.552 9.49014 22 8.86191 22H2.13809C1.50873 22 1 21.552 1 21V19C1 18.447 1.50873 18 2.13809 18Z" stroke="currentColor" stroke-width="1.5"/>
</svg>
