<svg width="24" height="24" viewBox="0 0 24 24" fill="none" xmlns="http://www.w3.org/2000/svg">
<path d="M18.9998 5.99999H15.9998V2.99999C15.9998 2.73478 15.8944 2.48042 15.7069 2.29289C15.5193 2.10535 15.265 1.99999 14.9998 1.99999C14.7345 1.99999 14.4802 2.10535 14.2926 2.29289C14.1051 2.48042 13.9998 2.73478 13.9998 2.99999V5.99999H9.99975V2.99999C9.99975 2.73478 9.8944 2.48042 9.70686 2.29289C9.51933 2.10535 9.26497 1.99999 8.99976 1.99999C8.73454 1.99999 8.48019 2.10535 8.29265 2.29289C8.10511 2.48042 7.99976 2.73478 7.99976 2.99999V5.99999H4.99976C4.73454 5.99999 4.48019 6.10535 4.29265 6.29289C4.10511 6.48042 3.99976 6.73478 3.99976 6.99999C3.99976 7.26521 4.10511 7.51956 4.29265 7.7071C4.48019 7.89464 4.73454 7.99999 4.99976 7.99999H5.99976V13C5.99899 13.1316 6.02422 13.2621 6.07398 13.3839C6.12375 13.5057 6.19707 13.6166 6.28976 13.71L8.99976 16.41V21C8.99976 21.2652 9.10511 21.5196 9.29265 21.7071C9.48019 21.8946 9.73454 22 9.99975 22C10.265 22 10.5193 21.8946 10.7069 21.7071C10.8944 21.5196 10.9998 21.2652 10.9998 21V17H12.9998V21C12.9998 21.2652 13.1051 21.5196 13.2926 21.7071C13.4802 21.8946 13.7345 22 13.9998 22C14.265 22 14.5193 21.8946 14.7069 21.7071C14.8944 21.5196 14.9998 21.2652 14.9998 21V16.41L17.7098 13.71C17.8024 13.6166 17.8758 13.5057 17.9255 13.3839C17.9753 13.2621 18.0005 13.1316 17.9998 13V7.99999H18.9998C19.265 7.99999 19.5193 7.89464 19.7069 7.7071C19.8944 7.51956 19.9998 7.26521 19.9998 6.99999C19.9998 6.73478 19.8944 6.48042 19.7069 6.29289C19.5193 6.10535 19.265 5.99999 18.9998 5.99999ZM15.9998 12.59L13.5898 15H10.4098L7.99976 12.59V7.99999H15.9998V12.59ZM10.9998 13H12.9998C13.265 13 13.5193 12.8946 13.7069 12.7071C13.8944 12.5196 13.9998 12.2652 13.9998 12C13.9998 11.7348 13.8944 11.4804 13.7069 11.2929C13.5193 11.1053 13.265 11 12.9998 11H10.9998C10.7345 11 10.4802 11.1053 10.2926 11.2929C10.1051 11.4804 9.99975 11.7348 9.99975 12C9.99975 12.2652 10.1051 12.5196 10.2926 12.7071C10.4802 12.8946 10.7345 13 10.9998 13Z" fill="currentColor"/>
</svg>
