<svg width="24" height="24" viewBox="0 0 24 24" fill="currentColor" xmlns="http://www.w3.org/2000/svg">
<path d="M18.9308 5.26878C17.6561 4.68152 16.2892 4.24885 14.8599 4.00104C14.8339 3.99626 14.8079 4.00821 14.7945 4.03211C14.6187 4.34606 14.4239 4.75562 14.2876 5.07753C12.7503 4.84646 11.221 4.84646 9.71527 5.07753C9.57887 4.74846 9.37707 4.34606 9.20048 4.03211C9.18707 4.00901 9.16107 3.99705 9.13504 4.00104C7.70659 4.24806 6.33963 4.68073 5.06411 5.26878C5.05307 5.27356 5.04361 5.28154 5.03732 5.29189C2.44449 9.18118 1.73421 12.9749 2.08265 16.7215C2.08423 16.7398 2.09447 16.7574 2.10867 16.7685C3.81934 18.0299 5.47642 18.7956 7.10273 19.3032C7.12876 19.3112 7.15634 19.3016 7.1729 19.2801C7.55761 18.7526 7.90054 18.1964 8.19456 17.6116C8.21192 17.5773 8.19535 17.5367 8.15989 17.5231C7.61594 17.3159 7.098 17.0633 6.59978 16.7765C6.56037 16.7534 6.55721 16.6968 6.59347 16.6697C6.69831 16.5908 6.80318 16.5087 6.9033 16.4259C6.92141 16.4107 6.94665 16.4076 6.96794 16.4171C10.2411 17.9175 13.7846 17.9175 17.0191 16.4171C17.0404 16.4068 17.0657 16.41 17.0846 16.4251C17.1847 16.508 17.2896 16.5908 17.3952 16.6697C17.4314 16.6968 17.4291 16.7534 17.3897 16.7765C16.8914 17.0689 16.3735 17.3159 15.8288 17.5223C15.7933 17.5359 15.7775 17.5773 15.7949 17.6116C16.0952 18.1956 16.4381 18.7518 16.8157 19.2793C16.8315 19.3016 16.8599 19.3112 16.8859 19.3032C18.5201 18.7956 20.1772 18.0299 21.8879 16.7685C21.9028 16.7574 21.9123 16.7406 21.9139 16.7223C22.3309 12.3908 21.2154 8.62819 18.9568 5.29268C18.9513 5.28154 18.9419 5.27356 18.9308 5.26878ZM8.68335 14.4402C7.69792 14.4402 6.88594 13.5318 6.88594 12.4163C6.88594 11.3007 7.68217 10.3924 8.68335 10.3924C9.69239 10.3924 10.4965 11.3087 10.4807 12.4163C10.4807 13.5318 9.68451 14.4402 8.68335 14.4402ZM15.329 14.4402C14.3435 14.4402 13.5316 13.5318 13.5316 12.4163C13.5316 11.3007 14.3278 10.3924 15.329 10.3924C16.338 10.3924 17.1421 11.3087 17.1264 12.4163C17.1264 13.5318 16.338 14.4402 15.329 14.4402Z" fill="currentColor"/>
</svg>
