<svg xmlns="http://www.w3.org/2000/svg" fill="none" viewBox="0 0 24 24"><path d="M0 0h24v24H0z"/><path fill="currentColor" fill-rule="evenodd" d="M20.962 1.043c-1.177.172-3.282 1.17-5.07 2.407l-.456.314-.388-.15c-1.769-.685-4.036-.719-5.894-.088a8.991 8.991 0 0 0-5.922 6.635c-.328 1.525-.228 3.198.285 4.726l.192.573-.163.242c-.784 1.163-1.694 2.79-2.075 3.707-.28.675-.436 1.313-.465 1.892-.043.898.13 1.286.697 1.554.273.129.36.145.78.145 1.228 0 3.251-.864 5.446-2.325l.61-.407.517.178c1.038.358 2.363.557 3.322.5 1.555-.094 3.03-.55 4.273-1.321 1.877-1.164 3.282-2.974 3.885-5.004.3-1.007.37-1.51.37-2.627-.002-.912-.016-1.082-.137-1.66a12.57 12.57 0 0 0-.327-1.211l-.192-.566.434-.649c.24-.357.524-.805.634-.996l.426-.743c.272-.475.579-1.13.807-1.724.46-1.194.57-2.124.314-2.664-.313-.66-.892-.885-1.903-.738Zm-.694 2.694c.307.307.06 1.069-.783 2.42-.27.433-.385.565-.385.44 0-.074-1.049-1.163-1.386-1.438a3.03 3.03 0 0 1-.34-.303c-.02-.05.818-.588 1.28-.82.848-.43 1.384-.528 1.614-.299Zm-6.84 1.509c.736.162 1.654.547 2.32.973.578.369 1.286 1.038 1.726 1.63.443.596.447.498-.043 1.107-2.138 2.655-5.767 6.273-8.634 8.606l-.407.33-.412-.281c-.457-.312-1.276-1.117-1.603-1.576-.333-.469-.746-1.25-.913-1.726-.538-1.541-.51-3.364.074-4.824.605-1.512 1.84-2.885 3.22-3.581.851-.429 1.217-.556 2.035-.708.663-.122 1.965-.098 2.636.05Zm5.4 5.778c.162.844.041 2.222-.274 3.151-.756 2.221-2.59 3.945-4.797 4.508-.99.253-1.813.305-2.682.17l-.528-.083.22-.178c2.768-2.251 5.685-5.154 7.686-7.651.147-.184.275-.327.285-.317.009.01.05.19.09.4ZM6.003 18.627c.314.283.576.53.583.548.006.018-.15.135-.348.26-1.313.833-2.073 1.117-2.458.917-.293-.15-.276-.553.053-1.301.212-.48.624-1.214.867-1.542l.12-.162.306.382c.169.21.564.615.877.898Z" clip-rule="evenodd"/></svg>