<svg width="24" height="24" viewBox="0 0 24 24" fill="none" xmlns="http://www.w3.org/2000/svg">
<path fill-rule="evenodd" clip-rule="evenodd" d="M13.6066 9.90213H15.5661V11.8963H16.5545C17.0053 11.8963 17.4735 11.8096 17.907 11.6709C18.1151 11.6015 18.3579 11.4975 18.566 11.3761C18.2885 11.0119 18.1498 10.5611 18.1151 10.1102C18.0631 9.5033 18.1845 8.70563 18.6007 8.23743L18.8088 7.99466L19.0515 8.18541C19.6758 8.68829 20.1787 9.36457 20.2827 10.1622C21.0284 9.93681 21.8954 9.98883 22.5543 10.3703L22.8144 10.5264L22.6757 10.8038C22.1208 11.879 20.959 12.2258 19.8319 12.1564C18.1325 16.3702 14.4563 18.3644 9.98238 18.3644C7.67607 18.3644 5.56052 17.4973 4.34667 15.4511L4.32933 15.4164L4.15592 15.0523C3.73975 14.1506 3.61837 13.1622 3.70507 12.1738L3.73975 11.879H5.40445V9.90213H7.36394V7.95998H11.2656V6.00049H13.6066V9.90213V9.90213Z" fill="#3A4D54"/>
<path d="M19.9534 10.6476C20.0921 9.62447 19.3291 8.82681 18.8436 8.44531C18.306 9.06958 18.2193 10.7343 19.069 11.4279C18.5835 11.8441 17.595 12.2429 16.5546 12.2429H4.03467C3.93063 13.318 4.12137 14.3064 4.55489 15.1561L4.69361 15.4162C4.78032 15.5723 4.88436 15.711 4.9884 15.8671C5.50862 15.9018 5.97682 15.9191 6.41034 15.9018C7.26003 15.8844 7.95365 15.7804 8.49121 15.607C8.57791 15.5723 8.64728 15.6243 8.68196 15.6937C8.71664 15.7804 8.66462 15.8498 8.59526 15.8844C8.52589 15.9018 8.45653 15.9365 8.36983 15.9538C7.95365 16.0752 7.5028 16.1446 6.93055 16.1792H6.82651C6.60108 16.1966 6.35831 16.1966 6.0982 16.1966C5.82075 16.1966 5.56065 16.1966 5.24851 16.1792C6.28895 17.3584 7.91897 18.052 9.96516 18.052C14.3003 18.052 17.9765 16.1272 19.5892 11.8267C20.751 11.9481 21.8608 11.6533 22.3637 10.6649C21.5834 10.1967 20.5429 10.3528 19.9534 10.6476V10.6476Z" fill="#00AADA"/>
<path d="M19.9532 10.6476C20.092 9.62447 19.329 8.82681 18.8434 8.44531C18.3059 9.06958 18.2192 10.7343 19.0689 11.4279C18.5833 11.8441 17.5949 12.2429 16.5545 12.2429H4.76286C4.71083 13.8903 5.31776 15.1388 6.41022 15.8844C7.25991 15.8671 7.95353 15.7631 8.49109 15.5897C8.57779 15.555 8.64716 15.607 8.68184 15.6764C8.71652 15.7631 8.6645 15.8324 8.59514 15.8671C8.52577 15.8844 8.45641 15.9191 8.36971 15.9365C7.95353 16.0578 7.46799 16.1446 6.89575 16.1792L6.87841 16.1619C8.35237 16.9249 10.4853 16.9075 12.9476 15.9711C15.6875 14.9134 18.2539 12.9019 20.0399 10.6129C20.0053 10.6302 19.9706 10.6302 19.9532 10.6476V10.6476Z" fill="#28B8EB"/>
<path d="M4.05176 13.5432C4.12112 14.1155 4.29453 14.653 4.55464 15.1559L4.69336 15.416C4.78006 15.5721 4.88411 15.7108 4.98815 15.8669C5.50837 15.9015 5.97657 15.9189 6.41008 15.9015C7.25977 15.8842 7.9534 15.7802 8.49096 15.6067C8.57766 15.5721 8.64702 15.6241 8.68171 15.6934C8.71639 15.7802 8.66437 15.8495 8.595 15.8842C8.52564 15.9015 8.45628 15.9362 8.36957 15.9536C7.9534 16.0749 7.46786 16.1616 6.89562 16.1963H6.82626C6.60083 16.2137 6.35806 16.2137 6.11529 16.2137C5.83784 16.2137 5.56039 16.2137 5.2656 16.1963C6.30604 17.3755 7.9534 18.0691 9.99959 18.0691C13.7105 18.0691 16.9358 16.6645 18.8086 13.5606H4.05176V13.5432Z" fill="#028BB8"/>
<path d="M4.88428 13.5432C5.10971 14.549 5.62992 15.3466 6.41025 15.8842C7.25994 15.8669 7.95357 15.7628 8.49113 15.5894C8.57783 15.5547 8.64719 15.6067 8.68187 15.6761C8.71656 15.7628 8.66453 15.8322 8.59517 15.8669C8.52581 15.8842 8.45645 15.9189 8.36974 15.9362C7.95357 16.0576 7.46803 16.1443 6.87845 16.179C8.3524 16.942 10.4853 16.9246 12.9303 15.9882C14.4043 15.416 15.8436 14.5663 17.1268 13.5432H4.88428V13.5432Z" fill="#019BC6"/>
<path fill-rule="evenodd" clip-rule="evenodd" d="M5.73389 10.2315H7.43327V11.9308H5.73389V10.2315V10.2315ZM5.87261 10.3702H6.01134V11.7748H5.87261V10.3702ZM6.11538 10.3702H6.25411V11.7748H6.11538V10.3702ZM6.37549 10.3702H6.51422V11.7748H6.37549V10.3702ZM6.6356 10.3702H6.77432V11.7748H6.6356V10.3702ZM6.89571 10.3702H7.03443V11.7748H6.89571V10.3702ZM7.15582 10.3702H7.29454V11.7748H7.15582V10.3702ZM7.67604 8.28931H9.37542V9.98869H7.67604V8.28931ZM7.8321 8.42803H7.97083V9.83262H7.8321V8.42803ZM8.07487 8.42803H8.2136V9.83262H8.07487V8.42803ZM8.33498 8.42803H8.47371V9.83262H8.33498V8.42803ZM8.59509 8.42803H8.73382V9.83262H8.59509V8.42803ZM8.83786 8.42803H8.97658V9.83262H8.83786V8.42803ZM9.09797 8.42803H9.23669V9.83262H9.09797V8.42803Z" fill="#00ACD3"/>
<path fill-rule="evenodd" clip-rule="evenodd" d="M7.67627 10.2312H9.37565V11.9306H7.67627V10.2312V10.2312ZM7.83234 10.3699H7.97106V11.7745H7.83234V10.3699ZM8.0751 10.3699H8.21383V11.7745H8.0751V10.3699ZM8.33521 10.3699H8.47394V11.7745H8.33521V10.3699ZM8.59532 10.3699H8.73405V11.7745H8.59532V10.3699ZM8.83809 10.3699H8.97682V11.7745H8.83809V10.3699ZM9.0982 10.3699H9.23693V11.7745H9.0982V10.3699Z" fill="#23C2EE"/>
<path fill-rule="evenodd" clip-rule="evenodd" d="M9.63525 10.2312H11.3346V11.9306H9.63525V10.2312V10.2312ZM9.77398 10.3699H9.9127V11.7745H9.77398V10.3699ZM10.0341 10.3699H10.1728V11.7745H10.0341V10.3699ZM10.2942 10.3699H10.4329V11.7745H10.2942V10.3699ZM10.537 10.3699H10.6757V11.7745H10.537V10.3699ZM10.7971 10.3699H10.9358V11.7745H10.7971V10.3699ZM11.0572 10.3699H11.1959V11.7745H11.0572V10.3699Z" fill="#00ACD3"/>
<path fill-rule="evenodd" clip-rule="evenodd" d="M9.63525 8.28931H11.3346V9.98869H9.63525V8.28931V8.28931ZM9.77398 8.42803H9.9127V9.83262H9.77398V8.42803ZM10.0341 8.42803H10.1728V9.83262H10.0341V8.42803ZM10.2942 8.42803H10.4329V9.83262H10.2942V8.42803ZM10.537 8.42803H10.6757V9.83262H10.537V8.42803ZM10.7971 8.42803H10.9358V9.83262H10.7971V8.42803ZM11.0572 8.42803H11.1959V9.83262H11.0572V8.42803ZM11.5947 10.2315H13.2941V11.9308H11.5947V10.2315V10.2315ZM11.7335 10.3702H11.8722V11.7748H11.7335V10.3702V10.3702ZM11.9936 10.3702H12.1323V11.7748H11.9936V10.3702ZM12.2363 10.3702H12.3751V11.7748H12.2363V10.3702ZM12.4965 10.3702H12.6352V11.7748H12.4965V10.3702ZM12.7566 10.3702H12.8953V11.7748H12.7566V10.3702ZM13.0167 10.3702H13.1554V11.7748H13.0167V10.3702Z" fill="#23C2EE"/>
<path fill-rule="evenodd" clip-rule="evenodd" d="M11.5952 8.28931H13.2946V9.98869H11.5952V8.28931ZM11.7339 8.42803H11.8727V9.83262H11.7339V8.42803ZM11.994 8.42803H12.1328V9.83262H11.994V8.42803ZM12.2368 8.42803H12.3755V9.83262H12.2368V8.42803ZM12.4969 8.42803H12.6357V9.83262H12.4969V8.42803ZM12.757 8.42803H12.8958V9.83262H12.757V8.42803ZM13.0171 8.42803H13.1559V9.83262H13.0171V8.42803Z" fill="#00ACD3"/>
<path fill-rule="evenodd" clip-rule="evenodd" d="M11.5952 6.32959H13.2946V8.02897H11.5952V6.32959ZM11.7339 6.46831H11.8727V7.87291H11.7339V6.46831ZM11.994 6.46831H12.1328V7.87291H11.994V6.46831ZM12.2368 6.46831H12.3755V7.87291H12.2368V6.46831ZM12.4969 6.46831H12.6357V7.87291H12.4969V6.46831ZM12.757 6.46831H12.8958V7.87291H12.757V6.46831ZM13.0171 6.46831H13.1559V7.87291H13.0171V6.46831Z" fill="#23C2EE"/>
<path fill-rule="evenodd" clip-rule="evenodd" d="M13.5547 10.2312H15.2541V11.9306H13.5547V10.2312ZM13.6934 10.3699H13.8321V11.7745H13.6934V10.3699ZM13.9362 10.3699H14.0749V11.7745H13.9362V10.3699ZM14.1963 10.3699H14.335V11.7745H14.1963V10.3699ZM14.4564 10.3699H14.5951V11.7745H14.4564V10.3699ZM14.7165 10.3699H14.8552V11.7745H14.7165V10.3699ZM14.9766 10.3699H15.1153V11.7745H14.9766V10.3699Z" fill="#00ACD3"/>
<path fill-rule="evenodd" clip-rule="evenodd" d="M9.27142 14.6704C9.53153 14.6704 9.73962 14.8785 9.73962 15.1386C9.73962 15.3987 9.53153 15.6068 9.27142 15.6068C9.01131 15.6068 8.80322 15.3987 8.80322 15.1386C8.80322 14.8785 9.01131 14.6704 9.27142 14.6704Z" fill="#D4EEF1"/>
<path fill-rule="evenodd" clip-rule="evenodd" d="M9.27148 14.8094C9.30616 14.8094 9.35818 14.8094 9.39286 14.8267C9.35818 14.844 9.3235 14.8961 9.3235 14.9481C9.3235 15.0174 9.39286 15.0868 9.46223 15.0868C9.51425 15.0868 9.56627 15.0521 9.58361 15.0174C9.60095 15.0521 9.60095 15.1041 9.60095 15.1388C9.60095 15.3296 9.44489 15.4683 9.27148 15.4683C9.08073 15.4683 8.94201 15.3122 8.94201 15.1388C8.94201 14.9654 9.08073 14.8094 9.27148 14.8094V14.8094ZM1 13.7169H22.7451C22.277 13.5955 21.2539 13.4394 21.4099 12.8152C20.5429 13.8036 18.4794 13.5088 17.9418 13.0233C17.3522 13.873 13.9534 13.5435 13.728 12.8845C12.9997 13.7516 10.7281 13.7516 9.99979 12.8845C9.75702 13.5435 6.35825 13.873 5.78601 13.0233C5.26579 13.5088 3.18492 13.8036 2.31789 12.8152C2.50863 13.4221 1.4682 13.5955 1 13.7169" fill="#3A4D54"/>
<path d="M10.5201 18.0521C9.35828 17.4972 8.73401 16.7515 8.36986 15.9365C7.93635 16.0579 7.41613 16.1446 6.82655 16.1793C6.60112 16.1966 6.35835 16.1966 6.11558 16.1966C5.82079 16.1966 5.526 16.1966 5.21387 16.1793C6.2543 17.2197 7.57219 18.0347 9.98254 18.0521H10.5201Z" fill="#BFDBE0"/>
<path d="M8.803 16.6822C8.64694 16.4567 8.49087 16.1966 8.36949 15.9365C7.93597 16.0579 7.41575 16.1446 6.82617 16.1793C7.22501 16.3874 7.81459 16.5955 8.803 16.6822V16.6822Z" fill="#D4EEF1"/>
</svg>
