<svg width="24" height="24" viewBox="0 0 24 24" fill="none" xmlns="http://www.w3.org/2000/svg">
<path d="M4 5.02088H3.02088V6V10V10.9791H4H8H8.97912V10V6V5.02088H8H4ZM9 11.0209H3C2.99446 11.0209 2.98915 11.0187 2.98524 11.0148C2.98132 11.0108 2.97912 11.0055 2.97912 11V5C2.97912 4.99447 2.98132 4.98916 2.98524 4.98524C2.98915 4.98133 2.99446 4.97913 3 4.97913H9C9.00554 4.97913 9.01085 4.98133 9.01476 4.98524C9.01868 4.98916 9.02088 4.99447 9.02088 5V11C9.02088 11.0055 9.01868 11.0108 9.01476 11.0148C9.01085 11.0187 9.00554 11.0209 9 11.0209ZM12.9852 7.01476L12.2929 7.70711L12.9852 7.01476C12.9813 7.01085 12.9791 7.00554 12.9791 7C12.9791 6.99447 12.9813 6.98916 12.9852 6.98524C12.9892 6.98133 12.9945 6.97913 13 6.97913H21C21.0055 6.97913 21.0108 6.98133 21.0148 6.98524C21.0187 6.98915 21.0209 6.99446 21.0209 7C21.0209 7.00554 21.0187 7.01085 21.0148 7.01476C21.0108 7.01868 21.0055 7.02088 21 7.02088H13C12.9945 7.02088 12.9892 7.01868 12.9852 7.01476ZM2.98524 18.9852C2.98915 18.9813 2.99446 18.9791 3 18.9791H13C13.0055 18.9791 13.0108 18.9813 13.0148 18.9852L13.7071 18.2929L13.0148 18.9852C13.0187 18.9892 13.0209 18.9945 13.0209 19C13.0209 19.0055 13.0187 19.0108 13.0148 19.0148L13.7071 19.7071L13.0148 19.0148C13.0108 19.0187 13.0055 19.0209 13 19.0209H3C2.99446 19.0209 2.98915 19.0187 2.98524 19.0148C2.98132 19.0108 2.97912 19.0055 2.97912 19C2.97912 18.9945 2.98132 18.9892 2.98524 18.9852ZM3 14.9791H21C21.0055 14.9791 21.0108 14.9813 21.0148 14.9852C21.0187 14.9892 21.0209 14.9945 21.0209 15C21.0209 15.0055 21.0187 15.0108 21.0148 15.0148C21.0108 15.0187 21.0055 15.0209 21 15.0209H3C2.99446 15.0209 2.98915 15.0187 2.98524 15.0148C2.98132 15.0108 2.97912 15.0055 2.97912 15C2.97912 14.9945 2.98132 14.9892 2.98524 14.9852C2.98915 14.9813 2.99446 14.9791 3 14.9791ZM13 10.9791H21C21.0055 10.9791 21.0108 10.9813 21.0148 10.9852C21.0187 10.9892 21.0209 10.9945 21.0209 11C21.0209 11.0055 21.0187 11.0108 21.0148 11.0148C21.0108 11.0187 21.0055 11.0209 21 11.0209H13C12.9945 11.0209 12.9892 11.0187 12.9852 11.0148C12.9813 11.0108 12.9791 11.0055 12.9791 11C12.9791 10.9945 12.9813 10.9892 12.9852 10.9852C12.9892 10.9813 12.9945 10.9791 13 10.9791Z" fill="currentColor" stroke="currentColor" stroke-width="1.95825"/>
</svg>
