<svg width="24" height="24" viewBox="0 0 24 24" fill="none" xmlns="http://www.w3.org/2000/svg">
<path fill-rule="evenodd" clip-rule="evenodd" d="M14.6629 6.18733C15.0436 6.4864 15.1097 7.0374 14.8106 7.41804L6.88301 18.1292L1.80609 14.028C1.43856 13.713 1.396 13.1596 1.71102 12.7921C2.02605 12.4246 2.57938 12.382 2.94691 12.697L6.63486 15.6077L13.4322 6.33501C13.7313 5.95438 14.2823 5.88826 14.6629 6.18733ZM21.6748 6.18733C22.0555 6.4864 22.1216 7.0374 21.8225 7.41804L13.9592 18.0474L10.6552 15.8448C10.2524 15.5763 10.1436 15.0321 10.4121 14.6293C10.6806 14.2265 11.2248 14.1177 11.6276 14.3862L13.5825 15.6895L20.4441 6.33501C20.7432 5.95438 21.2942 5.88826 21.6748 6.18733Z" fill="currentColor"/>
</svg>
