<svg width="24" height="24" viewBox="0 0 24 24" fill="none" xmlns="http://www.w3.org/2000/svg">
<path d="M16.8001 19.2C18.1256 19.2 19.2001 18.1255 19.2001 16.8C19.2001 15.4745 18.1256 14.4 16.8001 14.4C15.4747 14.4 14.4001 15.4745 14.4001 16.8C14.4001 18.1255 15.4747 19.2 16.8001 19.2Z" stroke="currentColor" stroke-width="1.33333" stroke-linecap="round" stroke-linejoin="round"/>
<path d="M16.8001 7.19999C17.4628 7.19999 18.0001 6.66273 18.0001 5.99999C18.0001 5.33725 17.4628 4.79999 16.8001 4.79999C16.1374 4.79999 15.6001 5.33725 15.6001 5.99999C15.6001 6.66273 16.1374 7.19999 16.8001 7.19999Z" fill="currentColor"/>
<path d="M16.8001 12C17.4628 12 18.0001 11.4627 18.0001 10.8C18.0001 10.1372 17.4628 9.59998 16.8001 9.59998C16.1374 9.59998 15.6001 10.1372 15.6001 10.8C15.6001 11.4627 16.1374 12 16.8001 12Z" fill="currentColor"/>
<path d="M7.2002 9.60001V19.2" stroke="currentColor" stroke-width="1.33333" stroke-linecap="round" stroke-linejoin="round"/>
<path d="M7.20005 9.59999C8.52553 9.59999 9.60005 8.52547 9.60005 7.19999C9.60005 5.8745 8.52553 4.79999 7.20005 4.79999C5.87457 4.79999 4.80005 5.8745 4.80005 7.19999C4.80005 8.52547 5.87457 9.59999 7.20005 9.59999Z" stroke="currentColor" stroke-width="1.33333" stroke-linecap="round" stroke-linejoin="round"/>
</svg>
