<svg width="24" height="24" viewBox="0 0 24 24" fill="none" xmlns="http://www.w3.org/2000/svg">
<circle cx="12" cy="12" r="9.8" stroke="currentColor" stroke-width="2.4"/>
<path d="M18.0842 4.92585L16.2193 6.79074L12.7 10.3101V10.2907V10.2566V10.2225V10.1885V10.1546V10.1206V10.0867V10.0528V10.019V9.98517V9.95141V9.91768V9.88398V9.85032V9.8167V9.78312V9.74957V9.71606V9.68259V9.64915V9.61575V9.58239V9.54907V9.51579V9.48255V9.44934V9.41617V9.38305V9.34996V9.31691V9.2839V9.25093V9.218V9.18511V9.15226V9.11945V9.08668V9.05395V9.02126V8.98861V8.95601V8.92344V8.89092V8.85844V8.826V8.7936V8.76125V8.72894V8.69667V8.66444V8.63225V8.60011V8.56801V8.53596V8.50395V8.47198V8.44006V8.40818V8.37634V8.34455V8.3128V8.2811V8.24944V8.21783V8.18626V8.15474V8.12327V8.09184V8.06045V8.02911V7.99782V7.96658V7.93538V7.90423V7.87312V7.84206V7.81105V7.78009V7.74917V7.7183V7.68748V7.65671V7.62599V7.59531V7.56468V7.53411V7.50358V7.4731V7.44267V7.41229V7.38195V7.35167V7.32144V7.29126V7.26113V7.23104V7.20101V7.17103V7.14111V7.11123V7.0814V7.05163V7.0219V6.99223V6.96261V6.93305V6.90353V6.87407V6.84466V6.8153V6.786V6.75675V6.72755V6.69841V6.66931V6.64028V6.6113V6.58237V6.55349V6.52467V6.49591V6.4672V6.43854V6.40994V6.3814V6.35291V6.32448V6.2961V6.26778V6.23951V6.2113V6.18315V6.15506V6.12702V6.09904V6.07111V6.04324V6.01543V5.98768V5.95999V5.93235V5.90478V5.87726V5.8498V5.82239V5.79505V5.76777V5.74054V5.71338V5.68627V5.65922V5.63224V5.60531V5.57845V5.55164V5.5249V5.49821V5.47159V5.44503V5.41852V5.39209V5.36571V5.33939V5.31314V5.28694V5.26081V5.23475V5.20874V5.1828V5.15692V5.13111V5.10535V5.07966V5.05404V5.02848V5.00298V4.97754V4.95218V4.92687V4.90163V4.87645V4.85134V4.8263V4.80132V4.7764V4.75155V4.72677V4.70205V4.6774V4.65282V4.6283V4.60385V4.57946V4.55515V4.53089V4.50671V4.4826V4.45855V4.43457V4.41066V4.38681V4.36304V4.33933V4.31569V4.29212V4.26862V4.24519V4.22183V4.19853V4.17531V4.15216V4.12907V4.10606V4.08312V4.06025V4.03745V4.01471V3.99206V3.96947V3.94695V3.92451V3.90213V3.87983V3.8576V3.83544V3.81336V3.79135V3.76941V3.74754V3.72575V3.70403V3.68238V3.6608V3.63931V3.61788V3.59653V3.57525V3.55405V3.53292V3.51187V3.49089V3.46998V3.44915V3.4284V3.40772V3.38712V3.3666V3.34615V3.32577V3.30548V3.28526V3.26511V3.24505V3.22506V3.20515V3.18531V3.16555V3.14587V3.12627V3.10675V3.0873V3.06794V3.04865V3.02944V3.01031V2.99126V2.97229V2.9534V2.93458V2.91585V2.8972V2.87863V2.86014V2.84172V2.82339V2.80514V2.78697V2.76889V2.75088V2.73295V2.71511V2.69735V2.67967V2.66207V2.64456V2.62712V2.60977V2.59251V2.57532V2.55822V2.5412V2.52427V2.50742V2.49065V2.47397V2.45737V2.44086V2.42443V2.40809V2.39183V2.37565V2.35956V2.34356V2.32764V2.31181V2.29606V2.2804V2.26483V2.24934V2.23394V2.21862V2.20339V2.18825V2.1732V2.15823V2.14335V2.12856V2.11386V2.09925V2.08472V2.07028V2.05593V2.04167V2.0275V2.01342V1.99942V1.98552V1.9717V1.95798V1.94434V1.9308V1.91735V1.90398V1.89071V1.87753V1.86443V1.85143V1.83852V1.82571V1.81298V1.80035V1.7878V1.77535V1.763V1.75073V1.73856V1.7354C15.1386 1.98633 16.7049 3.52676 18.0842 4.92585Z" fill="currentColor" stroke="currentColor" stroke-width="1.4"/>
</svg>
