<svg width="24" height="24" viewBox="0 0 24 24" fill="none" xmlns="http://www.w3.org/2000/svg">
<path d="M17.2857 13.001C17.838 13.001 18.2857 12.5533 18.2857 12.001C18.2857 11.4487 17.838 11.001 17.2857 11.001C16.7334 11.001 16.2857 11.4487 16.2857 12.001C16.2857 12.5533 16.7334 13.001 17.2857 13.001Z" fill="currentColor" stroke="currentColor" stroke-width="0.342857" stroke-linecap="round" stroke-linejoin="round"/>
<path d="M11.9999 13.001C12.5522 13.001 12.9999 12.5533 12.9999 12.001C12.9999 11.4487 12.5522 11.001 11.9999 11.001C11.4477 11.001 10.9999 11.4487 10.9999 12.001C10.9999 12.5533 11.4477 13.001 11.9999 13.001Z" fill="currentColor" stroke="currentColor" stroke-width="0.342857" stroke-linecap="round" stroke-linejoin="round"/>
<path d="M6.71454 13.001C7.26682 13.001 7.71454 12.5533 7.71454 12.001C7.71454 11.4487 7.26682 11.001 6.71454 11.001C6.16225 11.001 5.71454 11.4487 5.71454 12.001C5.71454 12.5533 6.16225 13.001 6.71454 13.001Z" fill="currentColor" stroke="currentColor" stroke-width="0.342857" stroke-linecap="round" stroke-linejoin="round"/>
</svg>
