<svg xmlns="http://www.w3.org/2000/svg" fill="none" viewBox="0 0 24 24"><mask id="a" fill="#fff"><path d="M10 13H4a1 1 0 0 0-1 1v6a1 1 0 0 0 1 1h6a1 1 0 0 0 1-1v-6a1 1 0 0 0-1-1Zm-1 6H5v-4h4v4ZM20 3h-6a1 1 0 0 0-1 1v6a1 1 0 0 0 1 1h6a1 1 0 0 0 1-1V4a1 1 0 0 0-1-1Zm-1 6h-4V5h4v4Zm1 7h-2v-2a1 1 0 0 0-2 0v2h-2a1 1 0 0 0 0 2h2v2a1 1 0 0 0 2 0v-2h2a1 1 0 0 0 0-2ZM10 3H4a1 1 0 0 0-1 1v6a1 1 0 0 0 1 1h6a1 1 0 0 0 1-1V4a1 1 0 0 0-1-1ZM9 9H5V5h4v4Z"/></mask><path fill="currentColor" d="M10 13H4a1 1 0 0 0-1 1v6a1 1 0 0 0 1 1h6a1 1 0 0 0 1-1v-6a1 1 0 0 0-1-1Zm-1 6H5v-4h4v4ZM20 3h-6a1 1 0 0 0-1 1v6a1 1 0 0 0 1 1h6a1 1 0 0 0 1-1V4a1 1 0 0 0-1-1Zm-1 6h-4V5h4v4Zm1 7h-2v-2a1 1 0 0 0-2 0v2h-2a1 1 0 0 0 0 2h2v2a1 1 0 0 0 2 0v-2h2a1 1 0 0 0 0-2ZM10 3H4a1 1 0 0 0-1 1v6a1 1 0 0 0 1 1h6a1 1 0 0 0 1-1V4a1 1 0 0 0-1-1ZM9 9H5V5h4v4Z"/><path fill="currentColor" d="M3 14H.75 3Zm0 6H.75 3Zm6-1v2.25h2.25V19H9Zm-4 0H2.75v2.25H5V19Zm0-4v-2.25H2.75V15H5Zm4 0h2.25v-2.25H9V15Zm5-12V.75 3Zm5 6v2.25h2.25V9H19Zm-4 0h-2.25v2.25H15V9Zm0-4V2.75h-2.25V5H15Zm4 0h2.25V2.75H19V5Zm-1 11h-2.25v2.25H18V16Zm-2 0v2.25h2.25V16H16Zm0 2h2.25v-2.25H16V18Zm2 0v-2.25h-2.25V18H18ZM4 3V.75 3ZM3 4H.75 3Zm0 6H.75 3Zm6-1v2.25h2.25V9H9ZM5 9H2.75v2.25H5V9Zm0-4V2.75H2.75V5H5Zm4 0h2.25V2.75H9V5Zm1 5.75H4v4.5h6v-4.5Zm-6 0a3.25 3.25 0 0 0-2.298.952l3.182 3.182A1.25 1.25 0 0 1 4 15.25v-4.5Zm-2.298.952A3.25 3.25 0 0 0 .75 14h4.5c0 .332-.132.65-.366.884l-3.182-3.182ZM.75 14v6h4.5v-6H.75Zm0 6c0 .862.342 1.689.952 2.298l3.182-3.182c.234.235.366.553.366.884H.75Zm.952 2.298A3.25 3.25 0 0 0 4 23.25v-4.5c.332 0 .65.132.884.366l-3.182 3.182ZM4 23.25h6v-4.5H4v4.5Zm6 0a3.25 3.25 0 0 0 2.298-.952l-3.182-3.182A1.25 1.25 0 0 1 10 18.75v4.5Zm2.298-.952A3.25 3.25 0 0 0 13.25 20h-4.5c0-.331.132-.65.366-.884l3.182 3.182ZM13.25 20v-6h-4.5v6h4.5Zm0-6a3.25 3.25 0 0 0-.952-2.298l-3.182 3.182A1.25 1.25 0 0 1 8.75 14h4.5Zm-.952-2.298A3.25 3.25 0 0 0 10 10.75v4.5a1.25 1.25 0 0 1-.884-.366l3.182-3.182ZM9 16.75H5v4.5h4v-4.5ZM7.25 19v-4h-4.5v4h4.5ZM5 17.25h4v-4.5H5v4.5ZM6.75 15v4h4.5v-4h-4.5ZM20 .75h-6v4.5h6V.75Zm-6 0a3.25 3.25 0 0 0-2.298.952l3.182 3.182A1.25 1.25 0 0 1 14 5.25V.75Zm-2.298.952A3.25 3.25 0 0 0 10.75 4h4.5c0 .332-.132.65-.366.884l-3.182-3.182ZM10.75 4v6h4.5V4h-4.5Zm0 6c0 .862.342 1.689.952 2.298l3.182-3.182c.234.235.366.552.366.884h-4.5Zm.952 2.298A3.25 3.25 0 0 0 14 13.25v-4.5c.332 0 .65.132.884.366l-3.182 3.182ZM14 13.25h6v-4.5h-6v4.5Zm6 0a3.25 3.25 0 0 0 2.298-.952l-3.182-3.182A1.25 1.25 0 0 1 20 8.75v4.5Zm2.298-.952A3.25 3.25 0 0 0 23.25 10h-4.5c0-.332.132-.65.366-.884l3.182 3.182ZM23.25 10V4h-4.5v6h4.5Zm0-6a3.25 3.25 0 0 0-.952-2.298l-3.182 3.182A1.25 1.25 0 0 1 18.75 4h4.5Zm-.952-2.298A3.25 3.25 0 0 0 20 .75v4.5a1.25 1.25 0 0 1-.884-.366l3.182-3.182ZM19 6.75h-4v4.5h4v-4.5ZM17.25 9V5h-4.5v4h4.5ZM15 7.25h4v-4.5h-4v4.5ZM16.75 5v4h4.5V5h-4.5ZM20 13.75h-2v4.5h2v-4.5Zm.25 2.25v-2h-4.5v2h4.5Zm0-2a3.25 3.25 0 0 0-.952-2.298l-3.182 3.182A1.25 1.25 0 0 1 15.75 14h4.5Zm-.952-2.298A3.25 3.25 0 0 0 17 10.75v4.5a1.25 1.25 0 0 1-.884-.366l3.182-3.182ZM17 10.75a3.25 3.25 0 0 0-2.298.952l3.182 3.182a1.25 1.25 0 0 1-.884.366v-4.5Zm-2.298.952A3.25 3.25 0 0 0 13.75 14h4.5c0 .332-.132.65-.366.884l-3.182-3.182ZM13.75 14v2h4.5v-2h-4.5Zm2.25-.25h-2v4.5h2v-4.5Zm-2 0a3.25 3.25 0 0 0-2.298.952l3.182 3.182a1.25 1.25 0 0 1-.884.366v-4.5Zm-2.298.952A3.25 3.25 0 0 0 10.75 17h4.5c0 .331-.132.65-.366.884l-3.182-3.182ZM10.75 17c0 .862.342 1.689.952 2.298l3.182-3.182c.234.235.366.553.366.884h-4.5Zm.952 2.298A3.25 3.25 0 0 0 14 20.25v-4.5c.332 0 .65.132.884.366l-3.182 3.182ZM14 20.25h2v-4.5h-2v4.5ZM13.75 18v2h4.5v-2h-4.5Zm0 2c0 .862.342 1.689.952 2.298l3.182-3.182c.234.235.366.553.366.884h-4.5Zm.952 2.298A3.25 3.25 0 0 0 17 23.25v-4.5c.331 0 .65.132.884.366l-3.182 3.182ZM17 23.25a3.25 3.25 0 0 0 2.298-.952l-3.182-3.182A1.25 1.25 0 0 1 17 18.75v4.5Zm2.298-.952A3.25 3.25 0 0 0 20.25 20h-4.5c0-.331.132-.65.366-.884l3.182 3.182ZM20.25 20v-2h-4.5v2h4.5Zm-2.25.25h2v-4.5h-2v4.5Zm2 0a3.25 3.25 0 0 0 2.298-.952l-3.182-3.182A1.25 1.25 0 0 1 20 15.75v4.5Zm2.298-.952A3.25 3.25 0 0 0 23.25 17h-4.5c0-.331.132-.65.366-.884l3.182 3.182ZM23.25 17a3.25 3.25 0 0 0-.952-2.298l-3.182 3.182A1.25 1.25 0 0 1 18.75 17h4.5Zm-.952-2.298A3.25 3.25 0 0 0 20 13.75v4.5a1.25 1.25 0 0 1-.884-.366l3.182-3.182ZM10 .75H4v4.5h6V.75Zm-6 0a3.25 3.25 0 0 0-2.298.952l3.182 3.182A1.25 1.25 0 0 1 4 5.25V.75Zm-2.298.952A3.25 3.25 0 0 0 .75 4h4.5c0 .332-.132.65-.366.884L1.702 1.702ZM.75 4v6h4.5V4H.75Zm0 6c0 .862.342 1.689.952 2.298l3.182-3.182c.234.235.366.552.366.884H.75Zm.952 2.298A3.25 3.25 0 0 0 4 13.25v-4.5c.332 0 .65.132.884.366l-3.182 3.182ZM4 13.25h6v-4.5H4v4.5Zm6 0a3.25 3.25 0 0 0 2.298-.952L9.116 9.116A1.25 1.25 0 0 1 10 8.75v4.5Zm2.298-.952A3.25 3.25 0 0 0 13.25 10h-4.5c0-.332.132-.65.366-.884l3.182 3.182ZM13.25 10V4h-4.5v6h4.5Zm0-6a3.25 3.25 0 0 0-.952-2.298L9.116 4.884A1.25 1.25 0 0 1 8.75 4h4.5Zm-.952-2.298A3.25 3.25 0 0 0 10 .75v4.5a1.25 1.25 0 0 1-.884-.366l3.182-3.182ZM9 6.75H5v4.5h4v-4.5ZM7.25 9V5h-4.5v4h4.5ZM5 7.25h4v-4.5H5v4.5ZM6.75 5v4h4.5V5h-4.5Z" mask="url(#a)"/></svg>