<svg width="24" height="24" viewBox="0 0 24 24" fill="none" xmlns="http://www.w3.org/2000/svg">
<g>
<path d="M18 18C17.7348 18 17.4804 18.1054 17.2929 18.2929C17.1054 18.4804 17 18.7348 17 19C17 19.2652 16.8946 19.5196 16.7071 19.7071C16.5196 19.8946 16.2652 20 16 20H6C5.73478 20 5.48043 19.8946 5.29289 19.7071C5.10536 19.5196 5 19.2652 5 19V5C5 4.73478 5.10536 4.48043 5.29289 4.29289C5.48043 4.10536 5.73478 4 6 4H11V7C11 7.79565 11.3161 8.55871 11.8787 9.12132C12.4413 9.68393 13.2044 10 14 10H17V11C17 11.2652 17.1054 11.5196 17.2929 11.7071C17.4804 11.8946 17.7348 12 18 12C18.2652 12 18.5196 11.8946 18.7071 11.7071C18.8946 11.5196 19 11.2652 19 11V9C19 9 19 9 19 8.94C18.9896 8.84813 18.9695 8.75763 18.94 8.67C18.9442 8.64015 18.9442 8.60985 18.94 8.58C18.8919 8.47718 18.8278 8.38267 18.75 8.3L12.75 2.3C12.6673 2.22222 12.5728 2.15808 12.47 2.11H12.37C12.2757 2.05943 12.1747 2.0224 12.07 2H6C5.20435 2 4.44129 2.31607 3.87868 2.87868C3.31607 3.44129 3 4.20435 3 5V19C3 19.7956 3.31607 20.5587 3.87868 21.1213C4.44129 21.6839 5.20435 22 6 22H16C16.7956 22 17.5587 21.6839 18.1213 21.1213C18.6839 20.5587 19 19.7956 19 19C19 18.7348 18.8946 18.4804 18.7071 18.2929C18.5196 18.1054 18.2652 18 18 18ZM13 5.41L15.59 8H14C13.7348 8 13.4804 7.89464 13.2929 7.70711C13.1054 7.51957 13 7.26522 13 7V5.41ZM20 14H17.5C17.3684 13.9992 17.2379 14.0245 17.1161 14.0742C16.9943 14.124 16.8834 14.1973 16.79 14.29L15.55 15.54L12.75 12.34C12.6599 12.2368 12.5496 12.1532 12.4259 12.0944C12.3022 12.0356 12.1677 12.0029 12.0309 11.9982C11.894 11.9935 11.7576 12.017 11.6301 12.0672C11.5027 12.1174 11.3869 12.1932 11.29 12.29L9.59 14H8C7.73478 14 7.48043 14.1054 7.29289 14.2929C7.10536 14.4804 7 14.7348 7 15C7 15.2652 7.10536 15.5196 7.29289 15.7071C7.48043 15.8946 7.73478 16 8 16H10C10.1316 16.0008 10.2621 15.9755 10.3839 15.9258C10.5057 15.876 10.6166 15.8027 10.71 15.71L12 14.46L14.8 17.66C14.8903 17.763 15.0008 17.8463 15.1247 17.9048C15.2486 17.9632 15.3831 17.9957 15.52 18V18C15.6516 18.0008 15.7821 17.9755 15.9039 17.9258C16.0257 17.876 16.1366 17.8027 16.23 17.71L17.91 16H20C20.2652 16 20.5196 15.8946 20.7071 15.7071C20.8946 15.5196 21 15.2652 21 15C21 14.7348 20.8946 14.4804 20.7071 14.2929C20.5196 14.1054 20.2652 14 20 14Z" fill="currentColor"/>
</g>
</svg>
