<svg width="24" height="24" viewBox="0 0 24 24" fill="none" xmlns="http://www.w3.org/2000/svg">
<mask id="path-1-inside-1" fill="white">
<path d="M8.4678 8.3947L8.46555 8.39653L8.46341 8.39861L8.4678 8.3947ZM18.4219 8.20817C18.3523 8.14111 18.2751 8.08244 18.1919 8.03336C18.0741 7.96402 17.9433 7.91958 17.8076 7.9028C17.672 7.88601 17.5343 7.89723 17.4031 7.93577C17.272 7.9743 17.1501 8.03933 17.0451 8.12683C16.9401 8.21434 16.8541 8.32245 16.7925 8.4445C16.448 9.12319 15.9729 9.72719 15.3945 10.2218C15.483 9.72344 15.5276 9.21825 15.5278 8.71207C15.5297 7.17217 15.1234 5.65928 14.3505 4.32743C13.5775 2.99558 12.4654 1.89235 11.1274 1.13007C10.98 1.04651 10.8138 1.00178 10.6444 1.00005C10.475 0.998327 10.3079 1.03967 10.1588 1.12021C10.0098 1.20074 9.88361 1.31783 9.7922 1.46048C9.70078 1.60313 9.6471 1.76666 9.6362 1.93574C9.58024 2.88391 9.33236 3.81085 8.90759 4.6604C8.48282 5.50995 7.88999 6.26442 7.16503 6.8781L6.93456 7.0656C6.17647 7.57569 5.50546 8.2045 4.94726 8.9279C4.07958 10.021 3.47851 11.3012 3.19172 12.6671C2.90493 14.0329 2.94031 15.4468 3.29506 16.7966C3.6498 18.1464 4.31415 19.3949 5.23543 20.4433C6.1567 21.4916 7.30956 22.3109 8.60257 22.8361C8.75439 22.8981 8.91914 22.9219 9.08229 22.9052C9.24545 22.8885 9.40198 22.8319 9.5381 22.7404C9.67422 22.6489 9.78573 22.5254 9.8628 22.3806C9.93987 22.2358 9.98013 22.0743 9.98003 21.9103C9.97931 21.8042 9.96252 21.6989 9.93023 21.5978C9.7065 20.7568 9.64208 19.8814 9.74028 19.0168C10.6865 20.8015 12.2054 22.2162 14.0528 23.0334C14.2783 23.1342 14.5332 23.1478 14.7681 23.0715C16.2277 22.6004 17.5425 21.7639 18.5878 20.6415C19.633 19.5191 20.3739 18.1481 20.74 16.6588C21.1061 15.1694 21.0853 13.6112 20.6796 12.1321C20.2739 10.653 19.4967 9.30227 18.4219 8.20817ZM14.5171 21.0392C13.6454 20.5975 12.8765 19.9772 12.2603 19.2187C11.6441 18.4602 11.1944 17.5806 10.9405 16.6369C10.8629 16.3191 10.8029 15.9974 10.7608 15.673C10.7322 15.4665 10.6398 15.274 10.4965 15.1226C10.3532 14.9711 10.1661 14.8682 9.96146 14.8283C9.89841 14.8159 9.83429 14.8096 9.77003 14.8097C9.59427 14.8097 9.42161 14.856 9.26944 14.9439C9.11728 15.0319 8.99099 15.1584 8.90333 15.3107C8.0736 16.7419 7.65633 18.3748 7.69776 20.0285C6.968 19.4611 6.35811 18.7545 5.90344 17.9497C5.44876 17.1449 5.15835 16.2578 5.04903 15.3399C4.93971 14.422 5.01366 13.4915 5.26658 12.6024C5.51951 11.7133 5.94639 10.8833 6.52247 10.1603C6.95988 9.59218 7.48756 9.09964 8.08447 8.70235C8.11032 8.68567 8.1351 8.6674 8.15869 8.64766C8.15869 8.64766 8.45538 8.40218 8.46552 8.39656C9.89022 7.19152 10.9035 5.57207 11.3643 3.76387C12.4538 4.7711 13.1804 6.1099 13.431 7.57238C13.6817 9.03486 13.4425 10.5392 12.7505 11.8518C12.6591 12.0269 12.6216 12.2252 12.6427 12.4216C12.6639 12.6181 12.7427 12.8039 12.8693 12.9555C12.9959 13.1072 13.1646 13.218 13.3541 13.2739C13.5436 13.3298 13.7454 13.3284 13.9341 13.2698C15.4659 12.7896 16.8138 11.8517 17.7964 10.5823C18.3869 11.4546 18.773 12.4489 18.9259 13.4911C19.0787 14.5334 18.9944 15.5967 18.6792 16.6018C18.364 17.6069 17.826 18.528 17.1054 19.2963C16.3847 20.0646 15.5 20.6604 14.5171 21.0393L14.5171 21.0392Z"/>
</mask>
<path d="M8.4678 8.3947L8.46555 8.39653L8.46341 8.39861L8.4678 8.3947ZM18.4219 8.20817C18.3523 8.14111 18.2751 8.08244 18.1919 8.03336C18.0741 7.96402 17.9433 7.91958 17.8076 7.9028C17.672 7.88601 17.5343 7.89723 17.4031 7.93577C17.272 7.9743 17.1501 8.03933 17.0451 8.12683C16.9401 8.21434 16.8541 8.32245 16.7925 8.4445C16.448 9.12319 15.9729 9.72719 15.3945 10.2218C15.483 9.72344 15.5276 9.21825 15.5278 8.71207C15.5297 7.17217 15.1234 5.65928 14.3505 4.32743C13.5775 2.99558 12.4654 1.89235 11.1274 1.13007C10.98 1.04651 10.8138 1.00178 10.6444 1.00005C10.475 0.998327 10.3079 1.03967 10.1588 1.12021C10.0098 1.20074 9.88361 1.31783 9.7922 1.46048C9.70078 1.60313 9.6471 1.76666 9.6362 1.93574C9.58024 2.88391 9.33236 3.81085 8.90759 4.6604C8.48282 5.50995 7.88999 6.26442 7.16503 6.8781L6.93456 7.0656C6.17647 7.57569 5.50546 8.2045 4.94726 8.9279C4.07958 10.021 3.47851 11.3012 3.19172 12.6671C2.90493 14.0329 2.94031 15.4468 3.29506 16.7966C3.6498 18.1464 4.31415 19.3949 5.23543 20.4433C6.1567 21.4916 7.30956 22.3109 8.60257 22.8361C8.75439 22.8981 8.91914 22.9219 9.08229 22.9052C9.24545 22.8885 9.40198 22.8319 9.5381 22.7404C9.67422 22.6489 9.78573 22.5254 9.8628 22.3806C9.93987 22.2358 9.98013 22.0743 9.98003 21.9103C9.97931 21.8042 9.96252 21.6989 9.93023 21.5978C9.7065 20.7568 9.64208 19.8814 9.74028 19.0168C10.6865 20.8015 12.2054 22.2162 14.0528 23.0334C14.2783 23.1342 14.5332 23.1478 14.7681 23.0715C16.2277 22.6004 17.5425 21.7639 18.5878 20.6415C19.633 19.5191 20.3739 18.1481 20.74 16.6588C21.1061 15.1694 21.0853 13.6112 20.6796 12.1321C20.2739 10.653 19.4967 9.30227 18.4219 8.20817ZM14.5171 21.0392C13.6454 20.5975 12.8765 19.9772 12.2603 19.2187C11.6441 18.4602 11.1944 17.5806 10.9405 16.6369C10.8629 16.3191 10.8029 15.9974 10.7608 15.673C10.7322 15.4665 10.6398 15.274 10.4965 15.1226C10.3532 14.9711 10.1661 14.8682 9.96146 14.8283C9.89841 14.8159 9.83429 14.8096 9.77003 14.8097C9.59427 14.8097 9.42161 14.856 9.26944 14.9439C9.11728 15.0319 8.99099 15.1584 8.90333 15.3107C8.0736 16.7419 7.65633 18.3748 7.69776 20.0285C6.968 19.4611 6.35811 18.7545 5.90344 17.9497C5.44876 17.1449 5.15835 16.2578 5.04903 15.3399C4.93971 14.422 5.01366 13.4915 5.26658 12.6024C5.51951 11.7133 5.94639 10.8833 6.52247 10.1603C6.95988 9.59218 7.48756 9.09964 8.08447 8.70235C8.11032 8.68567 8.1351 8.6674 8.15869 8.64766C8.15869 8.64766 8.45538 8.40218 8.46552 8.39656C9.89022 7.19152 10.9035 5.57207 11.3643 3.76387C12.4538 4.7711 13.1804 6.1099 13.431 7.57238C13.6817 9.03486 13.4425 10.5392 12.7505 11.8518C12.6591 12.0269 12.6216 12.2252 12.6427 12.4216C12.6639 12.6181 12.7427 12.8039 12.8693 12.9555C12.9959 13.1072 13.1646 13.218 13.3541 13.2739C13.5436 13.3298 13.7454 13.3284 13.9341 13.2698C15.4659 12.7896 16.8138 11.8517 17.7964 10.5823C18.3869 11.4546 18.773 12.4489 18.9259 13.4911C19.0787 14.5334 18.9944 15.5967 18.6792 16.6018C18.364 17.6069 17.826 18.528 17.1054 19.2963C16.3847 20.0646 15.5 20.6604 14.5171 21.0393L14.5171 21.0392Z" fill="black"/>
<path d="M8.4678 8.3947L9.96434 10.0748L7.04794 6.64928L8.4678 8.3947ZM8.46555 8.39653L7.04569 6.65111L6.96862 6.7138L6.89737 6.78305L8.46555 8.39653ZM8.46341 8.39861L6.89523 6.78513L9.95995 10.0787L8.46341 8.39861ZM18.1919 8.03336L19.3349 6.0953L19.3331 6.09426L18.1919 8.03336ZM16.7925 8.4445L18.7989 9.46283L18.8012 9.45815L16.7925 8.4445ZM15.3945 10.2218L13.1791 9.82866L12.081 16.0158L16.8568 11.9319L15.3945 10.2218ZM15.5278 8.71207L13.2778 8.70935L13.2778 8.71099L15.5278 8.71207ZM11.1274 1.13007L12.2412 -0.824916L12.237 -0.82731L11.1274 1.13007ZM9.6362 1.93574L7.39083 1.79095L7.39011 1.80317L9.6362 1.93574ZM7.16503 6.8781L8.58497 8.62345L8.60199 8.6096L8.61874 8.59543L7.16503 6.8781ZM6.93456 7.0656L8.19063 8.93235L8.27532 8.87537L8.3545 8.81095L6.93456 7.0656ZM4.94726 8.9279L6.70955 10.3268L6.71916 10.3147L6.7286 10.3024L4.94726 8.9279ZM8.60257 22.8361L9.45366 20.7533L9.44935 20.7515L8.60257 22.8361ZM9.98003 21.9103L12.2301 21.9089L12.23 21.8951L9.98003 21.9103ZM9.93023 21.5978L7.75586 22.1763L7.77012 22.2299L7.78701 22.2827L9.93023 21.5978ZM9.74028 19.0168L11.7282 17.9628L8.3246 11.5433L7.50465 18.7629L9.74028 19.0168ZM14.0528 23.0334L14.9716 20.9795L14.963 20.9757L14.0528 23.0334ZM14.7681 23.0715L14.077 20.9302L14.0726 20.9317L14.7681 23.0715ZM14.5171 21.0392L16.0818 22.6561L18.3512 20.4599L15.5343 19.0323L14.5171 21.0392ZM10.9405 16.6369L8.75461 17.1703L8.76088 17.196L8.76774 17.2215L10.9405 16.6369ZM10.7608 15.673L12.992 15.383L12.9908 15.3739L12.9896 15.3648L10.7608 15.673ZM9.96146 14.8283L9.52618 17.0358L9.53067 17.0367L9.96146 14.8283ZM9.77003 14.8097L9.76922 17.0597L9.77337 17.0597L9.77003 14.8097ZM8.90333 15.3107L10.8499 16.4393L10.8535 16.433L8.90333 15.3107ZM7.69776 20.0285L6.3167 21.8048L10.066 24.7199L9.94706 19.9722L7.69776 20.0285ZM6.52247 10.1603L8.28209 11.5626L8.29383 11.5478L8.30532 11.5329L6.52247 10.1603ZM8.08447 8.70235L6.86437 6.81188L6.85103 6.8205L6.8378 6.8293L8.08447 8.70235ZM8.15869 8.64766L6.72434 6.91408L6.71446 6.92235L8.15869 8.64766ZM8.46552 8.39656L9.55624 10.3645L9.74969 10.2573L9.91856 10.1145L8.46552 8.39656ZM11.3643 3.76387L12.8916 2.11167L10.1169 -0.453329L9.18393 3.20832L11.3643 3.76387ZM12.7505 11.8518L10.7601 10.8025L10.7559 10.8106L12.7505 11.8518ZM13.9341 13.2698L14.6019 15.4184L14.6071 15.4167L13.9341 13.2698ZM17.7964 10.5823L19.6596 9.32087L17.9183 6.74892L16.0171 9.20502L17.7964 10.5823ZM14.5171 21.0393L12.9524 19.4224L15.3263 23.1387L14.5171 21.0393ZM7.04794 6.64928L7.04569 6.65111L9.88541 10.1419L9.88766 10.1401L7.04794 6.64928ZM6.89737 6.78305L6.89523 6.78513L10.0316 10.0121L10.0337 10.01L6.89737 6.78305ZM9.95995 10.0787L9.96434 10.0748L6.97126 6.71456L6.96687 6.71847L9.95995 10.0787ZM19.9833 6.58808C19.7871 6.39905 19.5695 6.23367 19.3349 6.0953L17.0489 9.97141C16.9808 9.93122 16.9175 9.88317 16.8606 9.82826L19.9833 6.58808ZM19.3331 6.09426C18.9501 5.86885 18.525 5.72439 18.0839 5.66982L17.5314 10.1358C17.3617 10.1148 17.1981 10.0592 17.0507 9.97245L19.3331 6.09426ZM18.0839 5.66982C17.6429 5.61526 17.1953 5.65174 16.7689 5.77701L18.0374 10.0945C17.8733 10.1427 17.7011 10.1568 17.5314 10.1358L18.0839 5.66982ZM16.7689 5.77701C16.3425 5.90228 15.9463 6.11368 15.6049 6.39815L18.4853 9.85552C18.3539 9.96498 18.2014 10.0463 18.0374 10.0945L16.7689 5.77701ZM15.6049 6.39815C15.2634 6.68262 14.984 7.0341 14.7838 7.43085L18.8012 9.45815C18.7242 9.61081 18.6167 9.74605 18.4853 9.85552L15.6049 6.39815ZM14.7861 7.42617C14.5757 7.84073 14.2855 8.20967 13.9322 8.51182L16.8568 11.9319C17.6604 11.2447 18.3203 10.4056 18.7989 9.46283L14.7861 7.42617ZM17.6099 10.615C17.7213 9.98718 17.7775 9.35079 17.7778 8.71315L13.2778 8.71099C13.2776 9.08571 13.2446 9.4597 13.1791 9.82866L17.6099 10.615ZM17.7778 8.71478C17.7801 6.77728 17.269 4.87375 16.2965 3.19802L12.4045 5.45684C12.9778 6.4448 13.2792 7.56706 13.2778 8.70935L17.7778 8.71478ZM16.2965 3.19802C15.3239 1.52229 13.9247 0.134201 12.2412 -0.824912L10.0136 3.08504C11.0061 3.65051 11.8311 4.46888 12.4045 5.45684L16.2965 3.19802ZM12.237 -0.82731C11.758 -1.09884 11.2179 -1.24423 10.6673 -1.24983L10.6215 3.24994C10.4098 3.24778 10.202 3.19187 10.0178 3.08744L12.237 -0.82731ZM10.6673 -1.24983C10.1167 -1.25544 9.57375 -1.12107 9.08932 -0.859348L11.2283 3.09976C11.042 3.20042 10.8332 3.25209 10.6215 3.24994L10.6673 -1.24983ZM9.08932 -0.859348C8.6049 -0.597624 8.19491 -0.21712 7.89782 0.246458L11.6866 2.6745C11.5723 2.85278 11.4146 2.99911 11.2283 3.09976L9.08932 -0.859348ZM7.89782 0.246458C7.60073 0.710042 7.42629 1.2415 7.39086 1.79095L11.8815 2.08052C11.8679 2.29182 11.8008 2.49621 11.6866 2.6745L7.89782 0.246458ZM7.39011 1.80317C7.35209 2.44732 7.1837 3.07703 6.89513 3.65418L10.9201 5.66663C11.481 4.54467 11.8084 3.32051 11.8823 2.0683L7.39011 1.80317ZM6.89513 3.65418C6.60656 4.23132 6.20382 4.74387 5.71132 5.16077L8.61874 8.59543C9.57616 7.78498 10.3591 6.78859 10.9201 5.66663L6.89513 3.65418ZM5.74509 5.13274L5.51462 5.32024L8.3545 8.81095L8.58497 8.62345L5.74509 5.13274ZM5.67849 5.19884C4.72003 5.84375 3.87165 6.63877 3.16592 7.55337L6.7286 10.3024C7.13926 9.77023 7.63292 9.30762 8.19063 8.93235L5.67849 5.19884ZM3.18497 7.52903C2.09997 8.89591 1.34835 10.4968 0.989735 12.2047L5.3937 13.1294C5.60866 12.1057 6.05919 11.1461 6.70955 10.3268L3.18497 7.52903ZM0.989735 12.2047C0.631118 13.9126 0.675361 15.6806 1.11896 17.3685L5.47116 16.2247C5.20526 15.2129 5.17874 14.1532 5.3937 13.1294L0.989735 12.2047ZM1.11896 17.3685C1.56255 19.0563 2.3933 20.6176 3.54531 21.9285L6.92554 18.958C6.23501 18.1722 5.73705 17.2364 5.47116 16.2247L1.11896 17.3685ZM3.54531 21.9285C4.69733 23.2394 6.13893 24.2639 7.75579 24.9207L9.44935 20.7515C8.48019 20.3578 7.61607 19.7438 6.92554 18.958L3.54531 21.9285ZM7.75149 24.9189C8.24508 25.1206 8.78074 25.1978 9.31121 25.1435L8.85338 20.6669C9.05754 20.646 9.2637 20.6757 9.45366 20.7533L7.75149 24.9189ZM9.31121 25.1435C9.84167 25.0893 10.3506 24.9053 10.7932 24.6079L8.28302 20.873C8.45334 20.7585 8.64922 20.6877 8.85338 20.6669L9.31121 25.1435ZM10.7932 24.6079C11.2357 24.3104 11.5983 23.9086 11.8489 23.438L7.87672 21.3233C7.97316 21.1421 8.11269 20.9875 8.28302 20.873L10.7932 24.6079ZM11.8489 23.438C12.0995 22.9673 12.2304 22.4422 12.23 21.9089L7.73003 21.9117C7.7299 21.7065 7.78028 21.5044 7.87672 21.3233L11.8489 23.438ZM12.23 21.8951C12.2277 21.5617 12.175 21.2305 12.0735 20.9129L7.78701 22.2827C7.75009 22.1672 7.7309 22.0468 7.73008 21.9255L12.23 21.8951ZM12.1046 21.0194C11.953 20.4496 11.9094 19.8565 11.9759 19.2707L7.50465 18.7629C7.37478 19.9064 7.45998 21.0641 7.75586 22.1763L12.1046 21.0194ZM7.7524 20.0707C8.93509 22.3014 10.8335 24.0696 13.1425 25.091L14.963 20.9757C13.5773 20.3627 12.4379 19.3015 11.7282 17.9628L7.7524 20.0707ZM13.134 25.0872C13.8683 25.4157 14.6985 25.46 15.4636 25.2113L14.0726 20.9317C14.3678 20.8357 14.6882 20.8527 14.9716 20.9795L13.134 25.0872ZM15.4592 25.2127C17.2839 24.6238 18.9277 23.578 20.2343 22.1749L16.9412 19.1081C16.1574 19.9497 15.1715 20.577 14.077 20.9302L15.4592 25.2127ZM20.2343 22.1749C21.541 20.7718 22.4672 19.0578 22.9249 17.1959L18.555 16.1216C18.2805 17.2384 17.725 18.2665 16.9412 19.1081L20.2343 22.1749ZM22.9249 17.1959C23.3827 15.334 23.3567 13.3859 22.8495 11.5369L18.5098 12.7273C18.814 13.8364 18.8296 15.0048 18.555 16.1216L22.9249 17.1959ZM22.8495 11.5369C22.3422 9.68783 21.3706 7.99919 20.027 6.6314L16.8168 9.78493C17.6228 10.6053 18.2055 11.6182 18.5098 12.7273L22.8495 11.5369ZM15.5343 19.0323C14.9442 18.7332 14.4237 18.3133 14.0066 17.7999L10.514 20.6375C11.3293 21.641 12.3467 22.4617 13.5 23.0462L15.5343 19.0323ZM14.0066 17.7999C13.5895 17.2865 13.2851 16.6911 13.1132 16.0523L8.76774 17.2215C9.10369 18.4701 9.69867 19.634 10.514 20.6375L14.0066 17.7999ZM13.1263 16.1034C13.0683 15.8659 13.0235 15.6254 12.992 15.383L8.52954 15.963C8.58234 16.3693 8.65748 16.7723 8.75461 17.1703L13.1263 16.1034ZM12.9896 15.3648C12.8967 14.6936 12.5965 14.0683 12.1308 13.5761L8.86217 16.669C8.68312 16.4798 8.56767 16.2393 8.53198 15.9812L12.9896 15.3648ZM12.1308 13.5761C11.6651 13.084 11.0573 12.7496 10.3923 12.6199L9.53067 17.0367C9.27496 16.9868 9.04124 16.8582 8.86217 16.669L12.1308 13.5761ZM10.3967 12.6208C10.1892 12.5799 9.9782 12.5594 9.7667 12.5597L9.77337 17.0597C9.69039 17.0599 9.6076 17.0518 9.52618 17.0358L10.3967 12.6208ZM9.77084 12.5597C9.19945 12.5595 8.6381 12.71 8.14341 12.996L10.3955 16.8919C10.2051 17.0019 9.9891 17.0598 9.76922 17.0597L9.77084 12.5597ZM8.14341 12.996C7.64873 13.2819 7.23818 13.6932 6.95318 14.1885L10.8535 16.433C10.7438 16.6236 10.5858 16.7818 10.3955 16.8919L8.14341 12.996ZM6.95682 14.1822C5.9187 15.9728 5.39663 18.0158 5.44847 20.0849L9.94706 19.9722C9.91603 18.7338 10.2285 17.511 10.8498 16.4393L6.95682 14.1822ZM9.07882 18.2522C8.58412 17.8676 8.17067 17.3886 7.86245 16.843L3.94443 19.0564C4.54555 20.1205 5.35189 21.0546 6.3167 21.8048L9.07882 18.2522ZM7.86245 16.843C7.55422 16.2974 7.35735 15.6961 7.28324 15.0738L2.81482 15.606C2.95935 16.8195 3.34331 17.9923 3.94443 19.0564L7.86245 16.843ZM7.28324 15.0738C7.20913 14.4516 7.25926 13.8208 7.43072 13.2181L3.10245 11.9868C2.76805 13.1623 2.67029 14.3924 2.81482 15.606L7.28324 15.0738ZM7.43072 13.2181C7.60218 12.6153 7.89156 12.0526 8.28209 11.5626L4.76285 8.75812C4.00121 9.71389 3.43684 10.8113 3.10245 11.9868L7.43072 13.2181ZM8.30532 11.5329C8.59259 11.1598 8.93913 10.8363 9.33114 10.5754L6.8378 6.8293C6.03599 7.36297 5.32718 8.02458 4.73962 8.78778L8.30532 11.5329ZM9.30457 10.5928C9.40848 10.5257 9.50812 10.4523 9.60292 10.373L6.71446 6.92235C6.76208 6.88248 6.81215 6.84559 6.86437 6.81188L9.30457 10.5928ZM8.15869 8.64766C9.59302 10.3812 9.59302 10.3812 9.59301 10.3812C9.59301 10.3812 9.59301 10.3812 9.59301 10.3812C9.59302 10.3812 9.59302 10.3812 9.59304 10.3812C9.59306 10.3812 9.5931 10.3811 9.59316 10.3811C9.59328 10.381 9.59346 10.3808 9.59372 10.3806C9.59422 10.3802 9.595 10.3796 9.59603 10.3787C9.5981 10.377 9.60117 10.3745 9.6051 10.3712C9.61298 10.3647 9.6243 10.3553 9.63794 10.3441C9.66532 10.3215 9.70159 10.2915 9.73789 10.2617C9.77484 10.2313 9.80922 10.2031 9.83379 10.1831C9.83972 10.1782 9.84447 10.1744 9.84812 10.1714C9.85198 10.1683 9.85344 10.1672 9.85307 10.1674C9.85282 10.1676 9.85134 10.1688 9.84892 10.1707C9.84679 10.1724 9.84181 10.1763 9.83497 10.1816C9.82996 10.1855 9.81446 10.1974 9.79369 10.2126C9.78361 10.22 9.76345 10.2347 9.73736 10.2526C9.72514 10.261 9.65337 10.3107 9.55624 10.3645L7.3748 6.42861C7.27735 6.48262 7.20513 6.53263 7.19232 6.54141C7.16564 6.55971 7.14474 6.57489 7.13381 6.5829C7.11132 6.59938 7.09358 6.61302 7.08584 6.61899C7.06855 6.63233 7.05363 6.64421 7.04578 6.65047C7.02812 6.66457 7.00904 6.68004 6.99282 6.69325C6.9589 6.72086 6.91721 6.75508 6.87871 6.78675C6.83957 6.81896 6.80104 6.85075 6.77247 6.87434C6.75814 6.88618 6.7462 6.89605 6.73782 6.90298C6.73362 6.90645 6.73031 6.90919 6.72802 6.91108C6.72687 6.91203 6.72598 6.91276 6.72537 6.91327C6.72506 6.91353 6.72482 6.91372 6.72465 6.91386C6.72457 6.91393 6.7245 6.91399 6.72445 6.91403C6.72443 6.91405 6.72441 6.91407 6.72439 6.91408C6.72439 6.91408 6.72438 6.91409 6.72437 6.91409C6.72437 6.9141 6.72436 6.91411 8.15869 8.64766ZM9.91856 10.1145C11.7007 8.60707 12.9683 6.5813 13.5446 4.31942L9.18393 3.20832C8.83879 4.56284 8.07972 5.77596 7.01248 6.67866L9.91856 10.1145ZM9.83692 5.41606C10.5626 6.08686 11.0464 6.97848 11.2134 7.95247L15.6487 7.19228C15.3143 5.24131 14.3451 3.45534 12.8916 2.11167L9.83692 5.41606ZM11.2134 7.95247C11.3803 8.92646 11.221 9.92832 10.7601 10.8025L14.7408 12.901C15.6639 11.15 15.9831 9.14325 15.6487 7.19228L11.2134 7.95247ZM10.7559 10.8106C10.4588 11.3798 10.3369 12.0242 10.4056 12.6625L14.8798 12.1808C14.9062 12.4263 14.8594 12.674 14.7451 12.8929L10.7559 10.8106ZM10.4056 12.6625C10.4744 13.3008 10.7306 13.9045 11.142 14.3973L14.5967 11.5137C14.7548 11.7033 14.8534 11.9354 14.8798 12.1808L10.4056 12.6625ZM11.142 14.3973C11.5534 14.8902 12.1015 15.2502 12.7173 15.4319L13.9909 11.1159C14.2277 11.1858 14.4385 11.3242 14.5967 11.5137L11.142 14.3973ZM12.7173 15.4319C13.333 15.6136 13.9888 15.6089 14.6019 15.4184L13.2663 11.1211C13.502 11.0479 13.7542 11.0461 13.9909 11.1159L12.7173 15.4319ZM14.6071 15.4167C16.5776 14.7991 18.3116 13.5925 19.5756 11.9595L16.0171 9.20502C15.316 10.1109 14.3541 10.7801 13.2611 11.1228L14.6071 15.4167ZM15.9332 11.8436C16.334 12.4356 16.596 13.1103 16.6997 13.8176L21.1521 13.1646C20.9501 11.7874 20.4399 10.4735 19.6596 9.32087L15.9332 11.8436ZM16.6997 13.8176C16.8034 14.5249 16.7462 15.2465 16.5323 15.9285L20.8261 17.2751C21.2426 15.9469 21.3541 14.5418 21.1521 13.1646L16.6997 13.8176ZM16.5323 15.9285C16.3184 16.6106 15.9533 17.2356 15.4643 17.757L18.7465 20.8356C19.6987 19.8203 20.4096 18.6033 20.8261 17.2751L16.5323 15.9285ZM15.4643 17.757C14.9753 18.2784 14.3749 18.6827 13.7079 18.9398L15.3263 23.1387C16.6251 22.6381 17.7942 21.8508 18.7465 20.8356L15.4643 17.757ZM16.0818 22.6561L16.0818 22.6561L12.9524 19.4224L12.9524 19.4224L16.0818 22.6561Z" fill="currentColor" mask="url(#path-1-inside-1)"/>
</svg>
