<svg width="24" height="24" viewBox="0 0 24 24" fill="none" xmlns="http://www.w3.org/2000/svg">
  <path d="M5.27796 9.06708C6.63591 7.12168 9.4331 4 13.4009 4C19.1647 4 22.4583 10.5872 22.4583 10.5872C22.4583 10.5872 19.1647 17.1744 13.4009 17.1744C12.5187 17.1744 11.6943 17.0201 10.9307 16.7586M15.8711 10.5872C15.8711 11.9515 14.7652 13.0574 13.4009 13.0574C12.0367 13.0574 10.9307 11.9515 10.9307 10.5872C10.9307 9.22295 12.0367 8.117 13.4009 8.117C14.7652 8.117 15.8711 9.22295 15.8711 10.5872Z" stroke="currentColor" stroke-width="1.52012" stroke-linecap="round" stroke-linejoin="round"/>
  <path d="M9.41342 14.6959L6.2491 11.5279C6.18892 11.4702 6.11794 11.425 6.04026 11.3948C5.88618 11.3314 5.71336 11.3314 5.55928 11.3948C5.4816 11.425 5.41062 11.4702 5.35044 11.5279L2.18612 14.6959C2.12711 14.7549 2.08031 14.8251 2.04837 14.9023C2.01644 14.9795 2 15.0622 2 15.1457C2 15.3145 2.06695 15.4763 2.18612 15.5956C2.30529 15.7149 2.46692 15.7819 2.63545 15.7819C2.80399 15.7819 2.96562 15.7149 3.08479 15.5956L5.16691 13.5047L5.16691 19.8344C5.16691 20.0024 5.23358 20.1636 5.35227 20.2824C5.47095 20.4013 5.63192 20.468 5.79977 20.468C5.96762 20.468 6.12859 20.4013 6.24727 20.2824C6.36596 20.1636 6.43263 20.0024 6.43263 19.8344L6.43263 13.5047L8.51475 15.5956C8.57359 15.655 8.64358 15.7021 8.7207 15.7343C8.79782 15.7664 8.88054 15.783 8.96409 15.783C9.04763 15.783 9.13035 15.7664 9.20747 15.7343C9.28459 15.7021 9.35459 15.655 9.41342 15.5956C9.47274 15.5367 9.51982 15.4666 9.55195 15.3894C9.58408 15.3122 9.60062 15.2294 9.60062 15.1457C9.60062 15.0621 9.58408 14.9793 9.55195 14.9021C9.51982 14.8249 9.47274 14.7548 9.41342 14.6959Z" fill="currentColor"/>
</svg>
