<svg xmlns="http://www.w3.org/2000/svg" width="24" height="24" fill="none"><path stroke="currentColor" stroke-linecap="round" stroke-linejoin="round" stroke-width="2" d="M7 20H4a2 2 0 0 1-2-2V5c0-1.1.9-2 2-2h3.93a2 2 0 0 1 1.66.9l.82 1.2a2 2 0 0 0 1.66.9H20a2 2 0 0 1 2 2"/><path stroke="currentColor" stroke-linecap="round" stroke-linejoin="round" stroke-width="1.8" d="M16 22a6 6 0 1 0 0-12 6 6 0 0 0 0 12ZM10 16h12"/><path stroke="currentColor" stroke-linecap="round" stroke-linejoin="round" stroke-width="1.8" d="M16 10a9.18 9.18 0 0 1 2.4 6 9.18 9.18 0 0 1-2.4 6 9.18 9.18 0 0 1-2.4-6 9.18 9.18 0 0 1 2.4-6Z"/></svg>