<svg width="24" height="24" viewBox="0 0 24 24" fill="none" xmlns="http://www.w3.org/2000/svg">
<path d="M11.9947 2.24707C9.62096 2.24717 7.32472 3.0919 5.51684 4.63011C3.70896 6.16832 2.5074 8.29963 2.12716 10.6427C1.74692 12.9858 2.21282 15.3877 3.44148 17.4187C4.67015 19.4497 6.5814 20.9772 8.83327 21.7279C9.3331 21.8154 9.52053 21.5155 9.52053 21.2531C9.52053 21.0157 9.50803 20.2284 9.50803 19.3912C6.99637 19.8536 6.34659 18.779 6.14666 18.2167C5.92481 17.6698 5.57313 17.1851 5.12201 16.8046C4.77213 16.6172 4.2723 16.1548 5.10951 16.1424C5.42918 16.1771 5.73579 16.2883 6.00334 16.4667C6.2709 16.645 6.49151 16.8852 6.64649 17.167C6.78322 17.4126 6.96706 17.6288 7.1875 17.8033C7.40793 17.9777 7.66062 18.1069 7.93109 18.1835C8.20155 18.2602 8.48448 18.2827 8.76365 18.2497C9.04282 18.2168 9.31276 18.1291 9.55798 17.9917C9.60126 17.4835 9.82775 17.0083 10.1953 16.6547C7.97104 16.4048 5.64683 15.5425 5.64683 11.7189C5.63279 10.7254 5.9994 9.76412 6.67148 9.03229C6.36587 8.16881 6.40163 7.22119 6.77145 6.38319C6.77145 6.38319 7.60863 6.12077 9.52051 7.40784C11.1562 6.95797 12.8831 6.95797 14.5188 7.40784C16.4306 6.10829 17.2679 6.38319 17.2679 6.38319C17.6378 7.22118 17.6735 8.16881 17.3678 9.03229C18.042 9.76287 18.4089 10.7249 18.3925 11.7189C18.3925 15.555 16.0558 16.4048 13.8315 16.6547C14.0701 16.8965 14.2539 17.1868 14.3703 17.5059C14.4867 17.825 14.5331 18.1654 14.5063 18.5041C14.5063 19.8411 14.4938 20.9157 14.4938 21.2531C14.4938 21.5156 14.6812 21.8279 15.1811 21.728C17.429 20.9711 19.3347 19.44 20.5582 17.408C21.7816 15.3759 22.2431 12.9752 21.8602 10.6345C21.4773 8.29366 20.275 6.16511 18.4679 4.62877C16.6608 3.09243 14.3666 2.2483 11.9947 2.24707Z" fill="#C0C1C3"/>
</svg>
