<svg width="24" height="24" viewBox="0 0 24 24" fill="none" xmlns="http://www.w3.org/2000/svg">
<path fill-rule="evenodd" clip-rule="evenodd" d="M5.66879 4.38304C7.47667 2.84483 9.7729 2.0001 12.1466 2C14.5185 2.00123 16.8128 2.84536 18.6199 4.3817C20.427 5.91804 21.6293 8.04659 22.0121 10.3874C22.2242 11.6839 22.1772 12.9987 21.8853 14.2591C21.5945 14.0942 21.2582 14 20.9 14H18.0693C18.3693 13.3485 18.5444 12.5221 18.5444 11.4718C18.5608 10.4779 18.1939 9.5158 17.5198 8.78522C17.8255 7.92174 17.7897 6.97411 17.4198 6.13612C17.4198 6.13612 16.5826 5.86122 14.6708 7.16077C13.035 6.7109 11.3082 6.7109 9.67246 7.16077C7.76058 5.8737 6.9234 6.13612 6.9234 6.13612C6.55358 6.97412 6.51782 7.92173 6.82343 8.78522C6.15135 9.51705 5.78473 10.4783 5.79878 11.4718C5.79878 15.0968 7.8877 16.0601 10 16.3634V16.8445C9.83745 17.1166 9.73723 17.424 9.70993 17.7446C9.4647 17.8821 9.19477 17.9697 8.9156 18.0027C8.63643 18.0356 8.3535 18.0131 8.08303 17.9365C7.81257 17.8599 7.55988 17.7306 7.33945 17.5562C7.11901 17.3818 6.93516 17.1655 6.79844 16.9199C6.64346 16.6382 6.42284 16.3979 6.15529 16.2196C5.88774 16.0412 5.58113 15.93 5.26145 15.8953C4.42425 15.9078 4.92408 16.3701 5.27396 16.5575C5.72508 16.9381 6.07676 17.4227 6.29861 17.9696C6.49854 18.5319 7.14832 19.6065 9.65998 19.1442C9.65998 19.6905 9.6653 20.2155 9.669 20.5804C9.67097 20.7746 9.67248 20.9235 9.67248 21.006C9.67248 21.2685 9.48504 21.5684 8.98522 21.4809C6.73335 20.7301 4.82209 19.2026 3.59343 17.1716C2.36477 15.1406 1.89887 12.7387 2.27911 10.3956C2.65935 8.05256 3.86091 5.92125 5.66879 4.38304Z" fill="#C0C1C3"/>
<rect x="10.4642" y="14.4642" width="11.9715" height="3.88613" rx="1.4573" fill="#C0C1C3" stroke="#16181D" stroke-width="0.971532"/>
<rect x="12.1938" y="16.164" width="0.514234" height="0.485766" rx="0.242883" fill="#191B1F" stroke="#16181D" stroke-width="0.485766"/>
<rect x="17.1939" y="16.164" width="3.51423" height="0.485766" rx="0.242883" fill="#191B1F" stroke="#16181D" stroke-width="0.485766"/>
<rect x="10.4642" y="18.3505" width="11.9715" height="3.88613" rx="1.4573" fill="#C0C1C3" stroke="#16181D" stroke-width="0.971532"/>
<rect x="12.1938" y="20.0505" width="0.514234" height="0.485766" rx="0.242883" fill="#191B1F" stroke="#16181D" stroke-width="0.485766"/>
<rect x="17.1939" y="20.0505" width="3.51423" height="0.485766" rx="0.242883" fill="#191B1F" stroke="#16181D" stroke-width="0.485766"/>
</svg>
