<svg width="24" height="24" viewBox="0 0 24 24" fill="none" xmlns="http://www.w3.org/2000/svg">
<path d="M20.8867 9.93399L20.8611 9.86864L18.3854 3.40751C18.335 3.28088 18.2458 3.17345 18.1306 3.10065C18.0153 3.02909 17.8808 2.99462 17.7453 3.0019C17.6099 3.00919 17.4799 3.05787 17.3729 3.14138C17.2671 3.22728 17.1904 3.34369 17.1532 3.47476L15.4815 8.58911H8.71261L7.04098 3.47476C7.00472 3.34298 6.92783 3.22599 6.82125 3.14043C6.7143 3.05692 6.5843 3.00824 6.44881 3.00096C6.31332 2.99367 6.17885 3.02814 6.06357 3.09971C5.94861 3.1728 5.8595 3.28013 5.8088 3.40657L3.32834 9.86485L3.30371 9.9302C2.94732 10.8614 2.90333 11.8832 3.17837 12.8416C3.45342 13.8 4.03258 14.643 4.82855 15.2434L4.83707 15.2501L4.8598 15.2662L8.63116 18.0904L10.497 19.5026L11.6335 20.3606C11.7664 20.4616 11.9287 20.5162 12.0957 20.5162C12.2626 20.5162 12.4249 20.4616 12.5578 20.3606L13.6944 19.5026L15.5602 18.0904L19.3542 15.2491L19.3637 15.2415C20.1579 14.641 20.7357 13.7988 21.0103 12.8418C21.285 11.8847 21.2416 10.8643 20.8867 9.93399Z" fill="#E24329"/>
<path d="M20.8867 9.934L20.8611 9.86865C19.6548 10.1163 18.518 10.6272 17.532 11.3651L12.0947 15.4764C13.9463 16.8772 15.5583 18.0942 15.5583 18.0942L19.3524 15.2529L19.3618 15.2453C20.1571 14.6448 20.7359 13.8021 21.0109 12.8442C21.2859 11.8863 21.2423 10.865 20.8867 9.934Z" fill="#FC6D26"/>
<path d="M8.63118 18.0942L10.497 19.5064L11.6335 20.3644C11.7664 20.4654 11.9288 20.52 12.0957 20.52C12.2626 20.52 12.4249 20.4654 12.5579 20.3644L13.6944 19.5064L15.5602 18.0942C15.5602 18.0942 13.9463 16.8734 12.0947 15.4764C10.2431 16.8734 8.63118 18.0942 8.63118 18.0942Z" fill="#FCA326"/>
<path d="M6.65645 11.3652C5.67127 10.6258 4.53476 10.1135 3.32834 9.86499L3.30371 9.93034C2.94732 10.8615 2.90333 11.8834 3.17837 12.8417C3.45342 13.8001 4.03258 14.6431 4.82855 15.2436L4.83707 15.2502L4.8598 15.2663L8.63116 18.0906C8.63116 18.0906 10.2412 16.8735 12.0947 15.4728L6.65645 11.3652Z" fill="#FC6D26"/>
</svg>
