<svg width="24" height="24" viewBox="0 0 24 24" fill="none" xmlns="http://www.w3.org/2000/svg">
<path d="M2.66052 10.3087C2.61768 10.3087 2.60696 10.2873 2.62839 10.2551L2.85333 9.96591C2.87475 9.93378 2.92831 9.91235 2.97115 9.91235H6.79514C6.83799 9.91235 6.8487 9.94449 6.82727 9.97662L6.64518 10.2551C6.62376 10.2873 6.5702 10.3194 6.53807 10.3194L2.66052 10.3087Z" fill="#00ACD7"/>
<path d="M1.04285 11.2943C1 11.2943 0.989289 11.2728 1.01071 11.2407L1.23565 10.9515C1.25707 10.9194 1.31063 10.8979 1.35348 10.8979H6.2379C6.28074 10.8979 6.30217 10.9301 6.29145 10.9622L6.20576 11.2193C6.19505 11.2621 6.15221 11.2836 6.10936 11.2836L1.04285 11.2943Z" fill="#00ACD7"/>
<path d="M3.63513 12.2796C3.59229 12.2796 3.58157 12.2475 3.603 12.2154L3.75296 11.9476C3.77438 11.9154 3.81723 11.8833 3.86007 11.8833H6.00236C6.04521 11.8833 6.06663 11.9154 6.06663 11.9583L6.04521 12.2154C6.04521 12.2582 6.00236 12.2903 5.97023 12.2903L3.63513 12.2796Z" fill="#00ACD7"/>
<path d="M14.7535 10.116C14.0787 10.2874 13.6181 10.4159 12.954 10.5873C12.7933 10.6301 12.7826 10.6409 12.6434 10.4802C12.4827 10.2981 12.3649 10.1803 12.1399 10.0731C11.4651 9.74109 10.8117 9.8375 10.2012 10.2338C9.47277 10.7051 9.09787 11.4014 9.10858 12.269C9.11929 13.1259 9.70842 13.8329 10.5546 13.9507C11.283 14.0471 11.8936 13.79 12.3756 13.2437C12.472 13.1259 12.5577 12.9974 12.6648 12.8474C12.2792 12.8474 11.7972 12.8474 10.5975 12.8474C10.3725 12.8474 10.319 12.7082 10.394 12.5261C10.5332 12.194 10.7903 11.637 10.9402 11.3585C10.9724 11.2943 11.0474 11.1871 11.208 11.1871C11.7543 11.1871 13.7681 11.1871 15.107 11.1871C15.0856 11.4763 15.0856 11.7656 15.0427 12.0548C14.9249 12.826 14.6357 13.5329 14.1644 14.1542C13.3932 15.1718 12.3863 15.8038 11.1116 15.9752C10.0619 16.1144 9.08716 15.9109 8.23024 15.2682C7.4376 14.6684 6.98772 13.8757 6.86989 12.8903C6.73064 11.7227 7.07341 10.673 7.78036 9.75181C8.54088 8.75564 9.54775 8.12367 10.7796 7.89873C11.7864 7.71663 12.7505 7.83446 13.6181 8.42359C14.1858 8.79849 14.5928 9.31264 14.8606 9.9339C14.9249 10.0303 14.8821 10.0839 14.7535 10.116Z" fill="#00ACD7"/>
<path d="M18.299 16.0394C17.3242 16.0179 16.4352 15.7394 15.6854 15.0968C15.0534 14.5505 14.6571 13.8542 14.5286 13.0294C14.3357 11.819 14.6678 10.7479 15.3962 9.79459C16.1781 8.76629 17.1207 8.23072 18.3954 8.00577C19.488 7.81297 20.5163 7.92008 21.4482 8.55206C22.2944 9.13048 22.8192 9.91241 22.9585 10.9407C23.1406 12.3868 22.7228 13.565 21.7266 14.5719C21.0197 15.2896 20.1521 15.7394 19.1559 15.943C18.8667 15.9965 18.5775 16.0072 18.299 16.0394ZM20.8483 11.7119C20.8376 11.5727 20.8376 11.4656 20.8162 11.3585C20.6234 10.298 19.6486 9.69818 18.631 9.93384C17.6349 10.1588 16.9922 10.7908 16.7565 11.7976C16.5637 12.6331 16.9708 13.4793 17.742 13.8221C18.3311 14.0792 18.9202 14.047 19.488 13.7578C20.3342 13.3187 20.7948 12.6331 20.8483 11.7119Z" fill="#00ACD7"/>
</svg>
