<svg width="24" height="24" viewBox="0 0 24 24" fill="none" xmlns="http://www.w3.org/2000/svg">
<path d="M4.14001 7.732L7.86001 4L11.58 7.732L7.86001 11.476L4.14001 7.732Z" fill="white"/>
<path d="M0 11.896L3.72 8.152L7.44 11.896L3.72 15.64L0 11.896Z" fill="#F5F5F5"/>
<path d="M4.14001 16.06L7.86001 12.316L11.58 16.06L7.86001 19.804L4.14001 16.06Z" fill="#EEEEEE"/>
<path d="M12.42 7.732L16.14 4L19.86 7.732L16.14 11.476L12.42 7.732Z" fill="white"/>
<path d="M16.56 11.896L20.28 8.152L24 11.896L20.28 15.64L16.56 11.896Z" fill="#F5F5F5"/>
<path d="M12.42 16.06L16.14 12.316L19.86 16.06L16.14 19.804L12.42 16.06Z" fill="#EEEEEE"/>
</svg>
