<svg width="24" height="24" viewBox="0 0 24 24" fill="none" xmlns="http://www.w3.org/2000/svg">
<path d="M15.273 7.3355L16.0418 7.34863L18.1305 5.25988L18.2318 4.37488C16.575 2.89888 14.3876 2 11.9974 2C7.66987 2 4.01737 4.9445 2.93625 8.933C3.16425 8.774 3.65175 8.89325 3.65175 8.89325L7.8255 8.207C7.8255 8.207 8.04 7.85188 8.14875 7.8695C8.63679 7.33332 9.23147 6.90501 9.89467 6.61203C10.5579 6.31904 11.275 6.16785 12 6.16813C13.2375 6.17075 14.3775 6.608 15.273 7.33138V7.3355Z" fill="white"/>
<path d="M21.0637 8.94125C20.5789 7.1525 19.5795 5.573 18.2306 4.37488L15.273 7.3325C16.458 8.28875 17.2181 9.752 17.2181 11.39V11.912C18.657 11.912 19.8259 13.0835 19.8259 14.5198C19.8259 15.9586 18.6544 17.1275 17.2181 17.1275H12.0026L11.4806 17.6525V20.7822L12.0026 21.3016H17.2181C19.016 21.2991 20.7395 20.5839 22.0108 19.3127C23.2821 18.0414 23.9974 16.318 24 14.5201C23.9974 12.212 22.8375 10.1701 21.0637 8.94163V8.94125Z" fill="#F5F5F5"/>
<path d="M6.78189 21.305H11.9944V17.1275H6.78189C6.41156 17.1276 6.04554 17.048 5.70864 16.8943L4.95602 17.1249L2.86727 19.2136L2.68427 19.9186C3.86135 20.8166 5.30101 21.3027 6.78152 21.302L6.78189 21.305Z" fill="#EEEEEE"/>
<path d="M6.78188 7.74125C4.98404 7.74373 3.26054 8.45899 1.98924 9.73022C0.717937 11.0015 0.0025794 12.7249 0 14.5228C0 16.7251 1.05487 18.6834 2.68725 19.9239L5.71125 16.8999C5.25353 16.6935 4.86506 16.3594 4.59242 15.9378C4.31978 15.5162 4.17454 15.0249 4.17413 14.5228C4.17413 13.0839 5.34563 11.915 6.78188 11.915C7.83938 11.915 8.74838 12.5525 9.15938 13.4525L12.1834 10.4285C10.9433 8.79613 8.98463 7.74125 6.78225 7.74125H6.78188Z" fill="#C0C1C3"/>
</svg>
