<svg width="24" height="24" viewBox="0 0 24 24" fill="none" xmlns="http://www.w3.org/2000/svg">
<g clip-path="url(#clip0_913_255)">
<path d="M12 23C18.0751 23 23 18.0751 23 12C23 5.92487 18.0751 1 12 1C5.92487 1 1 5.92487 1 12C1 18.0751 5.92487 23 12 23Z" fill="white"/>
<path opacity="0.8" fill-rule="evenodd" clip-rule="evenodd" d="M12 1C18.075 1 23 5.925 23 12C23 18.075 18.075 23 12 23V17.841H15.099C15.345 18.828 16.231 19.562 17.294 19.562C18.547 19.562 19.562 18.547 19.562 17.294C19.562 16.041 18.547 15.025 17.294 15.025C16.231 15.025 15.345 15.759 15.099 16.746H12V11.791H15.099C15.345 12.778 16.231 13.513 17.294 13.513C18.547 13.513 19.562 12.497 19.562 11.244C19.562 9.991 18.547 8.975 17.294 8.975C16.231 8.975 15.345 9.709 15.099 10.696H12V1ZM18.05 17.2938C18.05 17.7118 17.711 18.0498 17.294 18.0498C16.876 18.0498 16.538 17.7118 16.538 17.2938C16.538 16.8758 16.876 16.5378 17.294 16.5378C17.711 16.5378 18.05 16.8758 18.05 17.2938Z" fill="#3775CB"/>
<path fill-rule="evenodd" clip-rule="evenodd" d="M7.254 16.746V11.792H12V16.746H7.254ZM7.25396 17.8414H12V23.0004C5.92495 23.0004 0.999901 18.0754 0.999901 12.0004C0.999901 5.9244 5.92495 1.0004 12 1.0004V10.6964H7.25396V8.9004C8.24097 8.6544 8.97497 7.7694 8.97497 6.7064C8.97497 5.4534 7.95896 4.4374 6.70595 4.4374C5.45294 4.4374 4.43793 5.4534 4.43793 6.7064C4.43793 7.7694 5.17194 8.6544 6.15895 8.9004V17.8414H6.38595H7.25396Z" fill="#4287DE"/>
</g>
<defs>
<clipPath id="clip0_913_255">
<rect width="24" height="24" fill="white"/>
</clipPath>
</defs>
</svg>
