<svg width="24" height="24" viewBox="0 0 24 24" fill="none" xmlns="http://www.w3.org/2000/svg">
<path d="M20.8396 4.60987C20.3289 4.09888 19.7224 3.69352 19.055 3.41696C18.3875 3.14039 17.6721 2.99805 16.9496 2.99805C16.2271 2.99805 15.5117 3.14039 14.8443 3.41696C14.1768 3.69352 13.5704 4.09888 13.0596 4.60987L11.9996 5.66987L10.9396 4.60987C9.90794 3.57818 8.50866 2.99858 7.04963 2.99858C5.5906 2.99858 4.19132 3.57818 3.15963 4.60987C2.12794 5.64156 1.54834 7.04084 1.54834 8.49987C1.54834 9.95891 2.12794 11.3582 3.15963 12.3899L4.21963 13.4499L11.9996 21.2299L19.7796 13.4499L20.8396 12.3899C21.3506 11.8791 21.756 11.2727 22.0325 10.6052C22.3091 9.93777 22.4515 9.22236 22.4515 8.49987C22.4515 7.77738 22.3091 7.06198 22.0325 6.39452C21.756 5.72706 21.3506 5.12063 20.8396 4.60987V4.60987Z" fill="#33CB9A" stroke="#33CB9A" stroke-width="2.02595" stroke-linecap="round" stroke-linejoin="round"/>
</svg>
