<svg width="24" height="24" viewBox="0 0 24 24" fill="none" xmlns="http://www.w3.org/2000/svg">
<path d="M23 12.0548C23 18.1603 18.0752 23.1097 12 23.1097C5.92487 23.1097 1 18.1603 1 12.0548C1 5.94942 5.92487 1 12 1C18.0752 1 23 5.94942 23 12.0548Z" fill="#23262E"/>
<path d="M11.0833 14.2686H12.5729V14.1698C12.5938 12.9718 12.9375 12.4353 13.8229 11.8885C14.7553 11.326 15.3281 10.5343 15.3281 9.36241C15.3281 7.6697 14.0469 6.52388 12.1354 6.52388C10.3802 6.52388 8.97396 7.54991 8.90625 9.42491H10.4896C10.5521 8.32075 11.3385 7.83637 12.1354 7.83637C13.0208 7.83637 13.7396 8.42491 13.7396 9.34678C13.7396 10.1228 13.2552 10.6697 12.6354 11.0551C11.6667 11.6489 11.0937 12.2374 11.0833 14.1698V14.2686ZM11.8698 17.4353C12.4375 17.4353 12.9115 16.9718 12.9115 16.3937C12.9115 15.826 12.4375 15.3571 11.8698 15.3571C11.2969 15.3571 10.8281 15.826 10.8281 16.3937C10.8281 16.9718 11.2969 17.4353 11.8698 17.4353Z" fill="#7B8289"/>
</svg>
