<svg xmlns="http://www.w3.org/2000/svg" width="24" height="24" fill="none"><path stroke="currentColor" stroke-linecap="round" stroke-linejoin="round" stroke-width="2" d="M20.056 16a4.439 4.439 0 0 0 1.694-2.187 4.351 4.351 0 0 0 .054-2.746 4.43 4.43 0 0 0-1.606-2.25 4.566 4.566 0 0 0-2.648-.886h-1.805a6.857 6.857 0 0 0-1.555-2.698 7.023 7.023 0 0 0-2.603-1.755 7.137 7.137 0 0 0-6.134.477 6.964 6.964 0 0 0-2.29 2.135A6.811 6.811 0 0 0 2.06 8.994a6.769 6.769 0 0 0 .305 3.085c.34.992.904 1.896 1.652 2.642"/><g clip-path="url(#a)"><path stroke="currentColor" stroke-linecap="round" stroke-linejoin="round" stroke-width="2" d="M11.532 13v1.068m0 6.864V22M16 17.532h-1.068m-6.864 0H7m1.328-3.204.755.755m4.853 4.853.755.756m0-6.319-.755.756m-4.853 4.853-.755.755m5.455-5.47a3.205 3.205 0 1 1-4.532 4.532 3.205 3.205 0 0 1 4.532-4.533Z"/></g><defs><clipPath id="a"><path fill="currentColor" d="M6 12h11v11H6z"/></clipPath></defs></svg>