<svg width="24" height="24" viewBox="0 0 24 24" fill="none" xmlns="http://www.w3.org/2000/svg">
<path d="M6.99976 5.99999V11C6.99976 11.2652 7.10511 11.5196 7.29265 11.7071C7.48019 11.8946 7.73454 12 7.99976 12H10.9998V20H8.99976C8.73454 20 8.48019 20.1053 8.29265 20.2929C8.10511 20.4804 7.99976 20.7348 7.99976 21C7.99976 21.2652 8.10511 21.5196 8.29265 21.7071C8.48019 21.8946 8.73454 22 8.99976 22H14.9998C15.265 22 15.5193 21.8946 15.7069 21.7071C15.8944 21.5196 15.9998 21.2652 15.9998 21C15.9998 20.7348 15.8944 20.4804 15.7069 20.2929C15.5193 20.1053 15.265 20 14.9998 20H12.9998V12H17.9998C18.1492 12.0005 18.2968 11.9675 18.4317 11.9035C18.5667 11.8395 18.6856 11.746 18.7798 11.63L20.7798 9.12999C20.9218 8.95263 20.9991 8.7322 20.9991 8.50499C20.9991 8.27779 20.9218 8.05735 20.7798 7.87999L18.7798 5.37999C18.6866 5.26214 18.5682 5.16678 18.4331 5.10099C18.2981 5.03521 18.15 5.00068 17.9998 4.99999H12.9998V2.99999C12.9998 2.73478 12.8944 2.48042 12.7069 2.29289C12.5193 2.10535 12.265 1.99999 11.9998 1.99999C11.7345 1.99999 11.4802 2.10535 11.2926 2.29289C11.1051 2.48042 10.9998 2.73478 10.9998 2.99999V4.99999H7.99976C7.73454 4.99999 7.48019 5.10535 7.29265 5.29289C7.10511 5.48042 6.99976 5.73478 6.99976 5.99999ZM8.99976 6.99999H17.5198L18.7198 8.49999L17.5198 9.99999H8.99976V6.99999Z" fill="currentColor"/>
</svg>
