<svg width="24" height="24" viewBox="0 0 24 24" fill="none" xmlns="http://www.w3.org/2000/svg">
<path d="M17.821 7C15.3755 7 13.1328 9.29658 12 10.6857C10.867 9.29658 8.62454 7 6.17902 7C3.3232 7 1 9.32342 1 12.1792C1 15.0351 3.3232 17.3585 6.17902 17.3585C8.62454 17.3585 10.867 15.0619 12 13.6726C13.1326 15.0617 15.3752 17.3585 17.821 17.3585C20.6766 17.3585 23 15.0351 23 12.1792C23 9.32342 20.6766 7 17.821 7ZM6.17902 15.56C4.31496 15.56 2.79828 14.0431 2.79828 12.1792C2.79828 10.315 4.31496 8.79828 6.17902 8.79828C7.91592 8.79828 9.91242 10.9153 10.8877 12.1792C9.9122 13.4436 7.91592 15.56 6.17902 15.56ZM17.821 15.56C16.0836 15.56 14.0865 13.442 13.1117 12.1781C14.0847 10.914 16.0777 8.79784 17.821 8.79784C19.6853 8.79784 21.2015 10.3145 21.2015 12.1788C21.2015 14.0433 19.6853 15.56 17.821 15.56Z" fill="currentColor"/>
</svg>
