<svg width="24" height="24" viewBox="0 0 24 24" fill="none" xmlns="http://www.w3.org/2000/svg">
<path d="M12.0064 2.98202C14.9472 2.98202 15.2955 2.99492 16.452 3.04651C17.5269 3.0938 18.1073 3.27438 18.4942 3.42486C19.0059 3.62263 19.3756 3.8634 19.7583 4.24604C20.1452 4.63299 20.3817 4.99844 20.5794 5.51006C20.7299 5.89701 20.9105 6.48173 20.9578 7.55228C21.0094 8.71311 21.0223 9.06136 21.0223 11.9978C21.0223 14.9386 21.0094 15.2869 20.9578 16.4434C20.9105 17.5183 20.7299 18.0987 20.5794 18.4856C20.3817 18.9973 20.1409 19.367 19.7583 19.7497C19.3713 20.1366 19.0059 20.3731 18.4942 20.5708C18.1073 20.7213 17.5226 20.9019 16.452 20.9492C15.2912 21.0008 14.9429 21.0137 12.0064 21.0137C9.06566 21.0137 8.71741 21.0008 7.56088 20.9492C6.48603 20.9019 5.90561 20.7213 5.51866 20.5708C5.00704 20.3731 4.63729 20.1323 4.25464 19.7497C3.8677 19.3627 3.63123 18.9973 3.43346 18.4856C3.28298 18.0987 3.1024 17.514 3.05511 16.4434C3.00352 15.2826 2.99062 14.9343 2.99062 11.9978C2.99062 9.05706 3.00352 8.70881 3.05511 7.55228C3.1024 6.47743 3.28298 5.89701 3.43346 5.51006C3.63123 4.99844 3.872 4.62869 4.25464 4.24604C4.64159 3.8591 5.00704 3.62263 5.51866 3.42486C5.90561 3.27438 6.49033 3.0938 7.56088 3.04651C8.71741 2.99492 9.06566 2.98202 12.0064 2.98202ZM12.0064 1C9.01837 1 8.64432 1.0129 7.47059 1.06449C6.30115 1.11608 5.49717 1.30526 4.80066 1.57612C4.07407 1.85988 3.45925 2.23393 2.84874 2.84874C2.23393 3.45925 1.85988 4.07407 1.57612 4.79637C1.30526 5.49717 1.11608 6.29685 1.06449 7.46629C1.0129 8.64432 1 9.01837 1 12.0064C1 14.9945 1.0129 15.3686 1.06449 16.5423C1.11608 17.7117 1.30526 18.5157 1.57612 19.2122C1.85988 19.9388 2.23393 20.5536 2.84874 21.1642C3.45925 21.7747 4.07407 22.153 4.79637 22.4325C5.49717 22.7033 6.29685 22.8925 7.46629 22.9441C8.64002 22.9957 9.01407 23.0086 12.0021 23.0086C14.9902 23.0086 15.3643 22.9957 16.538 22.9441C17.7074 22.8925 18.5114 22.7033 19.2079 22.4325C19.9302 22.153 20.545 21.7747 21.1556 21.1642C21.7661 20.5536 22.1444 19.9388 22.4239 19.2165C22.6947 18.5157 22.8839 17.716 22.9355 16.5466C22.9871 15.3729 23 14.9988 23 12.0107C23 9.02267 22.9871 8.64862 22.9355 7.47489C22.8839 6.30545 22.6947 5.50147 22.4239 4.80496C22.153 4.07407 21.779 3.45925 21.1642 2.84874C20.5536 2.23823 19.9388 1.85988 19.2165 1.58042C18.5157 1.30956 17.716 1.12038 16.5466 1.06879C15.3686 1.0129 14.9945 1 12.0064 1Z" fill="#C0C1C3"/>
<path d="M12.0065 6.35275C8.88513 6.35275 6.35278 8.88509 6.35278 12.0064C6.35278 15.1278 8.88513 17.6602 12.0065 17.6602C15.1278 17.6602 17.6602 15.1278 17.6602 12.0064C17.6602 8.88509 15.1278 6.35275 12.0065 6.35275ZM12.0065 15.6738C9.98147 15.6738 8.3391 14.0315 8.3391 12.0064C8.3391 9.98143 9.98147 8.33907 12.0065 8.33907C14.0315 8.33907 15.6739 9.98143 15.6739 12.0064C15.6739 14.0315 14.0315 15.6738 12.0065 15.6738Z" fill="#C0C1C3"/>
<path d="M19.2037 6.12914C19.2037 6.86004 18.6104 7.44906 17.8838 7.44906C17.1529 7.44906 16.5638 6.85574 16.5638 6.12914C16.5638 5.39825 17.1572 4.80923 17.8838 4.80923C18.6104 4.80923 19.2037 5.40255 19.2037 6.12914Z" fill="#C0C1C3"/>
</svg>
