<svg width="24" height="24" viewBox="0 0 24 24" fill="none" xmlns="http://www.w3.org/2000/svg">
<path d="M3.5 3.5H20.5V20.5H3.5V3.5Z" fill="#F7DF1E"/>
<path d="M7.97317 17.7035L9.25127 16.9195C9.49784 17.3626 9.72214 17.7375 10.2602 17.7375C10.7759 17.7375 11.101 17.5331 11.101 16.7377V11.3289H12.6705V16.7602C12.6705 18.4078 11.7176 19.1578 10.3274 19.1578C9.0719 19.1578 8.34309 18.4987 7.97314 17.7034" fill="black"/>
<path d="M13.5659 17.506L14.8749 16.7435C15.2194 17.3096 15.6673 17.7255 16.4595 17.7255C17.1256 17.7255 17.5504 17.3905 17.5504 16.9283C17.5504 16.3738 17.1141 16.1773 16.3791 15.8539L15.9774 15.6805C14.8175 15.1838 14.0481 14.56 14.0481 13.2429C14.0481 12.0298 14.9667 11.1055 16.4022 11.1055C17.4242 11.1055 18.1591 11.4637 18.6872 12.3995L17.4356 13.2082C17.16 12.7114 16.8615 12.515 16.4022 12.515C15.9314 12.515 15.6328 12.8154 15.6328 13.2082C15.6328 13.6934 15.9314 13.8899 16.6203 14.1903L17.0222 14.3636C18.3886 14.9528 19.158 15.5535 19.158 16.9052C19.158 18.361 18.0212 19.1581 16.494 19.1581C15.0013 19.1581 14.0367 18.4418 13.5659 17.506" fill="black"/>
</svg>
