<svg width="24" height="24" viewBox="0 0 24 24" fill="none" xmlns="http://www.w3.org/2000/svg">
<path fill-rule="evenodd" clip-rule="evenodd" d="M9.79794 12.6698C9.79794 12.6698 9.16453 13.0051 10.2492 13.1184C11.5636 13.255 12.235 13.2353 13.683 12.9861C13.683 12.9861 14.0642 13.2033 14.5964 13.3912C11.3494 14.6571 7.24793 13.318 9.79794 12.6698ZM9.40103 11.0178C9.40103 11.0178 8.69044 11.4964 9.77606 11.5985C11.1802 11.7305 12.2885 11.7412 14.2076 11.4052C14.2076 11.4052 14.4726 11.65 14.8896 11.7837C10.9643 12.8283 6.59265 11.8659 9.40103 11.0178Z" fill="#3174B9"/>
<path fill-rule="evenodd" clip-rule="evenodd" d="M12.7463 8.2149C13.5468 9.05321 12.5365 9.80716 12.5365 9.80716C12.5365 9.80716 14.568 8.85318 13.6349 7.65811C12.7638 6.54415 12.0956 5.99074 15.7126 4.08228C15.7125 4.08215 10.0348 5.37198 12.7463 8.2149Z" fill="#CA3132"/>
<path fill-rule="evenodd" clip-rule="evenodd" d="M17.0407 13.8914C17.0407 13.8914 17.5096 14.2432 16.5242 14.5152C14.6506 15.0315 8.72441 15.1873 7.07829 14.5357C6.48698 14.3014 7.5964 13.9765 7.94544 13.9079C8.30947 13.8363 8.51721 13.8494 8.51721 13.8494C7.85918 13.4278 4.26386 14.6774 6.69128 15.0359C13.3104 16.0124 18.7574 14.5963 17.0407 13.8914ZM10.1036 9.30566C10.1036 9.30566 7.08957 9.95721 9.03643 10.194C9.85873 10.2941 11.4967 10.271 13.0237 10.1545C14.2713 10.0592 15.5235 9.85544 15.5235 9.85544C15.5235 9.85544 15.0839 10.0271 14.7654 10.2246C11.7042 10.9573 5.79138 10.616 7.49377 9.86708C8.93311 9.23356 10.1036 9.30566 10.1036 9.30566V9.30566ZM15.511 12.0554C18.6226 10.5846 17.1839 9.17084 16.1795 9.36136C15.9339 9.40806 15.8237 9.44836 15.8237 9.44836C15.8237 9.44836 15.9153 9.31793 16.0895 9.26185C18.0763 8.62657 19.6039 11.136 15.4489 12.1298C15.4488 12.1298 15.4967 12.0905 15.511 12.0554V12.0554Z" fill="#3174B9"/>
<path fill-rule="evenodd" clip-rule="evenodd" d="M13.6331 1C13.6331 1 15.3559 2.5686 11.9985 4.97991C9.30596 6.91491 11.3846 8.01785 11.9977 9.27851C10.4257 7.98831 9.27266 6.85232 10.0461 5.79531C11.1817 4.24373 14.3282 3.49129 13.6331 1Z" fill="#CA3132"/>
<path fill-rule="evenodd" clip-rule="evenodd" d="M10.4092 16.0426C13.3955 16.2164 17.9822 15.9461 18.091 14.6602C18.091 14.6602 17.8821 15.1476 15.6227 15.5343C13.0735 15.9709 9.92891 15.9201 8.06445 15.64C8.06445 15.64 8.44651 15.9277 10.4092 16.0426V16.0426Z" fill="#3174B9"/>
<path fill-rule="evenodd" clip-rule="evenodd" d="M17.9526 18.3488H17.8618V18.3025H18.1068V18.3488H18.016V18.5801H17.9526V18.3488ZM18.4415 18.3603H18.4404L18.3502 18.58H18.3088L18.2191 18.3603H18.218V18.58H18.1577V18.3023H18.2462L18.3293 18.4987L18.4124 18.3023H18.5V18.58H18.4417V18.3603H18.4415ZM9.91941 20.9556C9.63779 21.1777 9.34007 21.3026 9.07276 21.3026C8.69194 21.3026 8.4853 21.0944 8.4853 20.7613C8.4853 20.4007 8.70653 20.1368 9.59198 20.1368H9.91927V20.9556H9.91941ZM10.6967 21.7535V19.2835C10.6967 18.6522 10.3011 18.2356 9.34723 18.2356C8.79072 18.2356 8.30287 18.3607 7.90624 18.52L8.02043 18.9575C8.33286 18.8531 8.73679 18.7564 9.13329 18.7564C9.68278 18.7564 9.91927 18.9575 9.91927 19.374V19.6863H9.64467C8.30989 19.6863 7.70757 20.1575 7.70757 20.8658C7.70757 21.4762 8.10449 21.8232 8.85167 21.8232C9.33195 21.8232 9.69076 21.6428 10.0258 21.3788L10.0867 21.7535H10.6967ZM13.291 21.7535H12.3218L11.1547 18.2985H12.0014L12.7257 20.4216L12.887 21.0595C13.2524 20.1368 13.5117 19.2001 13.6414 18.2985H14.4647C14.2443 19.4361 13.8473 20.6851 13.291 21.7535ZM17.0107 20.9556C16.7283 21.1777 16.4306 21.3026 16.1638 21.3026C15.783 21.3026 15.5766 21.0944 15.5766 20.7613C15.5766 20.4007 15.798 20.1368 16.6829 20.1368H17.0107V20.9556ZM17.7883 21.7535V19.2835C17.7883 18.6522 17.3914 18.2356 16.4385 18.2356C15.8815 18.2356 15.3938 18.3607 14.9971 18.52L15.1113 18.9575C15.4238 18.8531 15.8285 18.7564 16.2252 18.7564C16.7738 18.7564 17.0106 18.9575 17.0106 19.374V19.6863H16.736C15.4011 19.6863 14.7992 20.1575 14.7992 20.8658C14.7992 21.4762 15.1952 21.8232 15.9426 21.8232C16.4233 21.8232 16.7815 21.6428 17.1173 21.3788L17.1786 21.7535H17.7883ZM6.85528 22.3406C6.63378 22.6351 6.27553 22.8683 5.88384 22.9999L5.5 22.5885C5.79841 22.4492 6.05403 22.2243 6.17303 22.015C6.27553 21.8285 6.31831 21.5886 6.31831 21.0146V17.0696H7.14447V20.9601C7.14447 21.7279 7.07705 22.0383 6.85528 22.3406Z" fill="#CA3132"/>
</svg>
