<svg width="24" height="24" viewBox="0 0 24 24" fill="none" xmlns="http://www.w3.org/2000/svg">
<g clip-path="url(#clip0_1132_1320)">
<g clip-path="url(#clip1_1132_1320)">
<path d="M3.97037 21.9144C4.03969 22.1737 4.172 22.3822 4.3673 22.5399C4.56256 22.6976 4.79466 22.7573 5.0636 22.7191L9.27789 22.0472C9.5454 21.9999 9.75426 21.8699 9.90446 21.6572C10.0547 21.4444 10.1087 21.2062 10.0667 20.9425L9.724 18.8365L12.8006 18.353C13.0643 18.311 13.2712 18.1836 13.4214 17.9708C13.5716 17.758 13.6276 17.5172 13.5894 17.2483L13.1408 14.3899C14.6049 14.6553 15.9416 14.5751 17.151 14.1492C18.3604 13.7233 19.3454 12.9859 20.1058 11.937C20.6332 11.2096 20.991 10.4277 21.1793 9.59118C21.3676 8.75468 21.3965 7.91916 21.2658 7.0846C21.135 6.25 20.8478 5.46483 20.4042 4.72908C19.9606 3.99332 19.3751 3.36177 18.6477 2.83442C17.9098 2.29942 17.1236 1.93645 16.289 1.74552C15.4544 1.55457 14.6198 1.52446 13.7852 1.65518C12.9507 1.7859 12.1664 2.07175 11.4326 2.51272C10.6988 2.9537 10.0663 3.54051 9.53508 4.27317C9.02301 4.97947 8.66646 5.74023 8.46545 6.55544C8.26445 7.37062 8.22079 8.19339 8.33447 9.02374C8.44819 9.85404 8.7234 10.6446 9.16011 11.3954L3.74897 18.859C3.65345 18.9908 3.57745 19.1427 3.52099 19.3149C3.46452 19.4871 3.45797 19.6653 3.50134 19.8495L3.97037 21.9144ZM5.42951 21.0664L5.18243 19.5605L11.098 11.4012C10.5806 10.817 10.2223 10.1632 10.0231 9.43981C9.82385 8.71635 9.78795 7.98668 9.91537 7.2508C10.0428 6.51491 10.3377 5.82808 10.8001 5.1903C11.2013 4.63686 11.6809 4.19447 12.2388 3.86313C12.7966 3.53178 13.3915 3.31574 14.0234 3.21501C14.6553 3.11427 15.2905 3.13654 15.929 3.28182C16.5676 3.4271 17.1662 3.70227 17.7249 4.10734C18.4628 4.64234 19.0062 5.30973 19.3552 6.10953C19.7041 6.9093 19.838 7.7422 19.757 8.60823C19.676 9.47425 19.368 10.2762 18.833 11.0141C18.3782 11.6414 17.8173 12.1294 17.1503 12.4781C16.4834 12.8268 15.7621 13.0176 14.9865 13.0503C14.2109 13.0831 13.4363 12.9397 12.6629 12.6201L11.5049 14.2172L11.9254 16.8982L9.05123 17.3354L8.09969 18.6479L8.41989 20.5687L5.42951 21.0664ZM14.7728 8.1791C15.1682 8.46571 15.6068 8.5706 16.0887 8.49378C16.5705 8.41696 16.9567 8.17826 17.2471 7.77767C17.5337 7.38235 17.6386 6.94374 17.5618 6.46185C17.485 5.97996 17.2489 5.59571 16.8536 5.3091C16.453 5.01868 16.0127 4.91056 15.5327 4.98475C15.0528 5.05893 14.6676 5.29632 14.3771 5.69691C14.0867 6.0975 13.9799 6.53874 14.0567 7.02063C14.1335 7.50252 14.3723 7.88868 14.7728 8.1791Z" fill="currentColor"/>
</g>
</g>
<defs>
<clipPath id="clip0_1132_1320">
<rect width="24" height="24" fill="currentColor"/>
</clipPath>
<clipPath id="clip1_1132_1320">
<rect width="13.0566" height="24.4629" fill="currentColor" transform="translate(13.3584 -1.00037) rotate(35.9422)"/>
</clipPath>
</defs>
</svg>
