<svg width="24" height="24" viewBox="0 0 24 24" fill="none" xmlns="http://www.w3.org/2000/svg">
  <path d="M5.16 9.18518C6.5496 7.19444 9.41199 4 13.4723 4C19.3704 4 22.7408 10.7407 22.7408 10.7407C22.7408 10.7407 19.3704 17.4815 13.4723 17.4815C12.5695 17.4815 11.7259 17.3235 10.9445 17.056M16.0001 10.7407C16.0001 12.1368 14.8684 13.2685 13.4723 13.2685C12.0762 13.2685 10.9445 12.1368 10.9445 10.7407C10.9445 9.34469 12.0762 8.21296 13.4723 8.21296C14.8684 8.21296 16.0001 9.34469 16.0001 10.7407Z" stroke="currentColor" stroke-width="1.55556" stroke-linecap="round" stroke-linejoin="round"/>
  <path d="M1.99156 17.3733L5.22964 20.6152C5.29123 20.6742 5.36385 20.7205 5.44335 20.7514C5.60102 20.8162 5.77787 20.8162 5.93554 20.7514C6.01503 20.7205 6.08766 20.6742 6.14925 20.6152L9.38732 17.3733C9.4477 17.3129 9.4956 17.2411 9.52828 17.1621C9.56096 17.0831 9.57778 16.9985 9.57778 16.913C9.57778 16.7403 9.50927 16.5747 9.38732 16.4527C9.26537 16.3306 9.09997 16.262 8.92751 16.262C8.75505 16.262 8.58966 16.3306 8.46771 16.4527L6.33706 18.5923V12.115C6.33706 11.9431 6.26883 11.7782 6.14737 11.6566C6.02592 11.535 5.8612 11.4667 5.68944 11.4667C5.51768 11.4667 5.35296 11.535 5.23151 11.6566C5.11006 11.7782 5.04183 11.9431 5.04183 12.115V18.5923L2.91118 16.4527C2.85097 16.3919 2.77935 16.3436 2.70043 16.3107C2.62151 16.2778 2.53686 16.2609 2.45137 16.2609C2.36588 16.2609 2.28123 16.2778 2.20231 16.3107C2.12339 16.3436 2.05177 16.3919 1.99156 16.4527C1.93086 16.5129 1.88268 16.5846 1.84981 16.6636C1.81693 16.7427 1.8 16.8274 1.8 16.913C1.8 16.9986 1.81693 17.0833 1.84981 17.1623C1.88268 17.2414 1.93086 17.3131 1.99156 17.3733Z" fill="currentColor"/>
</svg>
