<svg width="24" height="25" viewBox="0 0 24 25" fill="none" xmlns="http://www.w3.org/2000/svg">
<path fill-rule="evenodd" clip-rule="evenodd" d="M5.55648 5.39697H14.187C14.9159 5.39697 15.5233 6.00045 15.5233 6.72374C15.5233 7.44707 14.9159 8.05051 14.187 8.05051H5.55648V5.39697ZM5.55648 15.8896H16.1315C16.8605 15.8896 17.4687 16.4922 17.4687 17.2163C17.4687 17.9397 16.8605 18.5423 16.1315 18.5423H5.55648V15.8896ZM2.12292 23.9701V0H10.6309C13.2751 0 15.4931 0.572646 17.3471 1.74877C19.1699 2.89494 20.5675 4.40233 21.4794 6.24096C22.3913 8.08046 22.877 10.0098 22.877 12C22.877 14.0201 22.4215 15.9495 21.4794 17.7591C20.5675 19.5977 19.1699 21.0752 17.3471 22.2512C15.5233 23.3965 13.2751 24 10.6309 24H3.70341C3.24702 23.9701 2.15311 23.9701 2.12292 23.9701ZM5.55648 10.6433H11.5428C12.2726 10.6433 12.88 11.2459 12.88 11.97C12.88 12.6934 12.2726 13.2968 11.5428 13.2968H5.55648V10.6433Z" fill="white"/>
</svg>
