<svg width="24" height="24" viewBox="0 0 24 24" fill="none" xmlns="http://www.w3.org/2000/svg">
<path opacity="0.5" d="M1.00196 11C1.00196 17.6274 5.37454 23.1112 12.002 23.1112C18.6294 23.1112 23.002 17.7386 23.002 11.1112C23.002 11.1112 20.002 8.22232 12.002 11.1112C4.00196 14 1.00196 11 1.00196 11Z" fill="currentColor"/>
<path d="M22.998 12.0001C22.998 18.6275 18.6255 23.0001 11.998 23.0001C5.37063 23.0001 0.998047 18.7387 0.998047 12.1112C0.998047 12.1112 3.99805 9.22238 11.998 12.1112C19.998 15.0001 22.998 12.0001 22.998 12.0001Z" fill="currentColor"/>
<mask id="path-3-inside-1_1372_14579" fill="currentColor">
<path fill-rule="evenodd" clip-rule="evenodd" d="M12 24C18.6274 24 24 18.6274 24 12C24 5.37258 18.6274 0 12 0C5.37258 0 0 5.37258 0 12C0 18.6274 5.37258 24 12 24ZM12.002 21.9999C17.5248 21.9999 22.002 17.5228 22.002 11.9999C22.002 6.47709 17.5248 1.99994 12.002 1.99994C6.47911 1.99994 2.00195 6.47709 2.00195 11.9999C2.00195 17.5228 6.47911 21.9999 12.002 21.9999Z"/>
</mask>
<path fill-rule="evenodd" clip-rule="evenodd" d="M12 24C18.6274 24 24 18.6274 24 12C24 5.37258 18.6274 0 12 0C5.37258 0 0 5.37258 0 12C0 18.6274 5.37258 24 12 24ZM12.002 21.9999C17.5248 21.9999 22.002 17.5228 22.002 11.9999C22.002 6.47709 17.5248 1.99994 12.002 1.99994C6.47911 1.99994 2.00195 6.47709 2.00195 11.9999C2.00195 17.5228 6.47911 21.9999 12.002 21.9999Z" fill="currentColor"/>
<path d="M23 12C23 18.0751 18.0751 23 12 23V25C19.1797 25 25 19.1797 25 12H23ZM12 1C18.0751 1 23 5.92487 23 12H25C25 4.8203 19.1797 -1 12 -1V1ZM1 12C1 5.92487 5.92487 1 12 1V-1C4.8203 -1 -1 4.8203 -1 12H1ZM12 23C5.92487 23 1 18.0751 1 12H-1C-1 19.1797 4.8203 25 12 25V23ZM21.002 11.9999C21.002 16.9705 16.9725 20.9999 12.002 20.9999V22.9999C18.0771 22.9999 23.002 18.0751 23.002 11.9999H21.002ZM12.002 2.99994C16.9725 2.99994 21.002 7.02938 21.002 11.9999H23.002C23.002 5.92481 18.0771 0.999942 12.002 0.999942V2.99994ZM3.00195 11.9999C3.00195 7.02938 7.03139 2.99994 12.002 2.99994V0.999942C5.92682 0.999942 1.00195 5.92481 1.00195 11.9999H3.00195ZM12.002 20.9999C7.03139 20.9999 3.00195 16.9705 3.00195 11.9999H1.00195C1.00195 18.0751 5.92682 22.9999 12.002 22.9999V20.9999Z" fill="currentColor" mask="url(#path-3-inside-1_1372_14579)"/>
</svg>
