<svg width="24" height="24" viewBox="0 0 24 24" fill="none" xmlns="http://www.w3.org/2000/svg">
<g clip-path="url(#clip0_3137_27115)">
<path d="M2.41309 7.26311C3.3357 8.23782 4.36807 9.07115 5.51019 9.76311C6.6523 10.4551 7.87254 10.9815 9.1709 11.3424C10.4693 11.7032 11.8067 11.8836 13.1832 11.8836C14.8127 11.8762 16.3845 11.6084 17.8986 11.0801C19.4127 10.5518 20.7985 9.79288 22.056 8.80329L21.4198 7.55329C20.2665 8.51311 18.9868 9.24786 17.5806 9.75753C16.1742 10.2672 14.7084 10.5258 13.1832 10.5332C11.204 10.5406 9.33087 10.1351 7.56375 9.31669C5.79665 8.49824 4.28809 7.3524 3.03809 5.87919L2.41309 7.26311ZM1.21889 13.6359C2.66978 14.871 4.25274 15.855 5.96778 16.5879C7.6828 17.3208 9.45735 17.7914 11.2914 17.9997C13.1255 18.2081 14.954 18.1485 16.7769 17.8212C18.5998 17.4938 20.3484 16.8911 22.0225 16.0132L21.989 14.4841C20.367 15.4216 18.6557 16.0708 16.8551 16.4317C15.0545 16.7925 13.2483 16.8688 11.4365 16.6605C9.62476 16.4521 7.87439 15.9666 6.18541 15.204C4.49642 14.4413 2.95252 13.4127 1.55371 12.1181L1.21889 13.6359ZM6.7546 21.3033L8.35059 21.6716C7.97857 20.7713 7.6921 19.8487 7.49121 18.9038C7.29031 17.9588 7.18243 16.9989 7.16755 16.0242C7.06338 14.1716 7.24753 12.371 7.72001 10.6225C8.19248 8.87398 8.91978 7.23893 9.90193 5.71735C10.8841 4.19577 12.0857 2.85463 13.5068 1.69392L12.0783 1.13588C10.672 2.38588 9.48526 3.80515 8.51799 5.39369C7.55073 6.98223 6.83459 8.67867 6.36956 10.483C5.90453 12.2873 5.72038 14.1419 5.8171 16.0466C5.83198 16.9394 5.91755 17.8249 6.0738 18.7029C6.23005 19.5808 6.45698 20.4476 6.7546 21.3033ZM14.1095 22.4082L15.3707 21.8502C14.3291 20.377 13.531 18.7828 12.9767 17.0678C12.4224 15.3527 12.1452 13.5838 12.1452 11.7609C12.1452 10.0273 12.3908 8.34942 12.8818 6.7274C13.3729 5.10538 14.091 3.59124 15.0359 2.18499L13.7188 1.71624C12.7665 3.21178 12.041 4.81148 11.5426 6.51535C11.044 8.21921 10.7948 9.96772 10.7948 11.7609C10.7948 13.688 11.0775 15.5537 11.643 17.358C12.2085 19.1623 13.0306 20.8457 14.1095 22.4082ZM20.6832 18.2565L21.5872 17.2296C20.3372 16.5153 19.2565 15.6188 18.345 14.5399C17.4335 13.461 16.7267 12.2594 16.2244 10.935C15.7222 9.61058 15.4599 8.21921 15.4377 6.76088C15.4302 5.97963 15.4935 5.20582 15.6274 4.43945C15.7613 3.67308 15.9696 2.93276 16.2523 2.21847L14.9466 1.85016C14.6489 2.63142 14.4294 3.43313 14.2881 4.25531C14.1467 5.07748 14.0797 5.91639 14.0872 6.77204C14.1095 8.35686 14.3885 9.87286 14.9242 11.32C15.46 12.7672 16.2189 14.0841 17.201 15.2709C18.1832 16.4577 19.3439 17.4529 20.6832 18.2565ZM7.15639 11.7497C7.63258 11.7497 8.03995 11.5786 8.37849 11.2363C8.71703 10.8941 8.8863 10.4811 8.8863 9.99749C8.8863 9.51385 8.71703 9.10277 8.37849 8.76423C8.03995 8.42569 7.63258 8.25641 7.15639 8.25641C6.66532 8.25641 6.25051 8.42569 5.91197 8.76423C5.57343 9.10277 5.40415 9.51385 5.40415 9.99749C5.40415 10.4811 5.57343 10.8941 5.91197 11.2363C6.25051 11.5786 6.66532 11.7497 7.15639 11.7497ZM15.7055 12.676C16.1743 12.676 16.5761 12.5068 16.9108 12.1682C17.2457 11.8297 17.4131 11.4223 17.4131 10.9462C17.4131 10.4774 17.2457 10.0756 16.9108 9.74079C16.5761 9.40597 16.1743 9.23856 15.7055 9.23856C15.2219 9.23856 14.8127 9.40597 14.4778 9.74079C14.143 10.0756 13.9756 10.4774 13.9756 10.9462C13.9756 11.4223 14.143 11.8297 14.4778 12.1682C14.8127 12.5068 15.2219 12.676 15.7055 12.676ZM12.3796 19.127C12.8558 19.127 13.2632 18.9577 13.6017 18.6191C13.9402 18.2806 14.1095 17.8695 14.1095 17.3858C14.1095 16.9023 13.9402 16.4912 13.6017 16.1526C13.2632 15.8141 12.8558 15.6448 12.3796 15.6448C11.8885 15.6448 11.4737 15.8141 11.1352 16.1526C10.7966 16.4912 10.6274 16.9023 10.6274 17.3858C10.6274 17.8695 10.7966 18.2806 11.1352 18.6191C11.4737 18.9577 11.8885 19.127 12.3796 19.127ZM12.0001 23.3792C13.5552 23.3792 15.0191 23.0816 16.3919 22.4863C17.7647 21.8911 18.9756 21.0689 20.0247 20.0198C21.0738 18.9707 21.896 17.7598 22.4912 16.387C23.0865 15.0143 23.3841 13.5504 23.3841 11.9953C23.3841 10.4402 23.0865 8.97628 22.4912 7.60351C21.896 6.23075 21.0738 5.01981 20.0247 3.9707C18.9756 2.92159 17.7628 2.09942 16.3863 1.50419C15.0098 0.908947 13.544 0.611328 11.989 0.611328C10.4339 0.611328 8.97001 0.908947 7.59724 1.50419C6.22447 2.09942 5.01539 2.92159 3.97001 3.9707C2.92462 5.01981 2.10431 6.23075 1.50907 7.60351C0.91383 8.97628 0.616211 10.4402 0.616211 11.9953C0.616211 13.5504 0.91383 15.0143 1.50907 16.387C2.10431 17.7598 2.92648 18.9707 3.97558 20.0198C5.02469 21.0689 6.23563 21.8911 7.60839 22.4863C8.98116 23.0816 10.4451 23.3792 12.0001 23.3792ZM12.0001 21.8614C10.6534 21.8614 9.38481 21.6028 8.19434 21.0856C7.00386 20.5685 5.95475 19.8561 5.04701 18.9484C4.13928 18.0406 3.42685 16.9915 2.90974 15.801C2.39262 14.6106 2.13406 13.342 2.13406 11.9953C2.13406 10.6485 2.39262 9.37993 2.90974 8.18945C3.42685 6.99898 4.13742 5.94987 5.04143 5.04213C5.94545 4.1344 6.99269 3.42197 8.18317 2.90486C9.37365 2.38774 10.6422 2.12918 11.989 2.12918C13.3357 2.12918 14.6043 2.38774 15.7947 2.90486C16.9853 3.42197 18.0363 4.1344 18.9476 5.04213C19.8591 5.94987 20.5734 6.99898 21.0905 8.18945C21.6077 9.37993 21.8663 10.6485 21.8663 11.9953C21.8663 13.342 21.6077 14.6106 21.0905 15.801C20.5734 16.9915 19.861 18.0406 18.9532 18.9484C18.0455 19.8561 16.9964 20.5685 15.8059 21.0856C14.6154 21.6028 13.3469 21.8614 12.0001 21.8614Z" fill="currentColor"/>
</g>
<defs>
<clipPath id="clip0_3137_27115">
<rect width="22.7679" height="22.779" fill="currentColor" transform="translate(0.616211 0.611328)"/>
</clipPath>
</defs>
</svg>
