<svg width="22" height="22" viewBox="0 0 22 22" fill="none" xmlns="http://www.w3.org/2000/svg">
<path d="M19.2499 18.3333H18.1133L14.0891 3.84992C13.9287 3.27037 13.5828 2.75935 13.1044 2.39512C12.6259 2.03089 12.0412 1.83353 11.4399 1.83325H10.5233C9.92822 1.84147 9.35191 2.04249 8.88085 2.40612C8.40979 2.76974 8.06939 3.27637 7.91075 3.84992L3.88659 18.3333H2.74992C2.5068 18.3333 2.27365 18.4298 2.10174 18.6017C1.92983 18.7736 1.83325 19.0068 1.83325 19.2499C1.83325 19.493 1.92983 19.7262 2.10174 19.8981C2.27365 20.07 2.5068 20.1666 2.74992 20.1666H19.2499C19.493 20.1666 19.7262 20.07 19.8981 19.8981C20.07 19.7262 20.1666 19.493 20.1666 19.2499C20.1666 19.0068 20.07 18.7736 19.8981 18.6017C19.7262 18.4298 19.493 18.3333 19.2499 18.3333ZM9.67992 4.33575C9.73537 4.13748 9.85595 3.96364 10.0222 3.84225C10.1885 3.72085 10.3908 3.65898 10.5966 3.66659H11.5133C11.719 3.65898 11.9213 3.72085 12.0876 3.84225C12.2539 3.96364 12.3745 4.13748 12.4299 4.33575L13.1541 7.33325H8.84575L9.67992 4.33575ZM8.33242 9.16659H13.6674L14.6666 12.8333H7.33325L8.33242 9.16659ZM5.79325 18.3333L6.81075 14.6666H15.1891L16.2066 18.3333H5.79325Z" fill="currentColor"/>
</svg>
