<svg width="24" height="24" viewBox="0 0 24 24" fill="none" xmlns="http://www.w3.org/2000/svg">
<path d="M12.0005 7C6.47758 7 2 9.26907 2 12.068C2 14.8669 6.47758 17.136 12.0005 17.136C17.5234 17.136 22.001 14.8669 22.001 12.068C22.001 9.26907 17.5234 7 12.0005 7ZM9.39831 13.0554C9.15965 13.2787 8.89463 13.3708 8.60277 13.4658C8.31091 13.5609 7.9395 13.5412 7.48788 13.5412H6.46432L6.18065 15.1781H4.98555L6.05199 9.61266H8.3502C9.04162 9.61266 9.54595 9.81154 9.86302 10.1744C10.1801 10.5373 10.2754 11.0525 10.149 11.7028C10.0968 11.9708 10.0089 12.2199 9.88479 12.4419C9.75622 12.6709 9.592 12.878 9.39831 13.0554V13.0554ZM12.8867 13.5412L13.3583 11.1808C13.412 10.9045 13.3923 10.6992 13.2992 10.5989C13.2059 10.4984 13.0075 10.4311 12.7042 10.4311H11.7564L11.1457 13.5412H9.95993L11.0264 8.13945H12.2121L11.9286 9.61266H12.9849C13.6497 9.61266 14.108 9.74607 14.3602 9.97785C14.6125 10.2096 14.6881 10.5272 14.5873 11.0464L14.0911 13.5412H12.8867ZM19.4767 11.7115C19.4247 11.9795 19.3366 12.2243 19.2127 12.4461C19.0886 12.6683 18.9265 12.8714 18.7264 13.0554C18.4877 13.2787 18.2225 13.3708 17.9308 13.4658C17.6391 13.5609 17.2674 13.5412 16.8158 13.5412H15.7922L15.5087 15.1781H14.3136L15.3799 9.61266H17.6782C18.3697 9.61266 18.874 9.81154 19.1909 10.1744C19.5076 10.5373 19.6031 11.0613 19.4767 11.7115V11.7115ZM17.2253 10.4311H16.4067L15.9603 12.7228H16.6874C17.169 12.7228 17.5281 12.6753 17.7639 12.4936C17.9999 12.3122 18.1588 12.0307 18.2415 11.6062C18.3207 11.1985 18.2847 10.8804 18.1335 10.7128C17.9821 10.5452 17.6794 10.4311 17.2253 10.4311V10.4311ZM7.89743 10.4311H7.07865L6.63227 12.7228H7.35922C7.84096 12.7228 8.19993 12.6753 8.43581 12.4936C8.67168 12.3122 8.83079 12.0307 8.91329 11.6062C8.99252 11.1985 8.95651 10.8804 8.80526 10.7128C8.65401 10.5452 8.35151 10.4311 7.89743 10.4311Z" fill="#6181B6"/>
</svg>
