<svg width="24" height="24" fill="none" xmlns="http://www.w3.org/2000/svg"><g clip-path="url(#clip0_711_1655)"><g clip-path="url(#clip1_711_1655)"><path d="M4.051 20.608c.04.038.138.042.296.01.158-.033.353-.1.585-.202a5.153 5.153 0 0 0 1.511-1.056l3.57-3.57-1.151-1.15-3.57 3.569a5.153 5.153 0 0 0-1.056 1.511 3.039 3.039 0 0 0-.201.585c-.033.158-.027.26.016.303Zm.76-8.952 8.185 8.184c.295.295.611.445.95.449.337.004.645-.132.922-.41.477-.476.82-1.068 1.027-1.774.209-.707.268-1.47.18-2.292a7.72 7.72 0 0 0-.725-2.48c-.395-.832-.956-1.612-1.684-2.34-.728-.728-1.51-1.29-2.344-1.687-.834-.397-1.66-.638-2.48-.725-.819-.087-1.583-.027-2.291.179-.709.206-1.302.547-1.778 1.024-.278.277-.413.586-.407.926.007.34.155.655.446.946Zm1.242-.722c-.151-.151-.128-.3.072-.448.325-.256.738-.435 1.238-.537a4.692 4.692 0 0 1 1.651-.013c.6.094 1.218.302 1.853.624.635.323 1.251.784 1.85 1.382.593.594 1.052 1.208 1.375 1.843.322.635.53 1.252.624 1.853.093.6.088 1.15-.013 1.65-.102.501-.281.914-.537 1.24-.147.199-.297.222-.448.07l-7.665-7.664Zm8.237-9.016c-.208.208-.336.5-.384.877a4.572 4.572 0 0 0-.023.953c.024.379.069.79.134 1.232.065.442.143.89.234 1.345l-3.673 3.192 1.04 1.04 4.154-3.673c.082-.073.11-.15.085-.227a14.539 14.539 0 0 1-.485-1.986 6.863 6.863 0 0 1-.084-.683c-.011-.18-.008-.291.01-.335.017-.069.047-.106.09-.11a.14.14 0 0 1 .117.045l5.559 5.559a.14.14 0 0 1 .045.117c-.004.043-.041.073-.11.09-.044.018-.154.022-.332.014a6.174 6.174 0 0 1-.68-.082 13.32 13.32 0 0 1-.926-.191 15.51 15.51 0 0 1-1.066-.3c-.078-.025-.151.005-.22.092l-3.68 4.147 1.04 1.04 3.192-3.673c.455.091.904.17 1.349.238.444.067.855.111 1.232.133.377.021.693.013.949-.026.381-.044.676-.17.884-.377a.91.91 0 0 0 .283-.706c-.011-.27-.13-.519-.355-.744l-6.93-6.93c-.23-.23-.478-.349-.747-.357a.917.917 0 0 0-.702.286Z" fill="currentColor"/></g></g><defs><clipPath id="clip0_711_1655"><path fill="currentColor" d="M0 0h24v24H0z"/></clipPath><clipPath id="clip1_711_1655"><path fill="currentColor" transform="rotate(45 7.278 17.571)" d="M0 0h14.277v22H0z"/></clipPath></defs></svg>