<svg width="17" height="16" viewBox="0 0 17 16" fill="none" xmlns="http://www.w3.org/2000/svg">
<path d="M4.13278 12.3798C3.83278 11.9798 3.53278 11.2798 2.93278 10.3798C2.63278 9.87981 1.73278 8.87981 1.43278 8.47981C1.23278 8.07981 1.23278 7.87982 1.33278 7.47982C1.43278 6.87982 2.03277 6.37981 2.73277 6.37981C3.23277 6.37981 3.73278 6.77982 4.13278 7.07982C4.33278 7.27982 4.63278 7.67981 4.83278 7.87981C5.03278 8.07981 5.03277 8.17981 5.23277 8.37981C5.43278 8.67981 5.53278 8.87981 5.43278 8.47981C5.33278 7.97981 5.23278 7.17981 5.03278 6.37981C4.93278 5.77981 4.83277 5.67982 4.73277 5.27982C4.63278 4.77982 4.53278 4.47981 4.43278 3.97981C4.33278 3.67981 4.23278 2.87981 4.13278 2.47981C4.03278 1.97981 4.03278 1.07981 4.43278 0.679815C4.73278 0.379815 5.33277 0.279815 5.73277 0.479815C6.23277 0.779815 6.53278 1.47982 6.63278 1.77981C6.83278 2.27981 7.03278 2.97982 7.13278 3.77981C7.33278 4.77981 7.63278 6.27982 7.63278 6.57982C7.63278 6.17982 7.53278 5.47982 7.63278 5.07982C7.73278 4.77982 7.93278 4.37982 8.33278 4.27981C8.63278 4.17982 8.93277 4.17981 9.23277 4.17981C9.53277 4.27981 9.83278 4.47982 10.0328 4.67981C10.4328 5.27981 10.4328 6.57981 10.4328 6.47982C10.5328 6.07981 10.5328 5.27981 10.7328 4.87981C10.8328 4.67981 11.2328 4.47981 11.4328 4.37981C11.7328 4.27981 12.1328 4.27981 12.4328 4.37981C12.6328 4.37981 13.0328 4.67981 13.1328 4.87981C13.3328 5.17981 13.4328 6.17982 13.5328 6.57982C13.5328 6.67982 13.6328 6.17981 13.8328 5.87981C14.2328 5.27981 15.6328 5.07981 15.7328 6.47982C15.7328 7.17981 15.7328 7.07982 15.7328 7.57982C15.7328 8.07982 15.7328 8.37981 15.7328 8.77981C15.7328 9.17981 15.6328 10.0798 15.5328 10.4798C15.4328 10.7798 15.1328 11.4798 14.8328 11.8798C14.8328 11.8798 13.7328 13.0798 13.6328 13.6798C13.5328 14.2798 13.5328 14.2798 13.5328 14.6798C13.5328 15.0798 13.6328 15.5798 13.6328 15.5798C13.6328 15.5798 12.8328 15.6798 12.4328 15.5798C12.0328 15.4798 11.5328 14.7798 11.4328 14.4798C11.2328 14.1798 10.9328 14.1798 10.7328 14.4798C10.5328 14.8798 10.0328 15.5798 9.63277 15.5798C8.93277 15.6798 7.53277 15.5798 6.53277 15.5798C6.53277 15.5798 6.73278 14.5798 6.33278 14.1798C6.03277 13.8798 5.53277 13.3798 5.23277 13.0798L4.13278 12.3798Z" fill="white"/>
<path d="M4.13278 12.3798C3.83278 11.9798 3.53278 11.2798 2.93278 10.3798C2.63278 9.87981 1.73278 8.87981 1.43278 8.47981C1.23278 8.07981 1.23278 7.87982 1.33278 7.47982C1.43278 6.87981 2.03277 6.37981 2.73277 6.37981C3.23277 6.37981 3.73278 6.77982 4.13278 7.07982C4.33278 7.27982 4.63278 7.67981 4.83278 7.87981C5.03278 8.07981 5.03277 8.17981 5.23277 8.37981C5.43277 8.67981 5.53278 8.87981 5.43278 8.47981C5.33278 7.97981 5.23278 7.17981 5.03278 6.37981C4.93278 5.77981 4.83277 5.67982 4.73277 5.27982C4.63277 4.77982 4.53278 4.47981 4.43278 3.97981C4.33278 3.67981 4.23278 2.87981 4.13278 2.47981C4.03278 1.97981 4.03278 1.07981 4.43278 0.679815C4.73278 0.379815 5.33277 0.279815 5.73277 0.479815C6.23277 0.779815 6.53278 1.47981 6.63278 1.77981C6.83278 2.27981 7.03278 2.97981 7.13278 3.77981C7.33278 4.77981 7.63278 6.27982 7.63278 6.57982C7.63278 6.17982 7.53278 5.47982 7.63278 5.07982C7.73278 4.77982 7.93278 4.37981 8.33278 4.27981C8.63278 4.17981 8.93277 4.17981 9.23277 4.17981C9.53277 4.27981 9.83278 4.47981 10.0328 4.67981C10.4328 5.27981 10.4328 6.57982 10.4328 6.47982C10.5328 6.07982 10.5328 5.27981 10.7328 4.87981C10.8328 4.67981 11.2328 4.47981 11.4328 4.37981C11.7328 4.27981 12.1328 4.27981 12.4328 4.37981C12.6328 4.37981 13.0328 4.67981 13.1328 4.87981C13.3328 5.17981 13.4328 6.17982 13.5328 6.57982C13.5328 6.67982 13.6328 6.17981 13.8328 5.87981C14.2328 5.27981 15.6328 5.07982 15.7328 6.47982C15.7328 7.17981 15.7328 7.07982 15.7328 7.57982C15.7328 8.07982 15.7328 8.37981 15.7328 8.77981C15.7328 9.17981 15.6328 10.0798 15.5328 10.4798C15.4328 10.7798 15.1328 11.4798 14.8328 11.8798C14.8328 11.8798 13.7328 13.0798 13.6328 13.6798C13.5328 14.2798 13.5328 14.2798 13.5328 14.6798C13.5328 15.0798 13.6328 15.5798 13.6328 15.5798C13.6328 15.5798 12.8328 15.6798 12.4328 15.5798C12.0328 15.4798 11.5328 14.7798 11.4328 14.4798C11.2328 14.1798 10.9328 14.1798 10.7328 14.4798C10.5328 14.8798 10.0328 15.5798 9.63277 15.5798C8.93277 15.6798 7.53277 15.5798 6.53277 15.5798C6.53277 15.5798 6.73278 14.5798 6.33278 14.1798C6.03278 13.8798 5.53277 13.3798 5.23277 13.0798L4.13278 12.3798Z" stroke="black" stroke-width="0.75" stroke-linecap="round" stroke-linejoin="round"/>
<path d="M12.2671 12.7758V9.37576" stroke="black" stroke-width="0.75" stroke-linecap="round"/>
<path d="M10.3671 12.7758L10.2671 9.37576" stroke="black" stroke-width="0.75" stroke-linecap="round"/>
<path d="M8.26709 9.37576V12.7758" stroke="black" stroke-width="0.75" stroke-linecap="round"/>
</svg>
