<svg xmlns="http://www.w3.org/2000/svg" fill="none" viewBox="0 0 24 24"><path fill="currentColor" d="M9.5 10.5H12a1 1 0 0 0 0-2h-1V8a1 1 0 1 0-2 0v.55a2.5 2.5 0 0 0 .5 4.95h1a.5.5 0 1 1 0 1H8a1 1 0 1 0 0 2h1v.5a1 1 0 0 0 2 0v-.55a2.5 2.5 0 0 0-.5-4.95h-1a.5.5 0 0 1 0-1ZM21 12h-3V3a1 1 0 0 0-1.5-.87l-3 1.72-3-1.72a1 1 0 0 0-1 0l-3 1.72-3-1.72A1 1 0 0 0 2 3v16a3 3 0 0 0 3 3h14a3 3 0 0 0 3-3v-6a1 1 0 0 0-1-1ZM5 20a1 1 0 0 1-1-1V4.73l2 1.14a1.08 1.08 0 0 0 1 0l3-1.72 3 1.72a1.08 1.08 0 0 0 1 0l2-1.14V19a3 3 0 0 0 .18 1H5Zm15-1a1 1 0 1 1-2 0v-5h2v5Z"/></svg>