<svg width="24" height="24" viewBox="0 0 24 24" fill="none" xmlns="http://www.w3.org/2000/svg">
<path d="M19.5351 16.4329C19.6264 16.4709 19.7093 16.5266 19.7789 16.5969C19.8491 16.6665 19.9049 16.7493 19.9429 16.8406C19.9809 16.9319 20.0005 17.0298 20.0005 17.1287C20.0005 17.2276 19.9809 17.3255 19.9429 17.4168C19.9049 17.5081 19.8491 17.5909 19.7789 17.6605L16.7826 20.6568C16.713 20.727 16.6301 20.7828 16.5389 20.8208C16.4476 20.8588 16.3497 20.8784 16.2508 20.8784C16.1519 20.8784 16.054 20.8588 15.9627 20.8208C15.8714 20.7828 15.7886 20.727 15.7189 20.6568L14.2208 19.1587C14.1509 19.0888 14.0955 19.0059 14.0577 18.9147C14.0199 18.8234 14.0005 18.7256 14.0005 18.6268C14.0005 18.5281 14.0199 18.4303 14.0577 18.339C14.0955 18.2478 14.1509 18.1648 14.2208 18.095C14.2906 18.0252 14.3735 17.9698 14.4648 17.932C14.556 17.8942 14.6539 17.8747 14.7526 17.8747C14.8514 17.8747 14.9492 17.8942 15.0405 17.932C15.1317 17.9698 15.2146 18.0252 15.2845 18.095L16.2508 19.0688L18.7152 16.5969C18.7849 16.5266 18.8677 16.4709 18.959 16.4329C19.0503 16.3949 19.1482 16.3753 19.2471 16.3753C19.346 16.3753 19.4439 16.3949 19.5351 16.4329Z" fill="#33CB9A"/>
<path fill-rule="evenodd" clip-rule="evenodd" d="M18.5166 8.37586L19.21 7.69002C19.3983 7.50171 19.5041 7.24632 19.5041 6.98002C19.5041 6.71371 19.3983 6.45832 19.21 6.27002C19.0217 6.08171 18.7663 5.97592 18.5 5.97592C18.2337 5.97592 17.9783 6.08171 17.79 6.27002L16.9331 7.1365C16.9093 7.16057 16.8765 7.17354 16.8491 7.15371C16.531 6.92383 14.5608 5.50002 12 5.50002C9.29368 5.50002 7.00129 7.0791 7.09994 7.17993L6.19003 6.26002C6.0004 6.07171 5.74373 5.96645 5.47649 5.96739C5.20925 5.96833 4.95333 6.07539 4.76503 6.26502C4.57672 6.45464 4.47146 6.71131 4.4724 6.97855C4.47334 7.24579 4.5804 7.50171 4.77003 7.69002C4.91427 7.83325 5.37139 8.28511 5.58194 8.4932C5.64189 8.55245 5.66503 8.65324 5.62246 8.726C5.30081 9.27574 4.00517 11.4902 4.00003 13.5C3.99676 14.7754 4.29849 16.0332 4.88005 17.1683C5.46161 18.3034 6.30614 19.283 7.34322 20.0254C8.38029 20.7679 9.57985 21.2516 10.8418 21.4362C11.2073 21.4897 11.5749 21.5176 11.9421 21.5203C12.4779 21.5242 12.8697 21.0491 12.8341 20.5145L12.8141 20.2149C12.7865 19.8009 12.4149 19.5 12 19.5C10.8133 19.5 9.6533 19.1481 8.6666 18.4888C7.67991 17.8295 6.91087 16.8925 6.45675 15.7961C6.00262 14.6998 5.8838 13.4934 6.11531 12.3295C6.34683 11.1656 6.91827 10.0965 7.75739 9.25737C8.5965 8.41826 9.6656 7.84681 10.8295 7.6153C11.9934 7.38379 13.1998 7.50261 14.2961 7.95674C15.3925 8.41086 16.3296 9.1799 16.9888 10.1666C17.6481 11.1533 18 12.3133 18 13.5C18 14.0106 18.4404 14.4517 18.9432 14.3629L19.2494 14.3089C19.6756 14.2337 20.0036 13.8803 19.9997 13.4475C19.9953 12.9717 19.9485 12.4957 19.859 12.0252C19.6744 11.055 18.7871 9.47384 18.4377 8.85124C18.3553 8.70432 18.3968 8.49432 18.5166 8.37586ZM10 4.50002H14C14.2652 4.50002 14.5196 4.39466 14.7071 4.20712C14.8947 4.01959 15 3.76523 15 3.50002C15 3.2348 14.8947 2.98044 14.7071 2.79291C14.5196 2.60537 14.2652 2.50002 14 2.50002H10C9.73481 2.50002 9.48046 2.60537 9.29292 2.79291C9.10538 2.98044 9.00003 3.2348 9.00003 3.50002C9.00003 3.76523 9.10538 4.01959 9.29292 4.20712C9.48046 4.39466 9.73481 4.50002 10 4.50002ZM11.9998 9.99996C11.4475 9.99996 10.9998 10.4477 10.9998 11V14C10.9998 14.5522 11.4475 15 11.9998 15C12.5521 15 12.9998 14.5522 12.9998 14V11C12.9998 10.4477 12.5521 9.99996 11.9998 9.99996Z" fill="currentColor"/>
</svg>
