<svg width="24" height="24" viewBox="0 0 24 24" fill="none" xmlns="http://www.w3.org/2000/svg">
<path d="M20.7158 17.7141L19.4158 19.0041L20.7158 20.2941C20.8095 20.387 20.8839 20.4976 20.9347 20.6195C20.9855 20.7413 21.0116 20.872 21.0116 21.0041C21.0116 21.1361 20.9855 21.2668 20.9347 21.3886C20.8839 21.5105 20.8095 21.6211 20.7158 21.7141C20.6228 21.8078 20.5122 21.8822 20.3904 21.933C20.2685 21.9837 20.1378 22.0099 20.0058 22.0099C19.8738 22.0099 19.7431 21.9837 19.6212 21.933C19.4994 21.8822 19.3888 21.8078 19.2958 21.7141L18.0058 20.4141L16.7158 21.7141C16.6228 21.8078 16.5122 21.8822 16.3904 21.933C16.2685 21.9837 16.1378 22.0099 16.0058 22.0099C15.8738 22.0099 15.7431 21.9837 15.6212 21.933C15.4994 21.8822 15.3888 21.8078 15.2958 21.7141C15.2021 21.6211 15.1277 21.5105 15.0769 21.3886C15.0261 21.2668 15 21.1361 15 21.0041C15 20.872 15.0261 20.7413 15.0769 20.6195C15.1277 20.4976 15.2021 20.387 15.2958 20.2941L16.5958 19.0041L15.2958 17.7141C15.1075 17.5258 15.0017 17.2704 15.0017 17.0041C15.0017 16.7378 15.1075 16.4824 15.2958 16.2941C15.4841 16.1058 15.7395 16 16.0058 16C16.2721 16 16.5275 16.1058 16.7158 16.2941L18.0058 17.5941L19.2958 16.2941C19.4841 16.1058 19.7395 16 20.0058 16C20.2721 16 20.5275 16.1058 20.7158 16.2941C20.9041 16.4824 21.0099 16.7378 21.0099 17.0041C21.0099 17.2704 20.9041 17.5258 20.7158 17.7141Z" fill="#DA5565"/>
<path fill-rule="evenodd" clip-rule="evenodd" d="M18.5166 7.87584L19.21 7.19C19.3983 7.0017 19.5041 6.7463 19.5041 6.48C19.5041 6.2137 19.3983 5.9583 19.21 5.77C19.0217 5.5817 18.7663 5.47591 18.5 5.47591C18.2337 5.47591 17.9783 5.5817 17.79 5.77L16.9331 6.63649C16.9093 6.66056 16.8765 6.67353 16.8491 6.6537C16.531 6.42381 14.5608 5 12 5C9.29368 5 7.00129 6.57908 7.09994 6.67991L6.19003 5.76C6.0004 5.5717 5.74373 5.46644 5.47649 5.46737C5.20925 5.46831 4.95333 5.57537 4.76503 5.765C4.57672 5.95463 4.47146 6.2113 4.4724 6.47854C4.47334 6.74578 4.5804 7.0017 4.77003 7.19C4.91427 7.33324 5.37139 7.7851 5.58194 7.99319C5.64189 8.05244 5.66503 8.15323 5.62246 8.22598C5.30081 8.77572 4.00517 10.9901 4.00003 13C3.99676 14.2754 4.29849 15.5331 4.88005 16.6683C5.46161 17.8034 6.30614 18.783 7.34322 19.5254C8.38029 20.2679 9.57985 20.7516 10.8418 20.9362C11.2073 20.9897 11.5749 21.0176 11.9421 21.0203C12.4779 21.0241 12.8697 20.5491 12.8341 20.0145L12.8141 19.7149C12.7865 19.3009 12.4149 19 12 19C10.8133 19 9.6533 18.6481 8.6666 17.9888C7.67991 17.3295 6.91087 16.3925 6.45675 15.2961C6.00262 14.1997 5.8838 12.9933 6.11531 11.8295C6.34683 10.6656 6.91827 9.59647 7.75739 8.75736C8.5965 7.91824 9.6656 7.3468 10.8295 7.11529C11.9934 6.88378 13.1998 7.0026 14.2961 7.45672C15.3925 7.91085 16.3296 8.67988 16.9888 9.66658C17.6481 10.6533 18 11.8133 18 13C18 13.5106 18.4404 13.9517 18.9432 13.8629L19.2494 13.8089C19.6756 13.7337 20.0036 13.3803 19.9997 12.9475C19.9953 12.4717 19.9485 11.9957 19.859 11.5251C19.6744 10.555 18.7871 8.97382 18.4377 8.35122C18.3553 8.2043 18.3968 7.99431 18.5166 7.87584ZM10 4H14C14.2652 4 14.5196 3.89464 14.7071 3.70711C14.8947 3.51957 15 3.26522 15 3C15 2.73478 14.8947 2.48043 14.7071 2.29289C14.5196 2.10536 14.2652 2 14 2H10C9.73481 2 9.48046 2.10536 9.29292 2.29289C9.10538 2.48043 9.00003 2.73478 9.00003 3C9.00003 3.26522 9.10538 3.51957 9.29292 3.70711C9.48046 3.89464 9.73481 4 10 4ZM11.9998 9.50002C11.4475 9.50002 10.9998 9.94774 10.9998 10.5V13.5C10.9998 14.0523 11.4475 14.5 11.9998 14.5C12.5521 14.5 12.9998 14.0523 12.9998 13.5V10.5C12.9998 9.94774 12.5521 9.50002 11.9998 9.50002Z" fill="currentColor"/>
</svg>
