<svg width="24" height="25" viewBox="0 0 24 25" fill="none" xmlns="http://www.w3.org/2000/svg">
<path d="M21.3597 11.7655L20.5579 11.2724C20.5513 11.1949 20.5433 11.1174 20.5352 11.0399L21.2207 10.4012C21.2552 10.3694 21.2809 10.3293 21.2954 10.2847C21.31 10.2401 21.3128 10.1926 21.3037 10.1466C21.2946 10.1006 21.2738 10.0577 21.2434 10.022C21.2129 9.98635 21.1738 9.9591 21.1299 9.94286L20.2533 9.61682C20.2319 9.54065 20.2079 9.46582 20.1851 9.38966L20.7317 8.63067C20.7609 8.59332 20.7797 8.54886 20.7861 8.50184C20.7925 8.45482 20.7863 8.40694 20.7681 8.36313C20.7498 8.31932 20.7203 8.28116 20.6824 8.25256C20.6445 8.22396 20.5997 8.20596 20.5526 8.2004L19.6293 8.04941C19.5932 7.97992 19.5558 7.91578 19.5184 7.84229L19.9072 6.98977C19.9264 6.94695 19.9344 6.89996 19.9304 6.85321C19.9264 6.80646 19.9106 6.76148 19.8845 6.72252C19.8591 6.68337 19.8239 6.65155 19.7824 6.63021C19.7409 6.60888 19.6946 6.59878 19.648 6.60092L18.7126 6.63433C18.6645 6.57286 18.6151 6.51273 18.5643 6.45394L18.7807 5.54128C18.7916 5.4956 18.7906 5.44789 18.7777 5.40273C18.7648 5.35757 18.7406 5.31647 18.7073 5.28339C18.674 5.25038 18.6329 5.22633 18.5878 5.21348C18.5427 5.20063 18.4951 5.1994 18.4494 5.2099L17.5367 5.42637C17.4779 5.37559 17.4178 5.32615 17.3563 5.27805L17.3897 4.34268C17.3921 4.29585 17.3821 4.24922 17.3608 4.20747C17.3394 4.16572 17.3075 4.13032 17.2681 4.10483C17.2292 4.07868 17.1842 4.06288 17.1374 4.05891C17.0907 4.05494 17.0437 4.06292 17.0009 4.08211L16.1497 4.47096L15.9426 4.36005L15.7929 3.43537C15.7859 3.38917 15.767 3.34561 15.7379 3.30904C15.7088 3.27246 15.6707 3.24415 15.6272 3.22692C15.5838 3.20875 15.5364 3.20203 15.4896 3.20741C15.4428 3.21279 15.3982 3.23009 15.36 3.25765L14.6037 3.8015C14.5288 3.77745 14.454 3.75473 14.3778 3.73335L14.0518 2.85678C14.0373 2.81093 14.0107 2.76984 13.9748 2.73784C13.939 2.70584 13.8951 2.68411 13.8479 2.67495C13.8007 2.66578 13.7519 2.66952 13.7067 2.68576C13.6614 2.70201 13.6214 2.73016 13.5908 2.76725L12.9547 3.4514L12.7222 3.43537L12.2292 2.63363C12.2049 2.59319 12.1707 2.55966 12.1297 2.53626C12.0888 2.51286 12.0425 2.50038 11.9953 2.5C11.9482 2.49982 11.9019 2.51208 11.8611 2.53554C11.8203 2.55901 11.7864 2.59284 11.7628 2.63363L11.2684 3.43537L11.0359 3.45809L10.3972 2.76725C10.3652 2.73327 10.3252 2.70796 10.2808 2.6937C10.2364 2.67944 10.1891 2.6767 10.1433 2.68574C10.0972 2.69432 10.0541 2.71489 10.0185 2.74538C9.98281 2.77587 9.95582 2.81522 9.94019 2.85945L9.61281 3.73335L9.38832 3.8015L8.62933 3.25498C8.59109 3.22754 8.54647 3.21031 8.4997 3.20493C8.45293 3.19956 8.40557 3.2062 8.36209 3.22424C8.3188 3.24207 8.28096 3.27096 8.25235 3.30801C8.22374 3.34507 8.20537 3.38898 8.19907 3.43537L8.04807 4.35738L7.84496 4.46828L6.98977 4.07944C6.94695 4.06025 6.89996 4.05226 6.85321 4.05624C6.80646 4.06021 6.76148 4.07601 6.72252 4.10215C6.68317 4.12765 6.65122 4.16305 6.62987 4.2048C6.60853 4.24655 6.59854 4.29318 6.60092 4.34L6.63299 5.27537C6.57286 5.32348 6.51273 5.37292 6.45394 5.4237L5.53995 5.20722C5.49425 5.19685 5.44667 5.19815 5.4016 5.21099C5.35653 5.22384 5.31542 5.24781 5.28205 5.28072C5.2484 5.31356 5.22401 5.35469 5.21134 5.39997C5.19867 5.44526 5.19817 5.49308 5.2099 5.53861L5.4237 6.45126L5.27537 6.63166L4.34 6.59825C4.29327 6.59718 4.24704 6.60802 4.20566 6.62977C4.16428 6.65151 4.12912 6.68343 4.10349 6.72252C4.0767 6.76124 4.06062 6.80634 4.05686 6.85327C4.05311 6.9002 4.06182 6.94729 4.08211 6.98977L4.46695 7.84496C4.4282 7.91445 4.39078 7.97859 4.3547 8.05208L3.43537 8.2004C3.38845 8.20673 3.34406 8.2254 3.30673 8.25451C3.2694 8.28363 3.24047 8.32213 3.22291 8.3661C3.20394 8.40938 3.1968 8.45692 3.2022 8.50387C3.2076 8.55082 3.22535 8.59549 3.25364 8.63334L3.80016 9.39233C3.77611 9.46716 3.7534 9.54332 3.73068 9.61949L2.85411 9.94286C2.81068 9.95983 2.77227 9.98756 2.74249 10.0234C2.71271 10.0593 2.69253 10.1022 2.68385 10.148C2.67517 10.1938 2.67827 10.2411 2.69285 10.2854C2.70744 10.3296 2.73304 10.3695 2.76725 10.4012L3.45408 11.0399C3.44472 11.1174 3.43804 11.1949 3.43136 11.2724L2.63363 11.7655C2.59317 11.7901 2.55966 11.8246 2.53628 11.8657C2.51289 11.9069 2.5004 11.9533 2.5 12.0007C2.49982 12.0478 2.51208 12.0941 2.53554 12.1349C2.55901 12.1757 2.59284 12.2096 2.63363 12.2332L3.43537 12.7262C3.43537 12.8037 3.44873 12.8813 3.45809 12.9588L2.76725 13.5975C2.7331 13.6293 2.70765 13.6693 2.69332 13.7137C2.67898 13.7582 2.67623 13.8055 2.68534 13.8513C2.69444 13.8971 2.71509 13.9398 2.74533 13.9753C2.77557 14.0109 2.81439 14.0381 2.85811 14.0545L3.73469 14.3818C3.7574 14.458 3.78012 14.5328 3.80417 14.609L3.25364 15.368C3.22431 15.4055 3.20554 15.4502 3.19927 15.4974C3.19301 15.5446 3.19948 15.5927 3.21801 15.6366C3.23654 15.6804 3.26646 15.7186 3.30468 15.747C3.3429 15.7754 3.38802 15.7931 3.43537 15.7983L4.36005 15.9493C4.39613 16.0187 4.43221 16.0829 4.47096 16.1564L4.08211 17.0076C4.06279 17.0501 4.05464 17.097 4.05843 17.1436C4.06222 17.1902 4.07782 17.2351 4.10376 17.274C4.1297 17.3129 4.16512 17.3445 4.20669 17.366C4.24826 17.3874 4.2946 17.3979 4.34134 17.3964L5.27671 17.363L5.42503 17.5434L5.21123 18.456C5.19993 18.5015 5.20076 18.5491 5.21366 18.5942C5.22656 18.6392 5.25107 18.68 5.28473 18.7126C5.31809 18.7455 5.35925 18.7694 5.40436 18.782C5.44947 18.7946 5.49704 18.7956 5.54262 18.7848L6.45527 18.571C6.51407 18.6217 6.5742 18.6698 6.63567 18.7179L6.60226 19.6533C6.60043 19.7002 6.61067 19.7467 6.63199 19.7885C6.65331 19.8303 6.68501 19.8659 6.72403 19.8919C6.76306 19.9179 6.80811 19.9335 6.85487 19.9371C6.90164 19.9407 6.94855 19.9323 6.9911 19.9125L7.84496 19.5277L8.05208 19.6386L8.20307 20.5633C8.20984 20.6097 8.22872 20.6536 8.2578 20.6904C8.28689 20.7272 8.32516 20.7557 8.36877 20.7731C8.41205 20.792 8.45959 20.7992 8.50654 20.7938C8.55349 20.7884 8.59817 20.7706 8.63602 20.7424L9.395 20.1958C9.46983 20.2199 9.546 20.2439 9.62216 20.2653L9.94954 21.1419C9.96536 21.1859 9.99245 21.2249 10.0281 21.2552C10.0637 21.2854 10.1067 21.3058 10.1526 21.3143C10.1984 21.3241 10.2459 21.3217 10.2905 21.3074C10.335 21.2931 10.3751 21.2674 10.4065 21.2328L11.0453 20.5473L11.2778 20.57L11.7708 21.3717C11.795 21.412 11.829 21.4454 11.8697 21.4688C11.9104 21.4921 11.9564 21.5047 12.0033 21.5053C12.0507 21.5049 12.0971 21.4925 12.1383 21.4691C12.1794 21.4457 12.2139 21.4122 12.2385 21.3717L12.7316 20.57L12.9641 20.5473L13.5908 21.2328C13.6228 21.2669 13.6629 21.2923 13.7074 21.3066C13.7519 21.3209 13.7993 21.3236 13.8452 21.3145C13.891 21.3054 13.9338 21.2848 13.9695 21.2546C14.0052 21.2244 14.0326 21.1856 14.0491 21.1419L14.3805 20.272C14.4567 20.2506 14.5315 20.2266 14.6077 20.2025L15.3667 20.749C15.404 20.7783 15.4485 20.7971 15.4955 20.8035C15.5425 20.8099 15.5904 20.8037 15.6342 20.7854C15.678 20.7672 15.7162 20.7376 15.7448 20.6998C15.7734 20.6619 15.7914 20.6171 15.7969 20.57L15.9479 19.6453L16.155 19.5344L17.0062 19.9232C17.0488 19.9429 17.0957 19.9514 17.1425 19.9478C17.1892 19.9442 17.2343 19.9286 17.2733 19.9026C17.3123 19.8766 17.344 19.841 17.3653 19.7992C17.3867 19.7574 17.3969 19.7109 17.3951 19.664L17.3617 18.7286C17.4231 18.6805 17.4833 18.6324 17.5421 18.5817L18.4547 18.7954C18.5003 18.8062 18.5479 18.8053 18.593 18.7927C18.6381 18.78 18.6792 18.7562 18.7126 18.7233C18.7463 18.6907 18.7708 18.6499 18.7837 18.6048C18.7966 18.5598 18.7974 18.5122 18.7861 18.4667L18.5723 17.5541C18.6217 17.494 18.6712 17.4352 18.7193 17.3737L19.6547 17.4071C19.7014 17.4085 19.7477 17.3981 19.7893 17.3766C19.8309 17.3552 19.8663 17.3236 19.8922 17.2847C19.9182 17.2457 19.9338 17.2009 19.9376 17.1543C19.9414 17.1076 19.9332 17.0608 19.9139 17.0183L19.525 16.1671L19.6359 15.9599L20.5593 15.809C20.6057 15.8022 20.6496 15.7833 20.6864 15.7542C20.7232 15.7251 20.7517 15.6869 20.7691 15.6433C20.7872 15.5998 20.794 15.5524 20.7886 15.5056C20.7832 15.4588 20.7659 15.4142 20.7383 15.376L20.1918 14.617C20.2145 14.5422 20.2386 14.466 20.26 14.3899L21.1365 14.0625C21.1816 14.0478 21.222 14.0213 21.2535 13.9858C21.2849 13.9503 21.3064 13.9071 21.3157 13.8606C21.3249 13.814 21.3216 13.7659 21.3061 13.7211C21.2906 13.6762 21.2634 13.6364 21.2274 13.6055L20.5419 12.9668C20.5499 12.8893 20.558 12.8118 20.5646 12.7343L21.3664 12.2412C21.4067 12.2171 21.4402 12.1831 21.4636 12.1424C21.487 12.1017 21.4995 12.0556 21.5 12.0087C21.4997 11.9613 21.4873 11.9148 21.4639 11.8736C21.4405 11.8325 21.4069 11.798 21.3664 11.7735L21.3597 11.7655ZM16.0228 18.3919C15.9132 18.369 15.8129 18.3141 15.7345 18.2341C15.6562 18.1542 15.6034 18.0527 15.5828 17.9427C15.5621 17.8327 15.5747 17.719 15.6187 17.6161C15.6628 17.5132 15.7364 17.4257 15.8303 17.3647C15.9241 17.3037 16.034 17.2719 16.1459 17.2734C16.2578 17.2749 16.3668 17.3097 16.459 17.3732C16.5512 17.4367 16.6224 17.5261 16.6637 17.6302C16.705 17.7342 16.7144 17.8482 16.6909 17.9576C16.6594 18.1036 16.5715 18.2312 16.4464 18.3125C16.3212 18.3939 16.1689 18.4224 16.0228 18.3919V18.3919ZM15.7555 16.5586C15.6891 16.5443 15.6204 16.5434 15.5536 16.5559C15.4868 16.5684 15.4232 16.5941 15.3664 16.6314C15.3096 16.6686 15.2607 16.7169 15.2227 16.7732C15.1847 16.8295 15.1582 16.8928 15.1448 16.9595L14.8616 18.281C13.9511 18.6923 12.9627 18.9028 11.9637 18.8982C10.9646 18.8936 9.97826 18.674 9.07163 18.2543L8.78033 16.9314C8.76665 16.8649 8.73998 16.8018 8.70186 16.7457C8.66374 16.6895 8.61492 16.6415 8.55819 16.6042C8.50146 16.567 8.43794 16.5413 8.37127 16.5287C8.3046 16.516 8.23609 16.5166 8.16967 16.5305L7.00313 16.7817C6.78622 16.5584 6.58486 16.3204 6.40049 16.0695H12.0875C12.1517 16.0695 12.1944 16.0588 12.1944 16V13.9917C12.1944 13.9329 12.1517 13.9222 12.0875 13.9222H10.4266V12.6421H12.2211C12.3855 12.6421 13.0991 12.6888 13.3249 13.6015C13.397 13.8808 13.5547 14.7921 13.6616 15.0834C13.7685 15.4108 14.1961 16.0642 14.6651 16.0642H17.4966C17.5312 16.0637 17.5656 16.0601 17.5995 16.0535C17.4032 16.3203 17.1884 16.573 16.9568 16.8098L15.7622 16.5532L15.7555 16.5586ZM7.89173 18.3652C7.7823 18.3888 7.66833 18.3793 7.56428 18.338C7.46023 18.2967 7.37077 18.2255 7.30726 18.1333C7.24375 18.0411 7.20905 17.9322 7.20754 17.8202C7.20603 17.7083 7.2378 17.5984 7.29881 17.5046C7.35981 17.4107 7.44731 17.3371 7.55022 17.293C7.65312 17.249 7.76679 17.2364 7.87682 17.2571C7.98685 17.2777 8.08828 17.3305 8.16824 17.4088C8.24821 17.4872 8.30312 17.5875 8.32601 17.6971C8.3569 17.8432 8.32852 17.9957 8.24709 18.121C8.16567 18.2462 8.03786 18.3341 7.89173 18.3652V18.3652ZM5.73237 9.63285C5.77812 9.73499 5.79251 9.84841 5.77374 9.95873C5.75496 10.0691 5.70386 10.1713 5.6269 10.2526C5.54994 10.3338 5.4506 10.3904 5.34145 10.4152C5.23231 10.4399 5.11827 10.4317 5.0138 10.3915C4.90934 10.3514 4.81913 10.2812 4.75463 10.1897C4.69012 10.0982 4.65422 9.9897 4.65146 9.87782C4.64871 9.76594 4.67923 9.65576 4.73915 9.56124C4.79908 9.46673 4.88571 9.39213 4.98808 9.3469C5.12487 9.28759 5.27948 9.28433 5.41865 9.3378C5.55783 9.39127 5.67047 9.49721 5.73237 9.63285V9.63285ZM5.06425 11.2016L6.28023 10.6604C6.34247 10.6335 6.39878 10.5946 6.44593 10.5459C6.49308 10.4972 6.53014 10.4397 6.55498 10.3766C6.57981 10.3135 6.59193 10.2461 6.59065 10.1783C6.58936 10.1106 6.57469 10.0437 6.54747 9.98161L6.29626 9.41504H7.28107V13.8447H5.30611C5.12913 13.2245 5.03919 12.5828 5.03886 11.9379C5.03941 11.6888 5.05279 11.4399 5.07895 11.1922L5.06425 11.2016ZM10.4065 10.7713V9.46448H12.7476C12.8692 9.46448 13.6028 9.60479 13.6028 10.1526C13.6028 10.6083 13.0403 10.7713 12.5779 10.7713H10.4065ZM18.9197 11.9472C18.9197 12.1209 18.9197 12.292 18.901 12.463H18.1875C18.1166 12.463 18.0872 12.5098 18.0872 12.5793V12.9066C18.0872 13.6763 17.6543 13.842 17.2721 13.8874C16.91 13.9275 16.5078 13.7351 16.4597 13.5133C16.2446 12.3107 15.8891 12.0528 15.3266 11.6065C16.0254 11.1642 16.751 10.5081 16.751 9.62884C16.751 8.68278 16.1029 8.08682 15.662 7.79418C15.2145 7.50784 14.701 7.34128 14.1707 7.31047H6.80002C7.81912 6.17131 9.18365 5.39776 10.6845 5.10834L11.5544 6.01966C11.6011 6.0686 11.657 6.10785 11.7189 6.13515C11.7808 6.16245 11.8475 6.17727 11.9152 6.17876C11.9828 6.18025 12.0501 6.16838 12.1131 6.14383C12.1762 6.11928 12.2338 6.08253 12.2826 6.03569L13.2554 5.10701C14.2468 5.29413 15.1856 5.6946 16.0068 6.28067C16.8279 6.86673 17.5118 7.62437 18.0111 8.50106L17.343 10.0043C17.3157 10.0664 17.3011 10.1333 17.2998 10.2011C17.2985 10.2688 17.3106 10.3362 17.3355 10.3993C17.3603 10.4624 17.3973 10.5199 17.4445 10.5686C17.4916 10.6173 17.548 10.6563 17.6102 10.6831L18.8917 11.2537C18.9144 11.4795 18.9264 11.7107 18.9264 11.9432L18.9197 11.9472ZM11.5504 4.34134C11.6313 4.26498 11.733 4.21427 11.8426 4.19558C11.9523 4.17689 12.0651 4.19106 12.1667 4.23631C12.2683 4.28156 12.3543 4.35587 12.4138 4.44987C12.4733 4.54388 12.5037 4.65339 12.5011 4.76462C12.4985 4.87584 12.4631 4.98381 12.3992 5.07494C12.3354 5.16607 12.2461 5.23629 12.1424 5.27675C12.0388 5.3172 11.9255 5.3261 11.8168 5.30232C11.7081 5.27854 11.6089 5.22313 11.5316 5.14308C11.4797 5.08951 11.4389 5.02612 11.4117 4.95663C11.3844 4.88713 11.3713 4.81291 11.3731 4.73829C11.3748 4.66368 11.3914 4.59015 11.4218 4.522C11.4523 4.45385 11.4959 4.39244 11.5504 4.34134V4.34134ZM18.1581 9.66091C18.2036 9.55917 18.2782 9.47319 18.3726 9.41384C18.4669 9.35449 18.5767 9.32443 18.6881 9.32746C18.7996 9.33049 18.9076 9.36647 18.9986 9.43086C19.0895 9.49525 19.1594 9.58515 19.1993 9.68922C19.2392 9.79329 19.2474 9.90686 19.2228 10.0156C19.1982 10.1243 19.142 10.2233 19.0611 10.3C18.9803 10.3768 18.8786 10.4279 18.7687 10.4468C18.6589 10.4658 18.5459 10.4518 18.444 10.4065C18.3761 10.3766 18.3148 10.3335 18.2636 10.2797C18.2124 10.2259 18.1724 10.1626 18.1458 10.0933C18.1192 10.024 18.1066 9.95007 18.1087 9.87586C18.1108 9.80166 18.1276 9.7286 18.1581 9.66091V9.66091Z" fill="white"/>
</svg>
