<svg width="24" height="25" viewBox="0 0 24 25" fill="none" xmlns="http://www.w3.org/2000/svg">
<path d="M6 9.72603C6 9.72603 17.9988 10.9259 17.9988 12.9257V8.12619C17.9988 8.12619 17.9988 6.12639 6 4.92651V9.72603Z" fill="url(#paint0_linear_1960:5378)"/>
<path d="M6 16.1254C6 16.1254 17.9988 17.3253 17.9988 19.3251V14.5256C17.9988 14.5256 17.9988 12.5258 6 11.3259V16.1254Z" fill="url(#paint1_linear_1960:5378)"/>
<path d="M17.9998 1.72632V6.52583C17.9998 6.52583 17.9998 8.52563 6.00098 9.72551V4.92599C6.00098 4.92599 17.9998 3.72612 17.9998 1.72632Z" fill="url(#paint2_linear_1960:5378)"/>
<path d="M6 11.3257C6 11.3257 17.9988 10.1258 17.9988 8.12598V12.9255C17.9988 12.9255 17.9988 14.9253 6 16.1252V11.3257Z" fill="url(#paint3_linear_1960:5378)"/>
<path d="M6 22.5248V17.7253C6 17.7253 17.9988 16.5254 17.9988 14.5256V19.3251C17.9988 19.3251 17.9988 21.3249 6 22.5248" fill="url(#paint4_linear_1960:5378)"/>
<defs>
<linearGradient id="paint0_linear_1960:5378" x1="6.02048" y1="8.89795" x2="17.977" y2="8.89795" gradientUnits="userSpaceOnUse">
<stop stop-color="#656565"/>
<stop offset="1" stop-color="#010101"/>
</linearGradient>
<linearGradient id="paint1_linear_1960:5378" x1="6.02048" y1="15.3111" x2="17.977" y2="15.3111" gradientUnits="userSpaceOnUse">
<stop stop-color="#656565"/>
<stop offset="1" stop-color="#010101"/>
</linearGradient>
<linearGradient id="paint2_linear_1960:5378" x1="6.02145" y1="5.73007" x2="17.978" y2="5.73007" gradientUnits="userSpaceOnUse">
<stop stop-color="#9F1C20"/>
<stop offset="1" stop-color="#ED2224"/>
</linearGradient>
<linearGradient id="paint3_linear_1960:5378" x1="6.02048" y1="12.1464" x2="17.977" y2="12.1464" gradientUnits="userSpaceOnUse">
<stop stop-color="#9F1C20"/>
<stop offset="1" stop-color="#ED2224"/>
</linearGradient>
<linearGradient id="paint4_linear_1960:5378" x1="6.02048" y1="18.5604" x2="17.977" y2="18.5604" gradientUnits="userSpaceOnUse">
<stop stop-color="#9F1C20"/>
<stop offset="1" stop-color="#ED2224"/>
</linearGradient>
</defs>
</svg>
