<svg width="24" height="24" viewBox="0 0 24 24" fill="none" xmlns="http://www.w3.org/2000/svg">
<path d="M13.3617 10.6809C13.3617 11.4329 12.7521 12.0426 12 12.0426C11.248 12.0426 10.6383 11.4329 10.6383 10.6809C10.6383 9.92881 11.248 9.31915 12 9.31915C12.7521 9.31915 13.3617 9.92881 13.3617 10.6809Z" fill="white"/>
<path d="M11.4704 11.4468H12.5674L13.0213 14.6809H10.9787L11.4704 11.4468Z" fill="white"/>
<path fill-rule="evenodd" clip-rule="evenodd" d="M10.1277 2.00002H13.8723V3.92419C14.6962 4.11881 15.4727 4.43625 16.1813 4.85612L17.5125 3.4491L20.2327 6.02266L18.8914 7.44036C19.4239 8.2486 19.819 9.15547 20.0432 10.1277H22V13.8724H20.0432C19.8543 14.6915 19.5441 15.4642 19.1326 16.1706L20.5509 17.5125L17.9773 20.2327L16.5685 18.8998C15.7591 19.4418 14.8491 19.8451 13.8723 20.0758V22H10.1277V20.0955C9.29332 19.9077 8.50654 19.5943 7.78827 19.176L6.48749 20.5509L3.76731 17.9774L5.05859 16.6125C4.50827 15.791 4.10078 14.8658 3.87167 13.8724H1.99999L1.99999 10.1277H3.87166C4.0652 9.28851 4.38601 8.49801 4.81267 7.77761L3.44908 6.48752L6.02264 3.76734L7.39635 5.067C8.21673 4.5262 9.13878 4.1271 10.1277 3.90455V2.00002ZM11.9574 18.1702C15.3651 18.1702 18.1276 15.4077 18.1276 12C18.1276 8.5923 15.3651 5.8298 11.9574 5.8298C8.54971 5.8298 5.78722 8.5923 5.78722 12C5.78722 15.4077 8.54971 18.1702 11.9574 18.1702Z" fill="#33CB9A"/>
</svg>
