<svg width="24" height="24" viewBox="0 0 24 24" fill="none" xmlns="http://www.w3.org/2000/svg">
<rect x="3.5" y="3.45264" width="17" height="17" rx="1.36" fill="white"/>
<path d="M5.78484 14.0593C5.7114 14.0593 5.6502 14.0389 5.60124 13.9981C5.56044 13.9491 5.54004 13.8879 5.54004 13.8145V13.2759C5.54004 13.1861 5.56044 13.1127 5.60124 13.0556C5.64204 12.9985 5.71548 12.9332 5.82156 12.8597L9.08964 10.6198L5.82156 8.37991C5.71548 8.31463 5.64204 8.25343 5.60124 8.19631C5.56044 8.13919 5.54004 8.06575 5.54004 7.97599V7.43743C5.54004 7.36399 5.56044 7.30687 5.60124 7.26607C5.6502 7.21711 5.7114 7.19263 5.78484 7.19263C5.85828 7.19263 5.9562 7.23343 6.0786 7.31503L9.9342 9.95887C10.0648 10.0568 10.1545 10.1465 10.2035 10.2281C10.2606 10.3097 10.2892 10.4077 10.2892 10.5219V10.73C10.2892 10.8442 10.2606 10.9421 10.2035 11.0237C10.1464 11.1053 10.0566 11.191 9.9342 11.2808L6.0786 13.9369C5.9562 14.0185 5.85828 14.0593 5.78484 14.0593Z" fill="#33CB9A"/>
<path d="M10.9217 16.2108C10.8401 16.2108 10.7707 16.1863 10.7136 16.1373C10.6646 16.0884 10.6401 16.019 10.6401 15.9293V15.4641C10.6401 15.3825 10.6646 15.3173 10.7136 15.2683C10.7707 15.2112 10.8401 15.1826 10.9217 15.1826H18.0209C18.1025 15.1826 18.1677 15.2112 18.2167 15.2683C18.2738 15.3173 18.3024 15.3825 18.3024 15.4641V15.9293C18.3024 16.019 18.2779 16.0884 18.2289 16.1373C18.18 16.1863 18.1106 16.2108 18.0209 16.2108H10.9217Z" fill="#33CB9A"/>
</svg>
