<svg width="24" height="24" viewBox="0 0 24 24" fill="none" xmlns="http://www.w3.org/2000/svg">
<path opacity="0.25" fill-rule="evenodd" clip-rule="evenodd" d="M12 4.66667C7.94991 4.66667 4.66667 7.94991 4.66667 12C4.66667 16.0501 7.94991 19.3333 12 19.3333C16.0501 19.3333 19.3333 16.0501 19.3333 12C19.3333 7.94991 16.0501 4.66667 12 4.66667ZM1 12C1 5.92487 5.92487 1 12 1C18.0751 1 23 5.92487 23 12C23 18.0751 18.0751 23 12 23C5.92487 23 1 18.0751 1 12Z" fill="currentColor"/>
<path d="M4.66667 11.8336C4.66667 9.91809 5.43928 8.08104 6.81455 6.72658C8.18982 5.37212 10.0551 4.61119 12 4.61119V1C5.92525 1 1 5.85074 1 11.8336H4.66667ZM6.25 16.6103C5 14.5 4.66356 13.5931 4.66667 11.8336H1C1 14.5799 1.79042 17.0915 3.5 19L6.25 16.6103Z" fill="currentColor"/>
</svg>
