<svg width="24" height="25" viewBox="0 0 24 25" fill="none" xmlns="http://www.w3.org/2000/svg">
<path d="M20.4612 5.36572C20.2026 3.76737 16.5092 2.5 11.9888 2.5C7.46841 2.5 3.77495 3.76737 3.5164 5.36572H3.50049V5.54484V9.66436V9.84348V10.0226V13.963V14.1421V14.3212V18.6198H3.5164C3.77495 20.2178 7.46876 21.4855 11.9888 21.4855C16.5088 21.4855 20.2026 20.2178 20.4612 18.6198H20.4771V14.3212V14.1421V13.963V10.0226V9.84348V9.66436V5.54484V5.36572H20.4612Z" fill="#424A60"/>
<path d="M11.9999 17.1981C7.30548 17.1981 3.5 15.8336 3.5 14.1509V18.632H3.51594C3.77483 20.2312 7.47371 21.4999 11.9999 21.4999C16.5261 21.4999 20.2249 20.2312 20.4838 18.632H20.4999V14.1509C20.4999 15.8336 16.6944 17.1981 11.9999 17.1981Z" fill="#424A60"/>
<path d="M3.5 13.9722V14.1517C3.5 14.0914 3.50637 14.0318 3.51592 13.9722H3.5Z" fill="#424A60"/>
<path d="M20.4839 13.9722C20.4935 14.0318 20.4999 14.0914 20.4999 14.1517V13.9722H20.4839Z" fill="#424A60"/>
<path d="M11.9999 12.8963C7.30548 12.8963 3.5 11.5319 3.5 9.84912V14.3303H3.51594C3.77483 15.9295 7.47371 17.1982 11.9999 17.1982C16.5261 17.1982 20.2249 15.9295 20.4838 14.3303H20.4999V9.84912C20.4999 11.5319 16.6944 12.8963 11.9999 12.8963Z" fill="#556080"/>
<path d="M3.5 9.66992V9.84951C3.5 9.78918 3.50637 9.72958 3.51592 9.66992H3.5Z" fill="#556080"/>
<path d="M20.4839 9.66992C20.4935 9.72958 20.4999 9.78918 20.4999 9.84951V9.66992H20.4839Z" fill="#556080"/>
<path d="M11.9888 8.59756C16.6768 8.59756 20.4771 7.23255 20.4771 5.54878C20.4771 3.86497 16.6768 2.5 11.9888 2.5C7.30082 2.5 3.50049 3.86497 3.50049 5.54878C3.50049 7.23255 7.30082 8.59756 11.9888 8.59756Z" fill="#7FABDA"/>
<path d="M11.9999 8.59427C7.30548 8.59427 3.5 7.22983 3.5 5.54712V10.0282H3.51594C3.77483 11.6275 7.47371 12.8961 11.9999 12.8961C16.5261 12.8961 20.2249 11.6275 20.4838 10.0282H20.4999V5.54712C20.4999 7.22983 16.6944 8.59427 11.9999 8.59427Z" fill="#7383BF"/>
<path d="M3.5 5.36743V5.54702C3.5 5.48669 3.50637 5.42704 3.51592 5.36743H3.5Z" fill="#7383BF"/>
<path d="M20.4839 5.36743C20.4935 5.42704 20.4999 5.48669 20.4999 5.54702V5.36743H20.4839Z" fill="#7383BF"/>
</svg>
