<svg width="24" height="25" viewBox="0 0 24 25" fill="none" xmlns="http://www.w3.org/2000/svg">
<path d="M14.1908 5.7067C14.4207 5.49413 14.6041 5.23635 14.7296 4.94954C14.8551 4.66273 14.9199 4.35307 14.9201 4.04001V2.5C14.9201 1.67157 14.2485 1 13.4201 1H11.8601C11.0316 1 10.3601 1.67157 10.3601 2.5V4.04001C10.3602 4.35307 10.425 4.66273 10.5505 4.94954C10.676 5.23635 10.8594 5.49413 11.0893 5.7067C9.17625 6.07022 7.44976 7.0892 6.20695 8.58829C4.96414 10.0874 4.28274 11.9728 4.28003 13.92V20.3801C4.28104 21.2868 4.64168 22.1561 5.28284 22.7973C5.924 23.4384 6.79331 23.7991 7.70004 23.8001H17.5801C18.4868 23.7991 19.3561 23.4384 19.9973 22.7973C20.6384 22.1561 20.9991 21.2868 21.0001 20.3801V13.92C20.9974 11.9728 20.316 10.0874 19.0732 8.58829C17.8304 7.0892 16.1039 6.07022 14.1908 5.7067ZM11.1201 4.04001V2.76C11.1201 2.20772 11.5678 1.76 12.1201 1.76H13.1601C13.7124 1.76 14.1601 2.20772 14.1601 2.76V4.04001C14.1601 4.44314 13.9999 4.82976 13.7149 5.11482C13.4298 5.39987 13.0432 5.56002 12.6401 5.56002C12.2369 5.56002 11.8503 5.39987 11.5653 5.11482C11.2802 4.82976 11.1201 4.44314 11.1201 4.04001ZM20.2401 20.3801C20.2393 21.0853 19.9588 21.7614 19.4601 22.2601C18.9614 22.7588 18.2853 23.0393 17.5801 23.0401H7.70004C6.99481 23.0393 6.31869 22.7588 5.82002 22.2601C5.32135 21.7614 5.04084 21.0853 5.04003 20.3801V13.92C5.04313 12.2354 5.60537 10.5994 6.63856 9.26879C7.67175 7.93816 9.11743 6.98814 10.7488 6.56778C10.4949 6.94345 10.3595 7.38661 10.3601 7.84003V10.12C10.3601 10.3299 10.5302 10.5 10.7401 10.5C10.9499 10.5 11.1201 10.3299 11.1201 10.12V7.84003C11.1201 7.4369 11.2802 7.05028 11.5653 6.76522C11.8503 6.48016 12.2369 6.32002 12.6401 6.32002C13.0432 6.32002 13.4298 6.48016 13.7149 6.76522C13.9999 7.05028 14.1601 7.4369 14.1601 7.84003V10.12C14.1601 10.3299 14.3302 10.5 14.5401 10.5C14.7499 10.5 14.9201 10.3299 14.9201 10.12V7.84003C14.9206 7.38661 14.7852 6.94345 14.5313 6.56778C16.1627 6.98814 17.6084 7.93816 18.6416 9.26879C19.6747 10.5994 20.237 12.2354 20.2401 13.92V20.3801Z" fill="#C0C1C3" stroke="currentColor" stroke-width="0.5"/>
<path d="M15.3001 20.7601C15.6024 20.7601 15.8924 20.64 16.1062 20.4262C16.32 20.2124 16.4401 19.9224 16.4401 19.6201C16.4401 19.3177 16.32 19.0278 16.1062 18.814C15.8924 18.6002 15.6024 18.4801 15.3001 18.4801C15.1993 18.4801 15.1027 18.4401 15.0314 18.3688C14.9601 18.2975 14.9201 18.2009 14.9201 18.1001V17.3401C14.9201 17.1302 14.75 16.9601 14.5401 16.9601C14.3302 16.9601 14.1601 17.1302 14.1601 17.3401V18.1001C14.1601 18.4024 14.2802 18.6924 14.494 18.9062C14.7078 19.12 14.9978 19.2401 15.3001 19.2401C15.4009 19.2401 15.4975 19.2801 15.5688 19.3514C15.6401 19.4227 15.6801 19.5193 15.6801 19.6201C15.6801 19.7209 15.6401 19.8175 15.5688 19.8888C15.4975 19.9601 15.4009 20.0001 15.3001 20.0001C14.9978 20.0001 14.7078 20.1202 14.494 20.334C14.2802 20.5478 14.1601 20.8378 14.1601 21.1401C14.1601 21.4424 14.2802 21.7324 14.494 21.9462C14.7078 22.16 14.9978 22.2801 15.3001 22.2801H16.0601C16.27 22.2801 16.4401 22.11 16.4401 21.9001C16.4401 21.6902 16.27 21.5201 16.0601 21.5201H15.3001C15.1993 21.5201 15.1027 21.4801 15.0314 21.4088C14.9601 21.3375 14.9201 21.2409 14.9201 21.1401C14.9201 21.0393 14.9601 20.9427 15.0314 20.8714C15.1027 20.8001 15.1993 20.7601 15.3001 20.7601Z" fill="#C0C1C3" stroke="currentColor" stroke-width="0.5"/>
<path d="M14.9201 12.818V12.4C14.9201 12.1902 14.75 12.02 14.5401 12.02C14.3302 12.02 14.1601 12.1902 14.1601 12.4V12.818C13.7312 12.9062 13.3458 13.1395 13.0689 13.4787C12.792 13.8179 12.6406 14.2422 12.6401 14.68V15.82C12.6401 16.0299 12.8102 16.2 13.0201 16.2C13.3161 16.1992 13.6079 16.129 13.8719 15.995C14.1359 15.8609 14.3647 15.6668 14.5401 15.4283C14.7154 15.6668 14.9443 15.8609 15.2083 15.995C15.4723 16.129 15.764 16.1992 16.0601 16.2C16.27 16.2 16.4401 16.0299 16.4401 15.82V14.68C16.4396 14.2422 16.2882 13.8179 16.0113 13.4787C15.7344 13.1395 15.349 12.9062 14.9201 12.818ZM13.4001 15.3747V14.68C13.4003 14.4443 13.4735 14.2144 13.6096 14.022C13.7456 13.8295 13.9379 13.6838 14.1601 13.605V14.3C14.1598 14.5357 14.0867 14.7656 13.9506 14.9581C13.8145 15.1506 13.6222 15.2958 13.4001 15.3747ZM15.6801 15.3747C15.458 15.2959 15.2657 15.1503 15.1297 14.9579C14.9936 14.7655 14.9204 14.5357 14.9201 14.3V13.605C15.1422 13.6838 15.3345 13.8295 15.4706 14.022C15.6067 14.2144 15.6799 14.4443 15.6801 14.68V15.3747Z" fill="#C0C1C3" stroke="currentColor" stroke-width="0.5"/>
<path d="M17.2001 21.9001C17.2001 22.11 17.3703 22.2801 17.5801 22.2801C17.79 22.2801 17.9601 22.11 17.9601 21.9001C17.9601 21.6902 17.79 21.5201 17.5801 21.5201C17.3703 21.5201 17.2001 21.6902 17.2001 21.9001Z" fill="#C0C1C3" stroke="currentColor" stroke-width="0.5"/>
<path d="M5.42008 4.89121C5.52712 4.88961 5.63386 4.87944 5.73928 4.86081C5.68753 5.17197 5.71062 5.49098 5.80663 5.79144C5.90265 6.09191 6.06882 6.36519 6.29142 6.58868C6.4398 6.73706 6.68037 6.73706 6.82874 6.58868L7.58875 5.82868C7.91482 5.50145 8.11717 5.07116 8.16125 4.61132C8.20533 4.15147 8.0884 3.69058 7.83043 3.30737L7.85741 3.28001L8.08009 3.05733C8.22846 2.90895 8.22846 2.66838 8.08009 2.52C7.93171 2.37163 7.69114 2.37163 7.54276 2.52L7.32008 2.74268L7.29386 2.7689C6.96533 2.54582 6.5772 2.42691 6.18008 2.42766C5.91885 2.42722 5.66011 2.4785 5.4188 2.57855C5.17748 2.6786 4.95836 2.82543 4.77407 3.01059L4.01152 3.77146C3.86295 3.9197 3.8629 4.16037 4.01141 4.30867C4.19628 4.49375 4.4159 4.64049 4.65764 4.74046C4.89938 4.84043 5.15848 4.89166 5.42008 4.89121ZM7.2779 3.85989C7.39567 4.09206 7.43704 4.35551 7.39609 4.6126C7.35514 4.86969 7.23397 5.10726 7.0499 5.29135L6.60074 5.74014C6.48297 5.50797 6.44161 5.24451 6.48256 4.98742C6.52351 4.73033 6.64467 4.49276 6.82874 4.30867L7.2779 3.85989ZM5.30988 3.54829C5.42388 3.43363 5.55949 3.34272 5.70886 3.28082C5.85823 3.21892 6.01839 3.18726 6.18008 3.18767C6.37483 3.18735 6.56684 3.23347 6.7402 3.32219L6.29142 3.77135C6.10726 3.95532 5.8697 4.07641 5.61264 4.11736C5.35558 4.1583 5.09215 4.117 4.85995 3.99935L5.30988 3.54829Z" fill="#C0C1C3" stroke="currentColor" stroke-width="0.5"/>
<path d="M4.66015 5.56033C4.51174 5.41181 4.27101 5.41177 4.12255 5.56023L3.44709 6.23569C2.98583 6.69486 2.62038 7.24111 2.37198 7.84269C2.17253 8.3257 2.05172 8.83666 2.01335 9.35619C1.99776 9.56717 2.17267 9.73756 2.3842 9.73449C2.59249 9.73147 2.75777 9.56112 2.77604 9.35361C2.81307 8.93309 2.91406 8.51993 3.07618 8.12858C3.28634 7.62124 3.59505 7.16062 3.98442 6.77339L4.66006 6.09775C4.80845 5.94935 4.80849 5.70877 4.66015 5.56033Z" fill="#C0C1C3" stroke="currentColor" stroke-width="0.5"/>
<path d="M2.00006 10.8801C2.00006 11.0899 2.17019 11.2601 2.38006 11.2601C2.58993 11.2601 2.76006 11.0899 2.76006 10.8801C2.76006 10.6702 2.58993 10.5001 2.38006 10.5001C2.17019 10.5001 2.00006 10.6702 2.00006 10.8801Z" fill="#C0C1C3" stroke="currentColor" stroke-width="0.5"/>
</svg>
