<svg xmlns="http://www.w3.org/2000/svg" width="24" height="24" fill="none"><g fill="currentColor" clip-path="url(#a)"><path stroke="currentColor" stroke-linecap="round" stroke-linejoin="round" stroke-width="2" d="m12 3.429 2.649 5.642 5.922.91-4.285 4.39 1.011 6.2L12 17.642l-5.297 2.93 1.011-6.202-4.286-4.389 5.923-.91L12 3.429Z"/><path d="m15.779 7.485-1.587-4.46a2.34 2.34 0 0 0-.865-1.113 2.34 2.34 0 0 0-3.51 1.094L8.225 7.485H3.833c-.477 0-.943.145-1.335.417a2.323 2.323 0 0 0-.917 2.51c.125.462.39.874.76 1.18l3.787 3.114-1.592 4.735a2.312 2.312 0 0 0 .841 2.616 2.339 2.339 0 0 0 2.745-.004l3.879-2.82 3.877 2.82a2.338 2.338 0 0 0 3.597-1.164c.152-.472.15-.98-.009-1.449l-1.593-4.737 3.793-3.117a2.309 2.309 0 0 0 .76-2.36l-.073-.23a2.328 2.328 0 0 0-.856-1.096 2.344 2.344 0 0 0-1.325-.415h-4.393Zm4.469 2.337a.07.07 0 0 1-.023.036l-4.168 3.425a1.524 1.524 0 0 0-.476 1.663l1.752 5.212a.063.063 0 0 1 0 .04.073.073 0 0 1-.026.036.09.09 0 0 1-.052.016.088.088 0 0 1-.053-.017L12.9 17.105a1.53 1.53 0 0 0-1.798 0l-4.303 3.128a.088.088 0 0 1-.051.016.088.088 0 0 1-.053-.016.073.073 0 0 1-.027-.036.062.062 0 0 1 0-.04l1.753-5.21a1.52 1.52 0 0 0-.476-1.66L3.773 9.856a.068.068 0 0 1-.02-.033.062.062 0 0 1 0-.038.073.073 0 0 1 .028-.034.09.09 0 0 1 .051-.016h4.901a1.53 1.53 0 0 0 1.44-1.015l1.768-4.973c-.005.017-.006.024-.005.026.029-.018.047-.023.065-.023a.09.09 0 0 1 .05.015.073.073 0 0 1 .028.035l1.751 4.92a1.524 1.524 0 0 0 1.44 1.015h4.899a.09.09 0 0 1 .049.016l.017.016.012.02a.06.06 0 0 1 0 .035Z"/></g><defs><clipPath id="a"><path fill="currentColor" d="M0 0h24v24H0z"/></clipPath></defs></svg>