<svg xmlns="http://www.w3.org/2000/svg" width="24" height="24" fill="none"><path fill="currentColor" d="M1 12.787c1.368 0 1.892.633 1.892 1.614v4.433c0 1.308.885 2.166 2.274 2.166h1.227v-1.512h-.946c-.523 0-.845-.347-.845-.94v-4.331c0-1.165-.443-1.88-1.489-2.227 1.046-.327 1.49-1.022 1.49-2.207V5.452c0-.572.321-.92.844-.92h.946V3H5.166c-1.389 0-2.274.879-2.274 2.186V9.6c0 1.002-.524 1.614-1.892 1.614v1.574ZM18.855 21c1.388 0 2.273-.858 2.273-2.166v-4.433c0-.981.524-1.614 1.872-1.614v-1.574c-1.348 0-1.872-.612-1.872-1.614V5.186C21.128 3.88 20.243 3 18.855 3h-1.248v1.532h.946c.523 0 .845.348.845.92v4.331c0 1.185.463 1.88 1.51 2.207-1.047.347-1.51 1.062-1.51 2.227v4.331c0 .593-.322.94-.845.94h-.946V21h1.248Z"/><path fill="currentColor" d="M8.466 12.01c0 .847-.676 1.533-1.51 1.533-.833 0-1.509-.686-1.509-1.533a1.52 1.52 0 0 1 1.51-1.532c.833 0 1.509.686 1.509 1.532ZM13.497 12.01c0 .847-.676 1.533-1.51 1.533-.833 0-1.509-.686-1.509-1.533a1.52 1.52 0 0 1 1.51-1.532c.833 0 1.509.686 1.509 1.532ZM18.528 12.01c0 .847-.676 1.533-1.51 1.533-.833 0-1.509-.686-1.509-1.533a1.52 1.52 0 0 1 1.51-1.532c.833 0 1.509.686 1.509 1.532Z"/></svg>