<svg width="24" height="24" viewBox="0 0 24 24" fill="none" xmlns="http://www.w3.org/2000/svg">
<path d="M4.85586 12.5049C5.31722 12.7951 5.67786 13.1215 5.93778 13.4841C6.19769 13.8402 6.37964 14.2985 6.48361 14.8589C6.58757 15.4128 6.63956 16.1249 6.63956 16.9953C6.63956 17.6481 6.65255 18.1294 6.67854 18.4394C6.71103 18.7493 6.76952 18.9833 6.85399 19.1416C6.94496 19.3064 7.05218 19.4119 7.17564 19.4581C7.2991 19.5108 7.51029 19.5603 7.80919 19.6065C8.05612 19.6394 8.2608 19.7614 8.42325 19.9724C8.5857 20.1834 8.66693 20.4604 8.66693 20.8032C8.66693 21.6011 8.18932 22 7.23412 22C6.64281 22 6.11322 21.8747 5.64537 21.6242C5.18401 21.3736 4.82662 21.0175 4.5732 20.556C4.31978 20.101 4.18982 19.5768 4.18332 18.9833C4.16383 17.9811 4.14433 17.1766 4.12484 16.57C4.10535 15.9634 4.0761 15.5711 4.03712 15.393C3.93965 14.9512 3.79344 14.6183 3.5985 14.3941C3.41006 14.1699 3.15989 13.9622 2.84799 13.771C2.54258 13.5731 2.3249 13.3984 2.19494 13.2467C2.06498 13.0885 2 12.8412 2 12.5049C2 12.017 2.18844 11.6511 2.56532 11.4071C3.03318 11.1104 3.36458 10.8598 3.55951 10.6554C3.76095 10.4444 3.90066 10.1773 3.97863 9.85424C4.06311 9.52455 4.11184 9.16849 4.12484 8.78605C4.13784 8.39702 4.15733 7.46729 4.18332 5.99688C4.20281 5.08693 4.48548 4.36162 5.03131 3.82093C5.58364 3.27364 6.31791 3 7.23412 3C8.18932 3 8.66693 3.39233 8.66693 4.17699C8.66693 4.53306 8.5857 4.81329 8.42325 5.0177C8.2673 5.22211 8.06261 5.34079 7.80919 5.37376C7.43231 5.42651 7.16914 5.50564 7.01969 5.61114C6.87024 5.71664 6.77277 5.92105 6.72728 6.22436C6.68179 6.52768 6.65255 7.11452 6.63956 7.9849C6.62656 8.8355 6.57458 9.53444 6.48361 10.0817C6.39913 10.6224 6.22694 11.084 5.96702 11.4664C5.71359 11.8489 5.34321 12.195 4.85586 12.5049Z" fill="currentColor"/>
<path d="M19.1441 12.5049C18.7932 12.2808 18.5073 12.0467 18.2864 11.8027C18.0655 11.5587 17.8835 11.262 17.7406 10.9125C17.5976 10.5631 17.4969 10.151 17.4384 9.67621C17.3799 9.19486 17.3507 8.6311 17.3507 7.9849C17.3507 7.35849 17.3377 6.88044 17.3117 6.55076C17.2857 6.21447 17.2337 5.9705 17.1558 5.81884C17.0778 5.66719 16.9673 5.56498 16.8244 5.51223C16.6879 5.45289 16.4767 5.40673 16.1908 5.37376C15.9504 5.34079 15.7457 5.22211 15.5767 5.0177C15.4143 4.81329 15.3331 4.53306 15.3331 4.17699C15.3331 3.39233 15.8042 3 16.7464 3C17.3507 3 17.8803 3.12528 18.3351 3.37585C18.7965 3.61982 19.1571 3.97258 19.4171 4.43415C19.6835 4.88912 19.8199 5.41003 19.8264 5.99688C19.8654 8.18601 19.9109 9.38938 19.9629 9.60698C20.0669 10.0422 20.2196 10.3752 20.421 10.6059C20.6224 10.8301 20.8661 11.0312 21.152 11.2093C21.4379 11.3807 21.6491 11.5521 21.7856 11.7236C21.9285 11.895 22 12.1555 22 12.5049C22 12.9995 21.8148 13.3621 21.4444 13.5929C20.9896 13.8765 20.6582 14.127 20.4502 14.3446C20.2488 14.5556 20.1058 14.8227 20.0214 15.1458C19.9434 15.4623 19.8947 15.9403 19.8752 16.5799C19.8622 17.2195 19.8459 18.0206 19.8264 18.9833C19.8069 19.8933 19.5178 20.6219 18.9589 21.1692C18.4066 21.7231 17.6691 22 16.7464 22C16.2915 22 15.9406 21.8978 15.6937 21.6934C15.4533 21.489 15.3331 21.1923 15.3331 20.8032C15.3331 20.5856 15.3721 20.3845 15.45 20.1999C15.528 20.0219 15.6287 19.8834 15.7522 19.7845C15.8822 19.6856 16.0284 19.6262 16.1908 19.6065C16.4832 19.5669 16.7009 19.5174 16.8439 19.4581C16.9868 19.3988 17.094 19.2867 17.1655 19.1218C17.2435 18.957 17.2922 18.713 17.3117 18.3899C17.3377 18.0734 17.3507 17.6085 17.3507 16.9953C17.3637 16.0854 17.4157 15.3732 17.5066 14.8589C17.5976 14.3446 17.7698 13.9028 18.0232 13.5336C18.2767 13.1643 18.6503 12.8214 19.1441 12.5049Z" fill="currentColor"/>
</svg>
