<svg viewBox="0 0 24 24" fill="none" xmlns="http://www.w3.org/2000/svg">
  <path d="M19.7782 4.22178L15.4564 8.54356L19.7782 4.22178ZM15.4564 15.4564L19.7782 19.7782L15.4564 15.4564ZM8.54356 8.54356L4.22178 4.22178L8.54356 8.54356ZM8.54356 15.4564L4.22178 19.7782L8.54356 15.4564ZM23 12C23 13.4445 22.7155 14.8749 22.1627 16.2095C21.6099 17.5441 20.7996 18.7567 19.7782 19.7782C18.7567 20.7996 17.5441 21.6099 16.2095 22.1627C14.8749 22.7155 13.4445 23 12 23C10.5555 23 9.12506 22.7155 7.79048 22.1627C6.4559 21.6099 5.24327 20.7996 4.22183 19.7782C3.20038 18.7567 2.39013 17.5441 1.83733 16.2095C1.28452 14.8749 1 13.4445 1 12C1 9.08262 2.15893 6.28473 4.22183 4.22183C6.28473 2.15893 9.08262 1 12 1C14.9174 1 17.7153 2.15893 19.7782 4.22183C21.8411 6.28473 23 9.08262 23 12ZM16.8889 12C16.8889 13.2966 16.3738 14.5401 15.457 15.457C14.5401 16.3738 13.2966 16.8889 12 16.8889C10.7034 16.8889 9.45988 16.3738 8.54303 15.457C7.62619 14.5401 7.11111 13.2966 7.11111 12C7.11111 10.7034 7.62619 9.45988 8.54303 8.54303C9.45988 7.62619 10.7034 7.11111 12 7.11111C13.2966 7.11111 14.5401 7.62619 15.457 8.54303C16.3738 9.45988 16.8889 10.7034 16.8889 12V12Z" stroke="currentColor"/>
</svg>
