<svg width="24" height="24" viewBox="0 0 24 24" fill="none" xmlns="http://www.w3.org/2000/svg">
<path d="M12 5C10.2447 5.00004 8.52025 5.46214 7.00009 6.33984C5.47993 7.21754 4.21759 8.47993 3.33994 10.0001C2.46228 11.5203 2.00024 13.2447 2.00026 15.0001C2.00027 16.7554 2.46233 18.4798 3.34 20C3.47261 20.2307 3.69145 20.3993 3.94837 20.4687C4.2053 20.5381 4.47926 20.5026 4.71 20.37C4.94074 20.2374 5.10935 20.0186 5.17874 19.7616C5.24813 19.5047 5.21261 19.2307 5.08 19C4.37144 17.7861 3.99869 16.4055 4 15C4.00048 13.7732 4.28311 12.5629 4.82603 11.4628C5.36895 10.3626 6.15762 9.40208 7.13105 8.65541C8.10448 7.90875 9.2366 7.39597 10.4399 7.15672C11.6431 6.91747 12.8853 6.95816 14.0703 7.27565C15.2553 7.59313 16.3515 8.17891 17.274 8.98768C18.1964 9.79646 18.9205 10.8066 19.3903 11.9399C19.8601 13.0732 20.0629 14.2994 19.9831 15.5236C19.9032 16.7478 19.5429 17.9373 18.93 19C18.8639 19.1141 18.821 19.2402 18.8038 19.371C18.7866 19.5018 18.7955 19.6347 18.8299 19.762C18.8643 19.8893 18.9235 20.0086 19.0042 20.113C19.0849 20.2173 19.1854 20.3047 19.3 20.37C19.5296 20.5004 19.8015 20.5346 20.0563 20.4653C20.3111 20.396 20.5281 20.2287 20.66 20C21.5377 18.4798 21.9997 16.7554 21.9997 15.0001C21.9998 13.2447 21.5377 11.5203 20.6601 10.0001C19.7824 8.47993 18.5201 7.21754 16.9999 6.33984C15.4798 5.46214 13.7553 5.00004 12 5ZM14.84 10.76L13.29 12.3C12.8888 12.1022 12.4473 11.9995 12 12C11.4067 12 10.8266 12.1759 10.3333 12.5056C9.83994 12.8352 9.45543 13.3038 9.22836 13.8519C9.0013 14.4001 8.94189 15.0033 9.05765 15.5853C9.1734 16.1672 9.45912 16.7018 9.87868 17.1213C10.2982 17.5409 10.8328 17.8266 11.4147 17.9424C11.9967 18.0581 12.5999 17.9987 13.1481 17.7716C13.6962 17.5446 14.1648 17.1601 14.4944 16.6667C14.8241 16.1734 15 15.5933 15 15C14.9993 14.556 14.8967 14.1181 14.7 13.72L16.25 12.18C16.3437 12.087 16.4181 11.9764 16.4689 11.8546C16.5197 11.7327 16.5458 11.602 16.5458 11.47C16.5458 11.338 16.5197 11.2073 16.4689 11.0854C16.4181 10.9636 16.3437 10.853 16.25 10.76C16.0626 10.5737 15.8092 10.4692 15.545 10.4692C15.2808 10.4692 15.0274 10.5737 14.84 10.76ZM12 16C11.7348 16 11.4804 15.8946 11.2929 15.7071C11.1054 15.5196 11 15.2652 11 15C11 14.7348 11.1054 14.4804 11.2929 14.2929C11.4804 14.1054 11.7348 14 12 14C12.2609 13.9984 12.5121 14.0989 12.7 14.28C12.7957 14.3738 12.8716 14.4859 12.9231 14.6095C12.9746 14.7332 13.0008 14.866 13 15C13 15.2652 12.8946 15.5196 12.7071 15.7071C12.5196 15.8946 12.2652 16 12 16Z" fill="currentColor"/>
</svg>
