<svg width="24" height="24" viewBox="0 0 24 24" fill="none" xmlns="http://www.w3.org/2000/svg">
<path d="M9.83333 1.16667H14.1667" stroke="currentColor" stroke-width="2" stroke-linecap="round" stroke-linejoin="round"/>
<path d="M12 14.1667V9.83333" stroke="currentColor" stroke-width="2" stroke-linecap="round" stroke-linejoin="round"/>
<path d="M3.33333 13.0833C3.5986 10.9773 4.62755 9.04186 6.22502 7.64407C7.82249 6.24628 9.87739 5.48336 12 5.5C13.4019 5.50149 14.7825 5.84303 16.0234 6.49532C17.2643 7.14762 18.3284 8.09119 19.1245 9.24511C19.9206 10.399 20.4248 11.7288 20.5941 13.1205C20.7633 14.5121 20.5924 15.924 20.0961 17.2351C19.5997 18.5462 18.7928 19.7173 17.7444 20.648C16.696 21.5786 15.4375 22.2411 14.0768 22.5785C12.7161 22.916 11.2939 22.9183 9.93217 22.5853C8.57041 22.2523 7.30975 21.5939 6.25833 20.6667L3.33333 18.0667" stroke="currentColor" stroke-width="2" stroke-linecap="round" stroke-linejoin="round"/>
<path d="M8.75 17.4167H3.33333V22.8333" stroke="currentColor" stroke-width="2" stroke-linecap="round" stroke-linejoin="round"/>
</svg>
