<svg width="24" height="24" viewBox="0 0 24 24" fill="none" xmlns="http://www.w3.org/2000/svg">
<path d="M19.3054 2.66582L3.65504 5.99241C2.57461 6.22206 1.88492 7.2841 2.11457 8.36453L2.32248 9.34268C2.55213 10.4231 3.61417 11.1128 4.6946 10.8831L20.345 7.55656C21.4254 7.32691 22.1151 6.26487 21.8854 5.18444L21.6775 4.2063C21.4479 3.12586 20.3858 2.43617 19.3054 2.66582Z" stroke="currentColor" stroke-width="2" stroke-linecap="round" stroke-linejoin="round"/>
<path d="M4.69875 11.25V19.25C4.69875 19.7804 4.90946 20.2891 5.28453 20.6642C5.6596 21.0393 6.16831 21.25 6.69875 21.25H18.6987C19.2292 21.25 19.7379 21.0393 20.113 20.6642C20.488 20.2891 20.6987 19.7804 20.6987 19.25V11.25" stroke="currentColor" stroke-width="2" stroke-linecap="round" stroke-linejoin="round"/>
<path d="M10.6987 14.25H14.6987" stroke="currentColor" stroke-width="2" stroke-linecap="round" stroke-linejoin="round"/>
</svg>
