<svg width="24" height="24" viewBox="0 0 24 24" fill="none" xmlns="http://www.w3.org/2000/svg">
<path d="M12.0002 5.4978C10.4172 5.49787 8.88582 6.06121 7.68016 7.08703C6.47449 8.11286 5.67318 9.53422 5.4196 11.0968C5.16602 12.6594 5.47673 14.2612 6.29611 15.6156C7.1155 16.9701 8.39011 17.9888 9.89186 18.4895C10.2252 18.5478 10.3502 18.3478 10.3502 18.1728C10.3502 18.0145 10.3419 17.4895 10.3419 16.9311C8.66685 17.2395 8.23351 16.5228 8.10018 16.1478C7.95223 15.7831 7.7177 15.4599 7.41685 15.2061C7.18351 15.0811 6.85018 14.7728 7.40851 14.7645C7.6217 14.7876 7.82617 14.8618 8.0046 14.9807C8.18303 15.0997 8.33016 15.2599 8.43351 15.4478C8.52469 15.6116 8.6473 15.7558 8.79431 15.8721C8.94131 15.9885 9.10983 16.0746 9.2902 16.1257C9.47057 16.1768 9.65925 16.1918 9.84543 16.1699C10.0316 16.1479 10.2116 16.0894 10.3752 15.9978C10.404 15.6589 10.5551 15.342 10.8002 15.1062C9.31685 14.9395 7.76685 14.3645 7.76685 11.8145C7.75748 11.1519 8.00197 10.5109 8.45018 10.0228C8.24637 9.44697 8.27022 8.81501 8.51685 8.25616C8.51685 8.25616 9.07516 8.08115 10.3502 8.93949C11.441 8.63947 12.5927 8.63947 13.6835 8.93949C14.9585 8.07282 15.5168 8.25616 15.5168 8.25616C15.7635 8.815 15.7874 9.44697 15.5835 10.0228C16.0331 10.51 16.2778 11.1516 16.2668 11.8145C16.2668 14.3728 14.7085 14.9395 13.2252 15.1062C13.3843 15.2674 13.5068 15.461 13.5845 15.6738C13.6621 15.8866 13.693 16.1137 13.6752 16.3395C13.6752 17.2312 13.6668 17.9478 13.6668 18.1728C13.6668 18.3478 13.7918 18.5562 14.1252 18.4895C15.6243 17.9847 16.8952 16.9636 17.7111 15.6085C18.527 14.2534 18.8348 12.6524 18.5794 11.0913C18.3241 9.53023 17.5223 8.11072 16.3172 7.08614C15.112 6.06157 13.582 5.49863 12.0002 5.4978Z" fill="#C0C1C3"/>
</svg>
