<svg width="24" height="24" viewBox="0 0 24 24" fill="none" xmlns="http://www.w3.org/2000/svg">
<path fill-rule="evenodd" clip-rule="evenodd" d="M18.9997 18.4814H16.3075V13.7602C16.3075 12.465 15.7374 11.7425 14.715 11.7425C13.6025 11.7425 12.9422 12.4954 12.9422 13.7602V18.4814H10.25V9.71211H12.9422V10.6983C12.9422 10.6983 13.7869 9.21293 15.6903 9.21293C17.5944 9.21293 18.9997 10.3772 18.9997 12.7868C18.9997 15.1956 18.9997 18.4814 18.9997 18.4814ZM6.31411 7.52778C5.58894 7.52778 5.00139 6.96171 5.00139 6.26363C5.00139 5.56607 5.58894 5 6.31411 5C7.03875 5 7.6263 5.56607 7.6263 6.26363C7.62684 6.96171 7.03875 7.52778 6.31411 7.52778ZM5 18.4814H7.62491V10.0555H5V18.4814Z" fill="#C0C1C3"/>
</svg>
