<svg width="24" height="24" viewBox="0 0 24 24" fill="none" xmlns="http://www.w3.org/2000/svg">
<path d="M17.8333 10H6.16667C5.24619 10 4.5 10.9768 4.5 12.1818V19.8182C4.5 21.0232 5.24619 22 6.16667 22H17.8333C18.7538 22 19.5 21.0232 19.5 19.8182V12.1818C19.5 10.9768 18.7538 10 17.8333 10Z" stroke="currentColor" stroke-width="2" stroke-linecap="round" stroke-linejoin="round"/>
<rect x="11" y="13" width="2" height="6" rx="1" fill="currentColor"/>
<path d="M7.5 10V6.44444C7.5 5.2657 7.97411 4.13524 8.81802 3.30175C9.66193 2.46825 10.8065 2 12 2C13.1935 2 14.3381 2.46825 15.182 3.30175C16.0259 4.13524 16.5 5.2657 16.5 6.44444V10" stroke="currentColor" stroke-width="2" stroke-linecap="round" stroke-linejoin="round"/>
</svg>
