<svg width="24" height="24" viewBox="0 0 24 24" fill="none" xmlns="http://www.w3.org/2000/svg">
<path d="M12.5183 20.1791C12.1937 20.0091 11.8063 20.0091 11.4817 20.1791L6.4079 22.8362C5.58805 23.2656 4.63159 22.569 4.78863 21.657L5.75552 16.0414C5.81809 15.678 5.69733 15.3072 5.43279 15.0503L1.34015 11.0765C0.674909 10.4305 1.04068 9.30211 1.95837 9.16928L7.62191 8.34951C7.98543 8.2969 8.29986 8.06895 8.46292 7.73983L10.9989 2.62121C11.4093 1.79293 12.5907 1.79293 13.0011 2.62121L15.5371 7.73983C15.7001 8.06895 16.0146 8.2969 16.3781 8.34951L22.0416 9.16928C22.9593 9.30211 23.3251 10.4305 22.6598 11.0765L18.5672 15.0503C18.3027 15.3072 18.1819 15.678 18.2445 16.0414L19.2114 21.657C19.3684 22.569 18.4119 23.2656 17.5921 22.8362L12.5183 20.1791Z" fill="currentColor"/>
</svg>
