<svg width="24" height="24" viewBox="0 0 24 24" fill="none" xmlns="http://www.w3.org/2000/svg">
<path d="M18 8.31787C17.5114 8.53819 16.9947 8.68384 16.466 8.75027C17.0238 8.4039 17.4418 7.85898 17.6425 7.21661C17.1183 7.54095 16.5445 7.76947 15.946 7.89223C15.546 7.4413 15.0132 7.14114 14.4314 7.03882C13.8495 6.9365 13.2515 7.03781 12.731 7.32686C12.2105 7.61591 11.797 8.07636 11.5554 8.63598C11.3138 9.19561 11.2577 9.82275 11.396 10.4191C10.3361 10.3633 9.29939 10.0765 8.35313 9.57715C7.40686 9.0778 6.57225 8.37712 5.9035 7.52064C5.66894 7.94639 5.54569 8.42856 5.546 8.91918C5.54517 9.37481 5.65274 9.82358 5.85914 10.2255C6.06554 10.6275 6.36436 10.9702 6.729 11.2231C6.30519 11.2111 5.89043 11.0929 5.52 10.8785V10.9123C5.52318 11.5507 5.7384 12.1683 6.12925 12.6608C6.52011 13.1532 7.06262 13.4902 7.665 13.6148C7.43312 13.6881 7.19237 13.7268 6.95 13.7296C6.78223 13.7276 6.61487 13.7118 6.4495 13.6823C6.62104 14.2315 6.953 14.7114 7.3992 15.0553C7.84539 15.3992 8.38362 15.59 8.939 15.6011C8.00118 16.3681 6.84332 16.7867 5.65 16.7902C5.43273 16.791 5.21563 16.7774 5 16.7497C6.21838 17.5674 7.63823 18.0014 9.0885 17.9996C10.0893 18.0104 11.0821 17.8138 12.009 17.4213C12.9359 17.0288 13.7783 16.4483 14.4869 15.7136C15.1955 14.9789 15.7562 14.1049 16.1362 13.1424C16.5161 12.18 16.7078 11.1486 16.7 10.1083C16.7 9.99342 16.7 9.87181 16.7 9.7502C17.2101 9.35483 17.65 8.87015 18 8.31787Z" fill="#C0C1C3"/>
</svg>
