<svg width="24" height="24" viewBox="0 0 24 24" fill="none" xmlns="http://www.w3.org/2000/svg">
<path d="M17.8333 10H6.16667C5.24619 10 4.5 10.9768 4.5 12.1818V19.8182C4.5 21.0232 5.24619 22 6.16667 22H17.8333C18.7538 22 19.5 21.0232 19.5 19.8182V12.1818C19.5 10.9768 18.7538 10 17.8333 10Z" stroke="currentColor" stroke-width="2" stroke-linecap="round" stroke-linejoin="round"/>
<path d="M7.5 10V7.00189C7.49887 5.76272 7.91662 4.56729 8.67216 3.64767C9.4277 2.72805 10.4671 2.14984 11.5886 2.02531C12.7102 1.90077 13.8338 2.23879 14.7413 2.97374C15.6489 3.70868 16.2757 4.78813 16.5 6.00252" stroke="currentColor" stroke-width="2" stroke-linecap="round" stroke-linejoin="round"/>
<rect x="11" y="13" width="2" height="6" rx="1" fill="currentColor"/>
</svg>
