<svg width="24" height="24" viewBox="0 0 24 24" fill="none" xmlns="http://www.w3.org/2000/svg">
<path d="M19.9961 10.2292C20.0343 9.1188 19.7925 8.01673 19.2933 7.0253C18.9546 6.6185 18.4846 6.34397 17.9651 6.24955C15.8164 6.05369 13.6587 5.97341 11.5014 6.00906C9.35203 5.97179 7.20216 6.04948 5.06097 6.24179C4.63764 6.31915 4.24588 6.51861 3.9335 6.81585C3.23848 7.45973 3.16126 8.5613 3.08403 9.49221C2.97199 11.166 2.97199 12.8454 3.08403 14.5191C3.10637 15.0431 3.18403 15.5631 3.3157 16.0706C3.40882 16.4624 3.5972 16.8249 3.86399 17.1256C4.1785 17.4386 4.57939 17.6494 5.01463 17.7307C6.67952 17.9372 8.35705 18.0227 10.0342 17.9867C12.737 18.0255 15.1078 17.9867 17.911 17.7695C18.357 17.6932 18.7691 17.4821 19.0926 17.1644C19.3088 16.9472 19.4703 16.6812 19.5636 16.3887C19.8398 15.5374 19.9755 14.6464 19.9652 13.7511C19.9961 13.3167 19.9961 10.6946 19.9961 10.2292ZM9.75618 14.2166V9.41463L14.3278 11.8272C13.0459 12.5409 11.3547 13.3477 9.75618 14.2166Z" fill="#C0C1C3"/>
</svg>
