<svg width="563" height="250" viewBox="0 0 563 250" fill="none" xmlns="http://www.w3.org/2000/svg">
<g clip-path="url(#clip0)">
<path fill-rule="evenodd" clip-rule="evenodd" d="M498.273 179.131C499.748 179.388 504.832 180.577 505.107 180.728C505.539 180.966 505.879 181.517 505.924 182.052L505.957 182.441L506.677 182.633C508.489 183.116 524.743 187.71 524.946 187.796C525.072 187.85 525.244 188.02 525.327 188.174C525.464 188.427 525.465 188.525 525.335 189.193C525.256 189.599 525.209 189.942 525.23 189.955C525.251 189.968 526.061 190.152 527.03 190.364C527.999 190.576 528.926 190.816 529.089 190.896C529.596 191.145 529.626 191.391 529.326 192.794C528.85 195.015 528.776 195.175 528.177 195.256C528.031 195.275 527.071 195.102 526.043 194.87L524.174 194.45L524.029 195.144C523.86 195.957 523.674 196.212 523.192 196.293C522.975 196.33 521.484 196.131 519.02 195.738C515.61 195.194 515.174 195.142 515.072 195.27C514.967 195.402 515.131 195.731 517.101 199.341C519.175 203.141 519.242 203.277 519.148 203.497C519.06 203.704 518.998 203.735 518.473 203.829C518.155 203.885 517.822 203.908 517.732 203.879C517.615 203.841 517.002 202.789 515.6 200.219L513.631 196.613L512.734 196.773L511.836 196.934L511.233 200.978C510.901 203.202 510.581 205.078 510.521 205.147C510.457 205.221 510.172 205.316 509.825 205.378C509.224 205.486 508.945 205.407 508.893 205.116C508.881 205.052 509.156 203.044 509.504 200.652L510.135 196.305L509.704 195.866C509.231 195.384 509 195.021 508.814 194.465L508.691 194.101L506.12 193.699L503.549 193.299L503.289 193.59C502.956 193.963 502.516 194.192 502.121 194.2C501.843 194.205 495.839 192.936 495.185 192.734C494.534 192.532 494.002 191.838 493.99 191.173C493.982 190.758 496.213 180.548 496.413 180.083C496.686 179.448 497.552 179.005 498.273 179.131ZM497.866 181.26C497.776 181.653 496.478 187.573 495.951 189.996C495.821 190.597 495.725 191.096 495.738 191.105C495.798 191.144 501.997 192.48 502.007 192.456C502.014 192.441 502.351 190.903 502.756 189.039C503.162 187.174 503.664 184.875 503.872 183.929L504.251 182.211L501.159 181.523C499.459 181.145 498.044 180.836 498.015 180.838C497.986 180.839 497.919 181.029 497.866 181.26ZM504.779 187.867L503.959 191.602L506.363 191.982L508.766 192.362L508.891 192.113C509.447 191.001 510.09 190.43 511.234 190.026C511.641 189.883 512.574 189.889 513.069 190.038C513.663 190.216 514.65 190.902 514.948 191.343C515.308 191.877 515.543 192.481 515.579 192.968L515.612 193.413L515.977 193.477C518.022 193.837 522.361 194.478 522.394 194.425C522.495 194.266 523.563 189.165 523.497 189.153C523.457 189.147 519.433 188.012 514.554 186.632C509.674 185.252 505.664 184.125 505.641 184.128C505.618 184.13 505.23 185.813 504.779 187.867ZM511.214 191.937C510.842 192.127 510.429 192.756 510.391 193.189C510.35 193.661 510.533 194.265 510.809 194.573C511.436 195.272 512.699 195.317 513.349 194.664C514.04 193.968 514.034 192.783 513.335 192.167C512.948 191.827 512.719 191.726 512.245 191.688C511.857 191.656 511.681 191.699 511.214 191.937ZM524.694 192.113C524.64 192.343 524.593 192.581 524.588 192.641C524.582 192.71 525.105 192.868 526.007 193.072L527.435 193.395L527.532 192.861C527.586 192.568 527.621 192.313 527.612 192.294C527.588 192.25 525.005 191.672 524.885 191.684C524.834 191.689 524.748 191.882 524.694 192.113Z" fill="url(#paint0_linear)"/>
<path d="M536.836 202.889C533.435 204.953 539.479 209.727 527.096 210.24C527.096 211.756 522.798 217.448 523.207 218.933C523.493 219.972 524.858 219.701 526.083 219.72C529.146 219.767 530.606 219.433 533.65 219.72C547.191 220.997 535.816 227.818 537.234 228.661C551.97 238.917 538.031 239.443 532.853 238.106C527.676 237.076 507.153 232.353 510.551 236.024C512.968 238.637 518.06 238.64 518.118 242.073C518.164 244.854 515.686 246.52 511.347 246.806C507.425 247.065 494.222 245.491 489.443 242.599C484.664 239.706 490.638 235.52 483.038 234.001C478.69 233.131 476.025 232.67 472.312 232.324C470.642 232.169 467.666 231.629 466.25 232.564C463.494 234.384 463.063 237.406 461.898 239.714C458.487 246.471 448.412 241.946 441.173 240.946C438.196 240.534 425.233 238.07 421.739 238.391C416.471 238.874 430.593 242.652 426.518 244.702C422.443 246.753 426.028 248.914 424.015 251.706C422.57 253.709 420.777 256.294 420.777 258.565M957 271C957 312.974 823.805 347 659.5 347C495.195 347 362 312.974 362 271C362 229.026 495.195 195 659.5 195C823.805 195 957 229.026 957 271Z" stroke="#C0C1C3" stroke-width="2.38956" stroke-linecap="round"/>
<path fill-rule="evenodd" clip-rule="evenodd" d="M396.161 63.23C389.903 64.1409 378.705 69.4552 369.194 76.0282L366.772 77.7021L364.709 76.9035C355.304 73.2608 343.245 73.0802 333.362 76.4337C317.326 81.875 305.433 95.2021 301.873 111.72C300.124 119.832 300.659 128.73 303.384 136.856L304.405 139.901L303.539 141.186C299.371 147.372 294.531 156.021 292.507 160.904C291.018 164.493 290.184 167.886 290.034 170.962C289.801 175.742 290.725 177.803 293.737 179.227C295.189 179.914 295.653 180 297.89 180C304.418 180.001 315.178 175.406 326.848 167.634L330.096 165.471L332.843 166.419C338.362 168.323 345.409 169.382 350.511 169.074C358.78 168.574 366.621 166.151 373.235 162.05C383.215 155.861 390.688 146.238 393.898 135.441C395.49 130.085 395.866 127.405 395.859 121.468C395.853 116.619 395.778 115.711 395.135 112.636C394.74 110.751 393.958 107.854 393.396 106.199L392.375 103.19L394.685 99.7396C395.955 97.8418 397.471 95.4586 398.054 94.4435C398.637 93.4285 399.657 91.6488 400.321 90.4887C401.766 87.9658 403.397 84.4826 404.614 81.3232C407.06 74.9719 407.642 70.0273 406.283 67.155C404.62 63.6413 401.54 62.4469 396.161 63.23ZM392.471 77.5576C394.103 79.1889 392.793 83.2387 388.309 90.4228C386.869 92.7311 386.259 93.429 386.259 92.7688C386.259 92.3717 380.682 86.5818 378.89 85.1188C377.937 84.3402 377.122 83.6141 377.081 83.5049C376.977 83.2363 381.432 80.3796 383.885 79.1417C388.397 76.864 391.25 76.3377 392.471 77.5576ZM356.091 85.5797C360.007 86.441 364.892 88.4886 368.435 90.7534C371.505 92.7163 375.272 96.2752 377.611 99.4243C379.968 102.596 379.988 102.071 377.382 105.309C366.015 119.432 346.712 138.672 331.465 151.077L329.304 152.836L327.112 151.34C324.681 149.682 320.325 145.398 318.587 142.956C316.815 140.467 314.618 136.315 313.731 133.778C310.867 125.584 311.015 115.891 314.125 108.124C317.343 100.085 323.912 92.7812 331.252 89.0805C335.775 86.7999 337.718 86.1238 342.068 85.3176C345.594 84.6642 352.518 84.7934 356.091 85.5797ZM384.813 116.312C385.672 120.796 385.033 128.128 383.353 133.069C379.337 144.881 369.583 154.047 357.842 157.043C352.578 158.386 348.2 158.662 343.58 157.944L340.773 157.506L341.938 156.559C356.666 144.585 372.176 129.145 382.816 115.868C383.599 114.89 384.281 114.131 384.331 114.181C384.382 114.231 384.598 115.19 384.813 116.312ZM316.609 156.744C318.278 158.25 319.671 159.561 319.706 159.656C319.74 159.752 318.909 160.375 317.859 161.041C310.876 165.471 306.835 166.979 304.783 165.918C303.228 165.115 303.317 162.975 305.069 158.997C306.194 156.441 308.384 152.541 309.675 150.796L310.311 149.934L311.943 151.97C312.841 153.089 314.941 155.238 316.609 156.744Z" fill="url(#paint1_linear)"/>
<path fill-rule="evenodd" clip-rule="evenodd" d="M414.926 26.9803C415.461 26.9025 416.418 26.4483 417.231 25.8865L417.438 25.7434L417.615 25.8117C418.418 26.123 419.449 26.1384 420.294 25.8518C421.664 25.3867 422.681 24.2477 422.985 22.8359C423.135 22.1425 423.089 21.3821 422.856 20.6875L422.769 20.4272L422.843 20.3174C423.199 19.7887 423.613 19.0495 423.786 18.6321C423.913 18.3253 423.984 18.0353 423.997 17.7724C424.017 17.3639 423.938 17.1877 423.681 17.066C423.557 17.0073 423.517 16.9999 423.326 16.9999C422.768 16.9999 421.848 17.3926 420.851 18.0569L420.573 18.2418L420.338 18.1607C419.867 17.998 419.264 17.9075 418.828 17.9338C418.121 17.9765 417.451 18.1837 416.886 18.5342C416.033 19.0631 415.394 19.8856 415.12 20.8084C414.984 21.2662 414.952 21.4953 414.952 22.0027C414.953 22.4172 414.959 22.4947 415.014 22.7576C415.048 22.9187 415.115 23.1663 415.163 23.3077L415.25 23.5649L415.053 23.8598C414.944 24.022 414.814 24.2257 414.765 24.3125C414.715 24.3993 414.628 24.5514 414.571 24.6505C414.447 24.8662 414.308 25.1639 414.204 25.4339C413.995 25.9768 413.945 26.3994 414.061 26.6449C414.203 26.9452 414.467 27.0473 414.926 26.9803ZM415.242 25.7558C415.102 25.6163 415.214 25.2702 415.597 24.6562C415.721 24.4589 415.773 24.3992 415.773 24.4556C415.773 24.4896 416.249 24.9844 416.403 25.1095C416.484 25.176 416.554 25.2381 416.557 25.2474C416.566 25.2704 416.185 25.5146 415.976 25.6204C415.59 25.815 415.346 25.86 415.242 25.7558ZM418.351 25.0701C418.016 24.9965 417.599 24.8215 417.296 24.6279C417.034 24.4601 416.712 24.156 416.512 23.8868C416.31 23.6157 416.309 23.6605 416.531 23.3838C417.503 22.1767 419.153 20.5322 420.456 19.472L420.641 19.3217L420.828 19.4495C421.036 19.5913 421.408 19.9574 421.557 20.1661C421.708 20.3789 421.896 20.7337 421.972 20.9506C422.217 21.6509 422.204 22.4794 421.938 23.1432C421.663 23.8303 421.102 24.4546 420.474 24.7709C420.088 24.9658 419.922 25.0236 419.55 25.0925C419.248 25.1483 418.657 25.1373 418.351 25.0701ZM415.896 22.4434C415.823 22.0601 415.878 21.4335 416.021 21.0111C416.364 20.0016 417.198 19.2182 418.201 18.9621C418.651 18.8473 419.026 18.8237 419.42 18.8851L419.66 18.9225L419.561 19.0034C418.302 20.0269 416.976 21.3465 416.067 22.4814C416 22.565 415.942 22.6298 415.937 22.6255C415.933 22.6212 415.915 22.5393 415.896 22.4434ZM421.726 18.9877C421.583 18.8589 421.464 18.7469 421.461 18.7387C421.458 18.7305 421.529 18.6773 421.619 18.6203C422.216 18.2417 422.561 18.1129 422.737 18.2035C422.869 18.2722 422.862 18.4551 422.712 18.7951C422.616 19.0135 422.429 19.3469 422.318 19.496L422.264 19.5697L422.124 19.3957C422.048 19.3 421.868 19.1164 421.726 18.9877Z" fill="#C0C1C3"/>
<path fill-rule="evenodd" clip-rule="evenodd" d="M463.233 29.0316C463.18 29.0421 462.917 29.085 462.65 29.1268C459.901 29.5577 457.169 31.3954 455.567 33.8921C454.953 34.8497 454.458 36.0407 454.168 37.2632C454.01 37.9294 453.999 38.0785 454 39.5322C454.001 41.2677 454.05 41.593 454.516 42.9357C455.283 45.1463 456.799 47.0875 458.734 48.3358C460.015 49.1619 461.519 49.7218 463.039 49.9378C463.814 50.0479 465.34 50.0316 466.118 49.9047C468.439 49.5262 470.598 48.3738 472.177 46.6706L472.634 46.1784V45.6628C472.634 44.9337 472.658 44.9454 471.128 44.9454H469.911V44.0753V43.2053L470.089 43.1684C470.187 43.148 470.557 43.0857 470.911 43.0299C472.007 42.8571 473.955 42.4084 474.464 42.2112C474.59 42.1626 474.661 42.0731 474.705 41.9069C475.018 40.7368 475.106 38.5437 474.852 38.2518C474.765 38.1524 474.621 38.1384 473.693 38.1384H472.634V36.8779C472.634 35.6488 472.63 35.6149 472.489 35.5165C472.371 35.4338 472.125 35.4156 471.128 35.4156H469.911V34.7349V34.0541H470.447C471.297 34.0541 471.272 34.0964 471.272 32.6582V31.464L470.932 31.1931C469.598 30.1315 467.874 29.3774 466.135 29.0954C465.612 29.0106 463.57 28.9657 463.233 29.0316ZM465.292 30.3596C466.896 30.5285 468.167 30.9665 469.408 31.7782L469.911 32.1067V32.3997V32.6927H468.679C467.192 32.6927 467.188 32.6945 467.188 33.3734C467.188 33.9775 467.279 34.0541 467.998 34.0541H468.549V35.2859C468.549 36.4312 468.558 36.5267 468.679 36.6473C468.8 36.7679 468.895 36.777 470.04 36.777H471.272V37.4577V38.1384H470.721C470.002 38.1384 469.911 38.215 469.911 38.8191C469.911 39.5226 469.843 39.4998 471.92 39.4998C473.639 39.4998 473.671 39.5022 473.671 39.6319C473.671 39.8412 473.533 41.0204 473.505 41.0481C473.457 41.0962 472.204 41.3799 471.175 41.5755C468.663 42.0531 467.221 42.1833 464.433 42.1845C461.248 42.1859 458.959 41.9338 456.123 41.2693L455.398 41.0995L455.345 40.6076C454.856 36.0854 457.581 31.9687 461.904 30.6959C463.042 30.3612 464.208 30.2453 465.292 30.3596ZM461.133 32.1431C460.309 32.3695 459.502 32.9407 459.03 33.6328C458.547 34.3396 458.373 34.9164 458.373 35.8045C458.373 37.4118 459.373 38.7686 460.964 39.3206C461.308 39.4397 461.518 39.4659 462.099 39.4619C462.844 39.4568 463.086 39.4003 463.817 39.0607C464.322 38.8258 465.159 37.9761 465.428 37.4252C466.427 35.3757 465.431 32.9806 463.267 32.2271C462.826 32.0736 462.649 32.0469 462.099 32.0511C461.742 32.0539 461.308 32.0952 461.133 32.1431ZM462.864 33.5151C463.17 33.6112 463.665 33.9436 463.9 34.2105C464.13 34.4718 464.399 35.1247 464.441 35.5231C464.541 36.4813 464 37.4641 463.136 37.8944C462.002 38.4591 460.513 37.947 459.952 36.7993C459.391 35.653 459.866 34.2169 460.989 33.6639C461.632 33.3474 462.19 33.3032 462.864 33.5151ZM461.563 34.8966C460.908 35.2964 460.947 36.3093 461.631 36.6405C461.97 36.8046 462.199 36.8125 462.498 36.6706C463.484 36.2028 463.148 34.7666 462.053 34.7675C461.89 34.7677 461.687 34.8211 461.563 34.8966ZM456.882 42.8087C458.083 43.0632 459.652 43.2898 461.159 43.4263C463.151 43.6067 466.849 43.567 468.306 43.3496L468.549 43.3132V44.5141C468.549 45.1745 468.578 45.7897 468.613 45.8811C468.738 46.2123 469.017 46.3063 469.876 46.3065L470.651 46.3068L470.427 46.5019C469.991 46.8809 468.954 47.5402 468.35 47.8218C467.037 48.4345 465.964 48.6667 464.465 48.6627C463.305 48.6597 462.581 48.5466 461.548 48.2066C459.521 47.5396 457.691 46.0507 456.538 44.1313C456.343 43.8062 455.843 42.7322 455.843 42.6382C455.843 42.5924 455.927 42.6062 456.882 42.8087Z" fill="#C0C1C3"/>
<path d="M460.115 101.04C460.247 100.683 460.753 100.683 460.885 101.04L462.19 104.567C462.232 104.68 462.32 104.768 462.433 104.81L465.96 106.115C466.317 106.247 466.317 106.753 465.96 106.885L462.433 108.19C462.32 108.232 462.232 108.32 462.19 108.433L460.885 111.96C460.753 112.317 460.247 112.317 460.115 111.96L458.81 108.433C458.768 108.32 458.68 108.232 458.567 108.19L455.04 106.885C454.683 106.753 454.683 106.247 455.04 106.115L458.567 104.81C458.68 104.768 458.768 104.68 458.81 104.567L460.115 101.04Z" fill="#C0C1C3"/>
<path d="M334.352 23.4002C334.403 23.2627 334.597 23.2627 334.648 23.4002L335.15 24.7567C335.166 24.7999 335.2 24.834 335.243 24.85L336.6 25.3519C336.737 25.4028 336.737 25.5972 336.6 25.6481L335.243 26.15C335.2 26.166 335.166 26.2001 335.15 26.2433L334.648 27.5998C334.597 27.7373 334.403 27.7373 334.352 27.5998L333.85 26.2433C333.834 26.2001 333.8 26.166 333.757 26.15L332.4 25.6481C332.263 25.5972 332.263 25.4028 332.4 25.3519L333.757 24.85C333.8 24.834 333.834 24.7999 333.85 24.7567L334.352 23.4002Z" fill="#C0C1C3"/>
<path d="M520.352 20.4002C520.403 20.2627 520.597 20.2627 520.648 20.4002L521.15 21.7567C521.166 21.7999 521.2 21.834 521.243 21.85L522.6 22.3519C522.737 22.4028 522.737 22.5972 522.6 22.6481L521.243 23.15C521.2 23.166 521.166 23.2001 521.15 23.2433L520.648 24.5998C520.597 24.7373 520.403 24.7373 520.352 24.5998L519.85 23.2433C519.834 23.2001 519.8 23.166 519.757 23.15L518.4 22.6481C518.263 22.5972 518.263 22.4028 518.4 22.3519L519.757 21.85C519.8 21.834 519.834 21.7999 519.85 21.7567L520.352 20.4002Z" fill="#C0C1C3"/>
<path d="M444.352 178.4C444.403 178.263 444.597 178.263 444.648 178.4L445.15 179.757C445.166 179.8 445.2 179.834 445.243 179.85L446.6 180.352C446.737 180.403 446.737 180.597 446.6 180.648L445.243 181.15C445.2 181.166 445.166 181.2 445.15 181.243L444.648 182.6C444.597 182.737 444.403 182.737 444.352 182.6L443.85 181.243C443.834 181.2 443.8 181.166 443.757 181.15L442.4 180.648C442.263 180.597 442.263 180.403 442.4 180.352L443.757 179.85C443.8 179.834 443.834 179.8 443.85 179.757L444.352 178.4Z" fill="#C0C1C3"/>
<path d="M545.352 10.4002C545.403 10.2627 545.597 10.2627 545.648 10.4002L546.15 11.7567C546.166 11.7999 546.2 11.834 546.243 11.85L547.6 12.3519C547.737 12.4028 547.737 12.5972 547.6 12.6481L546.243 13.15C546.2 13.166 546.166 13.2001 546.15 13.2433L545.648 14.5998C545.597 14.7373 545.403 14.7373 545.352 14.5998L544.85 13.2433C544.834 13.2001 544.8 13.166 544.757 13.15L543.4 12.6481C543.263 12.5972 543.263 12.4028 543.4 12.3519L544.757 11.85C544.8 11.834 544.834 11.7999 544.85 11.7567L545.352 10.4002Z" fill="#C0C1C3"/>
<path fill-rule="evenodd" clip-rule="evenodd" d="M157.926 166.98C158.461 166.902 159.418 166.448 160.231 165.886L160.438 165.743L160.615 165.812C161.418 166.123 162.449 166.138 163.294 165.852C164.664 165.387 165.681 164.248 165.985 162.836C166.135 162.143 166.089 161.382 165.856 160.688L165.769 160.427L165.843 160.317C166.199 159.789 166.613 159.049 166.786 158.632C166.913 158.325 166.984 158.035 166.997 157.772C167.017 157.364 166.938 157.188 166.681 157.066C166.557 157.007 166.517 157 166.326 157C165.768 157 164.848 157.393 163.851 158.057L163.573 158.242L163.338 158.161C162.867 157.998 162.264 157.907 161.828 157.934C161.121 157.976 160.451 158.184 159.886 158.534C159.033 159.063 158.394 159.886 158.12 160.808C157.984 161.266 157.952 161.495 157.952 162.003C157.953 162.417 157.959 162.495 158.014 162.758C158.048 162.919 158.115 163.166 158.163 163.308L158.25 163.565L158.053 163.86C157.944 164.022 157.814 164.226 157.765 164.313C157.715 164.399 157.628 164.551 157.571 164.651C157.447 164.866 157.308 165.164 157.204 165.434C156.995 165.977 156.945 166.399 157.061 166.645C157.203 166.945 157.467 167.047 157.926 166.98ZM158.242 165.756C158.102 165.616 158.214 165.27 158.597 164.656C158.721 164.459 158.773 164.399 158.773 164.456C158.773 164.49 159.249 164.984 159.403 165.109C159.484 165.176 159.554 165.238 159.557 165.247C159.566 165.27 159.185 165.515 158.976 165.62C158.59 165.815 158.346 165.86 158.242 165.756ZM161.351 165.07C161.016 164.996 160.599 164.821 160.296 164.628C160.034 164.46 159.712 164.156 159.512 163.887C159.31 163.616 159.309 163.661 159.531 163.384C160.503 162.177 162.153 160.532 163.456 159.472L163.641 159.322L163.828 159.45C164.036 159.591 164.408 159.957 164.557 160.166C164.708 160.379 164.896 160.734 164.972 160.951C165.217 161.651 165.204 162.479 164.938 163.143C164.663 163.83 164.102 164.455 163.474 164.771C163.088 164.966 162.922 165.024 162.55 165.093C162.248 165.148 161.657 165.137 161.351 165.07ZM158.896 162.443C158.823 162.06 158.878 161.433 159.021 161.011C159.364 160.002 160.198 159.218 161.201 158.962C161.651 158.847 162.026 158.824 162.42 158.885L162.66 158.922L162.561 159.003C161.302 160.027 159.976 161.347 159.067 162.481C159 162.565 158.942 162.63 158.937 162.626C158.933 162.621 158.915 162.539 158.896 162.443ZM164.726 158.988C164.583 158.859 164.464 158.747 164.461 158.739C164.458 158.731 164.529 158.677 164.619 158.62C165.216 158.242 165.561 158.113 165.737 158.204C165.869 158.272 165.862 158.455 165.712 158.795C165.616 159.014 165.429 159.347 165.318 159.496L165.264 159.57L165.124 159.396C165.048 159.3 164.868 159.116 164.726 158.988Z" fill="#C0C1C3"/>
<path d="M215.352 86.4002C215.403 86.2627 215.597 86.2627 215.648 86.4002L216.15 87.7567C216.166 87.7999 216.2 87.834 216.243 87.85L217.6 88.3519C217.737 88.4028 217.737 88.5972 217.6 88.6481L216.243 89.15C216.2 89.166 216.166 89.2001 216.15 89.2433L215.648 90.5998C215.597 90.7373 215.403 90.7373 215.352 90.5998L214.85 89.2433C214.834 89.2001 214.8 89.166 214.757 89.15L213.4 88.6481C213.263 88.5972 213.263 88.4028 213.4 88.3519L214.757 87.85C214.8 87.834 214.834 87.7999 214.85 87.7567L215.352 86.4002Z" fill="#C0C1C3"/>
<path d="M228.352 100.4C228.403 100.263 228.597 100.263 228.648 100.4L229.15 101.757C229.166 101.8 229.2 101.834 229.243 101.85L230.6 102.352C230.737 102.403 230.737 102.597 230.6 102.648L229.243 103.15C229.2 103.166 229.166 103.2 229.15 103.243L228.648 104.6C228.597 104.737 228.403 104.737 228.352 104.6L227.85 103.243C227.834 103.2 227.8 103.166 227.757 103.15L226.4 102.648C226.263 102.597 226.263 102.403 226.4 102.352L227.757 101.85C227.8 101.834 227.834 101.8 227.85 101.757L228.352 100.4Z" fill="#C0C1C3"/>
<path d="M240.352 76.4002C240.403 76.2627 240.597 76.2627 240.648 76.4002L241.15 77.7567C241.166 77.7999 241.2 77.834 241.243 77.85L242.6 78.3519C242.737 78.4028 242.737 78.5972 242.6 78.6481L241.243 79.15C241.2 79.166 241.166 79.2001 241.15 79.2433L240.648 80.5998C240.597 80.7373 240.403 80.7373 240.352 80.5998L239.85 79.2433C239.834 79.2001 239.8 79.166 239.757 79.15L238.4 78.6481C238.263 78.5972 238.263 78.4028 238.4 78.3519L239.757 77.85C239.8 77.834 239.834 77.7999 239.85 77.7567L240.352 76.4002Z" fill="#C0C1C3"/>
<path d="M426.351 186.26C426.353 186.114 426.536 186.049 426.63 186.162L427.556 187.273C427.585 187.308 427.629 187.329 427.675 187.33L429.121 187.35C429.268 187.352 429.332 187.536 429.22 187.63L428.108 188.555C428.073 188.585 428.052 188.628 428.052 188.674L428.031 190.121C428.029 190.267 427.846 190.332 427.752 190.219L426.826 189.108C426.797 189.073 426.753 189.052 426.707 189.051L425.261 189.031C425.114 189.029 425.049 188.845 425.162 188.752L426.273 187.826C426.309 187.796 426.329 187.753 426.33 187.707L426.351 186.26Z" fill="#C0C1C3"/>
<path d="M175.351 225.26C175.353 225.114 175.536 225.049 175.63 225.162L176.556 226.273C176.585 226.308 176.629 226.329 176.675 226.33L178.121 226.35C178.268 226.352 178.332 226.536 178.22 226.63L177.108 227.555C177.073 227.585 177.052 227.628 177.052 227.674L177.031 229.121C177.029 229.267 176.846 229.332 176.752 229.219L175.826 228.108C175.797 228.073 175.753 228.052 175.707 228.051L174.261 228.031C174.114 228.029 174.049 227.845 174.162 227.752L175.273 226.826C175.309 226.796 175.329 226.753 175.33 226.707L175.351 225.26Z" fill="#C0C1C3"/>
<path d="M231.351 231.26C231.353 231.114 231.536 231.049 231.63 231.162L232.556 232.273C232.585 232.308 232.629 232.329 232.675 232.33L234.121 232.35C234.268 232.352 234.332 232.536 234.22 232.63L233.108 233.555C233.073 233.585 233.052 233.628 233.052 233.674L233.031 235.121C233.029 235.267 232.846 235.332 232.752 235.219L231.826 234.108C231.797 234.073 231.753 234.052 231.707 234.051L230.261 234.031C230.114 234.029 230.049 233.845 230.162 233.752L231.273 232.826C231.309 232.796 231.329 232.753 231.33 232.707L231.351 231.26Z" fill="#C0C1C3"/>
<path d="M522.352 125.4C522.403 125.263 522.597 125.263 522.648 125.4L523.15 126.757C523.166 126.8 523.2 126.834 523.243 126.85L524.6 127.352C524.737 127.403 524.737 127.597 524.6 127.648L523.243 128.15C523.2 128.166 523.166 128.2 523.15 128.243L522.648 129.6C522.597 129.737 522.403 129.737 522.352 129.6L521.85 128.243C521.834 128.2 521.8 128.166 521.757 128.15L520.4 127.648C520.263 127.597 520.263 127.403 520.4 127.352L521.757 126.85C521.8 126.834 521.834 126.8 521.85 126.757L522.352 125.4Z" fill="#C0C1C3"/>
<path fill-rule="evenodd" clip-rule="evenodd" d="M245.049 31.657C244.448 31.6138 239.799 31.9073 238.258 32.0858C238.194 32.0932 238.151 32.0293 238.102 31.8515C237.936 31.2577 237.577 30.9076 236.964 30.7439C236.577 30.6404 236.552 30.6412 235.934 30.774C235.586 30.8488 234.804 31.0396 234.197 31.1978C230.079 32.2718 227.165 33.4422 225.614 34.645C223.76 36.0829 222.574 38.3512 222.427 40.7369C222.369 41.6737 222.542 42.9726 222.843 43.8675C223.038 44.4453 223.4 45.1838 223.757 45.7312C225.231 47.9936 227.634 49.3808 230.334 49.5275C231.508 49.5913 232.699 49.3896 233.883 48.9268C235.657 48.2337 238.407 46.0561 241.365 43.004C241.765 42.5912 242.256 42.0728 242.456 41.8519C242.802 41.4695 242.824 41.4317 242.923 41.0582C243.002 40.7634 243.017 40.6027 242.984 40.4116C242.929 40.086 242.724 39.6864 242.518 39.5003C242.429 39.4202 242.361 39.3379 242.366 39.3174C242.372 39.2969 242.585 38.9939 242.839 38.6442C243.481 37.7626 244.615 36.0829 245.451 34.7763C246.377 33.3293 246.464 33.0293 246.141 32.3984C245.941 32.0067 245.47 31.6872 245.049 31.657ZM243.323 34.4293C243.05 34.8545 242.737 35.3319 242.628 35.4904C242.519 35.6489 242.118 36.2303 241.737 36.7824C241.198 37.564 240.241 38.8458 239.465 39.8252C239.428 39.8724 239.566 39.9681 240.469 40.5189C240.605 40.6022 240.73 40.6885 240.746 40.7107C240.81 40.7999 238.552 43.0608 237.332 44.1293C234.643 46.4842 233.124 47.3472 231.363 47.5207C229.196 47.7342 227.028 46.7907 225.702 45.0571C225.006 44.1472 224.515 42.8629 224.424 41.7166C224.314 40.3356 224.739 38.7552 225.527 37.6049C226.517 36.1611 228.036 35.2448 231.281 34.1336C232.977 33.5531 236.129 32.6985 236.185 32.8041C236.198 32.8301 236.214 33.1621 236.219 33.5416C236.224 33.9212 236.237 34.2617 236.248 34.2983C236.262 34.3453 236.42 34.3421 236.785 34.2876C238.272 34.0654 239.935 33.9044 242.254 33.758C243.106 33.7042 243.807 33.6593 243.812 33.6583C243.816 33.6572 243.596 34.0042 243.323 34.4293ZM231.161 36.5938C229.029 36.4356 227.133 37.6168 226.391 39.5657C225.337 42.3343 227.071 45.3367 229.995 45.8082C233.16 46.3184 235.905 43.5007 235.286 40.3772C235.013 39.0014 234.183 37.8398 232.991 37.1631C232.506 36.8878 231.686 36.6328 231.161 36.5938ZM230.775 39.3583C230.951 39.5621 231.048 40.0029 230.975 40.2699C230.871 40.6527 230.541 40.938 230.141 40.9919C229.451 41.0849 228.884 40.4277 229.068 39.7507C229.279 38.9788 230.252 38.7551 230.775 39.3583ZM231.266 42.8161C231.686 43.1398 231.49 43.9101 230.971 43.9784C230.603 44.0268 230.319 43.8443 230.215 43.4934C230.113 43.1451 230.317 42.7978 230.681 42.6994C230.93 42.6324 231.063 42.6588 231.266 42.8161Z" fill="#C0C1C3"/>
<path fill-rule="evenodd" clip-rule="evenodd" d="M244.175 201.221C244.232 201.206 244.562 201.088 244.908 200.959C245.255 200.83 245.578 200.726 245.627 200.728C245.675 200.73 246.019 200.874 246.39 201.048C246.762 201.223 247.091 201.36 247.122 201.354C247.295 201.321 247.274 201.128 247.025 200.46C246.882 200.077 246.767 199.724 246.769 199.676C246.77 199.627 246.911 199.289 247.081 198.925C247.251 198.56 247.391 198.233 247.392 198.197C247.4 198.011 247.184 198.032 246.505 198.28C246.12 198.422 245.765 198.536 245.716 198.534C245.668 198.532 245.325 198.388 244.955 198.215C244.31 197.912 244.119 197.876 244.072 198.046C244.064 198.076 244.174 198.415 244.317 198.799C244.461 199.184 244.576 199.538 244.574 199.586C244.572 199.634 244.432 199.973 244.264 200.34C244.096 200.706 243.964 201.038 243.971 201.078C243.992 201.198 244.065 201.25 244.175 201.221ZM238.516 195.101C239.452 195.808 240.466 196.186 241.64 196.265C242.931 196.352 244.076 196.058 245.151 195.362C245.376 195.217 245.635 195.028 245.727 194.944L245.893 194.79L246.322 195.159C248.323 196.88 250.88 197.687 253.53 197.434C253.894 197.399 254.371 197.33 254.589 197.28L254.987 197.19L253.144 198.929C251.148 200.813 251.183 200.773 250.943 201.442C250.61 202.369 250.807 203.458 251.436 204.16C251.673 204.424 251.715 204.451 251.901 204.459C252.06 204.466 252.148 204.431 252.291 204.305C252.558 204.069 252.555 203.853 252.28 203.454C251.9 202.905 251.809 202.3 252.023 201.748L252.147 201.427L255.828 197.994C259.839 194.255 259.614 194.489 259.869 193.781C260.104 193.125 260.075 192.381 259.785 191.692L259.642 191.353L256.922 188.378C254.985 186.259 254.148 185.37 254.016 185.29C253.752 185.132 253.242 185.124 252.948 185.274C252.757 185.371 252.662 185.456 252.469 185.704C251.891 186.445 251.81 187.42 252.261 188.222L252.397 188.464L252.014 188.302C251.803 188.213 251.093 187.907 250.436 187.622L249.242 187.104L250.701 185.722L252.159 184.341L252.224 184.078C252.259 183.934 252.269 183.696 252.246 183.549C252.204 183.292 252.183 183.259 251.663 182.67C251.325 182.288 251.053 182.016 250.936 181.947C250.69 181.801 250.166 181.783 249.902 181.913C249.747 181.988 249.124 182.539 247.521 184.016L245.35 186.018L244.947 185.782C243.325 184.834 241.552 184.71 239.795 185.421C238.485 185.951 237.347 187.102 236.795 188.453C236.211 189.881 236.231 191.546 236.848 192.94C237.237 193.818 237.824 194.578 238.516 195.101ZM238.244 193.166C238.002 192.8 237.689 192.088 237.61 191.721C237.576 191.568 237.555 191.437 237.562 191.43C237.569 191.423 237.942 191.49 238.391 191.578L239.206 191.739L239.948 192.543L240.689 193.347L240.782 194.173C240.834 194.627 240.87 195.005 240.863 195.011C240.821 195.049 240.242 194.824 239.875 194.627C239.181 194.254 238.647 193.776 238.244 193.166ZM244.915 192.422C245.193 191.925 245.346 191.443 245.386 190.933C245.436 190.299 245.348 189.754 245.107 189.222C244.948 188.869 244.856 188.737 244.498 188.349C244.139 187.96 244.016 187.858 243.677 187.67C242.712 187.135 241.545 187.111 240.472 187.602C240.23 187.712 239.984 187.913 238.853 188.92L237.519 190.108L237.586 189.741C237.903 188.002 239.292 186.583 241.053 186.197C241.609 186.075 242.574 186.093 243.136 186.234C243.924 186.433 244.808 186.959 245.358 187.556C245.908 188.152 246.36 189.077 246.494 189.878C246.59 190.45 246.529 191.413 246.362 191.957C245.834 193.68 244.299 194.956 242.549 195.125L242.177 195.161L243.469 193.928C244.565 192.883 244.785 192.654 244.915 192.422ZM240.743 191.809L239.691 190.667L239.241 190.586L238.792 190.506L239.834 189.573C240.989 188.539 241.041 188.506 241.699 188.401C242.123 188.333 242.717 188.433 243.09 188.635C243.444 188.827 243.935 189.36 244.098 189.729C244.269 190.116 244.32 190.717 244.218 191.134C244.06 191.781 244.023 191.83 242.899 192.897L241.884 193.86L241.84 193.406L241.796 192.951L240.743 191.809ZM242.765 192.012C243.257 192.032 243.519 191.467 243.185 191.104C243.065 190.975 242.984 190.937 242.809 190.93C242.316 190.91 242.055 191.475 242.389 191.838C242.508 191.968 242.59 192.005 242.765 192.012ZM241.224 190.341C241.717 190.361 241.979 189.796 241.644 189.433C241.525 189.304 241.444 189.266 241.268 189.259C240.776 189.239 240.514 189.804 240.849 190.167C240.968 190.296 241.049 190.334 241.224 190.341ZM246.896 193.517C247.792 192.04 247.931 190.055 247.251 188.456C247.036 187.952 246.593 187.217 246.335 186.937L246.195 186.785L248.284 184.859L250.373 182.933L250.758 183.351L251.143 183.769L249.421 185.356C247.578 187.055 247.608 187.021 247.635 187.367C247.655 187.624 247.884 187.748 250.097 188.708C251.305 189.232 252.294 189.672 252.293 189.686C252.293 189.7 252.193 189.849 252.072 190.019C251.433 190.909 251.267 192.199 251.656 193.238C251.75 193.487 251.805 193.574 251.891 193.603C252.016 193.647 252.453 193.454 252.658 193.265C252.78 193.153 252.782 193.115 252.687 192.782C252.543 192.276 252.582 191.626 252.785 191.125C252.992 190.616 253.243 190.298 253.958 189.638L254.525 189.115L253.911 188.448C253.226 187.705 253.106 187.515 253.097 187.159C253.091 186.893 253.228 186.484 253.367 186.356L253.454 186.276L256.056 189.099C258.583 191.841 258.662 191.932 258.777 192.214C258.936 192.602 258.939 193.087 258.786 193.481C258.667 193.79 258.638 193.824 258.083 194.333C257.45 194.913 257.048 195.178 256.207 195.571C253.478 196.844 250.25 196.568 247.746 194.849C247.344 194.573 246.669 194.007 246.661 193.939C246.659 193.923 246.765 193.733 246.896 193.517Z" fill="#C0C1C3"/>
<rect x="78" y="47" width="485" height="482" fill="url(#paint2_linear)"/>
</g>
<defs>
<linearGradient id="paint0_linear" x1="526.215" y1="173.012" x2="490.306" y2="186.742" gradientUnits="userSpaceOnUse">
<stop stop-color="#CA9CD0"/>
<stop offset="0.661458" stop-color="#D38972"/>
<stop offset="1" stop-color="#A1B1E7"/>
</linearGradient>
<linearGradient id="paint1_linear" x1="294.68" y1="71.3571" x2="416.147" y2="89.8584" gradientUnits="userSpaceOnUse">
<stop stop-color="#7A96F2"/>
<stop offset="1" stop-color="#CE79D1"/>
</linearGradient>
<linearGradient id="paint2_linear" x1="320.5" y1="47" x2="320.5" y2="501.141" gradientUnits="userSpaceOnUse">
<stop stop-color="#16181D" stop-opacity="0"/>
<stop offset="1" stop-color="#16181D"/>
</linearGradient>
<clipPath id="clip0">
<rect width="563" height="250" fill="white"/>
</clipPath>
</defs>
</svg>
