<svg width="1200" height="250" viewBox="0 0 1200 250" fill="none" xmlns="http://www.w3.org/2000/svg">
<g clip-path="url(#clip0)">
<path fill-rule="evenodd" clip-rule="evenodd" d="M1135.27 179.131C1136.75 179.388 1141.83 180.577 1142.11 180.728C1142.54 180.966 1142.88 181.517 1142.92 182.052L1142.96 182.441L1143.68 182.633C1145.49 183.116 1161.74 187.71 1161.95 187.796C1162.07 187.85 1162.24 188.02 1162.33 188.174C1162.46 188.427 1162.46 188.525 1162.34 189.193C1162.26 189.599 1162.21 189.942 1162.23 189.955C1162.25 189.968 1163.06 190.152 1164.03 190.364C1165 190.576 1165.93 190.816 1166.09 190.896C1166.6 191.145 1166.63 191.391 1166.33 192.794C1165.85 195.015 1165.78 195.175 1165.18 195.256C1165.03 195.275 1164.07 195.102 1163.04 194.87L1161.17 194.45L1161.03 195.144C1160.86 195.957 1160.67 196.212 1160.19 196.293C1159.97 196.33 1158.48 196.131 1156.02 195.738C1152.61 195.194 1152.17 195.142 1152.07 195.27C1151.97 195.402 1152.13 195.731 1154.1 199.341C1156.18 203.141 1156.24 203.277 1156.15 203.497C1156.06 203.704 1156 203.735 1155.47 203.829C1155.16 203.885 1154.82 203.908 1154.73 203.879C1154.62 203.841 1154 202.789 1152.6 200.219L1150.63 196.613L1149.73 196.773L1148.84 196.934L1148.23 200.978C1147.9 203.202 1147.58 205.078 1147.52 205.147C1147.46 205.221 1147.17 205.316 1146.83 205.378C1146.22 205.486 1145.94 205.407 1145.89 205.116C1145.88 205.052 1146.16 203.044 1146.5 200.652L1147.14 196.305L1146.7 195.866C1146.23 195.384 1146 195.021 1145.81 194.465L1145.69 194.101L1143.12 193.699L1140.55 193.299L1140.29 193.59C1139.96 193.963 1139.52 194.192 1139.12 194.2C1138.84 194.205 1132.84 192.936 1132.18 192.734C1131.53 192.532 1131 191.838 1130.99 191.173C1130.98 190.758 1133.21 180.548 1133.41 180.083C1133.69 179.448 1134.55 179.005 1135.27 179.131ZM1134.87 181.26C1134.78 181.653 1133.48 187.573 1132.95 189.996C1132.82 190.597 1132.72 191.096 1132.74 191.105C1132.8 191.144 1139 192.48 1139.01 192.456C1139.01 192.441 1139.35 190.903 1139.76 189.039C1140.16 187.174 1140.66 184.875 1140.87 183.929L1141.25 182.211L1138.16 181.523C1136.46 181.145 1135.04 180.836 1135.02 180.838C1134.99 180.839 1134.92 181.029 1134.87 181.26ZM1141.78 187.867L1140.96 191.602L1143.36 191.982L1145.77 192.362L1145.89 192.113C1146.45 191.001 1147.09 190.43 1148.23 190.026C1148.64 189.883 1149.57 189.889 1150.07 190.038C1150.66 190.216 1151.65 190.902 1151.95 191.343C1152.31 191.877 1152.54 192.481 1152.58 192.968L1152.61 193.413L1152.98 193.477C1155.02 193.837 1159.36 194.478 1159.39 194.425C1159.5 194.266 1160.56 189.165 1160.5 189.153C1160.46 189.147 1156.43 188.012 1151.55 186.632C1146.67 185.252 1142.66 184.125 1142.64 184.128C1142.62 184.13 1142.23 185.813 1141.78 187.867ZM1148.21 191.937C1147.84 192.127 1147.43 192.756 1147.39 193.189C1147.35 193.661 1147.53 194.265 1147.81 194.573C1148.44 195.272 1149.7 195.317 1150.35 194.664C1151.04 193.968 1151.03 192.783 1150.33 192.167C1149.95 191.827 1149.72 191.726 1149.25 191.688C1148.86 191.656 1148.68 191.699 1148.21 191.937ZM1161.69 192.113C1161.64 192.343 1161.59 192.581 1161.59 192.641C1161.58 192.71 1162.11 192.868 1163.01 193.072L1164.43 193.395L1164.53 192.861C1164.59 192.568 1164.62 192.313 1164.61 192.294C1164.59 192.25 1162 191.672 1161.89 191.684C1161.83 191.689 1161.75 191.882 1161.69 192.113Z" fill="url(#paint0_linear)"/>
<path d="M1173.84 202.889C1170.43 204.953 1176.48 209.727 1164.1 210.24C1164.1 211.756 1159.8 217.448 1160.21 218.933C1160.49 219.972 1161.86 219.701 1163.08 219.72C1166.15 219.767 1167.61 219.433 1170.65 219.72C1184.19 220.997 1172.82 227.818 1174.23 228.661C1188.97 238.917 1175.03 239.443 1169.85 238.106C1164.68 237.076 1144.15 232.353 1147.55 236.024C1149.97 238.637 1155.06 238.64 1155.12 242.073C1155.16 244.854 1152.69 246.52 1148.35 246.806C1144.43 247.065 1131.22 245.491 1126.44 242.599C1121.66 239.706 1127.64 235.52 1120.04 234.001C1115.69 233.131 1113.02 232.67 1109.31 232.324C1107.64 232.169 1104.67 231.629 1103.25 232.564C1100.49 234.384 1100.06 237.406 1098.9 239.714C1095.49 246.471 1085.41 241.946 1078.17 240.946C1075.2 240.534 1062.23 238.07 1058.74 238.391C1053.47 238.874 1067.59 242.652 1063.52 244.702C1059.44 246.753 1063.03 248.914 1061.01 251.706C1059.57 253.709 1057.78 256.294 1057.78 258.565M1594 271C1594 312.974 1460.8 347 1296.5 347C1132.2 347 999 312.974 999 271C999 229.026 1132.2 195 1296.5 195C1460.8 195 1594 229.026 1594 271Z" stroke="#C0C1C3" stroke-width="2.38956" stroke-linecap="round"/>
<path fill-rule="evenodd" clip-rule="evenodd" d="M1033.16 63.23C1026.9 64.1409 1015.71 69.4552 1006.19 76.0282L1003.77 77.7021L1001.71 76.9035C992.304 73.2608 980.245 73.0802 970.362 76.4337C954.326 81.875 942.433 95.2021 938.873 111.72C937.124 119.832 937.659 128.73 940.384 136.856L941.405 139.901L940.539 141.186C936.371 147.372 931.531 156.021 929.507 160.904C928.018 164.493 927.184 167.886 927.034 170.962C926.801 175.742 927.725 177.803 930.737 179.227C932.189 179.914 932.653 180 934.89 180C941.418 180.001 952.178 175.406 963.848 167.634L967.096 165.471L969.843 166.419C975.362 168.323 982.409 169.382 987.511 169.074C995.78 168.574 1003.62 166.151 1010.23 162.05C1020.21 155.861 1027.69 146.238 1030.9 135.441C1032.49 130.085 1032.87 127.405 1032.86 121.468C1032.85 116.619 1032.78 115.711 1032.13 112.636C1031.74 110.751 1030.96 107.854 1030.4 106.199L1029.37 103.19L1031.68 99.7396C1032.96 97.8418 1034.47 95.4586 1035.05 94.4435C1035.64 93.4285 1036.66 91.6488 1037.32 90.4887C1038.77 87.9658 1040.4 84.4826 1041.61 81.3232C1044.06 74.9719 1044.64 70.0273 1043.28 67.155C1041.62 63.6413 1038.54 62.4469 1033.16 63.23ZM1029.47 77.5576C1031.1 79.1889 1029.79 83.2387 1025.31 90.4228C1023.87 92.7311 1023.26 93.429 1023.26 92.7688C1023.26 92.3717 1017.68 86.5818 1015.89 85.1188C1014.94 84.3402 1014.12 83.6141 1014.08 83.5049C1013.98 83.2363 1018.43 80.3796 1020.88 79.1417C1025.4 76.864 1028.25 76.3377 1029.47 77.5576ZM993.091 85.5797C997.007 86.441 1001.89 88.4886 1005.43 90.7534C1008.51 92.7163 1012.27 96.2752 1014.61 99.4243C1016.97 102.596 1016.99 102.071 1014.38 105.309C1003.01 119.432 983.712 138.672 968.465 151.077L966.304 152.836L964.112 151.34C961.681 149.682 957.325 145.398 955.587 142.956C953.815 140.467 951.618 136.315 950.731 133.778C947.867 125.584 948.015 115.891 951.125 108.124C954.343 100.085 960.912 92.7812 968.252 89.0805C972.775 86.7999 974.718 86.1238 979.068 85.3176C982.594 84.6642 989.518 84.7934 993.091 85.5797ZM1021.81 116.312C1022.67 120.796 1022.03 128.128 1020.35 133.069C1016.34 144.881 1006.58 154.047 994.842 157.043C989.578 158.386 985.2 158.662 980.58 157.944L977.773 157.506L978.938 156.559C993.666 144.585 1009.18 129.145 1019.82 115.868C1020.6 114.89 1021.28 114.131 1021.33 114.181C1021.38 114.231 1021.6 115.19 1021.81 116.312ZM953.609 156.744C955.278 158.25 956.671 159.561 956.706 159.656C956.74 159.752 955.909 160.375 954.859 161.041C947.876 165.471 943.835 166.979 941.783 165.918C940.228 165.115 940.317 162.975 942.069 158.997C943.194 156.441 945.384 152.541 946.675 150.796L947.311 149.934L948.943 151.97C949.841 153.089 951.941 155.238 953.609 156.744Z" fill="url(#paint1_linear)"/>
<path fill-rule="evenodd" clip-rule="evenodd" d="M1051.93 26.9803C1052.46 26.9025 1053.42 26.4483 1054.23 25.8865L1054.44 25.7434L1054.61 25.8117C1055.42 26.123 1056.45 26.1384 1057.29 25.8518C1058.66 25.3867 1059.68 24.2477 1059.99 22.8359C1060.13 22.1425 1060.09 21.3821 1059.86 20.6875L1059.77 20.4272L1059.84 20.3174C1060.2 19.7887 1060.61 19.0495 1060.79 18.6321C1060.91 18.3253 1060.98 18.0353 1061 17.7724C1061.02 17.3639 1060.94 17.1877 1060.68 17.066C1060.56 17.0073 1060.52 16.9999 1060.33 16.9999C1059.77 16.9999 1058.85 17.3926 1057.85 18.0569L1057.57 18.2418L1057.34 18.1607C1056.87 17.998 1056.26 17.9075 1055.83 17.9338C1055.12 17.9765 1054.45 18.1837 1053.89 18.5342C1053.03 19.0631 1052.39 19.8856 1052.12 20.8084C1051.98 21.2662 1051.95 21.4953 1051.95 22.0027C1051.95 22.4172 1051.96 22.4947 1052.01 22.7576C1052.05 22.9187 1052.11 23.1663 1052.16 23.3077L1052.25 23.5649L1052.05 23.8598C1051.94 24.022 1051.81 24.2257 1051.76 24.3125C1051.71 24.3993 1051.63 24.5514 1051.57 24.6505C1051.45 24.8662 1051.31 25.1639 1051.2 25.4339C1050.99 25.9768 1050.95 26.3994 1051.06 26.6449C1051.2 26.9452 1051.47 27.0473 1051.93 26.9803ZM1052.24 25.7558C1052.1 25.6163 1052.21 25.2702 1052.6 24.6562C1052.72 24.4589 1052.77 24.3992 1052.77 24.4556C1052.77 24.4896 1053.25 24.9844 1053.4 25.1095C1053.48 25.176 1053.55 25.2381 1053.56 25.2474C1053.57 25.2704 1053.19 25.5146 1052.98 25.6204C1052.59 25.815 1052.35 25.86 1052.24 25.7558ZM1055.35 25.0701C1055.02 24.9965 1054.6 24.8215 1054.3 24.6279C1054.03 24.4601 1053.71 24.156 1053.51 23.8868C1053.31 23.6157 1053.31 23.6605 1053.53 23.3838C1054.5 22.1767 1056.15 20.5322 1057.46 19.472L1057.64 19.3217L1057.83 19.4495C1058.04 19.5913 1058.41 19.9574 1058.56 20.1661C1058.71 20.3789 1058.9 20.7337 1058.97 20.9506C1059.22 21.6509 1059.2 22.4794 1058.94 23.1432C1058.66 23.8303 1058.1 24.4546 1057.47 24.7709C1057.09 24.9658 1056.92 25.0236 1056.55 25.0925C1056.25 25.1483 1055.66 25.1373 1055.35 25.0701ZM1052.9 22.4434C1052.82 22.0601 1052.88 21.4335 1053.02 21.0111C1053.36 20.0016 1054.2 19.2182 1055.2 18.9621C1055.65 18.8473 1056.03 18.8237 1056.42 18.8851L1056.66 18.9225L1056.56 19.0034C1055.3 20.0269 1053.98 21.3465 1053.07 22.4814C1053 22.565 1052.94 22.6298 1052.94 22.6255C1052.93 22.6212 1052.91 22.5393 1052.9 22.4434ZM1058.73 18.9877C1058.58 18.8589 1058.46 18.7469 1058.46 18.7387C1058.46 18.7305 1058.53 18.6773 1058.62 18.6203C1059.22 18.2417 1059.56 18.1129 1059.74 18.2035C1059.87 18.2722 1059.86 18.4551 1059.71 18.7951C1059.62 19.0135 1059.43 19.3469 1059.32 19.496L1059.26 19.5697L1059.12 19.3957C1059.05 19.3 1058.87 19.1164 1058.73 18.9877Z" fill="#C0C1C3"/>
<path fill-rule="evenodd" clip-rule="evenodd" d="M1100.23 29.0316C1100.18 29.0421 1099.92 29.085 1099.65 29.1268C1096.9 29.5577 1094.17 31.3954 1092.57 33.8921C1091.95 34.8497 1091.46 36.0407 1091.17 37.2632C1091.01 37.9294 1091 38.0785 1091 39.5322C1091 41.2677 1091.05 41.593 1091.52 42.9357C1092.28 45.1463 1093.8 47.0875 1095.73 48.3358C1097.01 49.1619 1098.52 49.7218 1100.04 49.9378C1100.81 50.0479 1102.34 50.0316 1103.12 49.9047C1105.44 49.5262 1107.6 48.3738 1109.18 46.6706L1109.63 46.1784V45.6628C1109.63 44.9337 1109.66 44.9454 1108.13 44.9454H1106.91V44.0753V43.2053L1107.09 43.1684C1107.19 43.148 1107.56 43.0857 1107.91 43.0299C1109.01 42.8571 1110.96 42.4084 1111.46 42.2112C1111.59 42.1626 1111.66 42.0731 1111.71 41.9069C1112.02 40.7368 1112.11 38.5437 1111.85 38.2518C1111.77 38.1524 1111.62 38.1384 1110.69 38.1384H1109.63V36.8779C1109.63 35.6488 1109.63 35.6149 1109.49 35.5165C1109.37 35.4338 1109.12 35.4156 1108.13 35.4156H1106.91V34.7349V34.0541H1107.45C1108.3 34.0541 1108.27 34.0964 1108.27 32.6582V31.464L1107.93 31.1931C1106.6 30.1315 1104.87 29.3774 1103.14 29.0954C1102.61 29.0106 1100.57 28.9657 1100.23 29.0316ZM1102.29 30.3596C1103.9 30.5285 1105.17 30.9665 1106.41 31.7782L1106.91 32.1067V32.3997V32.6927H1105.68C1104.19 32.6927 1104.19 32.6945 1104.19 33.3734C1104.19 33.9775 1104.28 34.0541 1105 34.0541H1105.55V35.2859C1105.55 36.4312 1105.56 36.5267 1105.68 36.6473C1105.8 36.7679 1105.9 36.777 1107.04 36.777H1108.27V37.4577V38.1384H1107.72C1107 38.1384 1106.91 38.215 1106.91 38.8191C1106.91 39.5226 1106.84 39.4998 1108.92 39.4998C1110.64 39.4998 1110.67 39.5022 1110.67 39.6319C1110.67 39.8412 1110.53 41.0204 1110.51 41.0481C1110.46 41.0962 1109.2 41.3799 1108.17 41.5755C1105.66 42.0531 1104.22 42.1833 1101.43 42.1845C1098.25 42.1859 1095.96 41.9338 1093.12 41.2693L1092.4 41.0995L1092.34 40.6076C1091.86 36.0854 1094.58 31.9687 1098.9 30.6959C1100.04 30.3612 1101.21 30.2453 1102.29 30.3596ZM1098.13 32.1431C1097.31 32.3695 1096.5 32.9407 1096.03 33.6328C1095.55 34.3396 1095.37 34.9164 1095.37 35.8045C1095.37 37.4118 1096.37 38.7686 1097.96 39.3206C1098.31 39.4397 1098.52 39.4659 1099.1 39.4619C1099.84 39.4568 1100.09 39.4003 1100.82 39.0607C1101.32 38.8258 1102.16 37.9761 1102.43 37.4252C1103.43 35.3757 1102.43 32.9806 1100.27 32.2271C1099.83 32.0736 1099.65 32.0469 1099.1 32.0511C1098.74 32.0539 1098.31 32.0952 1098.13 32.1431ZM1099.86 33.5151C1100.17 33.6112 1100.66 33.9436 1100.9 34.2105C1101.13 34.4718 1101.4 35.1247 1101.44 35.5231C1101.54 36.4813 1101 37.4641 1100.14 37.8944C1099 38.4591 1097.51 37.947 1096.95 36.7993C1096.39 35.653 1096.87 34.2169 1097.99 33.6639C1098.63 33.3474 1099.19 33.3032 1099.86 33.5151ZM1098.56 34.8966C1097.91 35.2964 1097.95 36.3093 1098.63 36.6405C1098.97 36.8046 1099.2 36.8125 1099.5 36.6706C1100.48 36.2028 1100.15 34.7666 1099.05 34.7675C1098.89 34.7677 1098.69 34.8211 1098.56 34.8966ZM1093.88 42.8087C1095.08 43.0632 1096.65 43.2898 1098.16 43.4263C1100.15 43.6067 1103.85 43.567 1105.31 43.3496L1105.55 43.3132V44.5141C1105.55 45.1745 1105.58 45.7897 1105.61 45.8811C1105.74 46.2123 1106.02 46.3063 1106.88 46.3065L1107.65 46.3068L1107.43 46.5019C1106.99 46.8809 1105.95 47.5402 1105.35 47.8218C1104.04 48.4345 1102.96 48.6667 1101.47 48.6627C1100.3 48.6597 1099.58 48.5466 1098.55 48.2066C1096.52 47.5396 1094.69 46.0507 1093.54 44.1313C1093.34 43.8062 1092.84 42.7322 1092.84 42.6382C1092.84 42.5924 1092.93 42.6062 1093.88 42.8087Z" fill="#C0C1C3"/>
<path d="M1097.11 101.04C1097.25 100.683 1097.75 100.683 1097.89 101.04L1099.19 104.567C1099.23 104.68 1099.32 104.768 1099.43 104.81L1102.96 106.115C1103.32 106.247 1103.32 106.753 1102.96 106.885L1099.43 108.19C1099.32 108.232 1099.23 108.32 1099.19 108.433L1097.89 111.96C1097.75 112.317 1097.25 112.317 1097.11 111.96L1095.81 108.433C1095.77 108.32 1095.68 108.232 1095.57 108.19L1092.04 106.885C1091.68 106.753 1091.68 106.247 1092.04 106.115L1095.57 104.81C1095.68 104.768 1095.77 104.68 1095.81 104.567L1097.11 101.04Z" fill="#C0C1C3"/>
<path d="M971.352 23.4002C971.403 23.2627 971.597 23.2627 971.648 23.4002L972.15 24.7567C972.166 24.7999 972.2 24.834 972.243 24.85L973.6 25.3519C973.737 25.4028 973.737 25.5972 973.6 25.6481L972.243 26.15C972.2 26.166 972.166 26.2001 972.15 26.2433L971.648 27.5998C971.597 27.7373 971.403 27.7373 971.352 27.5998L970.85 26.2433C970.834 26.2001 970.8 26.166 970.757 26.15L969.4 25.6481C969.263 25.5972 969.263 25.4028 969.4 25.3519L970.757 24.85C970.8 24.834 970.834 24.7999 970.85 24.7567L971.352 23.4002Z" fill="#C0C1C3"/>
<path d="M1157.35 20.4002C1157.4 20.2627 1157.6 20.2627 1157.65 20.4002L1158.15 21.7567C1158.17 21.7999 1158.2 21.834 1158.24 21.85L1159.6 22.3519C1159.74 22.4028 1159.74 22.5972 1159.6 22.6481L1158.24 23.15C1158.2 23.166 1158.17 23.2001 1158.15 23.2433L1157.65 24.5998C1157.6 24.7373 1157.4 24.7373 1157.35 24.5998L1156.85 23.2433C1156.83 23.2001 1156.8 23.166 1156.76 23.15L1155.4 22.6481C1155.26 22.5972 1155.26 22.4028 1155.4 22.3519L1156.76 21.85C1156.8 21.834 1156.83 21.7999 1156.85 21.7567L1157.35 20.4002Z" fill="#C0C1C3"/>
<path d="M1081.35 178.4C1081.4 178.263 1081.6 178.263 1081.65 178.4L1082.15 179.757C1082.17 179.8 1082.2 179.834 1082.24 179.85L1083.6 180.352C1083.74 180.403 1083.74 180.597 1083.6 180.648L1082.24 181.15C1082.2 181.166 1082.17 181.2 1082.15 181.243L1081.65 182.6C1081.6 182.737 1081.4 182.737 1081.35 182.6L1080.85 181.243C1080.83 181.2 1080.8 181.166 1080.76 181.15L1079.4 180.648C1079.26 180.597 1079.26 180.403 1079.4 180.352L1080.76 179.85C1080.8 179.834 1080.83 179.8 1080.85 179.757L1081.35 178.4Z" fill="#C0C1C3"/>
<path d="M1182.35 10.4002C1182.4 10.2627 1182.6 10.2627 1182.65 10.4002L1183.15 11.7567C1183.17 11.7999 1183.2 11.834 1183.24 11.85L1184.6 12.3519C1184.74 12.4028 1184.74 12.5972 1184.6 12.6481L1183.24 13.15C1183.2 13.166 1183.17 13.2001 1183.15 13.2433L1182.65 14.5998C1182.6 14.7373 1182.4 14.7373 1182.35 14.5998L1181.85 13.2433C1181.83 13.2001 1181.8 13.166 1181.76 13.15L1180.4 12.6481C1180.26 12.5972 1180.26 12.4028 1180.4 12.3519L1181.76 11.85C1181.8 11.834 1181.83 11.7999 1181.85 11.7567L1182.35 10.4002Z" fill="#C0C1C3"/>
<path fill-rule="evenodd" clip-rule="evenodd" d="M794.926 166.98C795.461 166.902 796.418 166.448 797.231 165.886L797.438 165.743L797.615 165.812C798.418 166.123 799.449 166.138 800.294 165.852C801.664 165.387 802.681 164.248 802.985 162.836C803.135 162.143 803.089 161.382 802.856 160.688L802.769 160.427L802.843 160.317C803.199 159.789 803.613 159.049 803.786 158.632C803.913 158.325 803.984 158.035 803.997 157.772C804.017 157.364 803.938 157.188 803.681 157.066C803.557 157.007 803.517 157 803.326 157C802.768 157 801.848 157.393 800.851 158.057L800.573 158.242L800.338 158.161C799.867 157.998 799.264 157.907 798.828 157.934C798.121 157.976 797.451 158.184 796.886 158.534C796.033 159.063 795.394 159.886 795.12 160.808C794.984 161.266 794.952 161.495 794.952 162.003C794.953 162.417 794.959 162.495 795.014 162.758C795.048 162.919 795.115 163.166 795.163 163.308L795.25 163.565L795.053 163.86C794.944 164.022 794.814 164.226 794.765 164.313C794.715 164.399 794.628 164.551 794.571 164.651C794.447 164.866 794.308 165.164 794.204 165.434C793.995 165.977 793.945 166.399 794.061 166.645C794.203 166.945 794.467 167.047 794.926 166.98ZM795.242 165.756C795.102 165.616 795.214 165.27 795.597 164.656C795.721 164.459 795.773 164.399 795.773 164.456C795.773 164.49 796.249 164.984 796.403 165.109C796.484 165.176 796.554 165.238 796.557 165.247C796.566 165.27 796.185 165.515 795.976 165.62C795.59 165.815 795.346 165.86 795.242 165.756ZM798.351 165.07C798.016 164.996 797.599 164.821 797.296 164.628C797.034 164.46 796.712 164.156 796.512 163.887C796.31 163.616 796.309 163.661 796.531 163.384C797.503 162.177 799.153 160.532 800.456 159.472L800.641 159.322L800.828 159.45C801.036 159.591 801.408 159.957 801.557 160.166C801.708 160.379 801.896 160.734 801.972 160.951C802.217 161.651 802.204 162.479 801.938 163.143C801.663 163.83 801.102 164.455 800.474 164.771C800.088 164.966 799.922 165.024 799.55 165.093C799.248 165.148 798.657 165.137 798.351 165.07ZM795.896 162.443C795.823 162.06 795.878 161.433 796.021 161.011C796.364 160.002 797.198 159.218 798.201 158.962C798.651 158.847 799.026 158.824 799.42 158.885L799.66 158.922L799.561 159.003C798.302 160.027 796.976 161.347 796.067 162.481C796 162.565 795.942 162.63 795.937 162.626C795.933 162.621 795.915 162.539 795.896 162.443ZM801.726 158.988C801.583 158.859 801.464 158.747 801.461 158.739C801.458 158.731 801.529 158.677 801.619 158.62C802.216 158.242 802.561 158.113 802.737 158.204C802.869 158.272 802.862 158.455 802.712 158.795C802.616 159.014 802.429 159.347 802.318 159.496L802.264 159.57L802.124 159.396C802.048 159.3 801.868 159.116 801.726 158.988Z" fill="#C0C1C3"/>
<path d="M852.352 86.4002C852.403 86.2627 852.597 86.2627 852.648 86.4002L853.15 87.7567C853.166 87.7999 853.2 87.834 853.243 87.85L854.6 88.3519C854.737 88.4028 854.737 88.5972 854.6 88.6481L853.243 89.15C853.2 89.166 853.166 89.2001 853.15 89.2433L852.648 90.5998C852.597 90.7373 852.403 90.7373 852.352 90.5998L851.85 89.2433C851.834 89.2001 851.8 89.166 851.757 89.15L850.4 88.6481C850.263 88.5972 850.263 88.4028 850.4 88.3519L851.757 87.85C851.8 87.834 851.834 87.7999 851.85 87.7567L852.352 86.4002Z" fill="#C0C1C3"/>
<path d="M865.352 100.4C865.403 100.263 865.597 100.263 865.648 100.4L866.15 101.757C866.166 101.8 866.2 101.834 866.243 101.85L867.6 102.352C867.737 102.403 867.737 102.597 867.6 102.648L866.243 103.15C866.2 103.166 866.166 103.2 866.15 103.243L865.648 104.6C865.597 104.737 865.403 104.737 865.352 104.6L864.85 103.243C864.834 103.2 864.8 103.166 864.757 103.15L863.4 102.648C863.263 102.597 863.263 102.403 863.4 102.352L864.757 101.85C864.8 101.834 864.834 101.8 864.85 101.757L865.352 100.4Z" fill="#C0C1C3"/>
<path d="M877.352 76.4002C877.403 76.2627 877.597 76.2627 877.648 76.4002L878.15 77.7567C878.166 77.7999 878.2 77.834 878.243 77.85L879.6 78.3519C879.737 78.4028 879.737 78.5972 879.6 78.6481L878.243 79.15C878.2 79.166 878.166 79.2001 878.15 79.2433L877.648 80.5998C877.597 80.7373 877.403 80.7373 877.352 80.5998L876.85 79.2433C876.834 79.2001 876.8 79.166 876.757 79.15L875.4 78.6481C875.263 78.5972 875.263 78.4028 875.4 78.3519L876.757 77.85C876.8 77.834 876.834 77.7999 876.85 77.7567L877.352 76.4002Z" fill="#C0C1C3"/>
<path d="M1063.35 186.26C1063.35 186.114 1063.54 186.049 1063.63 186.162L1064.56 187.273C1064.59 187.308 1064.63 187.329 1064.67 187.33L1066.12 187.35C1066.27 187.352 1066.33 187.536 1066.22 187.63L1065.11 188.555C1065.07 188.585 1065.05 188.628 1065.05 188.674L1065.03 190.121C1065.03 190.267 1064.85 190.332 1064.75 190.219L1063.83 189.108C1063.8 189.073 1063.75 189.052 1063.71 189.051L1062.26 189.031C1062.11 189.029 1062.05 188.845 1062.16 188.752L1063.27 187.826C1063.31 187.796 1063.33 187.753 1063.33 187.707L1063.35 186.26Z" fill="#C0C1C3"/>
<path d="M812.351 225.26C812.353 225.114 812.536 225.049 812.63 225.162L813.556 226.273C813.585 226.308 813.629 226.329 813.675 226.33L815.121 226.35C815.268 226.352 815.332 226.536 815.22 226.63L814.108 227.555C814.073 227.585 814.052 227.628 814.052 227.674L814.031 229.121C814.029 229.267 813.846 229.332 813.752 229.219L812.826 228.108C812.797 228.073 812.753 228.052 812.707 228.051L811.261 228.031C811.114 228.029 811.049 227.845 811.162 227.752L812.273 226.826C812.309 226.796 812.329 226.753 812.33 226.707L812.351 225.26Z" fill="#C0C1C3"/>
<path d="M868.351 231.26C868.353 231.114 868.536 231.049 868.63 231.162L869.556 232.273C869.585 232.308 869.629 232.329 869.675 232.33L871.121 232.35C871.268 232.352 871.332 232.536 871.22 232.63L870.108 233.555C870.073 233.585 870.052 233.628 870.052 233.674L870.031 235.121C870.029 235.267 869.846 235.332 869.752 235.219L868.826 234.108C868.797 234.073 868.753 234.052 868.707 234.051L867.261 234.031C867.114 234.029 867.049 233.845 867.162 233.752L868.273 232.826C868.309 232.796 868.329 232.753 868.33 232.707L868.351 231.26Z" fill="#C0C1C3"/>
<path d="M1159.35 125.4C1159.4 125.263 1159.6 125.263 1159.65 125.4L1160.15 126.757C1160.17 126.8 1160.2 126.834 1160.24 126.85L1161.6 127.352C1161.74 127.403 1161.74 127.597 1161.6 127.648L1160.24 128.15C1160.2 128.166 1160.17 128.2 1160.15 128.243L1159.65 129.6C1159.6 129.737 1159.4 129.737 1159.35 129.6L1158.85 128.243C1158.83 128.2 1158.8 128.166 1158.76 128.15L1157.4 127.648C1157.26 127.597 1157.26 127.403 1157.4 127.352L1158.76 126.85C1158.8 126.834 1158.83 126.8 1158.85 126.757L1159.35 125.4Z" fill="#C0C1C3"/>
<path fill-rule="evenodd" clip-rule="evenodd" d="M882.049 31.657C881.448 31.6138 876.799 31.9073 875.258 32.0858C875.194 32.0932 875.151 32.0293 875.102 31.8515C874.936 31.2577 874.577 30.9076 873.964 30.7439C873.577 30.6404 873.552 30.6412 872.934 30.774C872.586 30.8488 871.804 31.0396 871.197 31.1978C867.079 32.2718 864.165 33.4422 862.614 34.645C860.76 36.0829 859.574 38.3512 859.427 40.7369C859.369 41.6737 859.542 42.9726 859.843 43.8675C860.038 44.4453 860.4 45.1838 860.757 45.7312C862.231 47.9936 864.634 49.3808 867.334 49.5275C868.508 49.5913 869.699 49.3896 870.883 48.9268C872.657 48.2337 875.407 46.0561 878.365 43.004C878.765 42.5912 879.256 42.0728 879.456 41.8519C879.802 41.4695 879.824 41.4317 879.923 41.0582C880.002 40.7634 880.017 40.6027 879.984 40.4116C879.929 40.086 879.724 39.6864 879.518 39.5003C879.429 39.4202 879.361 39.3379 879.366 39.3174C879.372 39.2969 879.585 38.9939 879.839 38.6442C880.481 37.7626 881.615 36.0829 882.451 34.7763C883.377 33.3293 883.464 33.0293 883.141 32.3984C882.941 32.0067 882.47 31.6872 882.049 31.657ZM880.323 34.4293C880.05 34.8545 879.737 35.3319 879.628 35.4904C879.519 35.6489 879.118 36.2303 878.737 36.7824C878.198 37.564 877.241 38.8458 876.465 39.8252C876.428 39.8724 876.566 39.9681 877.469 40.5189C877.605 40.6022 877.73 40.6885 877.746 40.7107C877.81 40.7999 875.552 43.0608 874.332 44.1293C871.643 46.4842 870.124 47.3472 868.363 47.5207C866.196 47.7342 864.028 46.7907 862.702 45.0571C862.006 44.1472 861.515 42.8629 861.424 41.7166C861.314 40.3356 861.739 38.7552 862.527 37.6049C863.517 36.1611 865.036 35.2448 868.281 34.1336C869.977 33.5531 873.129 32.6985 873.185 32.8041C873.198 32.8301 873.214 33.1621 873.219 33.5416C873.224 33.9212 873.237 34.2617 873.248 34.2983C873.262 34.3453 873.42 34.3421 873.785 34.2876C875.272 34.0654 876.935 33.9044 879.254 33.758C880.106 33.7042 880.807 33.6593 880.812 33.6583C880.816 33.6572 880.596 34.0042 880.323 34.4293ZM868.161 36.5938C866.029 36.4356 864.133 37.6168 863.391 39.5657C862.337 42.3343 864.071 45.3367 866.995 45.8082C870.16 46.3184 872.905 43.5007 872.286 40.3772C872.013 39.0014 871.183 37.8398 869.991 37.1631C869.506 36.8878 868.686 36.6328 868.161 36.5938ZM867.775 39.3583C867.951 39.5621 868.048 40.0029 867.975 40.2699C867.871 40.6527 867.541 40.938 867.141 40.9919C866.451 41.0849 865.884 40.4277 866.068 39.7507C866.279 38.9788 867.252 38.7551 867.775 39.3583ZM868.266 42.8161C868.686 43.1398 868.49 43.9101 867.971 43.9784C867.603 44.0268 867.319 43.8443 867.215 43.4934C867.113 43.1451 867.317 42.7978 867.681 42.6994C867.93 42.6324 868.063 42.6588 868.266 42.8161Z" fill="#C0C1C3"/>
<path fill-rule="evenodd" clip-rule="evenodd" d="M881.175 201.221C881.232 201.206 881.562 201.088 881.908 200.959C882.255 200.83 882.578 200.726 882.627 200.728C882.675 200.73 883.019 200.874 883.39 201.048C883.762 201.223 884.091 201.36 884.122 201.354C884.295 201.321 884.274 201.128 884.025 200.46C883.882 200.077 883.767 199.724 883.769 199.676C883.77 199.627 883.911 199.289 884.081 198.925C884.251 198.56 884.391 198.233 884.392 198.197C884.4 198.011 884.184 198.032 883.505 198.28C883.12 198.422 882.765 198.536 882.716 198.534C882.668 198.532 882.325 198.388 881.955 198.215C881.31 197.912 881.119 197.876 881.072 198.046C881.064 198.076 881.174 198.415 881.317 198.799C881.461 199.184 881.576 199.538 881.574 199.586C881.572 199.634 881.432 199.973 881.264 200.34C881.096 200.706 880.964 201.038 880.971 201.078C880.992 201.198 881.065 201.25 881.175 201.221ZM875.516 195.101C876.452 195.808 877.466 196.186 878.64 196.265C879.931 196.352 881.076 196.058 882.151 195.362C882.376 195.217 882.635 195.028 882.727 194.944L882.893 194.79L883.322 195.159C885.323 196.88 887.88 197.687 890.53 197.434C890.894 197.399 891.371 197.33 891.589 197.28L891.987 197.19L890.144 198.929C888.148 200.813 888.183 200.773 887.943 201.442C887.61 202.369 887.807 203.458 888.436 204.16C888.673 204.424 888.715 204.451 888.901 204.459C889.06 204.466 889.148 204.431 889.291 204.305C889.558 204.069 889.555 203.853 889.28 203.454C888.9 202.905 888.809 202.3 889.023 201.748L889.147 201.427L892.828 197.994C896.839 194.255 896.614 194.489 896.869 193.781C897.104 193.125 897.075 192.381 896.785 191.692L896.642 191.353L893.922 188.378C891.985 186.259 891.148 185.37 891.016 185.29C890.752 185.132 890.242 185.124 889.948 185.274C889.757 185.371 889.662 185.456 889.469 185.704C888.891 186.445 888.81 187.42 889.261 188.222L889.397 188.464L889.014 188.302C888.803 188.213 888.093 187.907 887.436 187.622L886.242 187.104L887.701 185.722L889.159 184.341L889.224 184.078C889.259 183.934 889.269 183.696 889.246 183.549C889.204 183.292 889.183 183.259 888.663 182.67C888.325 182.288 888.053 182.016 887.936 181.947C887.69 181.801 887.166 181.783 886.902 181.913C886.747 181.988 886.124 182.539 884.521 184.016L882.35 186.018L881.947 185.782C880.325 184.834 878.552 184.71 876.795 185.421C875.485 185.951 874.347 187.102 873.795 188.453C873.211 189.881 873.231 191.546 873.848 192.94C874.237 193.818 874.824 194.578 875.516 195.101ZM875.244 193.166C875.002 192.8 874.689 192.088 874.61 191.721C874.576 191.568 874.555 191.437 874.562 191.43C874.569 191.423 874.942 191.49 875.391 191.578L876.206 191.739L876.948 192.543L877.689 193.347L877.782 194.173C877.834 194.627 877.87 195.005 877.863 195.011C877.821 195.049 877.242 194.824 876.875 194.627C876.181 194.254 875.647 193.776 875.244 193.166ZM881.915 192.422C882.193 191.925 882.346 191.443 882.386 190.933C882.436 190.299 882.348 189.754 882.107 189.222C881.948 188.869 881.856 188.737 881.498 188.349C881.139 187.96 881.016 187.858 880.677 187.67C879.712 187.135 878.545 187.111 877.472 187.602C877.23 187.712 876.984 187.913 875.853 188.92L874.519 190.108L874.586 189.741C874.903 188.002 876.292 186.583 878.053 186.197C878.609 186.075 879.574 186.093 880.136 186.234C880.924 186.433 881.808 186.959 882.358 187.556C882.908 188.152 883.36 189.077 883.494 189.878C883.59 190.45 883.529 191.413 883.362 191.957C882.834 193.68 881.299 194.956 879.549 195.125L879.177 195.161L880.469 193.928C881.565 192.883 881.785 192.654 881.915 192.422ZM877.743 191.809L876.691 190.667L876.241 190.586L875.792 190.506L876.834 189.573C877.989 188.539 878.041 188.506 878.699 188.401C879.123 188.333 879.717 188.433 880.09 188.635C880.444 188.827 880.935 189.36 881.098 189.729C881.269 190.116 881.32 190.717 881.218 191.134C881.06 191.781 881.023 191.83 879.899 192.897L878.884 193.86L878.84 193.406L878.796 192.951L877.743 191.809ZM879.765 192.012C880.257 192.032 880.519 191.467 880.185 191.104C880.065 190.975 879.984 190.937 879.809 190.93C879.316 190.91 879.055 191.475 879.389 191.838C879.508 191.968 879.59 192.005 879.765 192.012ZM878.224 190.341C878.717 190.361 878.979 189.796 878.644 189.433C878.525 189.304 878.444 189.266 878.268 189.259C877.776 189.239 877.514 189.804 877.849 190.167C877.968 190.296 878.049 190.334 878.224 190.341ZM883.896 193.517C884.792 192.04 884.931 190.055 884.251 188.456C884.036 187.952 883.593 187.217 883.335 186.937L883.195 186.785L885.284 184.859L887.373 182.933L887.758 183.351L888.143 183.769L886.421 185.356C884.578 187.055 884.608 187.021 884.635 187.367C884.655 187.624 884.884 187.748 887.097 188.708C888.305 189.232 889.294 189.672 889.293 189.686C889.293 189.7 889.193 189.849 889.072 190.019C888.433 190.909 888.267 192.199 888.656 193.238C888.75 193.487 888.805 193.574 888.891 193.603C889.016 193.647 889.453 193.454 889.658 193.265C889.78 193.153 889.782 193.115 889.687 192.782C889.543 192.276 889.582 191.626 889.785 191.125C889.992 190.616 890.243 190.298 890.958 189.638L891.525 189.115L890.911 188.448C890.226 187.705 890.106 187.515 890.097 187.159C890.091 186.893 890.228 186.484 890.367 186.356L890.454 186.276L893.056 189.099C895.583 191.841 895.662 191.932 895.777 192.214C895.936 192.602 895.939 193.087 895.786 193.481C895.667 193.79 895.638 193.824 895.083 194.333C894.45 194.913 894.048 195.178 893.207 195.571C890.478 196.844 887.25 196.568 884.746 194.849C884.344 194.573 883.669 194.007 883.661 193.939C883.659 193.923 883.765 193.733 883.896 193.517Z" fill="#C0C1C3"/>
<rect x="715" y="47" width="485" height="482" fill="url(#paint2_linear)"/>
</g>
<defs>
<linearGradient id="paint0_linear" x1="1163.22" y1="173.012" x2="1127.31" y2="186.742" gradientUnits="userSpaceOnUse">
<stop stop-color="#CA9CD0"/>
<stop offset="0.661458" stop-color="#D38972"/>
<stop offset="1" stop-color="#A1B1E7"/>
</linearGradient>
<linearGradient id="paint1_linear" x1="931.68" y1="71.3571" x2="1053.15" y2="89.8584" gradientUnits="userSpaceOnUse">
<stop stop-color="#7A96F2"/>
<stop offset="1" stop-color="#CE79D1"/>
</linearGradient>
<linearGradient id="paint2_linear" x1="957.5" y1="47" x2="957.5" y2="501.141" gradientUnits="userSpaceOnUse">
<stop stop-color="#16181D" stop-opacity="0"/>
<stop offset="1" stop-color="#16181D"/>
</linearGradient>
<clipPath id="clip0">
<rect width="563" height="250" fill="white" transform="translate(637)"/>
</clipPath>
</defs>
</svg>
