<svg width="563" height="250" viewBox="0 0 563 250" fill="none" xmlns="http://www.w3.org/2000/svg">
<g clip-path="url(#clip0)">
<path fill-rule="evenodd" clip-rule="evenodd" d="M364.926 35.9803C365.461 35.9025 366.418 35.4483 367.231 34.8865L367.438 34.7434L367.615 34.8117C368.418 35.123 369.449 35.1384 370.294 34.8518C371.664 34.3867 372.681 33.2477 372.985 31.8359C373.135 31.1425 373.089 30.3821 372.856 29.6875L372.769 29.4272L372.843 29.3174C373.199 28.7887 373.613 28.0495 373.786 27.6321C373.913 27.3253 373.984 27.0353 373.997 26.7724C374.017 26.3639 373.938 26.1877 373.681 26.066C373.557 26.0073 373.517 25.9999 373.326 25.9999C372.768 25.9999 371.848 26.3926 370.851 27.0569L370.573 27.2418L370.338 27.1607C369.867 26.998 369.264 26.9075 368.828 26.9338C368.121 26.9765 367.451 27.1837 366.886 27.5342C366.033 28.0631 365.394 28.8856 365.12 29.8084C364.984 30.2662 364.952 30.4953 364.952 31.0027C364.953 31.4172 364.959 31.4947 365.014 31.7576C365.048 31.9187 365.115 32.1663 365.163 32.3077L365.25 32.5649L365.053 32.8598C364.944 33.022 364.814 33.2257 364.765 33.3125C364.715 33.3993 364.628 33.5514 364.571 33.6505C364.447 33.8662 364.308 34.1639 364.204 34.4339C363.995 34.9768 363.945 35.3994 364.061 35.6449C364.203 35.9452 364.467 36.0473 364.926 35.9803ZM365.242 34.7558C365.102 34.6163 365.214 34.2702 365.597 33.6562C365.721 33.4589 365.773 33.3992 365.773 33.4556C365.773 33.4896 366.249 33.9844 366.403 34.1095C366.484 34.176 366.554 34.2381 366.557 34.2474C366.566 34.2704 366.185 34.5146 365.976 34.6204C365.59 34.815 365.346 34.86 365.242 34.7558ZM368.351 34.0701C368.016 33.9965 367.599 33.8215 367.296 33.6279C367.034 33.4601 366.712 33.156 366.512 32.8868C366.31 32.6157 366.309 32.6605 366.531 32.3838C367.503 31.1767 369.153 29.5322 370.456 28.472L370.641 28.3217L370.828 28.4495C371.036 28.5913 371.408 28.9574 371.557 29.1661C371.708 29.3789 371.896 29.7337 371.972 29.9506C372.217 30.6509 372.204 31.4794 371.938 32.1432C371.663 32.8303 371.102 33.4546 370.474 33.7709C370.088 33.9658 369.922 34.0236 369.55 34.0925C369.248 34.1483 368.657 34.1373 368.351 34.0701ZM365.896 31.4434C365.823 31.0601 365.878 30.4335 366.021 30.0111C366.364 29.0016 367.198 28.2182 368.201 27.9621C368.651 27.8473 369.026 27.8237 369.42 27.8851L369.66 27.9225L369.561 28.0034C368.302 29.0269 366.976 30.3465 366.067 31.4814C366 31.565 365.942 31.6298 365.937 31.6255C365.933 31.6212 365.915 31.5393 365.896 31.4434ZM371.726 27.9877C371.583 27.8589 371.464 27.7469 371.461 27.7387C371.458 27.7305 371.529 27.6773 371.619 27.6203C372.216 27.2417 372.561 27.1129 372.737 27.2035C372.869 27.2722 372.862 27.4551 372.712 27.7951C372.616 28.0135 372.429 28.3469 372.318 28.496L372.264 28.5697L372.124 28.3957C372.048 28.3 371.868 28.1164 371.726 27.9877Z" fill="#C0C1C3"/>
<path fill-rule="evenodd" clip-rule="evenodd" d="M497.156 94.523C497.12 94.53 496.945 94.5586 496.767 94.5865C494.934 94.8737 493.113 96.0989 492.045 97.7633C491.635 98.4018 491.306 99.1958 491.112 100.011C491.007 100.455 490.999 100.554 491 101.523C491.001 102.68 491.034 102.897 491.344 103.792C491.855 105.266 492.866 106.56 494.156 107.392C495.01 107.943 496.013 108.316 497.026 108.46C497.543 108.534 498.56 108.523 499.079 108.438C500.626 108.186 502.065 107.418 503.118 106.282L503.422 105.954V105.611C503.422 105.124 503.439 105.132 502.419 105.132H501.607V104.552V103.972L501.726 103.948C501.791 103.934 502.038 103.892 502.274 103.855C503.005 103.74 504.303 103.441 504.643 103.309C504.727 103.277 504.774 103.217 504.803 103.107C505.012 102.327 505.071 100.864 504.901 100.67C504.843 100.604 504.748 100.594 504.129 100.594H503.422V99.7539C503.422 98.9345 503.42 98.9119 503.326 98.8463C503.248 98.7912 503.083 98.779 502.419 98.779H501.607V98.3252V97.8714H501.965C502.531 97.8714 502.515 97.8996 502.515 96.9407V96.1447L502.288 95.964C501.399 95.2563 500.249 94.7536 499.09 94.5656C498.741 94.509 497.38 94.4791 497.156 94.523ZM498.528 95.4083C499.597 95.521 500.444 95.8129 501.272 96.3541L501.607 96.5731V96.7684V96.9638H500.786C499.794 96.9638 499.792 96.965 499.792 97.4176C499.792 97.8203 499.853 97.8714 500.332 97.8714H500.7V98.6925C500.7 99.4561 500.706 99.5198 500.786 99.6002C500.866 99.6805 500.93 99.6866 501.694 99.6866H502.515V100.14V100.594H502.147C501.668 100.594 501.607 100.645 501.607 101.048C501.607 101.517 501.562 101.502 502.947 101.502C504.093 101.502 504.114 101.503 504.114 101.59C504.114 101.729 504.022 102.516 504.004 102.534C503.972 102.566 503.136 102.755 502.45 102.886C500.775 103.204 499.814 103.291 497.955 103.292C495.832 103.293 494.306 103.124 492.415 102.681L491.932 102.568L491.897 102.24C491.571 99.2256 493.387 96.4811 496.27 95.6325C497.028 95.4094 497.805 95.3322 498.528 95.4083ZM495.756 96.5974C495.206 96.7483 494.668 97.1291 494.353 97.5905C494.031 98.0617 493.915 98.4462 493.915 99.0383C493.915 100.11 494.582 101.014 495.643 101.382C495.872 101.462 496.012 101.479 496.399 101.477C496.896 101.473 497.058 101.435 497.545 101.209C497.881 101.052 498.439 100.486 498.618 100.119C499.284 98.7524 498.621 97.1557 497.178 96.6534C496.884 96.551 496.766 96.5332 496.399 96.536C496.162 96.5379 495.872 96.5654 495.756 96.5974ZM496.909 97.512C497.113 97.5761 497.443 97.7977 497.6 97.9756C497.753 98.1498 497.933 98.5851 497.96 98.8507C498.027 99.4895 497.667 100.145 497.091 100.432C496.335 100.808 495.342 100.467 494.968 99.7015C494.594 98.9373 494.911 97.9799 495.66 97.6112C496.088 97.4003 496.46 97.3707 496.909 97.512ZM496.042 98.433C495.605 98.6996 495.631 99.3748 496.087 99.5956C496.313 99.705 496.466 99.7103 496.665 99.6157C497.322 99.3038 497.098 98.3463 496.369 98.347C496.26 98.3471 496.125 98.3827 496.042 98.433ZM492.921 103.708C493.722 103.877 494.768 104.029 495.773 104.119C497.101 104.24 499.566 104.213 500.537 104.068L500.7 104.044V104.845C500.7 105.285 500.719 105.695 500.742 105.756C500.826 105.977 501.012 106.039 501.584 106.04L502.101 106.04L501.951 106.17C501.661 106.423 500.969 106.862 500.567 107.05C499.691 107.458 498.976 107.613 497.977 107.61C497.203 107.608 496.721 107.533 496.032 107.306C494.681 106.862 493.46 105.869 492.692 104.589C492.562 104.373 492.229 103.657 492.229 103.594C492.229 103.564 492.285 103.573 492.921 103.708Z" fill="#C0C1C3"/>
<path d="M443.115 86.0405C443.247 85.6831 443.753 85.6831 443.885 86.0405L445.19 89.5674C445.232 89.6797 445.32 89.7683 445.433 89.8099L448.96 91.115C449.317 91.2472 449.317 91.7528 448.96 91.885L445.433 93.1901C445.32 93.2317 445.232 93.3203 445.19 93.4326L443.885 96.9595C443.753 97.3169 443.247 97.3169 443.115 96.9595L441.81 93.4326C441.768 93.3203 441.68 93.2317 441.567 93.1901L438.04 91.885C437.683 91.7528 437.683 91.2472 438.04 91.115L441.567 89.8099C441.68 89.7683 441.768 89.6797 441.81 89.5674L443.115 86.0405Z" fill="#C0C1C3"/>
<path d="M346.352 77.4002C346.403 77.2627 346.597 77.2627 346.648 77.4002L347.15 78.7567C347.166 78.7999 347.2 78.834 347.243 78.85L348.6 79.3519C348.737 79.4028 348.737 79.5972 348.6 79.6481L347.243 80.15C347.2 80.166 347.166 80.2001 347.15 80.2433L346.648 81.5998C346.597 81.7373 346.403 81.7373 346.352 81.5998L345.85 80.2433C345.834 80.2001 345.8 80.166 345.757 80.15L344.4 79.6481C344.263 79.5972 344.263 79.4028 344.4 79.3519L345.757 78.85C345.8 78.834 345.834 78.7999 345.85 78.7567L346.352 77.4002Z" fill="#C0C1C3"/>
<path d="M470.352 29.4002C470.403 29.2627 470.597 29.2627 470.648 29.4002L471.15 30.7567C471.166 30.7999 471.2 30.834 471.243 30.85L472.6 31.3519C472.737 31.4028 472.737 31.5972 472.6 31.6481L471.243 32.15C471.2 32.166 471.166 32.2001 471.15 32.2433L470.648 33.5998C470.597 33.7373 470.403 33.7373 470.352 33.5998L469.85 32.2433C469.834 32.2001 469.8 32.166 469.757 32.15L468.4 31.6481C468.263 31.5972 468.263 31.4028 468.4 31.3519L469.757 30.85C469.8 30.834 469.834 30.7999 469.85 30.7567L470.352 29.4002Z" fill="#C0C1C3"/>
<path d="M483.352 43.4002C483.403 43.2627 483.597 43.2627 483.648 43.4002L484.15 44.7567C484.166 44.7999 484.2 44.834 484.243 44.85L485.6 45.3519C485.737 45.4028 485.737 45.5972 485.6 45.6481L484.243 46.15C484.2 46.166 484.166 46.2001 484.15 46.2433L483.648 47.5998C483.597 47.7373 483.403 47.7373 483.352 47.5998L482.85 46.2433C482.834 46.2001 482.8 46.166 482.757 46.15L481.4 45.6481C481.263 45.5972 481.263 45.4028 481.4 45.3519L482.757 44.85C482.8 44.834 482.834 44.7999 482.85 44.7567L483.352 43.4002Z" fill="#C0C1C3"/>
<path d="M495.352 19.4002C495.403 19.2627 495.597 19.2627 495.648 19.4002L496.15 20.7567C496.166 20.7999 496.2 20.834 496.243 20.85L497.6 21.3519C497.737 21.4028 497.737 21.5972 497.6 21.6481L496.243 22.15C496.2 22.166 496.166 22.2001 496.15 22.2433L495.648 23.5998C495.597 23.7373 495.403 23.7373 495.352 23.5998L494.85 22.2433C494.834 22.2001 494.8 22.166 494.757 22.15L493.4 21.6481C493.263 21.5972 493.263 21.4028 493.4 21.3519L494.757 20.85C494.8 20.834 494.834 20.7999 494.85 20.7567L495.352 19.4002Z" fill="#C0C1C3"/>
<path fill-rule="evenodd" clip-rule="evenodd" d="M157.926 166.98C158.461 166.902 159.418 166.448 160.231 165.886L160.438 165.743L160.615 165.812C161.418 166.123 162.449 166.138 163.294 165.852C164.664 165.387 165.681 164.248 165.985 162.836C166.135 162.143 166.089 161.382 165.856 160.688L165.769 160.427L165.843 160.317C166.199 159.789 166.613 159.049 166.786 158.632C166.913 158.325 166.984 158.035 166.997 157.772C167.017 157.364 166.938 157.188 166.681 157.066C166.557 157.007 166.517 157 166.326 157C165.768 157 164.848 157.393 163.851 158.057L163.573 158.242L163.338 158.161C162.867 157.998 162.264 157.907 161.828 157.934C161.121 157.976 160.451 158.184 159.886 158.534C159.033 159.063 158.394 159.886 158.12 160.808C157.984 161.266 157.952 161.495 157.952 162.003C157.953 162.417 157.959 162.495 158.014 162.758C158.048 162.919 158.115 163.166 158.163 163.308L158.25 163.565L158.053 163.86C157.944 164.022 157.814 164.226 157.765 164.313C157.715 164.399 157.628 164.551 157.571 164.651C157.447 164.866 157.308 165.164 157.204 165.434C156.995 165.977 156.945 166.399 157.061 166.645C157.203 166.945 157.467 167.047 157.926 166.98ZM158.242 165.756C158.102 165.616 158.214 165.27 158.597 164.656C158.721 164.459 158.773 164.399 158.773 164.456C158.773 164.49 159.249 164.984 159.403 165.109C159.484 165.176 159.554 165.238 159.557 165.247C159.566 165.27 159.185 165.515 158.976 165.62C158.59 165.815 158.346 165.86 158.242 165.756ZM161.351 165.07C161.016 164.996 160.599 164.821 160.296 164.628C160.034 164.46 159.712 164.156 159.512 163.887C159.31 163.616 159.309 163.661 159.531 163.384C160.503 162.177 162.153 160.532 163.456 159.472L163.641 159.322L163.828 159.45C164.036 159.591 164.408 159.957 164.557 160.166C164.708 160.379 164.896 160.734 164.972 160.951C165.217 161.651 165.204 162.479 164.938 163.143C164.663 163.83 164.102 164.455 163.474 164.771C163.088 164.966 162.922 165.024 162.55 165.093C162.248 165.148 161.657 165.137 161.351 165.07ZM158.896 162.443C158.823 162.06 158.878 161.433 159.021 161.011C159.364 160.002 160.198 159.218 161.201 158.962C161.651 158.847 162.026 158.824 162.42 158.885L162.66 158.922L162.561 159.003C161.302 160.027 159.976 161.347 159.067 162.481C159 162.565 158.942 162.63 158.937 162.626C158.933 162.621 158.915 162.539 158.896 162.443ZM164.726 158.988C164.583 158.859 164.464 158.747 164.461 158.739C164.458 158.731 164.529 158.677 164.619 158.62C165.216 158.242 165.561 158.113 165.737 158.204C165.869 158.272 165.862 158.455 165.712 158.795C165.616 159.014 165.429 159.347 165.318 159.496L165.264 159.57L165.124 159.396C165.048 159.3 164.868 159.116 164.726 158.988Z" fill="#C0C1C3"/>
<path d="M215.352 86.4002C215.403 86.2627 215.597 86.2627 215.648 86.4002L216.15 87.7567C216.166 87.7999 216.2 87.834 216.243 87.85L217.6 88.3519C217.737 88.4028 217.737 88.5972 217.6 88.6481L216.243 89.15C216.2 89.166 216.166 89.2001 216.15 89.2433L215.648 90.5998C215.597 90.7373 215.403 90.7373 215.352 90.5998L214.85 89.2433C214.834 89.2001 214.8 89.166 214.757 89.15L213.4 88.6481C213.263 88.5972 213.263 88.4028 213.4 88.3519L214.757 87.85C214.8 87.834 214.834 87.7999 214.85 87.7567L215.352 86.4002Z" fill="#C0C1C3"/>
<path d="M154.352 100.4C154.403 100.263 154.597 100.263 154.648 100.4L155.15 101.757C155.166 101.8 155.2 101.834 155.243 101.85L156.6 102.352C156.737 102.403 156.737 102.597 156.6 102.648L155.243 103.15C155.2 103.166 155.166 103.2 155.15 103.243L154.648 104.6C154.597 104.737 154.403 104.737 154.352 104.6L153.85 103.243C153.834 103.2 153.8 103.166 153.757 103.15L152.4 102.648C152.263 102.597 152.263 102.403 152.4 102.352L153.757 101.85C153.8 101.834 153.834 101.8 153.85 101.757L154.352 100.4Z" fill="#C0C1C3"/>
<path d="M166.352 76.4002C166.403 76.2627 166.597 76.2627 166.648 76.4002L167.15 77.7567C167.166 77.7999 167.2 77.834 167.243 77.85L168.6 78.3519C168.737 78.4028 168.737 78.5972 168.6 78.6481L167.243 79.15C167.2 79.166 167.166 79.2001 167.15 79.2433L166.648 80.5998C166.597 80.7373 166.403 80.7373 166.352 80.5998L165.85 79.2433C165.834 79.2001 165.8 79.166 165.757 79.15L164.4 78.6481C164.263 78.5972 164.263 78.4028 164.4 78.3519L165.757 77.85C165.8 77.834 165.834 77.7999 165.85 77.7567L166.352 76.4002Z" fill="#C0C1C3"/>
<path d="M321.351 162.26C321.353 162.114 321.536 162.049 321.63 162.162L322.556 163.273C322.585 163.308 322.629 163.329 322.675 163.33L324.121 163.35C324.268 163.352 324.332 163.536 324.22 163.63L323.108 164.555C323.073 164.585 323.052 164.628 323.052 164.674L323.031 166.121C323.029 166.267 322.846 166.332 322.752 166.219L321.826 165.108C321.797 165.073 321.753 165.052 321.707 165.051L320.261 165.031C320.114 165.029 320.049 164.845 320.162 164.752L321.273 163.826C321.309 163.796 321.329 163.753 321.33 163.707L321.351 162.26Z" fill="#C0C1C3"/>
<path d="M101.351 225.26C101.353 225.114 101.536 225.049 101.63 225.162L102.556 226.273C102.585 226.308 102.629 226.329 102.675 226.33L104.121 226.35C104.268 226.352 104.332 226.536 104.22 226.63L103.108 227.555C103.073 227.585 103.052 227.628 103.052 227.674L103.031 229.121C103.029 229.267 102.846 229.332 102.752 229.219L101.826 228.108C101.797 228.073 101.753 228.052 101.707 228.051L100.261 228.031C100.114 228.029 100.049 227.845 100.162 227.752L101.273 226.826C101.309 226.796 101.329 226.753 101.33 226.707L101.351 225.26Z" fill="#C0C1C3"/>
<path d="M157.351 231.26C157.353 231.114 157.536 231.049 157.63 231.162L158.556 232.273C158.585 232.308 158.629 232.329 158.675 232.33L160.121 232.35C160.268 232.352 160.332 232.536 160.22 232.63L159.108 233.555C159.073 233.585 159.052 233.628 159.052 233.674L159.031 235.121C159.029 235.267 158.846 235.332 158.752 235.219L157.826 234.108C157.797 234.073 157.753 234.052 157.707 234.051L156.261 234.031C156.114 234.029 156.049 233.845 156.162 233.752L157.273 232.826C157.309 232.796 157.329 232.753 157.33 232.707L157.351 231.26Z" fill="#C0C1C3"/>
<path d="M448.352 125.4C448.403 125.263 448.597 125.263 448.648 125.4L449.15 126.757C449.166 126.8 449.2 126.834 449.243 126.85L450.6 127.352C450.737 127.403 450.737 127.597 450.6 127.648L449.243 128.15C449.2 128.166 449.166 128.2 449.15 128.243L448.648 129.6C448.597 129.737 448.403 129.737 448.352 129.6L447.85 128.243C447.834 128.2 447.8 128.166 447.757 128.15L446.4 127.648C446.263 127.597 446.263 127.403 446.4 127.352L447.757 126.85C447.8 126.834 447.834 126.8 447.85 126.757L448.352 125.4Z" fill="#C0C1C3"/>
<path fill-rule="evenodd" clip-rule="evenodd" d="M171.049 31.657C170.447 31.6138 165.799 31.9073 164.257 32.0858C164.194 32.0932 164.151 32.0293 164.101 31.8515C163.936 31.2577 163.577 30.9076 162.964 30.7439C162.577 30.6404 162.552 30.6412 161.934 30.774C161.585 30.8488 160.804 31.0396 160.197 31.1978C156.079 32.2718 153.165 33.4422 151.614 34.645C149.76 36.0829 148.573 38.3512 148.426 40.7369C148.369 41.6737 148.542 42.9726 148.843 43.8675C149.038 44.4453 149.4 45.1838 149.756 45.7312C151.231 47.9936 153.634 49.3808 156.334 49.5275C157.507 49.5913 158.699 49.3896 159.883 48.9268C161.657 48.2337 164.407 46.0561 167.364 43.004C167.764 42.5912 168.255 42.0728 168.455 41.8519C168.802 41.4695 168.824 41.4317 168.923 41.0582C169.002 40.7634 169.017 40.6027 168.984 40.4116C168.929 40.086 168.724 39.6864 168.518 39.5003C168.429 39.4202 168.361 39.3379 168.366 39.3174C168.372 39.2969 168.584 38.9939 168.839 38.6442C169.481 37.7626 170.615 36.0829 171.451 34.7763C172.377 33.3293 172.464 33.0293 172.141 32.3984C171.94 32.0067 171.47 31.6872 171.049 31.657ZM169.323 34.4293C169.05 34.8545 168.737 35.3319 168.628 35.4904C168.518 35.6489 168.117 36.2303 167.736 36.7824C167.197 37.564 166.24 38.8458 165.465 39.8252C165.428 39.8724 165.566 39.9681 166.469 40.5189C166.605 40.6022 166.73 40.6885 166.746 40.7107C166.81 40.7999 164.552 43.0608 163.332 44.1293C160.643 46.4842 159.124 47.3472 157.363 47.5207C155.196 47.7342 153.028 46.7907 151.702 45.0571C151.006 44.1472 150.515 42.8629 150.424 41.7166C150.314 40.3356 150.738 38.7552 151.527 37.6049C152.517 36.1611 154.036 35.2448 157.281 34.1336C158.977 33.5531 162.128 32.6985 162.184 32.8041C162.198 32.8301 162.214 33.1621 162.219 33.5416C162.224 33.9212 162.237 34.2617 162.248 34.2983C162.262 34.3453 162.419 34.3421 162.784 34.2876C164.272 34.0654 165.935 33.9044 168.254 33.758C169.106 33.7042 169.807 33.6593 169.811 33.6583C169.816 33.6572 169.596 34.0042 169.323 34.4293ZM157.161 36.5938C155.029 36.4356 153.133 37.6168 152.391 39.5657C151.337 42.3343 153.071 45.3367 155.995 45.8082C159.16 46.3184 161.904 43.5007 161.285 40.3772C161.012 39.0014 160.183 37.8398 158.99 37.1631C158.505 36.8878 157.686 36.6328 157.161 36.5938ZM156.774 39.3583C156.951 39.5621 157.048 40.0029 156.975 40.2699C156.87 40.6527 156.54 40.938 156.14 40.9919C155.451 41.0849 154.883 40.4277 155.068 39.7507C155.279 38.9788 156.251 38.7551 156.774 39.3583ZM157.266 42.8161C157.685 43.1398 157.49 43.9101 156.971 43.9784C156.603 44.0268 156.318 43.8443 156.215 43.4934C156.113 43.1451 156.317 42.7978 156.681 42.6994C156.93 42.6324 157.063 42.6588 157.266 42.8161Z" fill="#C0C1C3"/>
<path fill-rule="evenodd" clip-rule="evenodd" d="M479.982 152.892C481.389 153.138 486.236 154.272 486.499 154.416C486.911 154.642 487.235 155.168 487.278 155.678L487.309 156.049L487.995 156.232C489.724 156.693 505.222 161.073 505.416 161.156C505.537 161.207 505.7 161.369 505.779 161.516C505.91 161.757 505.911 161.85 505.787 162.487C505.712 162.875 505.667 163.202 505.687 163.214C505.707 163.226 506.479 163.402 507.403 163.604C508.327 163.807 509.211 164.035 509.367 164.112C509.85 164.349 509.879 164.584 509.593 165.921C509.139 168.04 509.068 168.192 508.497 168.269C508.358 168.287 507.443 168.122 506.463 167.901L504.681 167.5L504.542 168.162C504.38 168.938 504.204 169.18 503.744 169.258C503.537 169.293 502.115 169.104 499.766 168.729C496.514 168.209 496.098 168.16 496.001 168.282C495.901 168.408 496.057 168.722 497.936 172.164C499.913 175.788 499.977 175.917 499.887 176.127C499.803 176.325 499.744 176.354 499.244 176.443C498.941 176.498 498.623 176.519 498.537 176.491C498.426 176.455 497.841 175.452 496.504 173.002L494.627 169.563L493.771 169.716L492.915 169.869L492.34 173.725C492.024 175.846 491.718 177.635 491.661 177.701C491.6 177.772 491.328 177.861 490.998 177.921C490.424 178.023 490.158 177.949 490.108 177.671C490.098 177.61 490.36 175.695 490.691 173.415L491.293 169.269L490.882 168.85C490.431 168.391 490.211 168.044 490.033 167.515L489.916 167.167L487.464 166.785L485.013 166.402L484.765 166.68C484.447 167.036 484.028 167.255 483.651 167.262C483.386 167.267 477.661 166.057 477.037 165.864C476.416 165.672 475.909 165.009 475.897 164.375C475.89 163.979 478.017 154.244 478.208 153.801C478.469 153.195 479.295 152.772 479.982 152.892ZM479.594 154.923C479.508 155.297 478.27 160.943 477.768 163.253C477.643 163.826 477.552 164.302 477.565 164.311C477.621 164.348 483.533 165.622 483.543 165.599C483.549 165.585 483.87 164.119 484.257 162.34C484.644 160.562 485.122 158.37 485.321 157.468L485.682 155.83L482.734 155.174C481.113 154.813 479.764 154.519 479.736 154.52C479.709 154.522 479.645 154.703 479.594 154.923ZM486.186 161.223L485.404 164.784L487.696 165.147L489.988 165.51L490.107 165.272C490.637 164.212 491.25 163.667 492.341 163.282C492.729 163.146 493.619 163.151 494.091 163.293C494.657 163.463 495.598 164.117 495.883 164.538C496.226 165.047 496.45 165.622 496.484 166.087L496.516 166.512L496.864 166.573C498.814 166.916 502.951 167.527 502.983 167.477C503.079 167.325 504.097 162.46 504.035 162.45C503.997 162.443 500.159 161.362 495.506 160.046C490.854 158.73 487.029 157.655 487.007 157.657C486.986 157.66 486.616 159.264 486.186 161.223ZM492.322 165.104C491.967 165.285 491.573 165.885 491.537 166.298C491.498 166.748 491.673 167.324 491.936 167.618C492.533 168.284 493.738 168.327 494.357 167.704C495.017 167.041 495.01 165.911 494.344 165.324C493.976 164.999 493.757 164.903 493.305 164.866C492.935 164.836 492.768 164.877 492.322 165.104ZM505.176 165.272C505.125 165.492 505.079 165.718 505.075 165.775C505.069 165.841 505.568 165.992 506.428 166.187L507.789 166.494L507.882 165.985C507.933 165.705 507.967 165.462 507.958 165.445C507.935 165.403 505.472 164.851 505.358 164.862C505.309 164.868 505.227 165.052 505.176 165.272Z" fill="url(#paint0_linear)"/>
<path d="M551.59 171.197C546.754 174.388 555.349 181.768 537.742 182.562C537.742 184.906 531.631 193.707 532.212 196.001C532.619 197.609 534.559 197.189 536.301 197.218C540.657 197.291 542.732 196.774 547.06 197.218C566.313 199.193 550.141 209.739 552.156 211.042C573.108 226.898 553.289 227.711 545.927 225.644C538.566 224.052 509.385 216.749 514.217 222.426C517.654 226.465 524.894 226.47 524.976 231.777C525.041 236.078 521.518 238.652 515.349 239.095C509.773 239.496 491 237.062 484.205 232.59C477.409 228.118 485.903 221.646 475.097 219.297C468.915 217.953 465.126 217.239 459.848 216.705C457.473 216.465 453.242 215.63 451.228 217.076C447.31 219.889 446.697 224.562 445.04 228.13C440.19 238.577 425.865 231.581 415.572 230.035C411.339 229.399 392.908 225.589 387.939 226.085C380.45 226.832 400.529 232.673 394.735 235.843C388.941 239.012 394.038 242.354 391.176 246.67C389.121 249.768 386.571 253.764 386.571 257.275M1149 276.5C1149 341.393 959.616 394 726 394C492.384 394 303 341.393 303 276.5C303 211.607 492.384 159 726 159C959.616 159 1149 211.607 1149 276.5Z" stroke="#C0C1C3" stroke-width="3.68273" stroke-linecap="round"/>
<rect x="78" y="33" width="485" height="482" fill="url(#paint1_linear)"/>
</g>
<defs>
<linearGradient id="paint0_linear" x1="506.626" y1="147.058" x2="472.385" y2="160.151" gradientUnits="userSpaceOnUse">
<stop stop-color="#CA9CD0"/>
<stop offset="0.661458" stop-color="#D38972"/>
<stop offset="1" stop-color="#A1B1E7"/>
</linearGradient>
<linearGradient id="paint1_linear" x1="320.5" y1="33" x2="320.5" y2="487.141" gradientUnits="userSpaceOnUse">
<stop stop-color="#16181D" stop-opacity="0"/>
<stop offset="1" stop-color="#16181D"/>
</linearGradient>
<clipPath id="clip0">
<rect width="563" height="250" fill="white"/>
</clipPath>
</defs>
</svg>
