<svg width="15" height="13" viewBox="0 0 15 13" fill="none" xmlns="http://www.w3.org/2000/svg">
<path d="M12.5565 2.18926C12.2585 1.89117 11.9048 1.65472 11.5154 1.49339C11.1261 1.33206 10.7088 1.24902 10.2873 1.24902C9.86586 1.24902 9.44854 1.33206 9.05919 1.49339C8.66983 1.65472 8.31608 1.89117 8.01814 2.18926L7.39981 2.80759L6.78148 2.18926C6.17966 1.58743 5.36341 1.24934 4.51231 1.24934C3.66121 1.24934 2.84496 1.58743 2.24314 2.18926C1.64132 2.79108 1.30322 3.60732 1.30322 4.45842C1.30322 5.30952 1.64132 6.12577 2.24314 6.72759L2.86148 7.34592L7.39981 11.8843L11.9381 7.34592L12.5565 6.72759C12.8546 6.42965 13.091 6.0759 13.2523 5.68655C13.4137 5.29719 13.4967 4.87987 13.4967 4.45842C13.4967 4.03697 13.4137 3.61965 13.2523 3.2303C13.091 2.84095 12.8546 2.4872 12.5565 2.18926Z" fill="#33CB9A" stroke="#33CB9A" stroke-width="1.1818" stroke-linecap="round" stroke-linejoin="round"/>
</svg>
