<svg width="1200" height="91" viewBox="0 0 1200 91" fill="none" xmlns="http://www.w3.org/2000/svg">
<g clip-path="url(#clip0)">
<path fill-rule="evenodd" clip-rule="evenodd" d="M975.926 35.9803C976.461 35.9025 977.418 35.4483 978.231 34.8865L978.438 34.7434L978.615 34.8117C979.418 35.123 980.449 35.1384 981.294 34.8518C982.664 34.3867 983.681 33.2477 983.985 31.8359C984.135 31.1425 984.089 30.3821 983.856 29.6875L983.769 29.4272L983.843 29.3174C984.199 28.7887 984.613 28.0495 984.786 27.6321C984.913 27.3253 984.984 27.0353 984.997 26.7724C985.017 26.3639 984.938 26.1877 984.681 26.066C984.557 26.0073 984.517 25.9999 984.326 25.9999C983.768 25.9999 982.848 26.3926 981.851 27.0569L981.573 27.2418L981.338 27.1607C980.867 26.998 980.264 26.9075 979.828 26.9338C979.121 26.9765 978.451 27.1837 977.886 27.5342C977.033 28.0631 976.394 28.8856 976.12 29.8084C975.984 30.2662 975.952 30.4953 975.952 31.0027C975.953 31.4172 975.959 31.4947 976.014 31.7576C976.048 31.9187 976.115 32.1663 976.163 32.3077L976.25 32.5649L976.053 32.8598C975.944 33.022 975.814 33.2257 975.765 33.3125C975.715 33.3993 975.628 33.5514 975.571 33.6505C975.447 33.8662 975.308 34.1639 975.204 34.4339C974.995 34.9768 974.945 35.3994 975.061 35.6449C975.203 35.9452 975.467 36.0473 975.926 35.9803ZM976.242 34.7558C976.102 34.6163 976.214 34.2702 976.597 33.6562C976.721 33.4589 976.773 33.3992 976.773 33.4556C976.773 33.4896 977.249 33.9844 977.403 34.1095C977.484 34.176 977.554 34.2381 977.557 34.2474C977.566 34.2704 977.185 34.5146 976.976 34.6204C976.59 34.815 976.346 34.86 976.242 34.7558ZM979.351 34.0701C979.016 33.9965 978.599 33.8215 978.296 33.6279C978.034 33.4601 977.712 33.156 977.512 32.8868C977.31 32.6157 977.309 32.6605 977.531 32.3838C978.503 31.1767 980.153 29.5322 981.456 28.472L981.641 28.3217L981.828 28.4495C982.036 28.5913 982.408 28.9574 982.557 29.1661C982.708 29.3789 982.896 29.7337 982.972 29.9506C983.217 30.6509 983.204 31.4794 982.938 32.1432C982.663 32.8303 982.102 33.4546 981.474 33.7709C981.088 33.9658 980.922 34.0236 980.55 34.0925C980.248 34.1483 979.657 34.1373 979.351 34.0701ZM976.896 31.4434C976.823 31.0601 976.878 30.4335 977.021 30.0111C977.364 29.0016 978.198 28.2182 979.201 27.9621C979.651 27.8473 980.026 27.8237 980.42 27.8851L980.66 27.9225L980.561 28.0034C979.302 29.0269 977.976 30.3465 977.067 31.4814C977 31.565 976.942 31.6298 976.937 31.6255C976.933 31.6212 976.915 31.5393 976.896 31.4434ZM982.726 27.9877C982.583 27.8589 982.464 27.7469 982.461 27.7387C982.458 27.7305 982.529 27.6773 982.619 27.6203C983.216 27.2417 983.561 27.1129 983.737 27.2035C983.869 27.2722 983.862 27.4551 983.712 27.7951C983.616 28.0135 983.429 28.3469 983.318 28.496L983.264 28.5697L983.124 28.3957C983.048 28.3 982.868 28.1164 982.726 27.9877Z" fill="#C0C1C3"/>
<path fill-rule="evenodd" clip-rule="evenodd" d="M1024.23 38.0316C1024.18 38.0421 1023.92 38.085 1023.65 38.1268C1020.9 38.5577 1018.17 40.3954 1016.57 42.8921C1015.95 43.8497 1015.46 45.0407 1015.17 46.2632C1015.01 46.9294 1015 47.0785 1015 48.5322C1015 50.2677 1015.05 50.593 1015.52 51.9357C1016.28 54.1463 1017.8 56.0875 1019.73 57.3358C1021.01 58.1619 1022.52 58.7218 1024.04 58.9378C1024.81 59.0479 1026.34 59.0316 1027.12 58.9047C1029.44 58.5262 1031.6 57.3738 1033.18 55.6706L1033.63 55.1784V54.6628C1033.63 53.9337 1033.66 53.9454 1032.13 53.9454H1030.91V53.0753V52.2053L1031.09 52.1684C1031.19 52.148 1031.56 52.0857 1031.91 52.0299C1033.01 51.8571 1034.96 51.4084 1035.46 51.2112C1035.59 51.1626 1035.66 51.0731 1035.71 50.9069C1036.02 49.7368 1036.11 47.5437 1035.85 47.2518C1035.77 47.1524 1035.62 47.1384 1034.69 47.1384H1033.63V45.8779C1033.63 44.6488 1033.63 44.6149 1033.49 44.5165C1033.37 44.4338 1033.12 44.4156 1032.13 44.4156H1030.91V43.7349V43.0541H1031.45C1032.3 43.0541 1032.27 43.0964 1032.27 41.6582V40.464L1031.93 40.1931C1030.6 39.1315 1028.87 38.3774 1027.14 38.0954C1026.61 38.0106 1024.57 37.9657 1024.23 38.0316ZM1026.29 39.3596C1027.9 39.5285 1029.17 39.9665 1030.41 40.7782L1030.91 41.1067V41.3997V41.6927H1029.68C1028.19 41.6927 1028.19 41.6945 1028.19 42.3734C1028.19 42.9775 1028.28 43.0541 1029 43.0541H1029.55V44.2859C1029.55 45.4312 1029.56 45.5267 1029.68 45.6473C1029.8 45.7679 1029.9 45.777 1031.04 45.777H1032.27V46.4577V47.1384H1031.72C1031 47.1384 1030.91 47.215 1030.91 47.8191C1030.91 48.5226 1030.84 48.4998 1032.92 48.4998C1034.64 48.4998 1034.67 48.5022 1034.67 48.6319C1034.67 48.8412 1034.53 50.0204 1034.51 50.0481C1034.46 50.0962 1033.2 50.3799 1032.17 50.5755C1029.66 51.0531 1028.22 51.1833 1025.43 51.1845C1022.25 51.1859 1019.96 50.9338 1017.12 50.2693L1016.4 50.0995L1016.34 49.6076C1015.86 45.0854 1018.58 40.9687 1022.9 39.6959C1024.04 39.3612 1025.21 39.2453 1026.29 39.3596ZM1022.13 41.1431C1021.31 41.3695 1020.5 41.9407 1020.03 42.6328C1019.55 43.3396 1019.37 43.9164 1019.37 44.8045C1019.37 46.4118 1020.37 47.7686 1021.96 48.3206C1022.31 48.4397 1022.52 48.4659 1023.1 48.4619C1023.84 48.4568 1024.09 48.4003 1024.82 48.0607C1025.32 47.8258 1026.16 46.9761 1026.43 46.4252C1027.43 44.3757 1026.43 41.9806 1024.27 41.2271C1023.83 41.0736 1023.65 41.0469 1023.1 41.0511C1022.74 41.0539 1022.31 41.0952 1022.13 41.1431ZM1023.86 42.5151C1024.17 42.6112 1024.66 42.9436 1024.9 43.2105C1025.13 43.4718 1025.4 44.1247 1025.44 44.5231C1025.54 45.4813 1025 46.4641 1024.14 46.8944C1023 47.4591 1021.51 46.947 1020.95 45.7993C1020.39 44.653 1020.87 43.2169 1021.99 42.6639C1022.63 42.3474 1023.19 42.3032 1023.86 42.5151ZM1022.56 43.8966C1021.91 44.2964 1021.95 45.3093 1022.63 45.6405C1022.97 45.8046 1023.2 45.8125 1023.5 45.6706C1024.48 45.2028 1024.15 43.7666 1023.05 43.7675C1022.89 43.7677 1022.69 43.8211 1022.56 43.8966ZM1017.88 51.8087C1019.08 52.0632 1020.65 52.2898 1022.16 52.4263C1024.15 52.6067 1027.85 52.567 1029.31 52.3496L1029.55 52.3132V53.5141C1029.55 54.1745 1029.58 54.7897 1029.61 54.8811C1029.74 55.2123 1030.02 55.3063 1030.88 55.3065L1031.65 55.3068L1031.43 55.5019C1030.99 55.8809 1029.95 56.5402 1029.35 56.8218C1028.04 57.4345 1026.96 57.6667 1025.47 57.6627C1024.3 57.6597 1023.58 57.5466 1022.55 57.2066C1020.52 56.5396 1018.69 55.0507 1017.54 53.1313C1017.34 52.8062 1016.84 51.7322 1016.84 51.6382C1016.84 51.5924 1016.93 51.6062 1017.88 51.8087Z" fill="#C0C1C3"/>
<path d="M1081.35 29.4002C1081.4 29.2627 1081.6 29.2627 1081.65 29.4002L1082.15 30.7567C1082.17 30.7999 1082.2 30.834 1082.24 30.85L1083.6 31.3519C1083.74 31.4028 1083.74 31.5972 1083.6 31.6481L1082.24 32.15C1082.2 32.166 1082.17 32.2001 1082.15 32.2433L1081.65 33.5998C1081.6 33.7373 1081.4 33.7373 1081.35 33.5998L1080.85 32.2433C1080.83 32.2001 1080.8 32.166 1080.76 32.15L1079.4 31.6481C1079.26 31.5972 1079.26 31.4028 1079.4 31.3519L1080.76 30.85C1080.8 30.834 1080.83 30.7999 1080.85 30.7567L1081.35 29.4002Z" fill="#C0C1C3"/>
<path d="M1094.35 43.4002C1094.4 43.2627 1094.6 43.2627 1094.65 43.4002L1095.15 44.7567C1095.17 44.7999 1095.2 44.834 1095.24 44.85L1096.6 45.3519C1096.74 45.4028 1096.74 45.5972 1096.6 45.6481L1095.24 46.15C1095.2 46.166 1095.17 46.2001 1095.15 46.2433L1094.65 47.5998C1094.6 47.7373 1094.4 47.7373 1094.35 47.5998L1093.85 46.2433C1093.83 46.2001 1093.8 46.166 1093.76 46.15L1092.4 45.6481C1092.26 45.5972 1092.26 45.4028 1092.4 45.3519L1093.76 44.85C1093.8 44.834 1093.83 44.7999 1093.85 44.7567L1094.35 43.4002Z" fill="#C0C1C3"/>
<path d="M1106.35 19.4002C1106.4 19.2627 1106.6 19.2627 1106.65 19.4002L1107.15 20.7567C1107.17 20.7999 1107.2 20.834 1107.24 20.85L1108.6 21.3519C1108.74 21.4028 1108.74 21.5972 1108.6 21.6481L1107.24 22.15C1107.2 22.166 1107.17 22.2001 1107.15 22.2433L1106.65 23.5998C1106.6 23.7373 1106.4 23.7373 1106.35 23.5998L1105.85 22.2433C1105.83 22.2001 1105.8 22.166 1105.76 22.15L1104.4 21.6481C1104.26 21.5972 1104.26 21.4028 1104.4 21.3519L1105.76 20.85C1105.8 20.834 1105.83 20.7999 1105.85 20.7567L1106.35 19.4002Z" fill="#C0C1C3"/>
<path fill-rule="evenodd" clip-rule="evenodd" d="M806.836 61.6621C806.872 61.6528 807.075 61.5801 807.289 61.5004C807.503 61.4207 807.702 61.3567 807.732 61.358C807.762 61.3593 807.974 61.4483 808.203 61.5557C808.432 61.6632 808.635 61.748 808.654 61.7444C808.761 61.7237 808.748 61.6048 808.594 61.1928C808.506 60.9567 808.435 60.7389 808.436 60.709C808.437 60.679 808.524 60.4706 808.629 60.2458C808.734 60.021 808.82 59.8189 808.821 59.7967C808.826 59.6824 808.692 59.6949 808.274 59.8484C808.036 59.9356 807.817 60.006 807.787 60.0048C807.757 60.0036 807.546 59.915 807.318 59.8081C806.92 59.6214 806.802 59.5989 806.773 59.7036C806.768 59.7222 806.836 59.9314 806.924 60.1685C807.013 60.4056 807.084 60.6239 807.083 60.6537C807.081 60.6835 806.995 60.8927 806.891 61.1185C806.788 61.3444 806.706 61.5494 806.71 61.574C806.724 61.6481 806.769 61.68 806.836 61.6621ZM803.346 57.8873C803.923 58.3234 804.549 58.5566 805.273 58.6054C806.07 58.6592 806.776 58.4777 807.438 58.0486C807.577 57.9587 807.737 57.8425 807.794 57.7904L807.896 57.6957L808.161 57.9233C809.395 58.9845 810.972 59.4825 812.606 59.3263C812.831 59.3048 813.125 59.2622 813.26 59.2317L813.505 59.1761L812.369 60.2487C811.138 61.4104 811.159 61.386 811.011 61.7982C810.806 62.3701 810.927 63.042 811.315 63.4747C811.461 63.6379 811.487 63.6547 811.602 63.6595C811.7 63.6636 811.754 63.6421 811.842 63.5642C812.007 63.4186 812.006 63.2859 811.835 63.0397C811.601 62.7008 811.545 62.3276 811.677 61.9875L811.754 61.789L814.024 59.672C816.498 57.3657 816.36 57.5099 816.516 57.0733C816.662 56.6683 816.643 56.2096 816.465 55.7847L816.377 55.5758L814.699 53.7405C813.504 52.4334 812.988 51.8853 812.906 51.8362C812.744 51.7384 812.429 51.7335 812.248 51.826C812.13 51.8861 812.071 51.9386 811.952 52.0915C811.595 52.5487 811.546 53.1498 811.824 53.6443L811.908 53.7938L811.672 53.6938C811.542 53.6387 811.104 53.4499 810.699 53.2742L809.962 52.9548L810.861 52.1027L811.761 51.2506L811.801 51.0886C811.823 50.9996 811.829 50.8526 811.814 50.7621C811.789 50.6035 811.776 50.5836 811.455 50.22C811.247 49.9841 811.079 49.8169 811.007 49.7741C810.855 49.684 810.532 49.6732 810.369 49.7529C810.274 49.7993 809.889 50.1391 808.9 51.0504L807.561 52.285L807.312 52.1396C806.312 51.5547 805.219 51.4781 804.135 51.9169C803.327 52.2439 802.625 52.9534 802.284 53.7871C801.924 54.6676 801.937 55.6946 802.318 56.5546C802.557 57.0963 802.919 57.5649 803.346 57.8873ZM803.178 56.6938C803.029 56.4682 802.836 56.0288 802.787 55.8029C802.766 55.7081 802.753 55.6273 802.758 55.6232C802.762 55.6191 802.992 55.6603 803.269 55.7147L803.772 55.8136L804.229 56.3095L804.686 56.8055L804.744 57.315C804.776 57.5953 804.798 57.8279 804.794 57.832C804.768 57.8555 804.411 57.7166 804.184 57.595C803.756 57.3653 803.427 57.0704 803.178 56.6938ZM807.293 56.2352C807.464 55.9287 807.559 55.631 807.584 55.3164C807.615 54.9253 807.56 54.5893 807.412 54.2613C807.313 54.0436 807.256 53.9623 807.036 53.7227C806.815 53.483 806.738 53.4199 806.529 53.3041C805.934 52.9743 805.215 52.959 804.552 53.262C804.403 53.3302 804.252 53.4537 803.554 54.075L802.731 54.8076L802.772 54.5815C802.968 53.5091 803.825 52.6336 804.911 52.3955C805.254 52.3204 805.849 52.3311 806.195 52.4186C806.682 52.5413 807.227 52.8657 807.566 53.2335C807.905 53.6013 808.184 54.1716 808.267 54.666C808.326 55.0184 808.288 55.6126 808.186 55.948C807.86 57.011 806.913 57.7978 805.833 57.9023L805.604 57.9245L806.401 57.1641C807.077 56.5192 807.213 56.3781 807.293 56.2352ZM804.72 55.8571L804.071 55.1527L803.794 55.1028L803.517 55.0529L804.159 54.4776C804.872 53.8398 804.903 53.8198 805.309 53.7548C805.571 53.713 805.937 53.7747 806.167 53.8991C806.386 54.0177 806.689 54.3463 806.789 54.574C806.894 54.813 806.926 55.1834 806.863 55.4405C806.765 55.8398 806.743 55.8699 806.049 56.5281L805.424 57.1219L805.396 56.8417L805.369 56.5615L804.72 55.8571ZM805.967 55.9824C806.271 55.9947 806.432 55.646 806.226 55.4224C806.152 55.3424 806.102 55.3192 805.994 55.3148C805.69 55.3024 805.529 55.6512 805.735 55.8748C805.809 55.9548 805.859 55.9779 805.967 55.9824ZM805.017 54.9516C805.32 54.9639 805.482 54.6152 805.276 54.3916C805.202 54.3116 805.152 54.2884 805.044 54.284C804.74 54.2717 804.579 54.6204 804.785 54.844C804.859 54.924 804.909 54.9472 805.017 54.9516ZM808.515 56.9101C809.067 55.9995 809.153 54.7749 808.734 53.789C808.601 53.4781 808.328 53.0244 808.169 52.8517L808.082 52.7579L809.371 51.5702L810.659 50.3825L810.897 50.6402L811.134 50.8979L810.072 51.8769C808.935 52.9247 808.954 52.9035 808.971 53.117C808.983 53.2755 809.124 53.3523 810.489 53.9442C811.235 54.2675 811.844 54.539 811.844 54.5475C811.844 54.556 811.782 54.6483 811.707 54.7526C811.313 55.3016 811.211 56.0974 811.451 56.7384C811.509 56.8922 811.543 56.9453 811.596 56.9637C811.673 56.9905 811.942 56.8716 812.069 56.7547C812.144 56.6858 812.145 56.6626 812.087 56.4573C811.998 56.1452 812.022 55.7439 812.147 55.4349C812.275 55.1213 812.43 54.9251 812.871 54.5179L813.22 54.1954L812.842 53.7841C812.419 53.3253 812.345 53.2082 812.34 52.9889C812.336 52.8245 812.42 52.5723 812.506 52.4935L812.559 52.4441L814.165 54.1857C815.724 55.8767 815.772 55.9325 815.843 56.1067C815.941 56.3463 815.943 56.6454 815.849 56.8884C815.775 57.0785 815.757 57.0999 815.415 57.4135C815.024 57.7715 814.776 57.9351 814.258 58.177C812.574 58.9622 810.584 58.7924 809.039 57.7318C808.791 57.5617 808.375 57.2127 808.37 57.171C808.369 57.1611 808.434 57.0437 808.515 56.9101Z" fill="#C0C1C3"/>
<path d="M794.351 24.2605C794.353 24.1139 794.536 24.0491 794.63 24.1617L795.556 25.273C795.585 25.3084 795.629 25.3291 795.675 25.3298L797.121 25.3504C797.268 25.3525 797.332 25.5357 797.22 25.6296L796.108 26.5553C796.073 26.5848 796.052 26.6283 796.052 26.6744L796.031 28.1207C796.029 28.2672 795.846 28.3321 795.752 28.2195L794.826 27.1082C794.797 27.0728 794.753 27.052 794.707 27.0514L793.261 27.0308C793.114 27.0287 793.049 26.8454 793.162 26.7516L794.273 25.8258C794.309 25.7963 794.329 25.7528 794.33 25.7067L794.351 24.2605Z" fill="#C0C1C3"/>
<path d="M720.115 50.0405C720.247 49.6831 720.753 49.6831 720.885 50.0405L722.19 53.5674C722.232 53.6797 722.32 53.7683 722.433 53.8099L725.96 55.115C726.317 55.2472 726.317 55.7528 725.96 55.885L722.433 57.1901C722.32 57.2317 722.232 57.3203 722.19 57.4326L720.885 60.9595C720.753 61.3169 720.247 61.3169 720.115 60.9595L718.81 57.4326C718.768 57.3203 718.68 57.2317 718.567 57.1901L715.04 55.885C714.683 55.7528 714.683 55.2472 715.04 55.115L718.567 53.8099C718.68 53.7683 718.768 53.6797 718.81 53.5674L720.115 50.0405Z" fill="#C0C1C3"/>
<path d="M734.352 33.4002C734.403 33.2627 734.597 33.2627 734.648 33.4002L735.15 34.7567C735.166 34.7999 735.2 34.834 735.243 34.85L736.6 35.3519C736.737 35.4028 736.737 35.5972 736.6 35.6481L735.243 36.15C735.2 36.166 735.166 36.2001 735.15 36.2433L734.648 37.5998C734.597 37.7373 734.403 37.7373 734.352 37.5998L733.85 36.2433C733.834 36.2001 733.8 36.166 733.757 36.15L732.4 35.6481C732.263 35.5972 732.263 35.4028 732.4 35.3519L733.757 34.85C733.8 34.834 733.834 34.7999 733.85 34.7567L734.352 33.4002Z" fill="#C0C1C3"/>
<path fill-rule="evenodd" clip-rule="evenodd" d="M1152.5 54.4662C1153.21 54.5901 1155.66 55.1614 1155.79 55.2342C1156 55.3482 1156.16 55.613 1156.18 55.8705L1156.2 56.0574L1156.54 56.1496C1157.41 56.3818 1165.23 58.5898 1165.32 58.6316C1165.38 58.6574 1165.47 58.7391 1165.51 58.8131C1165.57 58.9346 1165.57 58.9818 1165.51 59.3027C1165.47 59.498 1165.45 59.6629 1165.46 59.669C1165.47 59.6752 1165.86 59.7637 1166.33 59.8658C1166.79 59.9679 1167.24 60.083 1167.32 60.1216C1167.56 60.241 1167.57 60.3596 1167.43 61.0339C1167.2 62.1016 1167.16 62.1783 1166.88 62.217C1166.81 62.2265 1166.35 62.1431 1165.85 62.0318L1164.95 61.8295L1164.88 62.1632C1164.8 62.5542 1164.71 62.6765 1164.48 62.7156C1164.38 62.7332 1163.66 62.6379 1162.48 62.4488C1160.84 62.1872 1160.63 62.1623 1160.58 62.2237C1160.53 62.2872 1160.61 62.4454 1161.55 64.1808C1162.55 66.0074 1162.58 66.0724 1162.54 66.1784C1162.49 66.278 1162.46 66.2926 1162.21 66.3378C1162.06 66.3651 1161.9 66.376 1161.86 66.3619C1161.8 66.3437 1161.51 65.838 1160.83 64.6028L1159.89 62.8693L1159.45 62.9465L1159.02 63.0238L1158.73 64.9676C1158.57 66.0367 1158.42 66.9385 1158.39 66.9717C1158.36 67.0073 1158.22 67.0526 1158.06 67.0824C1157.77 67.1342 1157.63 67.0966 1157.61 66.9565C1157.6 66.9259 1157.73 65.9605 1157.9 64.8111L1158.2 62.7212L1158 62.5102C1157.77 62.2786 1157.66 62.104 1157.57 61.837L1157.51 61.6618L1156.27 61.469L1155.04 61.2763L1154.91 61.4161C1154.75 61.5955 1154.54 61.7059 1154.35 61.7094C1154.22 61.712 1151.33 61.1021 1151.02 61.0048C1150.71 60.908 1150.45 60.5741 1150.44 60.2545C1150.44 60.0549 1151.51 55.1474 1151.61 54.924C1151.74 54.6187 1152.16 54.4056 1152.5 54.4662ZM1152.31 55.4897C1152.26 55.6784 1151.64 58.5243 1151.39 59.6888C1151.32 59.9777 1151.28 60.2176 1151.28 60.222C1151.31 60.2407 1154.29 60.8828 1154.3 60.8712C1154.3 60.8642 1154.46 60.125 1154.66 59.2286C1154.85 58.3322 1155.09 57.2271 1155.19 56.7728L1155.38 55.9468L1153.89 55.6162C1153.07 55.4344 1152.39 55.2861 1152.38 55.2868C1152.36 55.2875 1152.33 55.3788 1152.31 55.4897ZM1155.63 58.6654L1155.24 60.4606L1156.39 60.6434L1157.55 60.8262L1157.61 60.7065C1157.87 60.1721 1158.18 59.8973 1158.73 59.7034C1158.93 59.6346 1159.38 59.6373 1159.61 59.7088C1159.9 59.7946 1160.37 60.1242 1160.52 60.3365C1160.69 60.593 1160.8 60.8831 1160.82 61.1174L1160.84 61.3314L1161.01 61.3622C1162 61.5351 1164.08 61.8431 1164.1 61.8179C1164.15 61.7415 1164.66 59.2892 1164.63 59.2838C1164.61 59.2806 1162.67 58.7353 1160.33 58.072C1157.98 57.4087 1156.06 56.8669 1156.04 56.868C1156.03 56.8692 1155.85 57.678 1155.63 58.6654ZM1158.72 60.622C1158.54 60.7132 1158.35 61.0155 1158.33 61.2238C1158.31 61.4503 1158.4 61.7407 1158.53 61.8889C1158.83 62.2247 1159.44 62.2464 1159.75 61.9325C1160.08 61.5982 1160.08 61.0284 1159.74 60.7326C1159.56 60.569 1159.45 60.5205 1159.22 60.502C1159.03 60.4868 1158.95 60.5072 1158.72 60.622ZM1165.2 60.7063C1165.18 60.8172 1165.15 60.9315 1165.15 60.9602C1165.15 60.9932 1165.4 61.0696 1165.83 61.1675L1166.52 61.3226L1166.57 61.0661C1166.59 60.925 1166.61 60.8023 1166.6 60.7936C1166.59 60.7724 1165.35 60.4942 1165.29 60.5C1165.27 60.5026 1165.23 60.5953 1165.2 60.7063Z" fill="url(#paint0_linear)"/>
<path d="M1171.04 65.8859C1169.4 66.8779 1172.31 69.1724 1166.36 69.4192C1166.36 70.1479 1164.29 72.8841 1164.49 73.5976C1164.63 74.0973 1165.28 73.9668 1165.87 73.9758C1167.34 73.9984 1168.04 73.8378 1169.51 73.9758C1176.02 74.5898 1170.55 77.8686 1171.23 78.2736C1178.31 83.2034 1171.61 83.4562 1169.12 82.8137C1166.64 82.3186 1156.77 80.0481 1158.4 81.813C1159.57 83.0687 1162.01 83.0704 1162.04 84.7203C1162.06 86.0574 1160.87 86.8579 1158.79 86.9956C1156.9 87.12 1150.56 86.3635 1148.26 84.9731C1145.96 83.5826 1148.83 81.5706 1145.18 80.8403C1143.09 80.4225 1141.81 80.2004 1140.02 80.0345C1139.22 79.9598 1137.79 79.7001 1137.11 80.1496C1135.79 81.0243 1135.58 82.4771 1135.02 83.5866C1133.38 86.8344 1128.54 84.6595 1125.06 84.1786C1123.63 83.9808 1117.39 82.7965 1115.71 82.9506C1113.18 83.1829 1119.97 84.9989 1118.01 85.9843C1116.05 86.9698 1117.78 88.0088 1116.81 89.3506C1116.11 90.3136 1115.25 91.5562 1115.25 92.6478M1373 98.6248C1373 118.8 1308.98 135.156 1230 135.156C1151.02 135.156 1087 118.8 1087 98.6248C1087 78.4493 1151.02 62.0938 1230 62.0938C1308.98 62.0938 1373 78.4493 1373 98.6248Z" stroke="#C0C1C3" stroke-width="1.14859" stroke-linecap="round"/>
<path fill-rule="evenodd" clip-rule="evenodd" d="M929.812 15.1101C926.817 15.5461 921.457 18.0897 916.905 21.2357L915.746 22.0369L914.758 21.6547C910.257 19.9112 904.485 19.8247 899.755 21.4298C892.079 24.0342 886.387 30.413 884.683 38.3188C883.846 42.2017 884.102 46.4603 885.406 50.3497L885.895 51.8074L885.48 52.4225C883.485 55.3833 881.169 59.5227 880.2 61.8601C879.487 63.5779 879.088 65.202 879.016 66.6743C878.905 68.962 879.347 69.9484 880.789 70.6301C881.484 70.9586 881.706 71 882.776 71C885.901 71.0003 891.051 68.8009 896.637 65.0811L898.191 64.0459L899.506 64.4996C902.147 65.4111 905.52 65.9179 907.962 65.7705C911.92 65.5313 915.674 64.3712 918.839 62.4084C923.616 59.4465 927.193 54.8402 928.729 49.6727C929.491 47.1092 929.671 45.8262 929.667 42.9849C929.665 40.6638 929.629 40.2293 929.321 38.7573C929.132 37.8551 928.758 36.4687 928.489 35.6766L928 34.2363L929.105 32.5848C929.714 31.6764 930.439 30.5358 930.718 30.0499C930.997 29.5641 931.485 28.7122 931.803 28.157C932.495 26.9494 933.276 25.2823 933.858 23.7701C935.029 20.7302 935.307 18.3635 934.657 16.9887C933.861 15.3069 932.387 14.7353 929.812 15.1101ZM928.046 21.9678C928.827 22.7485 928.2 24.6869 926.054 28.1254C925.365 29.2303 925.073 29.5643 925.073 29.2483C925.073 29.0583 922.403 26.287 921.546 25.5868C921.089 25.2141 920.7 24.8666 920.68 24.8143C920.63 24.6857 922.762 23.3184 923.936 22.7259C926.096 21.6357 927.462 21.3839 928.046 21.9678ZM910.634 25.8074C912.508 26.2196 914.846 27.1997 916.541 28.2837C918.011 29.2232 919.814 30.9266 920.934 32.4339C922.062 33.9521 922.071 33.7008 920.824 35.2506C915.383 42.0104 906.144 51.2192 898.846 57.1567L897.812 57.9983L896.763 57.2825C895.599 56.4887 893.514 54.4382 892.683 53.2698C891.834 52.0781 890.783 50.0909 890.359 48.8767C888.987 44.9548 889.059 40.3153 890.547 36.5978C892.087 32.7502 895.231 29.2542 898.744 27.483C900.909 26.3914 901.839 26.0678 903.922 25.6819C905.609 25.3692 908.923 25.431 910.634 25.8074ZM924.381 40.5166C924.792 42.6631 924.486 46.1724 923.682 48.5374C921.76 54.1908 917.091 58.5779 911.471 60.0118C908.952 60.6548 906.857 60.7872 904.645 60.443L903.301 60.2338L903.859 59.7805C910.908 54.0493 918.332 46.6593 923.425 40.3041C923.8 39.8361 924.126 39.4729 924.15 39.497C924.174 39.521 924.278 39.9798 924.381 40.5166ZM891.736 59.8689C892.535 60.5898 893.202 61.2173 893.218 61.2629C893.234 61.3087 892.837 61.6071 892.334 61.9258C888.992 64.046 887.058 64.7675 886.076 64.2601C885.331 63.8754 885.374 62.8513 886.212 60.9471C886.751 59.7241 887.799 57.8572 888.417 57.0219L888.722 56.6095L889.503 57.5837C889.932 58.1195 890.937 59.1479 891.736 59.8689Z" fill="url(#paint1_linear)"/>
<rect x="-26" y="-166" width="1251" height="603" fill="url(#paint2_linear)"/>
</g>
<defs>
<linearGradient id="paint0_linear" x1="1165.93" y1="51.5252" x2="1148.67" y2="58.1249" gradientUnits="userSpaceOnUse">
<stop stop-color="#CA9CD0"/>
<stop offset="0.661458" stop-color="#D38972"/>
<stop offset="1" stop-color="#A1B1E7"/>
</linearGradient>
<linearGradient id="paint1_linear" x1="881.24" y1="19" x2="939.378" y2="27.8553" gradientUnits="userSpaceOnUse">
<stop stop-color="#7A96F2"/>
<stop offset="1" stop-color="#CE79D1"/>
</linearGradient>
<linearGradient id="paint2_linear" x1="599.5" y1="-166" x2="599.5" y2="402.148" gradientUnits="userSpaceOnUse">
<stop stop-color="#16181D" stop-opacity="0"/>
<stop offset="1" stop-color="#16181D"/>
</linearGradient>
<clipPath id="clip0">
<rect width="1200" height="91" fill="white"/>
</clipPath>
</defs>
</svg>
