<svg width="31" height="31" viewBox="0 0 31 31" fill="none" xmlns="http://www.w3.org/2000/svg">
<style>
    #deepsource-logomark {
        fill: #16181d;
    }
    @media (prefers-color-scheme: dark) {
        #deepsource-logomark {
            fill: white;
        }
    }
</style>
<ellipse cx="26.4233" cy="25.8179" rx="4.57686" ry="4.57764" fill="#F6D87C"/>
<path id="deepsource-logomark" fill-rule="evenodd" clip-rule="evenodd" d="M0 30.961V0H10.9024C14.2899 0 17.1328 0.73973 19.508 2.25864C21.8441 3.73856 23.6351 5.68581 24.8035 8.06139C25.9713 10.437 26.5945 12.9295 26.5945 15.5C26.5945 16.7033 26.4702 17.8817 26.218 19.0314C22.5047 19.375 19.5973 22.4995 19.5973 26.3032C19.5973 27.0555 19.711 27.7812 19.9221 28.464C19.7861 28.5579 19.648 28.6503 19.508 28.7414C17.1713 30.2213 14.2899 31 10.9024 31H2.02485C1.44069 30.961 0.0389751 30.961 0 30.961ZM4.40074 6.9713H15.459C16.3935 6.9713 17.172 7.75001 17.172 8.68465C17.172 9.61929 16.3935 10.3985 15.459 10.3985H4.40074V6.9713ZM17.9512 20.5248H4.40084V23.9519H17.9512C18.8857 23.9519 19.6642 23.1728 19.6642 22.2381C19.6642 21.3035 18.8857 20.5248 17.9512 20.5248ZM4.40084 13.7483H12.0715C13.006 13.7483 13.7846 14.527 13.7846 15.4617C13.7846 16.3963 13.006 17.1755 12.0715 17.1755H4.40084V13.7483Z"/>
</svg>
