<svg width="150" height="150" viewBox="0 0 150 150" fill="none" xmlns="http://www.w3.org/2000/svg">
<g clip-path="url(#deepsource-only-logo-white)">
<path fill-rule="evenodd" clip-rule="evenodd" d="M45.5172 37.2414V114.73C45.6148 114.73 49.1235 114.73 50.5858 114.828H72.8081C81.2879 114.828 88.5006 112.879 94.3497 109.175C100.198 105.373 104.681 100.597 107.605 94.6517C110.626 88.8025 112.089 82.5654 112.089 76.0345C112.089 69.6011 110.529 63.3629 107.605 57.4173C104.681 51.4717 100.198 46.5982 94.3497 42.8943C88.4042 39.0928 81.2879 37.2414 72.8081 37.2414H45.5172ZM84.2124 54.689H56.5313V63.2665H84.2124C86.5516 63.2665 88.5005 61.3164 88.5005 58.9772C88.5005 56.638 86.5516 54.689 84.2124 54.689ZM56.5313 88.6085H90.4506C92.7898 88.6085 94.7387 90.5574 94.7387 92.8966C94.7387 95.2358 92.7898 97.1859 90.4506 97.1859H56.5313V88.6085ZM75.7326 71.6488H56.5313V80.2262H75.7326C78.0718 80.2262 80.0207 78.2761 80.0207 75.9369C80.0207 73.5977 78.0718 71.6488 75.7326 71.6488Z" fill="white"/>
</g>
<defs>
<clipPath id="deepsource-only-logo-white">
<rect width="150" height="150" fill="white"/>
</clipPath>
</defs>
</svg>
