<svg width="74" height="85" viewBox="0 0 74 85" fill="none" xmlns="http://www.w3.org/2000/svg">
<path fill-rule="evenodd" clip-rule="evenodd" d="M12.2966 19.1142H43.0022C45.5956 19.1142 47.7564 21.2516 47.7564 23.8131C47.7564 26.375 45.5956 28.5122 43.0022 28.5122H12.2966V19.1142ZM12.2966 56.2756H49.9202C52.5137 56.2756 54.6778 58.4098 54.6778 60.9746C54.6778 63.5363 52.5137 65.6705 49.9202 65.6705H12.2966V56.2756ZM0.0808105 84.8939V0H30.3503C39.7577 0 47.649 2.02812 54.2449 6.19357C60.7303 10.2529 65.7026 15.5916 68.9468 22.1034C72.1913 28.6183 73.9192 35.4516 73.9192 42.5001C73.9192 49.6547 72.2987 56.4878 68.9468 62.8967C65.7026 69.4086 60.7303 74.6411 54.2449 78.8064C47.7564 82.8628 39.7577 85 30.3503 85H5.70382C4.0801 84.8939 0.188216 84.8939 0.0808105 84.8939ZM12.2966 37.695H33.5946C36.1913 37.695 38.3521 39.8292 38.3521 42.394C38.3521 44.9556 36.1913 47.0928 33.5946 47.0928H12.2966V37.695Z" fill="white"/>
</svg>
