<svg width="269" height="40" viewBox="0 0 269 40" fill="none" xmlns="http://www.w3.org/2000/svg">
<path fill-rule="evenodd" clip-rule="evenodd" d="M5.29946 8.39527H18.6201C19.7452 8.39527 20.6826 9.33402 20.6826 10.4591C20.6826 11.5843 19.7452 12.523 18.6201 12.523H5.29946V8.39527ZM5.29946 24.7171H21.6213C22.7464 24.7171 23.6852 25.6545 23.6852 26.781C23.6852 27.9061 22.7464 28.8435 21.6213 28.8435H5.29946V24.7171ZM0 37.2867V0H13.1315C17.2126 0 20.636 0.890781 23.4974 2.72031C26.3109 4.50324 28.468 6.84805 29.8754 9.70815C31.2829 12.5696 32.0325 15.5709 32.0325 18.6667C32.0325 21.8091 31.3295 24.8103 29.8754 27.6252C28.468 30.4853 26.3109 32.7835 23.4974 34.613C20.6826 36.3946 17.2126 37.3333 13.1315 37.3333H2.43937C1.73497 37.2867 0.0465947 37.2867 0 37.2867ZM5.29946 16.5562H14.5389C15.6654 16.5562 16.6028 17.4936 16.6028 18.6201C16.6028 19.7452 15.6654 20.6839 14.5389 20.6839H5.29946V16.5562Z" fill="white"/>
<path d="M65.4802 2.37595V30.4975H62.3999L62.2676 26.8929C61.482 28.2028 60.4335 29.186 59.1219 29.9079C57.8104 30.5628 56.3682 30.9565 54.8607 30.9565C51.9111 30.9565 49.551 30.0386 47.6499 28.2028C45.7504 26.3686 44.8325 23.8779 44.8325 20.6653C44.8325 17.4526 45.7504 14.8966 47.6499 13.1278C49.551 11.292 51.9111 10.4394 54.8607 10.4394C56.3682 10.4394 57.8104 10.7677 59.1873 11.4879C60.5641 12.2099 61.6127 13.1278 62.2676 14.4376V2.37595H65.4802ZM55.0584 13.3237C53.0249 13.3237 51.3868 13.9787 50.0753 15.2249C48.7654 16.4694 48.1088 18.2399 48.1088 20.5346C48.1088 22.7624 48.7654 24.5328 50.0753 25.7774C51.3868 27.0889 53.0919 27.6785 55.0584 27.6785C57.0902 27.6785 58.7283 27.0236 60.1052 25.6467C61.4167 24.3369 62.1369 22.5664 62.1369 20.4023C62.1369 18.3052 61.482 16.6017 60.1052 15.2902C58.663 14.044 57.0248 13.3237 55.0584 13.3237Z" fill="white"/>
<path d="M89.21 27.3519C88.2268 28.5311 86.9806 29.3836 85.4078 29.9732C83.8349 30.5628 82.2604 30.8911 80.6223 30.8911C77.542 30.8911 74.9859 29.9732 73.0848 28.0721C71.1837 26.171 70.2004 23.6803 70.2004 20.5346C70.2004 17.5196 71.1837 15.0942 73.0848 13.1278C74.9859 11.1596 77.4766 10.2434 80.4916 10.2434C83.7026 10.2434 86.2603 11.2266 88.1615 13.2584C90.0609 15.2902 90.7828 18.1092 90.4545 21.9115H73.6091C73.805 23.6803 74.527 25.1224 75.9021 26.2363C77.2137 27.3519 78.8518 27.8761 80.8199 27.8761C81.9991 27.8761 83.1783 27.6785 84.3592 27.2195C85.5384 26.7606 86.4563 26.171 87.1112 25.3854L89.21 27.3519ZM87.3089 19.1578C87.2436 17.2566 86.587 15.8145 85.4078 14.7659C84.2286 13.7174 82.5887 13.1931 80.6223 13.1931C78.8518 13.1931 77.279 13.7174 75.9691 14.7659C74.6576 15.8145 73.8704 17.2566 73.6091 19.0924L87.3089 19.1578Z" fill="white"/>
<path d="M112.742 27.3519C111.759 28.5311 110.513 29.3836 108.94 29.9732C107.367 30.5628 105.794 30.8911 104.154 30.8911C101.074 30.8911 98.518 29.9732 96.6169 28.0721C94.7158 26.171 93.7325 23.6803 93.7325 20.5346C93.7325 17.5196 94.7158 15.0942 96.6169 13.1278C98.518 11.1596 101.009 10.2434 104.024 10.2434C107.236 10.2434 109.792 11.2266 111.694 13.2584C113.595 15.2902 114.315 18.1092 113.988 21.9115H97.1412C97.3371 23.6803 98.0591 25.1224 99.4359 26.2363C100.746 27.3519 102.386 27.8761 104.352 27.8761C105.531 27.8761 106.712 27.6785 107.891 27.2195C109.071 26.7606 109.988 26.171 110.645 25.3854L112.742 27.3519ZM110.841 19.1578C110.776 17.2566 110.121 15.8145 108.94 14.7659C107.761 13.7174 106.121 13.1931 104.154 13.1931C102.386 13.1931 100.813 13.7174 99.5012 14.7659C98.1897 15.8145 97.4041 17.2566 97.1412 19.0924L110.841 19.1578Z" fill="white"/>
<path d="M118.511 10.7677H121.656L121.789 14.5683C122.574 13.2584 123.623 12.2099 125 11.4879C126.377 10.7677 127.819 10.3741 129.392 10.3741C132.276 10.4394 134.636 11.4226 136.472 13.2584C138.306 15.1595 139.224 17.5849 139.224 20.5999C139.224 23.6802 138.306 26.171 136.406 28.0721C134.505 29.9732 132.145 30.8911 129.13 30.8911C127.623 30.8911 126.181 30.5628 124.804 29.9079C123.427 29.253 122.378 28.2027 121.656 26.8929V39.8055H118.445V10.7677H118.511ZM134.046 25.9097C135.356 24.5981 136.013 22.8947 136.013 20.6652C136.013 18.5028 135.356 16.7324 134.046 15.4862C132.735 14.2416 131.097 13.585 128.998 13.585C126.901 13.585 125.263 14.2416 123.951 15.6185C122.64 16.9283 122.05 18.6335 122.05 20.7306C122.05 22.7624 122.705 24.4675 124.016 25.7773C125.328 27.1542 126.966 27.8108 128.998 27.8761C131.097 27.8761 132.735 27.2195 134.046 25.9097Z" fill="white"/>
<path d="M156.858 15.0942C155.416 13.7827 153.58 13.1931 151.285 13.1931C149.843 13.1931 148.664 13.3891 147.746 13.9133C146.828 14.4376 146.369 15.1595 146.369 16.0774C146.369 17.6503 148.075 18.6335 151.285 19.0271C152.203 19.1578 152.991 19.2231 153.58 19.3537C154.17 19.4861 154.892 19.682 155.743 19.945C156.595 20.2063 157.25 20.5346 157.774 20.9936C158.299 21.3855 158.692 21.9768 159.086 22.6317C159.48 23.352 159.61 24.1392 159.61 25.1224C159.61 27.0236 158.758 28.4657 157.185 29.5143C155.612 30.5628 153.646 31.0871 151.285 31.0871C147.353 31.0871 144.403 29.8426 142.436 27.3519L144.338 25.0571C145.976 27.0889 148.336 28.1374 151.416 28.1374C152.728 28.1374 153.907 27.8761 154.892 27.4172C155.875 26.9582 156.399 26.171 156.465 25.0571C156.465 24.0739 156.071 23.352 155.088 22.8947C154.105 22.4357 152.858 22.1074 151.09 21.9115C149.974 21.7791 148.991 21.5832 148.205 21.3855C147.418 21.1895 146.565 20.8612 145.78 20.4693C144.927 20.0757 144.338 19.4861 143.879 18.8295C143.42 18.1092 143.224 17.2566 143.224 16.2081C143.224 14.8966 143.616 13.7174 144.468 12.8648C145.321 11.9469 146.304 11.292 147.483 10.9637C148.664 10.57 149.909 10.4394 151.285 10.4394C154.366 10.4394 156.858 11.292 158.825 13.0608L156.858 15.0942Z" fill="white"/>
<path d="M165.773 13.1278C167.739 11.1596 170.164 10.2434 173.114 10.2434C176.129 10.2434 178.62 11.2266 180.521 13.1278C182.422 15.0272 183.405 17.5849 183.405 20.6653C183.405 23.6803 182.422 26.1057 180.521 28.0068C178.555 29.9079 176.129 30.8911 173.114 30.8911C170.164 30.8911 167.674 29.9079 165.773 28.0068C163.806 26.1057 162.888 23.6149 162.888 20.6653C162.888 17.5849 163.806 15.0942 165.773 13.1278ZM178.226 15.2902C176.916 13.9133 175.211 13.1931 173.179 13.1931C171.148 13.1931 169.443 13.848 168.133 15.2249C166.821 16.6017 166.166 18.3705 166.166 20.5346C166.166 22.6317 166.821 24.3369 168.133 25.6467C169.443 26.9582 171.148 27.6785 173.179 27.6785C175.211 27.6785 176.916 27.0236 178.226 25.6467C179.538 24.3369 180.26 22.5664 180.26 20.5346C180.193 18.4358 179.538 16.667 178.226 15.2902Z" fill="white"/>
<path d="M203.594 30.4975L203.463 27.3519C201.76 29.645 199.465 30.7605 196.581 30.8258C194.025 30.8258 191.926 29.9733 190.353 28.3351C188.78 26.6953 187.993 24.4675 187.993 21.5832V10.6354H191.271V21.5832C191.271 23.4843 191.795 24.9918 192.844 26.1057C193.894 27.2196 195.402 27.7455 197.236 27.7455C199.006 27.7455 200.514 27.0889 201.628 25.8444C202.743 24.5982 203.333 23.0907 203.333 21.2549V10.6354H206.611V30.4975H203.594Z" fill="white"/>
<path d="M215.721 10.6354L215.984 13.5851C217.163 11.4226 219.195 10.3088 222.079 10.3088C223.85 10.2434 225.357 10.7677 226.669 11.8163L225.161 14.6353C224.113 13.9134 222.997 13.5197 221.687 13.5197C220.048 13.5197 218.671 14.111 217.557 15.1596C216.443 16.2734 215.853 17.6503 215.853 19.4191V30.4322H212.575V10.6354H215.721Z" fill="white"/>
<path d="M245.678 27.8108C243.647 29.8426 241.154 30.8911 238.272 30.8911C235.322 30.8911 232.896 29.9732 230.863 28.1374C228.897 26.3033 227.913 23.8109 227.913 20.5999C227.913 17.3873 228.897 14.8965 230.863 13.0607C232.829 11.2266 235.322 10.3087 238.272 10.3087C241.024 10.3087 243.449 11.2919 245.481 13.2584L243.384 15.4208C242.007 14.111 240.369 13.389 238.337 13.389C236.305 13.389 234.6 14.044 233.288 15.3555C231.913 16.667 231.257 18.3705 231.257 20.5346C231.257 22.7623 231.913 24.5328 233.288 25.7773C234.665 27.0235 236.305 27.6785 238.337 27.6785C240.434 27.6785 242.139 26.9582 243.514 25.5814L245.678 27.8108Z" fill="white"/>
<path d="M267.179 27.3519C266.196 28.5311 264.949 29.3836 263.376 29.9732C261.804 30.5628 260.231 30.8911 258.591 30.8911C255.511 30.8911 252.955 29.9732 251.054 28.0721C249.152 26.171 248.169 23.6803 248.169 20.5346C248.169 17.5196 249.152 15.0942 251.054 13.1278C252.955 11.1596 255.445 10.2434 258.46 10.2434C261.673 10.2434 264.229 11.2266 266.13 13.2584C268.031 15.2902 268.752 18.1092 268.423 21.9115H251.578C251.774 23.6803 252.496 25.1224 253.873 26.2363C255.182 27.3519 256.822 27.8761 258.789 27.8761C259.968 27.8761 261.149 27.6785 262.328 27.2195C263.507 26.7606 264.425 26.171 265.082 25.3854L267.179 27.3519ZM265.278 19.1578C265.212 17.2566 264.557 15.8145 263.376 14.7659C262.197 13.7174 260.557 13.1931 258.591 13.1931C256.822 13.1931 255.248 13.7174 253.938 14.7659C252.626 15.8145 251.839 17.2566 251.578 19.0924L265.278 19.1578Z" fill="white"/>
</svg>
