<svg
  viewBox="0 0 30 14"
  fill="none"
  xmlns="http://www.w3.org/2000/svg"
>
  <path
    fill-rule="evenodd"
    clip-rule="evenodd"
    d="M29.6154 7.17343C29.6154 5.10242 28.6086 3.46826 26.6842 3.46826C24.7517 3.46826 23.5825 5.10242 23.5825 7.15725C23.5825 9.5923 24.9629 10.822 26.9441 10.822C27.9103 10.822 28.6411 10.6035 29.1932 10.2961V8.67814C28.6411 8.9532 28.0077 9.12309 27.2039 9.12309C26.4163 9.12309 25.718 8.84803 25.6287 7.89343H29.5992C29.5992 7.78826 29.6154 7.36758 29.6154 7.17343ZM25.6043 6.40489C25.6043 5.49073 26.1646 5.11051 26.6761 5.11051C27.1714 5.11051 27.6992 5.49073 27.6992 6.40489H25.6043Z"
    fill="white"
  />
  <path
    fill-rule="evenodd"
    clip-rule="evenodd"
    d="M20.4482 3.46826C19.6524 3.46826 19.1409 3.8404 18.8567 4.09927L18.7512 3.5977H16.9648V13.0305L18.9948 12.6017L19.0029 10.3123C19.2952 10.5226 19.7255 10.822 20.4401 10.822C21.8935 10.822 23.217 9.65702 23.217 7.09253C23.2089 4.74646 21.8691 3.46826 20.4482 3.46826ZM19.961 9.04219C19.4819 9.04219 19.1977 8.8723 19.0029 8.66197L18.9948 5.66062C19.2059 5.42601 19.4982 5.26422 19.961 5.26422C20.6999 5.26422 21.2114 6.08938 21.2114 7.14916C21.2114 8.2332 20.708 9.04219 19.961 9.04219Z"
    fill="white"
  />
  <path
    fill-rule="evenodd"
    clip-rule="evenodd"
    d="M14.1716 2.99121L16.2097 2.55436V0.912109L14.1716 1.34087V2.99121Z"
    fill="white"
  />
  <path d="M16.2097 3.60645H14.1716V10.6851H16.2097V3.60645Z" fill="white" />
  <path
    fill-rule="evenodd"
    clip-rule="evenodd"
    d="M11.9875 4.20473L11.8576 3.60608H10.1038V10.6847H12.1337V5.88743C12.6127 5.26451 13.4247 5.37777 13.6764 5.46676V3.60608C13.4166 3.509 12.4666 3.33103 11.9875 4.20473Z"
    fill="white"
  />
  <path
    fill-rule="evenodd"
    clip-rule="evenodd"
    d="M7.9278 1.85059L5.9466 2.27126L5.93848 8.75127C5.93848 9.94857 6.83976 10.8304 8.04148 10.8304C8.70729 10.8304 9.19447 10.709 9.46242 10.5634V8.92115C9.20259 9.02632 7.91968 9.39846 7.91968 8.20115V5.32924H9.46242V3.60609H7.91968L7.9278 1.85059Z"
    fill="white"
  />
  <path
    fill-rule="evenodd"
    clip-rule="evenodd"
    d="M2.4388 5.66062C2.4388 5.34512 2.69862 5.22377 3.12897 5.22377C3.74606 5.22377 4.52555 5.40984 5.14264 5.74152V3.8404C4.46871 3.57343 3.8029 3.46826 3.12897 3.46826C1.48068 3.46826 0.384521 4.32579 0.384521 5.7577C0.384521 7.99051 3.46999 7.63456 3.46999 8.59725C3.46999 8.96939 3.14521 9.09074 2.6905 9.09074C2.01657 9.09074 1.15589 8.81568 0.473838 8.44355V10.3689C1.22897 10.6925 1.99221 10.8301 2.6905 10.8301C4.37939 10.8301 5.5405 9.99681 5.5405 8.54871C5.53238 6.13793 2.4388 6.56669 2.4388 5.66062Z"
    fill="white"
  />
</svg>