<svg width="87" height="87" viewBox="0 0 87 87" fill="none" xmlns="http://www.w3.org/2000/svg">
<circle cx="43.5983" cy="43.3792" r="43.3792" fill="#23262E"/>
<mask id="mask0" mask-type="alpha" maskUnits="userSpaceOnUse" x="0" y="0" width="87" height="87">
<circle cx="43.4017" cy="43.3792" r="43.3792" fill="#23262E"/>
</mask>
<g mask="url(#mask0)">
<path d="M43.492 33.4077C40.087 31.2999 35.8717 26.1903 41.6941 23.8614C42.3026 23.618 45.7188 22.6337 45.771 23.9373C45.8366 25.5785 45.8816 26.115 44.1504 26.115C41.6899 26.115 38.1236 23.8313 38.0225 21" stroke="#33CB9A" stroke-width="2.01527" stroke-linecap="round" stroke-linejoin="round"/>
<mask id="mask1" mask-type="alpha" maskUnits="userSpaceOnUse" x="16" y="60" width="52" height="16">
<rect width="26.257" height="26.257" transform="matrix(0.957387 -0.288808 0.957387 0.288808 16.8985 68.3535)" fill="#C4C4C4"/>
</mask>
<g mask="url(#mask1)">
<rect x="42.0366" y="41.7769" width="74.2971" height="55.3038" fill="#CBB589"/>
<rect x="-32.2604" y="40.6592" width="74.2971" height="55.3038" fill="#B8A276"/>
</g>
<path d="M42.0366 75.8524L67.1747 68.3501V88.1423L42.0366 95.6445V75.8524Z" fill="#CEB88D"/>
<path d="M42.0366 75.8524L16.8985 68.3501V88.1423L42.0366 95.6445V75.8524Z" fill="#BEAA81"/>
<path d="M42.0366 75.8524L67.1747 68.3501L85.0506 73.8973L59.9125 81.3996L42.0366 75.8524Z" fill="#E6CD9D"/>
<path d="M42.0366 75.8524L16.8985 68.3501L-0.977528 73.8973L24.1606 81.3996L42.0366 75.8524Z" fill="#E6CD9D"/>
<path d="M42.0365 61.0494L67.1746 68.5518L79.4643 55.5023L54.3262 48.0001L42.0365 61.0494Z" fill="#E6CD9D"/>
<path d="M42.0365 61.0494L16.8984 68.5518L7.12247 55.7035L32.2606 48.2012L42.0365 61.0494Z" fill="#E6CD9D"/>
</g>
</svg>
