<svg xmlns="http://www.w3.org/2000/svg" fill="none" width="87" height="87" viewBox="0 0 87 87"><circle cx="43.598" cy="43.379" r="43.379" fill="#23262E"/><mask id="a" width="87" height="87" x="0" y="0" mask-type="alpha" maskUnits="userSpaceOnUse"><circle cx="43.402" cy="43.379" r="43.379" fill="#23262E"/></mask><g mask="url(#a)"><path stroke="#33CB9A" stroke-linecap="round" stroke-linejoin="round" stroke-width="2.015" d="M43.492 33.408c-3.405-2.108-7.62-7.218-1.798-9.547.609-.243 4.025-1.227 4.077.076.066 1.641.11 2.178-1.62 2.178-2.461 0-6.027-2.284-6.129-5.115"/><mask id="b" width="52" height="16" x="16" y="60" mask-type="alpha" maskUnits="userSpaceOnUse"><path fill="#C4C4C4" d="M0 0h26.257v26.257H0z" transform="scale(1.35395 .40844) rotate(-45 208.255 68.611)"/></mask><g mask="url(#b)"><path fill="#CBB589" d="M42.037 41.777h74.297v55.304H42.037z"/><path fill="#B8A276" d="M-32.26 40.659h74.297v55.304H-32.26z"/></g><path fill="#CEB88D" d="m42.037 75.852 25.138-7.502v19.792l-25.138 7.502V75.852Z"/><path fill="#BEAA81" d="M42.037 75.852 16.898 68.35v19.792l25.139 7.502V75.852Z"/><path fill="#E6CD9D" d="m42.037 75.852 25.138-7.502 17.876 5.547L59.912 81.4l-17.875-5.548Z"/><path fill="#E6CD9D" d="M42.037 75.852 16.898 68.35-.978 73.897 24.161 81.4l17.876-5.548Zm-.001-14.802 25.139 7.502 12.29-13.05L54.325 48l-12.29 13.05Z"/><path fill="#E6CD9D" d="m42.036 61.05-25.138 7.502-9.776-12.849 25.139-7.502 9.775 12.848Z"/></g></svg>