<svg width="87" height="87" viewBox="0 0 87 87" fill="none" xmlns="http://www.w3.org/2000/svg">
<circle cx="43.5983" cy="43.3792" r="43.3792" fill="#23262E"/>
<mask id="mask0" mask-type="alpha" maskUnits="userSpaceOnUse" x="0" y="0" width="87" height="87">
<circle cx="43.4017" cy="43.3792" r="43.3792" fill="#23262E"/>
</mask>
<g mask="url(#mask0)">
<g clip-path="url(#clip0)">
<rect x="13.0225" y="48.5" width="62" height="15.5" rx="2.21429" fill="white"/>
<rect x="19.2071" y="24.1426" width="8.30357" height="52.0357" transform="rotate(19.367 19.2071 24.1426)" fill="#F6D87C"/>
<rect x="27.0408" y="26.8962" width="8.30357" height="52.0357" transform="rotate(19.367 27.0408 26.8962)" fill="#121317"/>
<rect x="34.8745" y="29.6499" width="8.30357" height="52.0357" transform="rotate(19.367 34.8745 29.6499)" fill="#F6D87C"/>
<rect x="42.7082" y="32.4033" width="8.30357" height="52.0357" transform="rotate(19.367 42.7082 32.4033)" fill="#121317"/>
<rect x="50.5418" y="35.157" width="8.30357" height="52.0357" transform="rotate(19.367 50.5418 35.157)" fill="#F6D87C"/>
<rect x="58.3756" y="37.9106" width="8.30357" height="52.0357" transform="rotate(19.367 58.3756 37.9106)" fill="#121317"/>
<rect x="66.2094" y="40.6643" width="8.30357" height="52.0357" transform="rotate(19.367 66.2094 40.6643)" fill="#F6D87C"/>
<rect x="74.043" y="43.4177" width="8.30357" height="52.0357" transform="rotate(19.367 74.043 43.4177)" fill="#121317"/>
</g>
<rect x="22.4332" y="63.9998" width="7.75" height="26.6947" fill="#C4C4C4"/>
<rect x="22.4332" y="63.9998" width="3.32143" height="26.6947" fill="#76777B"/>
<rect x="57.8618" y="63.9998" width="7.75" height="24.1113" fill="#C4C4C4"/>
<rect x="57.8618" y="63.9998" width="3.32143" height="24.1113" fill="#76777B"/>
<path d="M33.0456 46.0965C33.3269 45.5339 33.902 45.1785 34.531 45.1785H53.514C54.143 45.1785 54.7181 45.5339 54.9994 46.0965L56.2011 48.4999H31.8439L33.0456 46.0965Z" fill="#C4C4C4"/>
<mask id="mask1" mask-type="alpha" maskUnits="userSpaceOnUse" x="35" y="33" width="18" height="13">
<path d="M35.7189 38.5357C35.7189 35.4784 38.1974 33 41.2546 33H46.7904C49.8477 33 52.3261 35.4784 52.3261 38.5357V45.1786H35.7189V38.5357Z" fill="#C4C4C4"/>
</mask>
<g mask="url(#mask1)">
<path d="M35.7189 38.5357C35.7189 35.4784 38.1974 33 41.2546 33H50.6654C53.7226 33 56.2011 35.4784 56.2011 38.5357V45.1786H35.7189V38.5357Z" fill="#DA5565"/>
<path d="M30.7367 38.5355C30.7367 35.4782 33.2151 32.9998 36.2724 32.9998H41.8081C44.8654 32.9998 47.3438 35.4782 47.3438 38.5355V45.1783H30.7367V38.5355Z" fill="#AC3947"/>
</g>
<path d="M32.7578 46.1803C32.9871 45.5076 33.619 45.0554 34.3296 45.0554H46.8265C47.5372 45.0554 48.1691 45.5076 48.3984 46.1803L49.1892 48.4999H31.967L32.7578 46.1803Z" fill="#76777B"/>
</g>
<path d="M44.124 23.5728C40.9481 21.6067 37.0164 16.841 42.4471 14.6687C43.0146 14.4417 46.201 13.5237 46.2496 14.7396C46.3108 16.2703 46.3528 16.7707 44.738 16.7707C42.4431 16.7707 39.1168 14.6407 39.0225 11.9999" stroke="#33CB9A" stroke-width="1.87967" stroke-linecap="round" stroke-linejoin="round"/>
<defs>
<clipPath id="clip0">
<rect x="13.0225" y="48.5" width="62" height="15.5" rx="2.21429" fill="white"/>
</clipPath>
</defs>
</svg>
