<svg xmlns="http://www.w3.org/2000/svg" fill="none" width="87" height="87" viewBox="0 0 87 87"><circle cx="43.598" cy="43.379" r="43.379" fill="#23262E"/><mask id="a" width="87" height="87" x="0" y="0" mask-type="alpha" maskUnits="userSpaceOnUse"><circle cx="43.402" cy="43.379" r="43.379" fill="#23262E"/></mask><g mask="url(#a)"><g clip-path="url(#b)"><rect width="62" height="15.5" x="13.023" y="48.5" fill="#fff" rx="2.214"/><path fill="#F6D87C" d="m19.207 24.143 7.834 2.754L9.785 75.988 1.95 73.234z"/><path fill="#121317" d="m27.041 26.896 7.834 2.754L17.62 78.74l-7.834-2.753z"/><path fill="#F6D87C" d="m34.874 29.65 7.834 2.754-17.256 49.091-7.834-2.754z"/><path fill="#121317" d="m42.708 32.403 7.834 2.754-17.256 49.091-7.834-2.754z"/><path fill="#F6D87C" d="m50.542 35.157 7.834 2.754L41.12 87.002l-7.834-2.753z"/><path fill="#121317" d="m58.376 37.911 7.834 2.754-17.256 49.091-7.834-2.753z"/><path fill="#F6D87C" d="m66.21 40.664 7.833 2.754-17.256 49.091-7.834-2.754z"/><path fill="#121317" d="m74.043 43.418 7.834 2.754-17.256 49.091-7.834-2.754z"/></g><path fill="#C4C4C4" d="M22.433 64h7.75v26.695h-7.75z"/><path fill="#76777B" d="M22.433 64h3.321v26.695h-3.321z"/><path fill="#C4C4C4" d="M57.862 64h7.75v24.111h-7.75z"/><path fill="#76777B" d="M57.862 64h3.321v24.111h-3.321z"/><path fill="#C4C4C4" d="M33.046 46.096a1.66 1.66 0 0 1 1.485-.917h18.983a1.66 1.66 0 0 1 1.485.917l1.202 2.404H31.844l1.202-2.404Z"/><mask id="c" width="18" height="13" x="35" y="33" mask-type="alpha" maskUnits="userSpaceOnUse"><path fill="#C4C4C4" d="M35.719 38.536A5.536 5.536 0 0 1 41.255 33h5.535a5.536 5.536 0 0 1 5.536 5.536v6.643H35.72v-6.643Z"/></mask><g mask="url(#c)"><path fill="#DA5565" d="M35.719 38.536A5.536 5.536 0 0 1 41.255 33h9.41a5.536 5.536 0 0 1 5.536 5.536v6.643H35.72v-6.643Z"/><path fill="#AC3947" d="M30.737 38.535A5.536 5.536 0 0 1 36.272 33h5.536a5.536 5.536 0 0 1 5.536 5.535v6.643H30.737v-6.642Z"/></g><path fill="#76777B" d="M32.758 46.18a1.66 1.66 0 0 1 1.572-1.125h12.497c.71 0 1.342.453 1.571 1.125l.791 2.32H31.967l.79-2.32Z"/></g><path stroke="#33CB9A" stroke-linecap="round" stroke-linejoin="round" stroke-width="1.88" d="M44.124 23.573c-3.176-1.966-7.108-6.732-1.677-8.904.568-.227 3.754-1.145 3.803.07.06 1.531.103 2.032-1.512 2.032-2.295 0-5.621-2.13-5.715-4.771"/><defs><clipPath id="b"><rect width="62" height="15.5" x="13.023" y="48.5" fill="#fff" rx="2.214"/></clipPath></defs></svg>