<svg xmlns="http://www.w3.org/2000/svg" fill="none" width="87" height="87" viewBox="0 0 87 87"><circle cx="43.598" cy="43.379" r="43.379" fill="#23262E"/><mask id="a" width="87" height="87" x="0" y="0" mask-type="alpha" maskUnits="userSpaceOnUse"><circle cx="43.402" cy="43.379" r="43.379" fill="#23262E"/></mask><g mask="url(#a)"><path fill="#D99E82" d="M58.5 55.479c0-4.558-4.435-8.267-10-8.479H55 39v.021c-5.565.212-10 3.921-10 8.479 0 1.861.747 3.576 2 4.976V73a4 4 0 0 0 4 4l17.5-.021c2.209 0 3.5-1.77 3.5-3.979V60c1.253-1.4 2.5-2.66 2.5-4.521Z"/><path fill="#CC927A" d="M48 60h8v2h-8v-2Z"/><path fill="#FFE8B6" d="M55 55.5c0-3.461-3.538-6.291-8-6.489-.165-.007-7.332-.011-7.5-.011-4.694 0-8.5 2.91-8.5 6.5 0 1.595.754 3.053 2 4.184V72a3 3 0 0 0 3 3h14a3 3 0 0 0 3-3V59.679c1.244-1.131 2-2.586 2-4.179Z"/><rect width="56.842" height="34.105" x="12.023" y="64.929" fill="#55565B" rx="3.59"/><rect width="56.842" height="29.318" x="12.023" y="64.929" fill="#939498" rx="3.59"/><rect width="56.842" height="24.532" x="12.023" y="69.715" fill="#76777B" rx="1.197"/><rect width="43.678" height="34.105" x="25.186" y="64.929" fill="#C4C4C4" rx="3.59"/><path fill="#C4C4C4" d="m68.042 58.773 1.634.743-3.467 7.626-1.634-.743z"/><mask id="b" width="11" height="11" x="65" y="51" mask-type="alpha" maskUnits="userSpaceOnUse"><circle cx="70.221" cy="56.148" r="5.086" fill="#33CB9A" transform="rotate(24.448 70.221 56.148)"/></mask><g mask="url(#b)"><circle cx="70.221" cy="56.148" r="5.086" fill="#DA5565" transform="rotate(24.448 70.221 56.148)"/><circle cx="67.349" cy="54.514" r="4.787" fill="#B0414F" transform="rotate(24.448 67.35 54.514)"/></g></g><path stroke="#EEE" stroke-linecap="round" stroke-width="3.961" d="M21.76 29.75c1.653-1.94 3.974-2.816 6.476-3.052 1.593-.151.512.976-.002 2.07-.608 1.298-1.805 3.188-1.67 4.619-.328.18-.473 1.959-.418 2.873.08 1.324.28 1.37 1.427.753 5.445-2.934 4.333-2.392 8.902-4.564"/><path stroke="#EEE" stroke-linecap="round" stroke-width="3.045" d="M40.635 23.682c1.622-1.098 3.522-1.272 5.424-.935 1.211.215.179.828-.426 1.534-.716.836-1.99 1.992-2.183 3.08-.28.065-.752 1.354-.9 2.043-.211.997-.072 1.072.904.85 4.635-1.058 3.7-.884 7.53-1.558"/><path stroke="#EEE" stroke-linecap="round" stroke-width="2.351" d="M57.482 23.886c1.508-.11 2.847.504 3.99 1.462.728.61-.199.623-.875.863-.802.284-2.1.567-2.647 1.22-.213-.063-1.025.618-1.388 1.022-.526.586-.462.69.277.916 3.51 1.077 2.817.833 5.64 1.857"/></svg>